<?xml version="1.0" encoding="UTF-8" standalone="no"?>
<svg
   width="617pt"
   height="24pt"
   viewBox="0 0 617 24"
   version="1.1"
   id="svg56"
   xmlns:xlink="http://www.w3.org/1999/xlink"
   xmlns="http://www.w3.org/2000/svg"
   xmlns:svg="http://www.w3.org/2000/svg">
  <defs
     id="defs2">
    <clipPath
       id="clip-0">
      <path
         clip-rule="nonzero"
         d="M 0,0 H 617 V 24 H 0 Z m 0,0"
         id="path1" />
    </clipPath>
    <clipPath
       id="clip-1">
      <rect
         x="0"
         y="0"
         width="617"
         height="24"
         id="rect1" />
    </clipPath>
    <g
       id="source-305963"
       clip-path="url(#clip-1)">
      <g
         clip-path="url(#clip-0)"
         id="g2">
        <path
           fill="none"
           stroke-width="1.01688"
           stroke-linecap="butt"
           stroke-linejoin="miter"
           stroke="#cccccc"
           stroke-opacity="0.8"
           stroke-miterlimit="10"
           d="M 2.947511,-23.492188 H 623.65057 c 1.63045,0 2.4437,0.816407 2.4437,2.445313 v 18.09375 c 0,1.628906 -0.81325,2.445313 -2.4437,2.445313 H 2.947511 c -1.630453,0 -2.43973,-0.816407 -2.43973,-2.445313 v -18.09375 c 0,-1.628906 0.809277,-2.445313 2.43973,-2.445313 z m 0,0"
           transform="scale(0.984676,-1)"
           id="path2" />
      </g>
    </g>
  </defs>
  <path
     fill-rule="nonzero"
     fill="#ffffff"
     fill-opacity="0.8"
     d="M 2.902344,23.492188 H 614.09375 c 1.60547,0 2.40625,-0.816407 2.40625,-2.445313 V 2.953125 c 0,-1.628906 -0.80078,-2.445313 -2.40625,-2.445313 H 2.902344 C 1.296875,0.507812 0.5,1.324219 0.5,2.953125 v 18.09375 c 0,1.628906 0.796875,2.445313 2.402344,2.445313 z m 0,0"
     id="path3" />
  <use
     xlink:href="#source-305963"
     id="use3" />
  <path
     fill="none"
     stroke-width="2.01812"
     stroke-linecap="round"
     stroke-linejoin="round"
     stroke="#d65f5f"
     stroke-opacity="1"
     stroke-miterlimit="10"
     d="M 5.3046879,11.289062 H 29.335937"
     id="path4" />
  <path
     fill-rule="nonzero"
     fill="#ffffff"
     fill-opacity="1"
     stroke-width="1.68177"
     stroke-linecap="butt"
     stroke-linejoin="round"
     stroke="#d65f5f"
     stroke-opacity="1"
     stroke-miterlimit="10"
     d="m 17.320313,14.339844 c 0.796875,0 1.558593,-0.320313 2.121094,-0.894532 0.566406,-0.570312 0.882812,-1.351562 0.882812,-2.15625 0,-0.808593 -0.316406,-1.585937 -0.882812,-2.15625 -0.562501,-0.574218 -1.324219,-0.894531 -2.121094,-0.894531 -0.796876,0 -1.562501,0.320313 -2.125001,0.894531 -0.5625,0.570313 -0.878906,1.347657 -0.878906,2.15625 0,0.804688 0.316406,1.585938 0.878906,2.15625 0.5625,0.574219 1.328125,0.894532 2.125001,0.894532 z m 0,0"
     id="path5" />
  <path
     fill-rule="nonzero"
     fill="#262626"
     fill-opacity="1"
     d="M 40.980469,5.777344 H 46 l -0.191406,1.007812 h -3.84375 l -0.503906,2.625 h 3.472656 l -0.191406,1.011719 h -3.472657 l -0.820312,4.246094 h -1.175781 z m 0,0"
     id="path6" />
  <path
     fill-rule="nonzero"
     fill="#262626"
     fill-opacity="1"
     d="m 52.3125,10.863281 -0.734375,3.804688 H 50.5 l 0.203125,-1.011719 c -0.324219,0.402344 -0.683594,0.695312 -1.097656,0.890625 -0.40625,0.183594 -0.851563,0.28125 -1.34375,0.28125 -0.5625,0 -1.019531,-0.171875 -1.378907,-0.511719 -0.363281,-0.34375 -0.53125,-0.78125 -0.53125,-1.332031 0,-0.78125 0.300782,-1.390625 0.914063,-1.84375 0.613281,-0.449219 1.453125,-0.683594 2.535156,-0.683594 h 1.503907 l 0.05859,-0.292969 c 0,-0.02344 0.01172,-0.05859 0.01172,-0.09375 0,-0.03516 0.01172,-0.101562 0.01172,-0.183593 0,-0.351563 -0.144531,-0.636719 -0.429688,-0.832031 -0.289062,-0.191407 -0.6875,-0.292969 -1.195312,-0.292969 -0.359375,0 -0.71875,0.046875 -1.078125,0.148437 C 48.3125,9.007812 47.925781,9.140625 47.542969,9.3125 l 0.191406,-1.015625 c 0.410156,-0.140625 0.804687,-0.265625 1.1875,-0.339844 0.386719,-0.070312 0.769531,-0.121093 1.132813,-0.121093 0.769531,0 1.355468,0.171874 1.765624,0.511718 0.40625,0.34375 0.609376,0.84375 0.609376,1.488282 0,0.132812 -0.01172,0.292968 -0.03516,0.464843 -0.02344,0.183594 -0.04687,0.363281 -0.08203,0.5625 z M 51.148438,11.3125 h -1.082032 c -0.890625,0 -1.539062,0.125 -1.960937,0.367188 -0.429688,0.246093 -0.632813,0.609374 -0.632813,1.109374 0,0.355469 0.105469,0.636719 0.324219,0.832032 0.214844,0.195312 0.515625,0.292968 0.898437,0.292968 0.574219,0 1.09375,-0.210937 1.527344,-0.636718 0.433594,-0.425782 0.734375,-1 0.875,-1.71875 z m 0,0"
     id="path7" />
  <path
     fill-rule="nonzero"
     fill="#262626"
     fill-opacity="1"
     d="m 55.421875,5.394531 h 1.082031 l -0.265625,1.390625 h -1.078125 z m -0.492187,2.601563 h 1.082031 l -1.285157,6.671875 h -1.082031 z m 0,0"
     id="path8" />
  <path
     fill-rule="nonzero"
     fill="#262626"
     fill-opacity="1"
     d="M 61.921875,9.007812 C 61.796875,8.957031 61.679688,8.910156 61.535156,8.875 61.390625,8.851562 61.246094,8.828125 61.089844,8.828125 c -0.574219,0 -1.078125,0.226563 -1.511719,0.664063 -0.433594,0.441406 -0.707031,1.042968 -0.855469,1.773437 L 58.0625,14.667969 h -1.078125 l 1.28125,-6.671875 h 1.085937 L 59.144531,9.03125 c 0.277344,-0.375 0.613281,-0.667969 1.023438,-0.875 0.394531,-0.210938 0.8125,-0.320312 1.269531,-0.320312 0.109375,0 0.21875,0.011718 0.335938,0.023437 0.125,0.011719 0.234374,0.039063 0.351562,0.0625 z m 0,0"
     id="path9" />
  <path
     fill-rule="nonzero"
     fill="#262626"
     fill-opacity="1"
     d="m 64.527344,6.761719 -0.597656,3.160156 h 1.527343 c 0.597657,0 1.078125,-0.160156 1.449219,-0.5 0.363281,-0.339844 0.554688,-0.78125 0.554688,-1.320313 0,-0.421874 -0.132813,-0.753906 -0.375,-0.988281 -0.25,-0.230469 -0.609376,-0.351562 -1.066407,-0.351562 z m 2.175781,3.636719 c 0.242187,0.05859 0.457031,0.207031 0.625,0.4375 0.167969,0.246093 0.359375,0.710937 0.578125,1.40625 l 0.746094,2.425781 H 67.398438 L 66.714844,12.390625 C 66.535156,11.800781 66.332031,11.414062 66.105469,11.21875 65.863281,11.019531 65.515625,10.910156 65.046875,10.910156 h -1.3125 l -0.71875,3.757813 H 61.824219 L 63.53125,5.777344 h 2.667969 c 0.804687,0 1.429687,0.191406 1.863281,0.558594 0.433594,0.363281 0.648438,0.902343 0.648438,1.597656 0,0.621094 -0.191407,1.160156 -0.550782,1.613281 -0.375,0.460937 -0.855468,0.742187 -1.457031,0.851563 z m 0,0"
     id="path10" />
  <path
     fill-rule="nonzero"
     fill="#262626"
     fill-opacity="1"
     d="m 74.269531,5.777344 h 1.351563 l 1.617187,8.890625 h -1.234375 l -0.359375,-2.277344 h -3.945312 l -1.234375,2.277344 h -1.242188 z m 0.433594,1.179687 -2.464844,4.429688 h 3.226563 z m 0,0"
     id="path11" />
  <path
     fill-rule="nonzero"
     fill="#262626"
     fill-opacity="1"
     d="M 81.097656,6.761719 80.5,9.921875 h 1.523438 c 0.597656,0 1.082031,-0.160156 1.453124,-0.5 0.363282,-0.339844 0.554688,-0.78125 0.554688,-1.320313 0,-0.421874 -0.132812,-0.753906 -0.375,-0.988281 -0.25,-0.230469 -0.609375,-0.351562 -1.070312,-0.351562 z m 2.175782,3.636719 c 0.242187,0.05859 0.457031,0.207031 0.625,0.4375 0.167968,0.246093 0.359374,0.710937 0.574218,1.40625 l 0.746094,2.425781 h -1.25 L 83.285156,12.390625 C 83.105469,11.800781 82.898438,11.414062 82.671875,11.21875 82.429688,11.019531 82.082031,10.910156 81.613281,10.910156 h -1.308593 l -0.722657,3.757813 h -1.1875 l 1.707031,-8.890625 h 2.664063 c 0.808594,0 1.433594,0.191406 1.863281,0.558594 0.433594,0.363281 0.648438,0.902343 0.648438,1.597656 0,0.621094 -0.191406,1.160156 -0.550782,1.613281 -0.371093,0.460937 -0.851562,0.742187 -1.453124,0.851563 z m 0,0"
     id="path12" />
  <path
     fill-rule="nonzero"
     fill="#262626"
     fill-opacity="1"
     d="m 88.449219,5.777344 h 1.1875 l -1.703125,8.890625 h -1.191406 z m 0,0"
     id="path13" />
  <path
     fill="none"
     stroke-width="1.51359"
     stroke-linecap="round"
     stroke-linejoin="round"
     stroke="#89bedd"
     stroke-opacity="1"
     stroke-miterlimit="10"
     d="m 114.04688,11.289062 h 24.03124"
     id="path14" />
  <path
     fill-rule="nonzero"
     fill="#ffffff"
     fill-opacity="1"
     stroke-width="1.26132"
     stroke-linecap="butt"
     stroke-linejoin="miter"
     stroke="#89bedd"
     stroke-opacity="1"
     stroke-miterlimit="10"
     d="m 123.05859,8.238281 h 6.00782 v 6.101563 h -6.00782 z m 0,0"
     id="path15" />
  <path
     fill-rule="nonzero"
     fill="#262626"
     fill-opacity="1"
     d="m 149.71875,6.570312 h 5.02344 l -0.19141,1.007813 h -3.84375 l -0.50781,2.625 h 3.47656 l -0.19141,1.015625 h -3.47656 l -0.8164,4.246094 h -1.17579 z m 0,0"
     id="path16" />
  <path
     fill-rule="nonzero"
     fill="#262626"
     fill-opacity="1"
     d="m 161.84375,6.859375 -0.22656,1.171875 c -0.39453,-0.207031 -0.79297,-0.363281 -1.17578,-0.476562 -0.38282,-0.105469 -0.76954,-0.171876 -1.13282,-0.171876 -0.70703,0 -1.26953,0.160157 -1.6914,0.476563 -0.41797,0.320313 -0.625,0.734375 -0.625,1.246094 0,0.292969 0.0742,0.515625 0.23047,0.65625 0.15625,0.160156 0.55078,0.320312 1.19921,0.492187 l 0.70704,0.179688 c 0.79687,0.222656 1.35937,0.488281 1.67187,0.808594 0.3125,0.316406 0.46875,0.769531 0.46875,1.355468 0,0.898438 -0.34766,1.621094 -1.04297,2.183594 -0.69531,0.558594 -1.61328,0.839844 -2.74219,0.839844 -0.46875,0 -0.93359,-0.04687 -1.40625,-0.132813 -0.46875,-0.08594 -0.9375,-0.21875 -1.40625,-0.414062 l 0.24219,-1.246094 c 0.42969,0.28125 0.86328,0.488281 1.29688,0.621094 0.43359,0.148437 0.8789,0.207031 1.30859,0.207031 0.73438,0 1.32031,-0.15625 1.77734,-0.5 0.44922,-0.328125 0.67579,-0.765625 0.67579,-1.300781 0,-0.355469 -0.0937,-0.625 -0.27344,-0.808594 -0.1836,-0.183594 -0.57031,-0.351563 -1.14453,-0.511719 l -0.71094,-0.183594 c -0.8125,-0.207031 -1.36719,-0.453124 -1.65625,-0.734374 -0.30078,-0.277344 -0.44531,-0.671876 -0.44531,-1.183594 0,-0.878906 0.33593,-1.609375 1.01172,-2.167969 0.67187,-0.566406 1.53515,-0.855469 2.61718,-0.855469 0.41016,0 0.83203,0.035156 1.23828,0.109375 0.40625,0.074219 0.82813,0.195313 1.23438,0.339844 z m 0,0"
     id="path17" />
  <path
     fill-rule="nonzero"
     fill="#262626"
     fill-opacity="1"
     d="M 164.25781,6.570312 H 167 c 0.78906,0 1.40234,0.195313 1.82812,0.570313 0.40625,0.378906 0.6211,0.925781 0.6211,1.648437 0,0.972657 -0.3125,1.746094 -0.92188,2.28125 -0.6289,0.546876 -1.49218,0.820313 -2.60937,0.820313 h -1.49219 l -0.68359,3.574219 h -1.1875 z m 0.9961,0.984376 -0.63672,3.34375 h 1.49218 c 0.67188,0 1.1875,-0.167969 1.55079,-0.523438 0.35937,-0.339844 0.53906,-0.839844 0.53906,-1.5 0,-0.414062 -0.13281,-0.730469 -0.3711,-0.964844 -0.24218,-0.230468 -0.58984,-0.355468 -1.02343,-0.355468 z m 0,0"
     id="path18" />
  <path
     fill-rule="nonzero"
     fill="#262626"
     fill-opacity="1"
     d="m 172.5,7.554688 -0.59766,3.164062 h 1.52735 c 0.59765,0 1.07812,-0.160156 1.44922,-0.503906 0.36328,-0.339844 0.55468,-0.78125 0.55468,-1.316406 0,-0.425782 -0.13281,-0.753907 -0.375,-0.988282 -0.25,-0.230468 -0.60937,-0.355468 -1.0664,-0.355468 z m 2.17578,3.640624 c 0.24219,0.05859 0.45703,0.203126 0.625,0.433594 0.16797,0.246094 0.35938,0.710938 0.57422,1.40625 l 0.75,2.429688 h -1.25391 l -0.68359,-2.28125 c -0.17969,-0.585938 -0.38281,-0.976563 -0.60938,-1.171875 -0.24218,-0.199219 -0.58984,-0.304688 -1.05859,-0.304688 h -1.3125 l -0.71875,3.757813 h -1.19141 l 1.70704,-8.894532 h 2.66796 c 0.80469,0 1.42969,0.195313 1.86329,0.558594 0.43359,0.367188 0.64843,0.902344 0.64843,1.597656 0,0.625 -0.1914,1.160157 -0.55078,1.613282 -0.375,0.460937 -0.85547,0.742187 -1.45703,0.855468 z m 0,0"
     id="path19" />
  <path
     fill="none"
     stroke-width="1.51359"
     stroke-linecap="round"
     stroke-linejoin="round"
     stroke="#539ecd"
     stroke-opacity="1"
     stroke-miterlimit="10"
     d="m 202.76171,11.289062 h 24.03126"
     id="path20" />
  <path
     fill-rule="nonzero"
     fill="#ffffff"
     fill-opacity="1"
     stroke-width="1.26132"
     stroke-linecap="butt"
     stroke-linejoin="miter"
     stroke="#539ecd"
     stroke-opacity="1"
     stroke-miterlimit="10"
     d="m 214.77734,8.238281 -2.85937,2.105469 1.09375,3.410156 h 3.53124 l 1.08985,-3.410156 z m 0,0"
     id="path21" />
  <path
     fill-rule="nonzero"
     fill="#262626"
     fill-opacity="1"
     d="m 238.42187,6.410156 h 1.19141 l -1.50391,7.894532 h 4.26954 l -0.19141,1 h -5.45703 z m 0,0"
     id="path22" />
  <path
     fill-rule="nonzero"
     fill="#262626"
     fill-opacity="1"
     d="m 245.12891,6.410156 h 5.02343 l -0.1914,1.011719 h -3.84766 l -0.50391,2.625 h 3.47266 l -0.19141,1.011719 h -3.47265 l -0.81641,4.246094 h -1.17578 z m 0,0"
     id="path23" />
  <path
     fill-rule="nonzero"
     fill="#262626"
     fill-opacity="1"
     d="m 252.03906,6.410156 h 2.74219 c 0.79297,0 1.40625,0.195313 1.82812,0.574219 0.40625,0.375 0.6211,0.925781 0.6211,1.648437 0,0.972657 -0.3125,1.742188 -0.92188,2.277344 -0.625,0.550782 -1.49218,0.820313 -2.60937,0.820313 h -1.49219 l -0.68359,3.574219 h -1.1875 z m 1,0.984375 -0.64062,3.347657 h 1.49218 c 0.67188,0 1.1875,-0.171876 1.55469,-0.527344 0.35938,-0.339844 0.53906,-0.839844 0.53906,-1.5 0,-0.414063 -0.13281,-0.730469 -0.37109,-0.964844 -0.24609,-0.230469 -0.59375,-0.355469 -1.02734,-0.355469 z m 0,0"
     id="path24" />
  <path
     fill-rule="nonzero"
     fill="#262626"
     fill-opacity="1"
     d="m 260.28516,7.394531 -0.60157,3.164063 h 1.52735 c 0.59765,0 1.07812,-0.160156 1.44922,-0.5 0.36718,-0.34375 0.55859,-0.785156 0.55859,-1.320313 0,-0.425781 -0.13281,-0.753906 -0.37891,-0.988281 -0.25,-0.230469 -0.60937,-0.355469 -1.0664,-0.355469 z m 2.17187,3.640625 c 0.24219,0.05859 0.45703,0.207032 0.62891,0.4375 0.16797,0.246094 0.35937,0.710938 0.57422,1.40625 l 0.74609,2.425782 h -1.25 l -0.6875,-2.28125 c -0.17969,-0.585938 -0.38281,-0.976563 -0.60938,-1.171876 -0.24218,-0.195312 -0.58984,-0.304687 -1.05859,-0.304687 h -1.3125 l -0.71875,3.757813 h -1.1875 l 1.70313,-8.894532 h 2.66796 c 0.80469,0 1.4336,0.195313 1.86329,0.5625 0.43359,0.363282 0.64843,0.898438 0.64843,1.59375 0,0.625 -0.1914,1.160156 -0.55078,1.613282 -0.37109,0.460937 -0.85156,0.742187 -1.45703,0.855468 z m 0,0"
     id="path25" />
  <path
     fill-rule="nonzero"
     fill="#262626"
     fill-opacity="1"
     d="m 267.02344,11.078125 h 1.12109 l 1.69141,5.339844 1.02734,-5.339844 h 0.80469 l -1.19531,6.230469 h -1.11719 l -1.6875,-5.375 -1.03125,5.375 h -0.80469 z m 0,0"
     id="path26" />
  <path
     fill="none"
     stroke-width="1.51359"
     stroke-linecap="round"
     stroke-linejoin="round"
     stroke="#2a7bba"
     stroke-opacity="1"
     stroke-miterlimit="10"
     d="m 296.48438,11.289062 h 24.02734"
     id="path27" />
  <path
     fill-rule="nonzero"
     fill="#ffffff"
     fill-opacity="1"
     stroke-width="1.26132"
     stroke-linecap="butt"
     stroke-linejoin="miter"
     stroke="#2a7bba"
     stroke-opacity="1"
     stroke-miterlimit="10"
     d="m 308.4961,8.238281 -3.00392,6.101563 H 311.5 Z m 0,0"
     id="path28" />
  <path
     fill-rule="nonzero"
     fill="#262626"
     fill-opacity="1"
     d="m 332.14453,6.410156 h 1.1875 l -1.5,7.894532 h 4.26563 l -0.19141,1 h -5.45313 z m 0,0"
     id="path29" />
  <path
     fill-rule="nonzero"
     fill="#262626"
     fill-opacity="1"
     d="m 338.85156,6.410156 h 5.01953 l -0.1914,1.011719 h -3.84375 l -0.50391,2.625 h 3.47266 l -0.19141,1.011719 h -3.47266 l -0.8164,4.246094 h -1.17969 z m 0,0"
     id="path30" />
  <path
     fill-rule="nonzero"
     fill="#262626"
     fill-opacity="1"
     d="m 345.76172,6.410156 h 2.74219 c 0.78906,0 1.40234,0.195313 1.82812,0.574219 0.40625,0.375 0.62109,0.925781 0.62109,1.648437 0,0.972657 -0.3125,1.742188 -0.92187,2.277344 -0.62891,0.550782 -1.49219,0.820313 -2.60938,0.820313 h -1.49218 l -0.6836,3.574219 h -1.1875 z m 0.99609,0.984375 -0.63672,3.347657 h 1.49219 c 0.67188,0 1.1875,-0.171876 1.55078,-0.527344 0.35938,-0.339844 0.53906,-0.839844 0.53906,-1.5 0,-0.414063 -0.13281,-0.730469 -0.37109,-0.964844 -0.24219,-0.230469 -0.58984,-0.355469 -1.02344,-0.355469 z m 0,0"
     id="path31" />
  <path
     fill-rule="nonzero"
     fill="#262626"
     fill-opacity="1"
     d="m 354.00391,7.394531 -0.59766,3.164063 h 1.52734 c 0.59766,0 1.07813,-0.160156 1.44922,-0.5 0.36328,-0.34375 0.55469,-0.785156 0.55469,-1.320313 0,-0.425781 -0.13281,-0.753906 -0.375,-0.988281 -0.25,-0.230469 -0.60938,-0.355469 -1.06641,-0.355469 z m 2.17578,3.640625 c 0.24218,0.05859 0.45703,0.207032 0.625,0.4375 0.16797,0.246094 0.35937,0.710938 0.57422,1.40625 l 0.75,2.425782 H 356.875 l -0.68359,-2.28125 c -0.17969,-0.585938 -0.38282,-0.976563 -0.60938,-1.171876 -0.24219,-0.195312 -0.58984,-0.304687 -1.05859,-0.304687 h -1.3125 l -0.71875,3.757813 h -1.19141 l 1.70703,-8.894532 h 2.66797 c 0.80469,0 1.42969,0.195313 1.86328,0.5625 0.4336,0.363282 0.64844,0.898438 0.64844,1.59375 0,0.625 -0.19141,1.160156 -0.55078,1.613282 -0.375,0.460937 -0.85547,0.742187 -1.45703,0.855468 z m 0,0"
     id="path32" />
  <path
     fill-rule="nonzero"
     fill="#262626"
     fill-opacity="1"
     d="m 360.62891,11.078125 h 0.83203 l -0.72266,3.785156 c -0.0312,0.171875 -0.0508,0.320313 -0.0664,0.417969 -0.0156,0.109375 -0.0156,0.207031 -0.0156,0.289062 0,0.386719 0.10156,0.675782 0.30859,0.875 0.21094,0.203126 0.52344,0.296876 0.9336,0.296876 0.52343,0 0.9375,-0.140626 1.23047,-0.4375 0.29296,-0.289063 0.5039,-0.773438 0.63671,-1.441407 l 0.72266,-3.785156 h 0.83594 l -0.74219,3.890625 c -0.16797,0.84375 -0.46875,1.46875 -0.92578,1.863281 -0.45313,0.386719 -1.06641,0.585938 -1.85156,0.585938 -0.61328,0 -1.09766,-0.15625 -1.45313,-0.460938 -0.35937,-0.308593 -0.53515,-0.734375 -0.53515,-1.273437 0,-0.09375 0,-0.203125 0.0156,-0.324219 0.0156,-0.117187 0.0352,-0.257813 0.0664,-0.390625 z m 0,0"
     id="path33" />
  <path
     fill="none"
     stroke-width="1.51359"
     stroke-linecap="round"
     stroke-linejoin="round"
     stroke="#0b559f"
     stroke-opacity="1"
     stroke-miterlimit="10"
     d="m 390.20703,11.289062 h 24.03126"
     id="path34" />
  <path
     fill-rule="nonzero"
     fill="#ffffff"
     fill-opacity="1"
     stroke-width="1.26132"
     stroke-linecap="butt"
     stroke-linejoin="miter"
     stroke="#0b559f"
     stroke-opacity="1"
     stroke-miterlimit="10"
     d="m 399.21875,11.289062 6.00781,3.050782 V 8.238281 Z m 0,0"
     id="path35" />
  <path
     fill-rule="nonzero"
     fill="#262626"
     fill-opacity="1"
     d="m 425.86719,6.410156 h 1.1875 l -1.5,7.894532 h 4.26562 l -0.1914,1 h -5.45704 z m 0,0"
     id="path36" />
  <path
     fill-rule="nonzero"
     fill="#262626"
     fill-opacity="1"
     d="m 432.57422,6.410156 h 5.01953 l -0.19141,1.011719 h -3.84375 l -0.5039,2.625 h 3.47265 l -0.1914,1.011719 h -3.47266 l -0.82031,4.246094 h -1.17578 z m 0,0"
     id="path37" />
  <path
     fill-rule="nonzero"
     fill="#262626"
     fill-opacity="1"
     d="m 439.48437,6.410156 h 2.74219 c 0.78906,0 1.40235,0.195313 1.82422,0.574219 0.41016,0.375 0.625,0.925781 0.625,1.648437 0,0.972657 -0.31641,1.742188 -0.92578,2.277344 -0.625,0.550782 -1.48828,0.820313 -2.60938,0.820313 h -1.48828 l -0.68359,3.574219 h -1.19141 z m 0.9961,0.984375 -0.63672,3.347657 h 1.48828 c 0.67578,0 1.19141,-0.171876 1.55469,-0.527344 0.35937,-0.339844 0.53906,-0.839844 0.53906,-1.5 0,-0.414063 -0.13281,-0.730469 -0.37109,-0.964844 -0.24219,-0.230469 -0.58985,-0.355469 -1.02344,-0.355469 z m 0,0"
     id="path38" />
  <path
     fill-rule="nonzero"
     fill="#262626"
     fill-opacity="1"
     d="m 447.72656,7.394531 -0.59765,3.164063 h 1.52343 c 0.60157,0 1.08203,-0.160156 1.45313,-0.5 0.36328,-0.34375 0.55469,-0.785156 0.55469,-1.320313 0,-0.425781 -0.13282,-0.753906 -0.375,-0.988281 -0.25,-0.230469 -0.60938,-0.355469 -1.06641,-0.355469 z m 2.17578,3.640625 c 0.24219,0.05859 0.45703,0.207032 0.625,0.4375 0.16797,0.246094 0.35938,0.710938 0.57422,1.40625 l 0.7461,2.425782 h -1.25 l -0.6836,-2.28125 c -0.17969,-0.585938 -0.38281,-0.976563 -0.60937,-1.171876 -0.24219,-0.195312 -0.59375,-0.304687 -1.0625,-0.304687 h -1.3086 l -0.71875,3.757813 h -1.1914 l 1.70703,-8.894532 h 2.66797 c 0.80468,0 1.42968,0.195313 1.85937,0.5625 0.4336,0.363282 0.64844,0.898438 0.64844,1.59375 0,0.625 -0.19141,1.160156 -0.55078,1.613282 -0.3711,0.460937 -0.85156,0.742187 -1.45313,0.855468 z m 0,0"
     id="path39" />
  <path
     fill-rule="nonzero"
     fill="#262626"
     fill-opacity="1"
     d="m 454.46875,11.078125 h 1.91797 c 0.55859,0 0.98437,0.140625 1.28125,0.402344 0.28515,0.265625 0.43359,0.652343 0.43359,1.15625 0,0.683593 -0.21875,1.21875 -0.64453,1.59375 -0.4375,0.386719 -1.04687,0.574219 -1.82812,0.574219 h -1.03907 l -0.48047,2.503906 h -0.83593 z m 0.69922,0.695313 -0.44531,2.339843 h 1.04296 c 0.46875,0 0.83204,-0.121093 1.08594,-0.371093 0.25,-0.238282 0.37891,-0.585938 0.37891,-1.046876 0,-0.289062 -0.0937,-0.511718 -0.26172,-0.675781 -0.16797,-0.164062 -0.41016,-0.246093 -0.71875,-0.246093 z m 0,0"
     id="path40" />
  <path
     fill="none"
     stroke-width="1.51359"
     stroke-linecap="butt"
     stroke-linejoin="round"
     stroke="#191919"
     stroke-opacity="1"
     stroke-dasharray="5.64369, 2.44052"
     stroke-miterlimit="10"
     d="m 482.92188,11.289062 h 24.03124"
     id="path41" />
  <path
     fill-rule="nonzero"
     fill="#262626"
     fill-opacity="1"
     d="m 518.59766,5.777344 h 2.74218 c 0.78907,0 1.40625,0.191406 1.82813,0.570312 0.40625,0.378906 0.62109,0.925782 0.62109,1.648438 0,0.972656 -0.3125,1.742187 -0.92187,2.28125 -0.62891,0.546875 -1.49219,0.816406 -2.60938,0.816406 h -1.49219 l -0.68359,3.574219 h -1.1875 z m 1,0.984375 -0.64063,3.34375 h 1.49219 c 0.67187,0 1.1875,-0.171875 1.55078,-0.523438 0.35937,-0.34375 0.54297,-0.84375 0.54297,-1.503906 0,-0.410156 -0.13672,-0.730469 -0.375,-0.964844 -0.24219,-0.230469 -0.58985,-0.351562 -1.02344,-0.351562 z m 0,0"
     id="path42" />
  <path
     fill-rule="nonzero"
     fill="#262626"
     fill-opacity="1"
     d="m 526.86328,14.828125 c -0.76562,0 -1.37891,-0.230469 -1.82422,-0.707031 -0.45312,-0.476563 -0.67187,-1.136719 -0.67187,-1.976563 0,-0.488281 0.0742,-0.980469 0.23047,-1.480469 0.14453,-0.5 0.34765,-0.925781 0.59765,-1.265624 0.38672,-0.535157 0.81641,-0.929688 1.29688,-1.183594 0.48437,-0.246094 1.02343,-0.378906 1.625,-0.378906 0.74218,0 1.34375,0.242187 1.80078,0.707031 0.45703,0.476562 0.69922,1.097656 0.69922,1.855469 0,0.535156 -0.0859,1.0625 -0.23047,1.585937 -0.15625,0.523437 -0.35938,0.953125 -0.60156,1.292969 -0.38672,0.539062 -0.81641,0.9375 -1.29688,1.183594 -0.48047,0.242187 -1.01953,0.367187 -1.625,0.367187 z m -1.37891,-2.722656 c 0,0.609375 0.1211,1.0625 0.3711,1.355469 0.24219,0.308593 0.625,0.453124 1.13281,0.453124 0.71875,0 1.30859,-0.316406 1.78906,-0.964843 0.48047,-0.636719 0.71875,-1.453125 0.71875,-2.441407 0,-0.574218 -0.13281,-1.015624 -0.38281,-1.304687 -0.25391,-0.292969 -0.625,-0.441406 -1.11719,-0.441406 -0.40625,0 -0.78125,0.101562 -1.09375,0.292969 -0.3125,0.195312 -0.60156,0.492187 -0.84375,0.878906 -0.1914,0.292968 -0.33593,0.636718 -0.42968,1.015625 -0.0977,0.375 -0.14454,0.769531 -0.14454,1.15625 z m 0,0"
     id="path43" />
  <path
     fill-rule="nonzero"
     fill="#262626"
     fill-opacity="1"
     d="m 537.17187,8.191406 -0.20312,1.035156 C 536.67969,9.082031 536.36719,8.957031 536.05469,8.875 535.74219,8.796875 535.41797,8.75 535.08203,8.75 c -0.57422,0 -1.02344,0.101562 -1.34766,0.292969 -0.32421,0.195312 -0.47656,0.464843 -0.47656,0.808593 0,0.390626 0.3711,0.695313 1.13672,0.902344 0.0508,0.02344 0.10156,0.03516 0.125,0.03516 l 0.34766,0.109376 c 0.71875,0.207031 1.19922,0.425781 1.4414,0.648437 0.23828,0.21875 0.35938,0.523437 0.35938,0.902344 0,0.707031 -0.27735,1.277343 -0.82813,1.71875 -0.55078,0.441406 -1.28515,0.660156 -2.17578,0.660156 -0.34765,0 -0.70703,-0.03516 -1.09375,-0.09766 -0.38281,-0.0625 -0.8125,-0.160157 -1.27344,-0.304688 l 0.21875,-1.136719 c 0.38282,0.21875 0.78125,0.378907 1.16407,0.480469 0.38281,0.105469 0.74609,0.15625 1.10547,0.15625 0.52734,0 0.94921,-0.109375 1.28515,-0.339843 0.32422,-0.234376 0.49219,-0.53125 0.49219,-0.882813 0,-0.378906 -0.42969,-0.683594 -1.29688,-0.925781 l -0.10937,-0.02344 -0.37109,-0.09766 c -0.55469,-0.148438 -0.96094,-0.332031 -1.21485,-0.574219 -0.25,-0.246093 -0.37109,-0.546875 -0.37109,-0.929687 0,-0.707032 0.2539,-1.277344 0.78125,-1.695313 0.52734,-0.414062 1.23437,-0.621093 2.15234,-0.621093 0.35938,0 0.70703,0.035156 1.04297,0.097656 0.33594,0.0625 0.66016,0.144531 0.99609,0.257812 z m 0,0"
     id="path44" />
  <path
     fill-rule="nonzero"
     fill="#262626"
     fill-opacity="1"
     d="m 542.50781,7.996094 -0.16797,0.855468 h -2.14843 l -0.69922,3.621094 c -0.0234,0.136719 -0.0469,0.242188 -0.0586,0.339844 -0.0117,0.101562 -0.0117,0.160156 -0.0117,0.207031 0,0.257813 0.0703,0.441407 0.22657,0.566407 0.14453,0.117187 0.38672,0.167968 0.72265,0.167968 h 1.08985 l -0.17969,0.914063 H 540.25 c -0.64844,0 -1.12891,-0.121094 -1.44531,-0.375 -0.3125,-0.257813 -0.46875,-0.648438 -0.46875,-1.160157 0,-0.08984 0,-0.183593 0.0156,-0.292968 0.0117,-0.109375 0.0352,-0.230469 0.0586,-0.367188 l 0.69921,-3.621094 h -0.91406 l 0.16797,-0.855468 h 0.90234 l 0.3594,-1.894532 h 1.08203 l -0.36328,1.894532 z m 0,0"
     id="path45" />
  <path
     fill-rule="nonzero"
     fill="#262626"
     fill-opacity="1"
     d="m 542.72656,10.835938 h 3.15625 V 11.8125 h -3.15625 z m 0,0"
     id="path46" />
  <path
     fill-rule="nonzero"
     fill="#262626"
     fill-opacity="1"
     d="m 548.50391,5.777344 h 2.74218 c 0.78907,0 1.40235,0.191406 1.82422,0.570312 0.40625,0.378906 0.6211,0.925782 0.6211,1.648438 0,0.972656 -0.3125,1.742187 -0.92188,2.28125 -0.625,0.546875 -1.48828,0.816406 -2.60937,0.816406 h -1.48829 l -0.6875,3.574219 h -1.1875 z m 0.99609,0.984375 -0.63672,3.34375 h 1.48828 c 0.67578,0 1.19141,-0.171875 1.55469,-0.523438 0.35937,-0.34375 0.53906,-0.84375 0.53906,-1.503906 0,-0.410156 -0.13281,-0.730469 -0.37109,-0.964844 -0.24219,-0.230469 -0.58985,-0.351562 -1.02344,-0.351562 z m 0,0"
     id="path47" />
  <path
     fill-rule="nonzero"
     fill="#262626"
     fill-opacity="1"
     d="M 559.07812,9.007812 C 558.95703,8.957031 558.83984,8.910156 558.69531,8.875 c -0.14453,-0.023438 -0.29297,-0.046875 -0.44922,-0.046875 -0.57422,0 -1.07812,0.226563 -1.51172,0.664063 -0.43359,0.441406 -0.70703,1.042968 -0.85156,1.773437 l -0.66406,3.402344 h -1.07813 l 1.28125,-6.671875 h 1.08594 l -0.20703,1.035156 c 0.27734,-0.375 0.61328,-0.667969 1.02344,-0.875 0.39453,-0.210938 0.8125,-0.320312 1.27344,-0.320312 0.10937,0 0.21875,0.011718 0.33593,0.023437 0.1211,0.011719 0.23047,0.039063 0.34766,0.0625 z m 0,0"
     id="path48" />
  <path
     fill-rule="nonzero"
     fill="#262626"
     fill-opacity="1"
     d="m 561.71094,14.828125 c -0.76953,0 -1.38282,-0.230469 -1.82813,-0.707031 -0.45312,-0.476563 -0.67187,-1.136719 -0.67187,-1.976563 0,-0.488281 0.0742,-0.980469 0.23047,-1.480469 0.14453,-0.5 0.34765,-0.925781 0.59765,-1.265624 0.38672,-0.535157 0.81641,-0.929688 1.29688,-1.183594 0.48437,-0.246094 1.02343,-0.378906 1.625,-0.378906 0.74218,0 1.34375,0.242187 1.80468,0.707031 0.45313,0.476562 0.69532,1.097656 0.69532,1.855469 0,0.535156 -0.0859,1.0625 -0.23047,1.585937 -0.15625,0.523437 -0.35938,0.953125 -0.59766,1.292969 -0.39062,0.539062 -0.82031,0.9375 -1.30078,1.183594 -0.48047,0.242187 -1.01953,0.367187 -1.62109,0.367187 z m -1.38282,-2.722656 c 0,0.609375 0.1211,1.0625 0.3711,1.355469 0.24219,0.308593 0.625,0.453124 1.13281,0.453124 0.71875,0 1.30859,-0.316406 1.78906,-0.964843 0.48047,-0.636719 0.71875,-1.453125 0.71875,-2.441407 0,-0.574218 -0.13281,-1.015624 -0.38281,-1.304687 -0.25391,-0.292969 -0.625,-0.441406 -1.11719,-0.441406 -0.40625,0 -0.78125,0.101562 -1.08984,0.292969 -0.31641,0.195312 -0.60547,0.492187 -0.84766,0.878906 -0.1914,0.292968 -0.33593,0.636718 -0.42968,1.015625 -0.0977,0.375 -0.14454,0.769531 -0.14454,1.15625 z m 0,0"
     id="path49" />
  <path
     fill-rule="nonzero"
     fill="#262626"
     fill-opacity="1"
     d="m 572.45312,8.25 -0.21875,1.089844 c -0.26562,-0.1875 -0.54296,-0.332032 -0.83203,-0.429688 -0.28515,-0.101562 -0.58593,-0.148437 -0.89843,-0.148437 -0.34766,0 -0.67188,0.066406 -0.98438,0.183593 -0.3125,0.125 -0.57812,0.304688 -0.78516,0.523438 -0.33593,0.355469 -0.59765,0.757812 -0.77734,1.222656 -0.19141,0.460938 -0.27734,0.949219 -0.27734,1.441406 0,0.609376 0.14453,1.046876 0.44531,1.339844 0.28516,0.296875 0.74219,0.441406 1.34766,0.441406 0.28515,0 0.60937,-0.03906 0.94531,-0.132812 0.33594,-0.08984 0.6875,-0.222656 1.04687,-0.417969 l -0.20703,1.085938 c -0.30859,0.132812 -0.63281,0.21875 -0.96875,0.28125 -0.33594,0.0625 -0.67187,0.09766 -1.00781,0.09766 -0.88281,0 -1.55469,-0.21875 -2.02344,-0.660156 -0.46484,-0.441407 -0.69531,-1.058594 -0.69531,-1.890625 0,-0.683594 0.12109,-1.316406 0.35937,-1.902344 0.24219,-0.585938 0.61329,-1.113281 1.09375,-1.578125 0.32422,-0.316406 0.70704,-0.546875 1.15625,-0.71875 0.4336,-0.15625 0.92188,-0.242187 1.45313,-0.242187 0.29687,0 0.59766,0.035156 0.89844,0.109374 0.30078,0.074219 0.61718,0.167969 0.92968,0.304688 z m 0,0"
     id="path50" />
  <path
     fill-rule="nonzero"
     fill="#262626"
     fill-opacity="1"
     d="m 578.39844,10.742188 c 0,-0.06641 0.0117,-0.125 0.0234,-0.195313 0,-0.07422 0.0117,-0.136719 0.0117,-0.210937 0,-0.484376 -0.14453,-0.867188 -0.42578,-1.144532 -0.28515,-0.28125 -0.66015,-0.429687 -1.14062,-0.429687 -0.53907,0 -1.00782,0.183593 -1.41407,0.523437 -0.41015,0.34375 -0.72265,0.832032 -0.9414,1.457032 z m 0.93359,0.851562 h -5.02344 c -0.0234,0.160156 -0.0469,0.28125 -0.0469,0.367188 -0.0117,0.08594 -0.0117,0.160156 -0.0117,0.21875 0,0.5625 0.16797,0.988281 0.50391,1.28125 0.33593,0.308593 0.80859,0.453124 1.41796,0.453124 0.45704,0 0.90235,-0.05078 1.32032,-0.160156 0.42187,-0.09766 0.82031,-0.257812 1.17968,-0.476562 l -0.20312,1.085937 c -0.39844,0.171875 -0.80859,0.28125 -1.21484,0.355469 -0.41016,0.07422 -0.82813,0.109375 -1.25,0.109375 -0.91407,0 -1.6211,-0.21875 -2.10157,-0.660156 -0.49218,-0.441407 -0.73437,-1.058594 -0.73437,-1.878907 0,-0.683593 0.12109,-1.328124 0.35937,-1.925781 0.24219,-0.601562 0.60157,-1.136719 1.08203,-1.613281 0.30079,-0.292969 0.66407,-0.511719 1.08204,-0.671875 0.42187,-0.15625 0.86718,-0.242187 1.34375,-0.242187 0.74609,0 1.33593,0.230468 1.78125,0.683593 0.43359,0.449219 0.66015,1.0625 0.66015,1.816407 0,0.1875 -0.0117,0.382812 -0.0351,0.585937 -0.0234,0.21875 -0.0586,0.4375 -0.10938,0.671875 z m 0,0"
     id="path51" />
  <path
     fill-rule="nonzero"
     fill="#262626"
     fill-opacity="1"
     d="M 586.01562,8.191406 585.8125,9.226562 C 585.52344,9.082031 585.21094,8.957031 584.89844,8.875 584.58594,8.796875 584.26172,8.75 583.92187,8.75 c -0.57421,0 -1.01953,0.101562 -1.34375,0.292969 -0.32421,0.195312 -0.47656,0.464843 -0.47656,0.808593 0,0.390626 0.3711,0.695313 1.13672,0.902344 0.0508,0.02344 0.0977,0.03516 0.12109,0.03516 l 0.34766,0.109376 c 0.72266,0.207031 1.20313,0.425781 1.44531,0.648437 0.23828,0.21875 0.35938,0.523437 0.35938,0.902344 0,0.707031 -0.27735,1.277343 -0.82813,1.71875 -0.55078,0.441406 -1.28906,0.660156 -2.17578,0.660156 -0.34765,0 -0.70703,-0.03516 -1.09375,-0.09766 -0.38672,-0.0625 -0.8164,-0.160157 -1.27344,-0.304688 l 0.21485,-1.136719 c 0.38281,0.21875 0.78515,0.378907 1.16797,0.480469 0.38281,0.105469 0.74609,0.15625 1.10547,0.15625 0.52734,0 0.94531,-0.109375 1.28125,-0.339843 0.32812,-0.234376 0.49609,-0.53125 0.49609,-0.882813 0,-0.378906 -0.43359,-0.683594 -1.29688,-0.925781 L 583,11.753906 582.62891,11.65625 c -0.55469,-0.148438 -0.96094,-0.332031 -1.21485,-0.574219 -0.25,-0.246093 -0.375,-0.546875 -0.375,-0.929687 0,-0.707032 0.25781,-1.277344 0.78516,-1.695313 0.52734,-0.414062 1.23437,-0.621093 2.14844,-0.621093 0.36328,0 0.71093,0.035156 1.04687,0.097656 0.33594,0.0625 0.66016,0.144531 0.99609,0.257812 z m 0,0"
     id="path52" />
  <path
     fill-rule="nonzero"
     fill="#262626"
     fill-opacity="1"
     d="m 592.27734,8.191406 -0.20312,1.035156 C 591.78516,9.082031 591.46875,8.957031 591.15625,8.875 590.84375,8.796875 590.51953,8.75 590.18359,8.75 c -0.57422,0 -1.01953,0.101562 -1.34375,0.292969 -0.32812,0.195312 -0.48047,0.464843 -0.48047,0.808593 0,0.390626 0.375,0.695313 1.14063,0.902344 0.0508,0.02344 0.0977,0.03516 0.12109,0.03516 l 0.34766,0.109376 c 0.71875,0.207031 1.19922,0.425781 1.44141,0.648437 0.24218,0.21875 0.36328,0.523437 0.36328,0.902344 0,0.707031 -0.28125,1.277343 -0.83203,1.71875 -0.55079,0.441406 -1.28516,0.660156 -2.17188,0.660156 -0.35156,0 -0.71094,-0.03516 -1.09766,-0.09766 -0.38281,-0.0625 -0.8125,-0.160157 -1.26953,-0.304688 l 0.21485,-1.136719 c 0.38281,0.21875 0.78125,0.378907 1.16406,0.480469 0.38281,0.105469 0.74609,0.15625 1.10937,0.15625 0.52735,0 0.94532,-0.109375 1.28125,-0.339843 0.32422,-0.234376 0.49219,-0.53125 0.49219,-0.882813 0,-0.378906 -0.42969,-0.683594 -1.29297,-0.925781 l -0.10937,-0.02344 -0.3711,-0.09766 c -0.55859,-0.148438 -0.96484,-0.332031 -1.21875,-0.574219 -0.25,-0.246093 -0.37109,-0.546875 -0.37109,-0.929687 0,-0.707032 0.25391,-1.277344 0.78125,-1.695313 0.52734,-0.414062 1.23828,-0.621093 2.15234,-0.621093 0.35938,0 0.70704,0.035156 1.04297,0.097656 0.33594,0.0625 0.66407,0.144531 1,0.257812 z m 0,0"
     id="path53" />
  <path
     fill-rule="nonzero"
     fill="#262626"
     fill-opacity="1"
     d="m 594.72656,5.394531 h 1.08203 l -0.26562,1.390625 h -1.07813 z m -0.49219,2.601563 h 1.08204 l -1.28516,6.671875 h -1.08203 z m 0,0"
     id="path54" />
  <path
     fill-rule="nonzero"
     fill="#262626"
     fill-opacity="1"
     d="m 602.55859,10.640625 -0.76953,4.027344 h -1.07812 l 0.76953,-3.992188 c 0.0234,-0.179687 0.0469,-0.339843 0.0703,-0.484375 0.0234,-0.144531 0.0352,-0.257812 0.0352,-0.339844 0,-0.332031 -0.10547,-0.589843 -0.3125,-0.78125 -0.21485,-0.183593 -0.50391,-0.285156 -0.86719,-0.285156 -0.57422,0 -1.07813,0.195313 -1.5,0.589844 -0.41797,0.386719 -0.69531,0.925781 -0.81641,1.597656 l -0.72265,3.695313 h -1.07813 l 1.26953,-6.671875 h 1.08594 l -0.21875,1.046875 c 0.28906,-0.375 0.64844,-0.667969 1.08203,-0.886719 0.41797,-0.210938 0.86328,-0.320312 1.33594,-0.320312 0.57422,0 1.01953,0.160156 1.34375,0.472656 0.3125,0.320312 0.48047,0.773437 0.48047,1.34375 0,0.148437 -0.0117,0.292968 -0.0234,0.453125 -0.0273,0.171875 -0.0508,0.339843 -0.0859,0.535156 z m 0,0"
     id="path55" />
  <path
     fill-rule="nonzero"
     fill="#262626"
     fill-opacity="1"
     d="m 610.64453,7.996094 -1.12109,5.84375 c -0.21485,1.125 -0.63672,1.953125 -1.23438,2.515625 -0.61328,0.558593 -1.42969,0.839843 -2.45312,0.839843 -0.38282,0 -0.74219,-0.03516 -1.06641,-0.08594 -0.32422,-0.0625 -0.625,-0.144531 -0.90234,-0.265625 l 0.20703,-1.0625 c 0.26172,0.171875 0.53906,0.289062 0.83984,0.378906 0.28516,0.08203 0.60938,0.132813 0.94531,0.132813 0.6836,0 1.25391,-0.199219 1.69532,-0.574219 0.43359,-0.378906 0.72265,-0.914062 0.86718,-1.621094 l 0.0937,-0.5 c -0.3125,0.351563 -0.66015,0.617188 -1.05468,0.800782 -0.39844,0.183593 -0.83203,0.269531 -1.28907,0.269531 -0.67187,0 -1.1875,-0.21875 -1.57031,-0.671875 -0.38672,-0.4375 -0.5664,-1.058594 -0.5664,-1.839844 0,-0.609375 0.10937,-1.222656 0.34765,-1.804688 0.23047,-0.589843 0.55469,-1.113281 0.97266,-1.578124 0.26562,-0.292969 0.58984,-0.523438 0.96094,-0.695313 0.37109,-0.15625 0.76171,-0.242187 1.16796,-0.242187 0.4336,0 0.81641,0.109374 1.15235,0.320312 0.32422,0.207031 0.5625,0.5 0.73047,0.875 l 0.1914,-1.035156 z m -1.625,2.449218 c 0,-0.535156 -0.13281,-0.964843 -0.38281,-1.253906 C 608.38281,8.898438 608.03516,8.75 607.58203,8.75 c -0.28906,0 -0.56641,0.058594 -0.81641,0.171875 -0.26953,0.121094 -0.48437,0.28125 -0.66406,0.488281 -0.30078,0.339844 -0.52734,0.742188 -0.69531,1.207032 -0.16797,0.464843 -0.25391,0.941406 -0.25391,1.429687 0,0.5625 0.1211,0.972656 0.3711,1.269531 0.2539,0.292969 0.61328,0.4375 1.09375,0.4375 0.6875,0 1.26172,-0.304687 1.71875,-0.941406 0.45703,-0.632812 0.68359,-1.414062 0.68359,-2.367188 z m 0,0"
     id="path56" />
</svg>
