<?xml version="1.0" encoding="UTF-8" standalone="no"?>
<svg
   width="170pt"
   height="219pt"
   viewBox="0 0 170 219"
   version="1.1"
   id="svg196"
   xmlns:xlink="http://www.w3.org/1999/xlink"
   xmlns="http://www.w3.org/2000/svg"
   xmlns:svg="http://www.w3.org/2000/svg">
  <defs
     id="defs66">
    <clipPath
       id="clip-0">
      <path
         clip-rule="nonzero"
         d="m 49,90 h 114 v 92.14062 H 49 Z m 0,0"
         id="path1" />
    </clipPath>
    <clipPath
       id="clip-1">
      <path
         clip-rule="nonzero"
         d="m 119.96875,3.996094 h 2.00391 V 182.14062 h -2.00391 z m 0,0"
         id="path2" />
    </clipPath>
    <clipPath
       id="clip-2">
      <path
         clip-rule="nonzero"
         d="M 1,0.996094 H 2.972656 V 179.14062 H 1 Z m 0,0"
         id="path3" />
    </clipPath>
    <clipPath
       id="clip-3">
      <rect
         x="0"
         y="0"
         width="3"
         height="180"
         id="rect3" />
    </clipPath>
    <g
       id="source-52240"
       clip-path="url(#clip-3)">
      <g
         clip-path="url(#clip-2)"
         id="g4">
        <path
           fill="none"
           stroke-width="1.25518"
           stroke-linecap="butt"
           stroke-linejoin="round"
           stroke="#191919"
           stroke-opacity="0.7"
           stroke-dasharray="1.25518, 2.07104"
           stroke-miterlimit="10"
           d="M 121.48889,-182.14062 V -3.996094"
           transform="matrix(0.997262,0,0,-1,-119,-3)"
           id="path4" />
      </g>
    </g>
    <clipPath
       id="clip-4">
      <path
         clip-rule="nonzero"
         d="m 49.875,3.996094 h 1 V 182.14062 h -1 z m 0,0"
         id="path5" />
    </clipPath>
    <clipPath
       id="clip-5">
      <path
         clip-rule="nonzero"
         d="m 0.875,0.996094 h 1 V 179.14062 h -1 z m 0,0"
         id="path6" />
    </clipPath>
    <clipPath
       id="clip-6">
      <rect
         x="0"
         y="0"
         width="2"
         height="180"
         id="rect6" />
    </clipPath>
    <g
       id="source-52243"
       clip-path="url(#clip-6)">
      <g
         clip-path="url(#clip-5)"
         id="g7">
        <path
           fill="none"
           stroke-width="0.552277"
           stroke-linecap="butt"
           stroke-linejoin="round"
           stroke="#cccccc"
           stroke-opacity="0.55"
           stroke-dasharray="2.04343, 0.883644"
           stroke-miterlimit="10"
           d="M 50.372294,-182.14062 V -3.996094"
           transform="matrix(0.997262,0,0,-1,-49,-3)"
           id="path7" />
      </g>
    </g>
    <clipPath
       id="clip-7">
      <path
         clip-rule="nonzero"
         d="m 104.94922,3.996094 h 2.00391 V 182.14062 h -2.00391 z m 0,0"
         id="path8" />
    </clipPath>
    <clipPath
       id="clip-8">
      <path
         clip-rule="nonzero"
         d="M 1,0.996094 H 2.953125 V 179.14062 H 1 Z m 0,0"
         id="path9" />
    </clipPath>
    <clipPath
       id="clip-9">
      <rect
         x="0"
         y="0"
         width="3"
         height="180"
         id="rect9" />
    </clipPath>
    <g
       id="source-52246"
       clip-path="url(#clip-9)">
      <g
         clip-path="url(#clip-8)"
         id="g10">
        <path
           fill="none"
           stroke-width="0.552277"
           stroke-linecap="butt"
           stroke-linejoin="round"
           stroke="#cccccc"
           stroke-opacity="0.55"
           stroke-dasharray="2.04343, 0.883644"
           stroke-miterlimit="10"
           d="M 106.4007,-182.14062 V -3.996094"
           transform="matrix(0.997262,0,0,-1,-104,-3)"
           id="path10" />
      </g>
    </g>
    <clipPath
       id="clip-10">
      <path
         clip-rule="nonzero"
         d="m 161.02734,3.996094 h 2.00391 V 182.14062 h -2.00391 z m 0,0"
         id="path11" />
    </clipPath>
    <clipPath
       id="clip-11">
      <path
         clip-rule="nonzero"
         d="M 0.0273438,0.996094 H 2 V 179.14062 H 0.0273438 Z m 0,0"
         id="path12" />
    </clipPath>
    <clipPath
       id="clip-12">
      <rect
         x="0"
         y="0"
         width="3"
         height="180"
         id="rect12" />
    </clipPath>
    <g
       id="source-52249"
       clip-path="url(#clip-12)">
      <g
         clip-path="url(#clip-11)"
         id="g13">
        <path
           fill="none"
           stroke-width="0.552277"
           stroke-linecap="butt"
           stroke-linejoin="round"
           stroke="#cccccc"
           stroke-opacity="0.55"
           stroke-dasharray="2.04343, 0.883644"
           stroke-miterlimit="10"
           d="M 162.42911,-182.14062 V -3.996094"
           transform="matrix(0.997262,0,0,-1,-161,-3)"
           id="path13" />
      </g>
    </g>
    <clipPath
       id="clip-13">
      <path
         clip-rule="nonzero"
         d="M 44.644531,181.34766 H 167.57422 v 0.79296 H 44.644531 Z m 0,0"
         id="path14" />
    </clipPath>
    <clipPath
       id="clip-14">
      <path
         clip-rule="nonzero"
         d="M 0.644531,0.347656 H 123.57422 V 1.140625 H 0.644531 Z m 0,0"
         id="path15" />
    </clipPath>
    <clipPath
       id="clip-15">
      <rect
         x="0"
         y="0"
         width="124"
         height="2"
         id="rect15" />
    </clipPath>
    <g
       id="source-52252"
       clip-path="url(#clip-15)">
      <g
         clip-path="url(#clip-14)"
         id="g16">
        <path
           fill="none"
           stroke-width="0.552277"
           stroke-linecap="butt"
           stroke-linejoin="round"
           stroke="#cccccc"
           stroke-opacity="0.55"
           stroke-dasharray="2.04343, 0.883644"
           stroke-miterlimit="10"
           d="M 44.767104,-182.14062 H 168.0343"
           transform="matrix(0.997262,0,0,-1,-44,-181)"
           id="path16" />
      </g>
    </g>
    <clipPath
       id="clip-16">
      <path
         clip-rule="nonzero"
         d="M 44.644531,146.20312 H 167.57422 v 1.00391 H 44.644531 Z m 0,0"
         id="path17" />
    </clipPath>
    <clipPath
       id="clip-17">
      <path
         clip-rule="nonzero"
         d="M 0.644531,0.203125 H 123.57422 V 1 H 0.644531 Z m 0,0"
         id="path18" />
    </clipPath>
    <clipPath
       id="clip-18">
      <rect
         x="0"
         y="0"
         width="124"
         height="2"
         id="rect18" />
    </clipPath>
    <g
       id="source-52255"
       clip-path="url(#clip-18)">
      <g
         clip-path="url(#clip-17)"
         id="g19">
        <path
           fill="none"
           stroke-width="0.552277"
           stroke-linecap="butt"
           stroke-linejoin="round"
           stroke="#cccccc"
           stroke-opacity="0.55"
           stroke-dasharray="2.04343, 0.883644"
           stroke-miterlimit="10"
           d="M 44.767104,-146.50781 H 168.0343"
           transform="matrix(0.997262,0,0,-1,-44,-146)"
           id="path19" />
      </g>
    </g>
    <clipPath
       id="clip-19">
      <path
         clip-rule="nonzero"
         d="M 44.644531,110.05469 H 167.57422 v 2.00781 H 44.644531 Z m 0,0"
         id="path20" />
    </clipPath>
    <clipPath
       id="clip-20">
      <path
         clip-rule="nonzero"
         d="M 0.644531,0.0546875 H 123.57422 V 2 H 0.644531 Z m 0,0"
         id="path21" />
    </clipPath>
    <clipPath
       id="clip-21">
      <rect
         x="0"
         y="0"
         width="124"
         height="3"
         id="rect21" />
    </clipPath>
    <g
       id="source-52258"
       clip-path="url(#clip-21)">
      <g
         clip-path="url(#clip-20)"
         id="g22">
        <path
           fill="none"
           stroke-width="0.552277"
           stroke-linecap="butt"
           stroke-linejoin="round"
           stroke="#cccccc"
           stroke-opacity="0.55"
           stroke-dasharray="2.04343, 0.883644"
           stroke-miterlimit="10"
           d="M 44.767104,-110.88281 H 168.0343"
           transform="matrix(0.997262,0,0,-1,-44,-110)"
           id="path22" />
      </g>
    </g>
    <clipPath
       id="clip-22">
      <path
         clip-rule="nonzero"
         d="M 44.644531,74.910156 H 167.57422 v 1.003906 H 44.644531 Z m 0,0"
         id="path23" />
    </clipPath>
    <clipPath
       id="clip-23">
      <path
         clip-rule="nonzero"
         d="M 0.644531,0.910156 H 123.57422 V 1.914062 H 0.644531 Z m 0,0"
         id="path24" />
    </clipPath>
    <clipPath
       id="clip-24">
      <rect
         x="0"
         y="0"
         width="124"
         height="2"
         id="rect24" />
    </clipPath>
    <g
       id="source-52261"
       clip-path="url(#clip-24)">
      <g
         clip-path="url(#clip-23)"
         id="g25">
        <path
           fill="none"
           stroke-width="0.552277"
           stroke-linecap="butt"
           stroke-linejoin="round"
           stroke="#cccccc"
           stroke-opacity="0.55"
           stroke-dasharray="2.04343, 0.883644"
           stroke-miterlimit="10"
           d="M 44.767104,-75.253906 H 168.0343"
           transform="matrix(0.997262,0,0,-1,-44,-74)"
           id="path25" />
      </g>
    </g>
    <clipPath
       id="clip-25">
      <path
         clip-rule="nonzero"
         d="M 44.644531,38.761719 H 167.57422 v 2.007812 H 44.644531 Z m 0,0"
         id="path26" />
    </clipPath>
    <clipPath
       id="clip-26">
      <path
         clip-rule="nonzero"
         d="M 0.644531,1 H 123.57422 V 2 H 0.644531 Z m 0,0"
         id="path27" />
    </clipPath>
    <clipPath
       id="clip-27">
      <rect
         x="0"
         y="0"
         width="124"
         height="3"
         id="rect27" />
    </clipPath>
    <g
       id="source-52264"
       clip-path="url(#clip-27)">
      <g
         clip-path="url(#clip-26)"
         id="g28">
        <path
           fill="none"
           stroke-width="0.552277"
           stroke-linecap="butt"
           stroke-linejoin="round"
           stroke="#cccccc"
           stroke-opacity="0.55"
           stroke-dasharray="2.04343, 0.883644"
           stroke-miterlimit="10"
           d="M 44.767104,-39.625 H 168.0343"
           transform="matrix(0.997262,0,0,-1,-44,-38)"
           id="path28" />
      </g>
    </g>
    <clipPath
       id="clip-28">
      <path
         clip-rule="nonzero"
         d="M 44.644531,3.996094 H 167.57422 v 0.625 H 44.644531 Z m 0,0"
         id="path29" />
    </clipPath>
    <clipPath
       id="clip-29">
      <path
         clip-rule="nonzero"
         d="M 0.644531,0.996094 H 123.57422 v 0.625 H 0.644531 Z m 0,0"
         id="path30" />
    </clipPath>
    <clipPath
       id="clip-30">
      <rect
         x="0"
         y="0"
         width="124"
         height="2"
         id="rect30" />
    </clipPath>
    <g
       id="source-52267"
       clip-path="url(#clip-30)">
      <g
         clip-path="url(#clip-29)"
         id="g31">
        <path
           fill="none"
           stroke-width="0.552277"
           stroke-linecap="butt"
           stroke-linejoin="round"
           stroke="#cccccc"
           stroke-opacity="0.55"
           stroke-dasharray="2.04343, 0.883644"
           stroke-miterlimit="10"
           d="M 44.767104,-3.996094 H 168.0343"
           transform="matrix(0.997262,0,0,-1,-44,-3)"
           id="path31" />
      </g>
    </g>
    <clipPath
       id="clip-31">
      <path
         clip-rule="nonzero"
         d="m 49,88 h 114 v 94.14062 H 49 Z m 0,0"
         id="path32" />
    </clipPath>
    <clipPath
       id="clip-32">
      <path
         clip-rule="nonzero"
         d="m 117,178.33594 h 6.97656 v 3.80468 H 117 Z m 0,0"
         id="path33" />
    </clipPath>
    <clipPath
       id="clip-33">
      <path
         clip-rule="nonzero"
         d="m 116,177.33203 h 7.97656 v 4.80859 H 116 Z m 0,0"
         id="path34" />
    </clipPath>
    <clipPath
       id="clip-34">
      <path
         clip-rule="nonzero"
         d="m 118,178 h 6.97656 v 4.14062 H 118 Z m 0,0"
         id="path35" />
    </clipPath>
    <clipPath
       id="clip-35">
      <path
         clip-rule="nonzero"
         d="m 117,177.33203 h 8 v 4.80859 h -8 z m 0,0"
         id="path36" />
    </clipPath>
    <clipPath
       id="clip-36">
      <path
         clip-rule="nonzero"
         d="m 44.644531,50.796875 h 14.703125 v 18 H 44.644531 Z m 0,0"
         id="path37" />
    </clipPath>
    <clipPath
       id="clip-37">
      <path
         clip-rule="nonzero"
         d="m 55.082031,58.015625 h 18.234375 v 18 H 55.082031 Z m 0,0"
         id="path38" />
    </clipPath>
    <clipPath
       id="clip-38">
      <path
         clip-rule="nonzero"
         d="m 69.054688,63.109375 h 18.230468 v 18 H 69.054688 Z m 0,0"
         id="path39" />
    </clipPath>
    <clipPath
       id="clip-39">
      <path
         clip-rule="nonzero"
         d="m 83.023438,66.488281 h 18.234372 v 18 H 83.023438 Z m 0,0"
         id="path40" />
    </clipPath>
    <clipPath
       id="clip-40">
      <path
         clip-rule="nonzero"
         d="m 96.992188,68.359375 h 18.234372 v 18 H 96.992188 Z m 0,0"
         id="path41" />
    </clipPath>
    <clipPath
       id="clip-41">
      <path
         clip-rule="nonzero"
         d="m 110.96094,68.761719 h 18.23437 v 18 h -18.23437 z m 0,0"
         id="path42" />
    </clipPath>
    <clipPath
       id="clip-42">
      <path
         clip-rule="nonzero"
         d="m 112.04297,68.742188 h 18.22656 v 18.003906 h -18.22656 z m 0,0"
         id="path43" />
    </clipPath>
    <clipPath
       id="clip-43">
      <path
         clip-rule="nonzero"
         d="m 124.92969,67.574219 h 18.23437 v 18 h -18.23437 z m 0,0"
         id="path44" />
    </clipPath>
    <clipPath
       id="clip-44">
      <path
         clip-rule="nonzero"
         d="m 138.90234,64.519531 h 18.23047 v 18.003907 h -18.23047 z m 0,0"
         id="path45" />
    </clipPath>
    <clipPath
       id="clip-45">
      <path
         clip-rule="nonzero"
         d="m 152.87109,59.117188 h 14.70313 v 18 h -14.70313 z m 0,0"
         id="path46" />
    </clipPath>
    <clipPath
       id="clip-46">
      <path
         clip-rule="nonzero"
         d="M 44.644531,61.773438 H 59.496094 V 80.351562 H 44.644531 Z m 0,0"
         id="path47" />
    </clipPath>
    <clipPath
       id="clip-47">
      <path
         clip-rule="nonzero"
         d="M 54.9375,68.648438 H 73.464844 V 87.226562 H 54.9375 Z m 0,0"
         id="path48" />
    </clipPath>
    <clipPath
       id="clip-48">
      <path
         clip-rule="nonzero"
         d="M 68.90625,73.074219 H 87.433594 V 91.652344 H 68.90625 Z m 0,0"
         id="path49" />
    </clipPath>
    <clipPath
       id="clip-49">
      <path
         clip-rule="nonzero"
         d="m 82.875,75.789062 h 18.52734 V 94.363281 H 82.875 Z m 0,0"
         id="path50" />
    </clipPath>
    <clipPath
       id="clip-50">
      <path
         clip-rule="nonzero"
         d="m 96.84375,76.832031 h 18.52734 V 95.410156 H 96.84375 Z m 0,0"
         id="path51" />
    </clipPath>
    <clipPath
       id="clip-51">
      <path
         clip-rule="nonzero"
         d="m 110.81641,77.257812 h 18.52734 v 18.578126 h -18.52734 z m 0,0"
         id="path52" />
    </clipPath>
    <clipPath
       id="clip-52">
      <path
         clip-rule="nonzero"
         d="m 111.89453,77.238281 h 18.52344 v 18.578125 h -18.52344 z m 0,0"
         id="path53" />
    </clipPath>
    <clipPath
       id="clip-53">
      <path
         clip-rule="nonzero"
         d="m 124.78516,76.371094 h 18.52734 v 18.578125 h -18.52734 z m 0,0"
         id="path54" />
    </clipPath>
    <clipPath
       id="clip-54">
      <path
         clip-rule="nonzero"
         d="m 138.75391,75.65625 h 18.52734 v 18.574219 h -18.52734 z m 0,0"
         id="path55" />
    </clipPath>
    <clipPath
       id="clip-55">
      <path
         clip-rule="nonzero"
         d="m 152.72266,75.246094 h 14.85156 v 18.578125 h -14.85156 z m 0,0"
         id="path56" />
    </clipPath>
    <clipPath
       id="clip-56">
      <path
         clip-rule="nonzero"
         d="M 44.644531,50.796875 H 59.496094 V 69.375 H 44.644531 Z m 0,0"
         id="path57" />
    </clipPath>
    <clipPath
       id="clip-57">
      <path
         clip-rule="nonzero"
         d="M 54.9375,58.015625 H 73.464844 V 76.59375 H 54.9375 Z m 0,0"
         id="path58" />
    </clipPath>
    <clipPath
       id="clip-58">
      <path
         clip-rule="nonzero"
         d="M 68.90625,63.109375 H 87.433594 V 81.6875 H 68.90625 Z m 0,0"
         id="path59" />
    </clipPath>
    <clipPath
       id="clip-59">
      <path
         clip-rule="nonzero"
         d="m 82.875,66.488281 h 18.52734 V 85.066406 H 82.875 Z m 0,0"
         id="path60" />
    </clipPath>
    <clipPath
       id="clip-60">
      <path
         clip-rule="nonzero"
         d="m 96.84375,68.359375 h 18.52734 V 86.9375 H 96.84375 Z m 0,0"
         id="path61" />
    </clipPath>
    <clipPath
       id="clip-61">
      <path
         clip-rule="nonzero"
         d="m 110.81641,68.761719 h 18.52734 v 18.578125 h -18.52734 z m 0,0"
         id="path62" />
    </clipPath>
    <clipPath
       id="clip-62">
      <path
         clip-rule="nonzero"
         d="m 111.89453,68.742188 h 18.52344 v 18.578124 h -18.52344 z m 0,0"
         id="path63" />
    </clipPath>
    <clipPath
       id="clip-63">
      <path
         clip-rule="nonzero"
         d="m 124.78516,67.574219 h 18.52734 v 18.578125 h -18.52734 z m 0,0"
         id="path64" />
    </clipPath>
    <clipPath
       id="clip-64">
      <path
         clip-rule="nonzero"
         d="m 138.75391,64.519531 h 18.52734 v 18.578125 h -18.52734 z m 0,0"
         id="path65" />
    </clipPath>
    <clipPath
       id="clip-65">
      <path
         clip-rule="nonzero"
         d="m 152.72266,59.117188 h 14.85156 v 18.578124 h -14.85156 z m 0,0"
         id="path66" />
    </clipPath>
  </defs>
  <path
     fill-rule="nonzero"
     fill="#ffffff"
     fill-opacity="1"
     d="M 44.644531,3.996094 H 167.57422 V 182.14062 H 44.644531 Z m 0,0"
     id="path67" />
  <g
     clip-path="url(#clip-0)"
     id="g68">
    <path
       fill="none"
       stroke-width="1.50621"
       stroke-linecap="butt"
       stroke-linejoin="round"
       stroke="#191919"
       stroke-opacity="1"
       stroke-dasharray="5.57298, 2.40994"
       stroke-miterlimit="10"
       d="m 50.372294,-91.648438 14.007102,-17.636722 14.007101,-18.03515 14.007102,-17.65235 14.007101,-17.9414 14.01102,-17.64844 1.07717,-0.97266 12.92601,15.6875 14.0071,18.28907 14.00711,17.375"
       transform="scale(0.997262,-1)"
       id="path68" />
  </g>
  <g
     clip-path="url(#clip-1)"
     id="g69">
    <use
       xlink:href="#source-52240"
       transform="translate(119,3)"
       id="use68" />
  </g>
  <g
     clip-path="url(#clip-4)"
     id="g70">
    <use
       xlink:href="#source-52243"
       transform="translate(49,3)"
       id="use69" />
  </g>
  <path
     fill-rule="nonzero"
     fill="#262626"
     fill-opacity="1"
     d="m 44.96875,199.69531 c 0.554688,0 0.960938,-0.29687 1.238281,-0.90625 0.261719,-0.59375 0.40625,-1.50781 0.40625,-2.73828 0,-1.21484 -0.144531,-2.13281 -0.40625,-2.73437 -0.277343,-0.59766 -0.683593,-0.90625 -1.238281,-0.90625 -0.546875,0 -0.964844,0.30859 -1.230469,0.90625 -0.273437,0.60156 -0.40625,1.51953 -0.40625,2.73437 0,1.23047 0.132813,2.14453 0.40625,2.73828 0.265625,0.60938 0.683594,0.90625 1.230469,0.90625 z m 0,0.52344 c -0.878906,0 -1.558594,-0.36719 -2.042969,-1.09375 -0.484375,-0.73047 -0.730469,-1.74609 -0.730469,-3.07422 0,-1.3125 0.246094,-2.33984 0.730469,-3.07031 0.484375,-0.73047 1.164063,-1.10156 2.042969,-1.10156 0.875,0 1.558594,0.37109 2.039062,1.10156 0.484376,0.73047 0.738282,1.75781 0.738282,3.07031 0,1.32813 -0.253906,2.34375 -0.738282,3.07422 -0.480468,0.72656 -1.164062,1.09375 -2.039062,1.09375 z m 0,0"
     id="path70" />
  <path
     fill-rule="nonzero"
     fill="#262626"
     fill-opacity="1"
     d="m 49.511719,199.50781 c 0,-0.19531 0.06641,-0.36328 0.195312,-0.5039 0.132813,-0.13672 0.308594,-0.21485 0.519531,-0.21485 0.195313,0 0.363282,0.0781 0.503907,0.21485 0.136719,0.14062 0.214843,0.30859 0.214843,0.5039 0,0.19922 -0.07812,0.375 -0.214843,0.51172 -0.140625,0.13281 -0.308594,0.19922 -0.503907,0.19922 -0.210937,0 -0.386718,-0.0664 -0.519531,-0.19922 -0.128906,-0.13672 -0.195312,-0.30078 -0.195312,-0.51172 z m 0,0"
     id="path71" />
  <path
     fill-rule="nonzero"
     fill="#262626"
     fill-opacity="1"
     d="M 53.542969,200.07422 V 199.5 h 1.398437 v -6.69531 l -1.617187,1.05078 v -0.71094 l 1.960937,-1.26562 h 0.734375 V 199.5 h 1.398438 v 0.57422 z m 0,0"
     id="path72" />
  <g
     clip-path="url(#clip-7)"
     id="g72">
    <use
       xlink:href="#source-52246"
       transform="translate(104,3)"
       id="use72" />
  </g>
  <path
     fill-rule="nonzero"
     fill="#262626"
     fill-opacity="1"
     d="m 100.84766,199.69531 c 0.55078,0 0.95703,-0.29687 1.23828,-0.90625 0.26172,-0.59375 0.40625,-1.50781 0.40625,-2.73828 0,-1.21484 -0.14453,-2.13281 -0.40625,-2.73437 -0.28125,-0.59766 -0.6875,-0.90625 -1.23828,-0.90625 -0.54688,0 -0.964848,0.30859 -1.230472,0.90625 -0.273438,0.60156 -0.40625,1.51953 -0.40625,2.73437 0,1.23047 0.132812,2.14453 0.40625,2.73828 0.265624,0.60938 0.683592,0.90625 1.230472,0.90625 z m 0,0.52344 c -0.87891,0 -1.558598,-0.36719 -2.046879,-1.09375 -0.484375,-0.73047 -0.726562,-1.74609 -0.726562,-3.07422 0,-1.3125 0.242187,-2.33984 0.726562,-3.07031 0.488281,-0.73047 1.167969,-1.10156 2.046879,-1.10156 0.87109,0 1.55859,0.37109 2.03906,1.10156 0.48437,0.73047 0.73828,1.75781 0.73828,3.07031 0,1.32813 -0.25391,2.34375 -0.73828,3.07422 -0.48047,0.72656 -1.16797,1.09375 -2.03906,1.09375 z m 0,0"
     id="path73" />
  <path
     fill-rule="nonzero"
     fill="#262626"
     fill-opacity="1"
     d="m 105.39063,199.50781 c 0,-0.19531 0.0664,-0.36328 0.19531,-0.5039 0.13281,-0.13672 0.30859,-0.21485 0.51953,-0.21485 0.19531,0 0.36328,0.0781 0.50391,0.21485 0.13281,0.14062 0.21093,0.30859 0.21093,0.5039 0,0.19922 -0.0781,0.375 -0.21093,0.51172 -0.14063,0.13281 -0.3086,0.19922 -0.50391,0.19922 -0.21094,0 -0.38672,-0.0664 -0.51953,-0.19922 -0.12891,-0.13672 -0.19531,-0.30078 -0.19531,-0.51172 z m 0,0"
     id="path74" />
  <path
     fill-rule="nonzero"
     fill="#262626"
     fill-opacity="1"
     d="m 113.39453,192.01953 v 0.88281 h -3.67578 v 2.3125 c 0.17578,-0.13672 0.39453,-0.22265 0.64844,-0.28906 0.24219,-0.0664 0.52734,-0.10156 0.83594,-0.10156 0.86328,0 1.54296,0.24219 2.05078,0.73047 0.5039,0.48437 0.75781,1.13672 0.75781,1.96875 0,0.85937 -0.25391,1.52343 -0.75781,1.98437 -0.50782,0.47656 -1.22266,0.71094 -2.13672,0.71094 -0.375,0 -0.75,-0.0469 -1.13672,-0.13281 -0.39453,-0.0781 -0.78906,-0.21485 -1.19141,-0.40235 v -1.5625 h 0.60938 c 0.0352,0.51563 0.19922,0.91407 0.48437,1.17969 0.28516,0.26172 0.70313,0.39453 1.23438,0.39453 0.55859,0 0.99219,-0.1875 1.30078,-0.55859 0.30859,-0.37891 0.46094,-0.90625 0.46094,-1.61328 0,-0.69922 -0.15235,-1.22657 -0.44922,-1.60547 -0.3086,-0.375 -0.74219,-0.5586 -1.3125,-0.5586 -0.33203,0 -0.61719,0.0625 -0.85938,0.17579 -0.24218,0.10937 -0.46093,0.28515 -0.64843,0.52734 h -0.46485 v -4.04297 z m 0,0"
     id="path75" />
  <g
     clip-path="url(#clip-10)"
     id="g75">
    <use
       xlink:href="#source-52249"
       transform="translate(161,3)"
       id="use75" />
  </g>
  <path
     fill-rule="nonzero"
     fill="#262626"
     fill-opacity="1"
     d="m 156.72656,199.69531 c 0.55078,0 0.95703,-0.29687 1.23438,-0.90625 0.26172,-0.59375 0.40625,-1.50781 0.40625,-2.73828 0,-1.21484 -0.14453,-2.13281 -0.40625,-2.73437 -0.27735,-0.59766 -0.6836,-0.90625 -1.23438,-0.90625 -0.54687,0 -0.96875,0.30859 -1.23437,0.90625 -0.27344,0.60156 -0.40625,1.51953 -0.40625,2.73437 0,1.23047 0.13281,2.14453 0.40625,2.73828 0.26562,0.60938 0.6875,0.90625 1.23437,0.90625 z m 0,0.52344 c -0.8789,0 -1.5625,-0.36719 -2.04687,-1.09375 -0.48438,-0.73047 -0.72657,-1.74609 -0.72657,-3.07422 0,-1.3125 0.24219,-2.33984 0.72657,-3.07031 0.48437,-0.73047 1.16797,-1.10156 2.04687,-1.10156 0.8711,0 1.55469,0.37109 2.03906,1.10156 0.48438,0.73047 0.73829,1.75781 0.73829,3.07031 0,1.32813 -0.25391,2.34375 -0.73829,3.07422 -0.48437,0.72656 -1.16796,1.09375 -2.03906,1.09375 z m 0,0"
     id="path76" />
  <path
     fill-rule="nonzero"
     fill="#262626"
     fill-opacity="1"
     d="m 161.26562,199.50781 c 0,-0.19531 0.0664,-0.36328 0.19532,-0.5039 0.13672,-0.13672 0.3125,-0.21485 0.52343,-0.21485 0.19532,0 0.36329,0.0781 0.50391,0.21485 0.13281,0.14062 0.21094,0.30859 0.21094,0.5039 0,0.19922 -0.0781,0.375 -0.21094,0.51172 -0.14062,0.13281 -0.30859,0.19922 -0.50391,0.19922 -0.21093,0 -0.38671,-0.0664 -0.52343,-0.19922 -0.12891,-0.13672 -0.19532,-0.30078 -0.19532,-0.51172 z m 0,0"
     id="path77" />
  <path
     fill-rule="nonzero"
     fill="#262626"
     fill-opacity="1"
     d="m 168.89062,196.46094 c -0.24218,0.27734 -0.53125,0.47265 -0.83984,0.60547 -0.30859,0.13671 -0.66016,0.20312 -1.04687,0.20312 -0.80079,0 -1.4336,-0.23437 -1.89454,-0.71875 -0.46093,-0.48828 -0.68359,-1.13672 -0.68359,-1.97656 0,-0.82031 0.24219,-1.47266 0.75,-1.95703 0.49609,-0.48828 1.16797,-0.73828 2.00391,-0.73828 0.90234,0 1.61328,0.33984 2.09375,1.01562 0.48437,0.68359 0.72656,1.64453 0.72656,2.90234 0,1.41797 -0.29688,2.5 -0.86719,3.27344 -0.57812,0.76953 -1.39062,1.14844 -2.43359,1.14844 -0.28906,0 -0.58594,-0.0352 -0.89453,-0.0781 -0.3086,-0.043 -0.62891,-0.12109 -0.96094,-0.23437 v -1.33594 h 0.60547 c 0.0469,0.36328 0.17578,0.64063 0.42187,0.83985 0.23047,0.19921 0.53907,0.28515 0.9375,0.28515 0.69141,0 1.20703,-0.2539 1.55078,-0.78515 0.33204,-0.52735 0.50782,-1.34375 0.53125,-2.44922 z m -1.7539,-4.05078 c -0.50391,0 -0.90235,0.1875 -1.16406,0.55859 -0.28125,0.37891 -0.41407,0.90625 -0.41407,1.60547 0,0.70703 0.13282,1.23437 0.41407,1.61328 0.26171,0.375 0.66015,0.55078 1.16406,0.55078 0.50781,0 0.89062,-0.17578 1.16797,-0.53906 0.26172,-0.35938 0.41015,-0.875 0.41015,-1.5586 0,-0.71093 -0.14843,-1.25781 -0.41015,-1.64843 -0.27735,-0.38672 -0.66016,-0.58203 -1.16797,-0.58203 z m 0,0"
     id="path78" />
  <path
     fill-rule="nonzero"
     fill="#262626"
     fill-opacity="1"
     d="m 107.68359,206.375 -0.50781,2.63672 c 0.83203,0 1.48047,0.32812 1.92578,0.97656 0.44532,0.66797 0.54688,1.58203 0.33985,2.74219 -0.23438,1.17969 -0.70703,2.09375 -1.40625,2.74219 -0.69141,0.65234 -1.45703,0.96484 -2.3086,0.96484 L 105.23438,219 h -1.17188 l 0.50781,-2.5625 c -0.85547,0 -1.49609,-0.3125 -1.92578,-0.96484 -0.45703,-0.64844 -0.57422,-1.5625 -0.33984,-2.74219 0.22265,-1.16016 0.6914,-2.07422 1.41015,-2.74219 0.67579,-0.64844 1.44141,-0.97656 2.28516,-0.97656 l 0.52344,-2.63672 z m -1.74609,9.03125 c 0.47266,0 0.91406,-0.20703 1.32813,-0.64844 0.4414,-0.48437 0.7539,-1.16406 0.9375,-2.02734 0.15625,-0.84766 0.10156,-1.52344 -0.15625,-2.02344 -0.2461,-0.42969 -0.61329,-0.64844 -1.07813,-0.64844 z m -1.17187,0 1.03906,-5.34766 c -0.48047,0 -0.92188,0.21875 -1.32422,0.64844 -0.46875,0.5 -0.78125,1.17578 -0.9375,2.02344 -0.16797,0.86328 -0.11719,1.54297 0.15625,2.02734 0.23437,0.44141 0.58594,0.64844 1.06641,0.64844 z m 0,0"
     id="path79" />
  <g
     clip-path="url(#clip-13)"
     id="g79">
    <use
       xlink:href="#source-52252"
       transform="translate(44,181)"
       id="use79" />
  </g>
  <path
     fill-rule="nonzero"
     fill="#262626"
     fill-opacity="1"
     d="m 21.109375,185.96094 c 0.550781,0 0.957031,-0.30078 1.234375,-0.90625 0.261719,-0.59766 0.40625,-1.51172 0.40625,-2.73828 0,-1.21485 -0.144531,-2.13282 -0.40625,-2.73829 -0.277344,-0.59765 -0.683594,-0.90625 -1.234375,-0.90625 -0.550781,0 -0.96875,0.3086 -1.234375,0.90625 -0.273438,0.60547 -0.40625,1.52344 -0.40625,2.73829 0,1.22656 0.132812,2.14062 0.40625,2.73828 0.265625,0.60547 0.683594,0.90625 1.234375,0.90625 z m 0,0.51953 c -0.882813,0 -1.5625,-0.36328 -2.046875,-1.09375 -0.484375,-0.73047 -0.726562,-1.7461 -0.726562,-3.07031 0,-1.3125 0.242187,-2.34375 0.726562,-3.07032 0.484375,-0.73047 1.164062,-1.10156 2.046875,-1.10156 0.871094,0 1.554687,0.37109 2.035156,1.10156 0.484375,0.72657 0.738281,1.75782 0.738281,3.07032 0,1.32421 -0.253906,2.33984 -0.738281,3.07031 -0.480469,0.73047 -1.164062,1.09375 -2.035156,1.09375 z m 0,0"
     id="path80" />
  <path
     fill-rule="nonzero"
     fill="#262626"
     fill-opacity="1"
     d="m 25.648438,185.77344 c 0,-0.19922 0.06641,-0.36719 0.195312,-0.50782 0.132812,-0.13281 0.308594,-0.21093 0.519531,-0.21093 0.195313,0 0.363281,0.0781 0.507813,0.21093 0.132812,0.14063 0.210937,0.3086 0.210937,0.50782 0,0.19922 -0.07813,0.375 -0.210937,0.50781 -0.144532,0.13281 -0.3125,0.19922 -0.507813,0.19922 -0.210937,0 -0.386719,-0.0664 -0.519531,-0.19922 -0.128906,-0.13281 -0.195312,-0.29688 -0.195312,-0.50781 z m 0,0"
     id="path81" />
  <path
     fill-rule="nonzero"
     fill="#262626"
     fill-opacity="1"
     d="m 31.617188,185.96094 c 0.550781,0 0.957031,-0.30078 1.234374,-0.90625 0.261719,-0.59766 0.40625,-1.51172 0.40625,-2.73828 0,-1.21485 -0.144531,-2.13282 -0.40625,-2.73829 -0.277343,-0.59765 -0.683593,-0.90625 -1.234374,-0.90625 -0.546876,0 -0.96875,0.3086 -1.234376,0.90625 -0.273437,0.60547 -0.40625,1.52344 -0.40625,2.73829 0,1.22656 0.132813,2.14062 0.40625,2.73828 0.265626,0.60547 0.6875,0.90625 1.234376,0.90625 z m 0,0.51953 c -0.882813,0 -1.5625,-0.36328 -2.046876,-1.09375 -0.484374,-0.73047 -0.726562,-1.7461 -0.726562,-3.07031 0,-1.3125 0.242188,-2.34375 0.726562,-3.07032 0.484376,-0.73047 1.164063,-1.10156 2.046876,-1.10156 0.871093,0 1.554687,0.37109 2.035156,1.10156 0.488281,0.72657 0.742187,1.75782 0.742187,3.07032 0,1.32421 -0.253906,2.33984 -0.742187,3.07031 -0.480469,0.73047 -1.164063,1.09375 -2.035156,1.09375 z m 0,0"
     id="path82" />
  <g
     clip-path="url(#clip-16)"
     id="g82">
    <use
       xlink:href="#source-52255"
       transform="translate(44,146)"
       id="use82" />
  </g>
  <path
     fill-rule="nonzero"
     fill="#262626"
     fill-opacity="1"
     d="m 21.109375,150.33203 c 0.550781,0 0.957031,-0.29687 1.234375,-0.90625 0.261719,-0.59766 0.40625,-1.51172 0.40625,-2.73828 0,-1.21484 -0.144531,-2.13281 -0.40625,-2.73828 -0.277344,-0.59766 -0.683594,-0.90625 -1.234375,-0.90625 -0.550781,0 -0.96875,0.30859 -1.234375,0.90625 -0.273438,0.60547 -0.40625,1.52344 -0.40625,2.73828 0,1.22656 0.132812,2.14062 0.40625,2.73828 0.265625,0.60938 0.683594,0.90625 1.234375,0.90625 z m 0,0.51953 c -0.882813,0 -1.5625,-0.36328 -2.046875,-1.09375 -0.484375,-0.73047 -0.726562,-1.74609 -0.726562,-3.07031 0,-1.3125 0.242187,-2.33984 0.726562,-3.07031 0.484375,-0.73047 1.164062,-1.10157 2.046875,-1.10157 0.871094,0 1.554687,0.3711 2.035156,1.10157 0.484375,0.73047 0.738281,1.75781 0.738281,3.07031 0,1.32422 -0.253906,2.33984 -0.738281,3.07031 -0.480469,0.73047 -1.164062,1.09375 -2.035156,1.09375 z m 0,0"
     id="path83" />
  <path
     fill-rule="nonzero"
     fill="#262626"
     fill-opacity="1"
     d="m 25.648438,150.14453 c 0,-0.19922 0.06641,-0.36719 0.195312,-0.50781 0.132812,-0.13281 0.308594,-0.21094 0.519531,-0.21094 0.195313,0 0.363281,0.0781 0.507813,0.21094 0.132812,0.14062 0.210937,0.30859 0.210937,0.50781 0,0.19922 -0.07813,0.375 -0.210937,0.50781 -0.144532,0.13282 -0.3125,0.19922 -0.507813,0.19922 -0.210937,0 -0.386719,-0.0664 -0.519531,-0.19922 -0.128906,-0.13281 -0.195312,-0.29687 -0.195312,-0.50781 z m 0,0"
     id="path84" />
  <path
     fill-rule="nonzero"
     fill="#262626"
     fill-opacity="1"
     d="m 29.523438,144.57812 h -0.601563 v -1.4375 c 0.371094,-0.19921 0.757813,-0.35156 1.152344,-0.46093 0.386719,-0.10938 0.769531,-0.16407 1.148437,-0.16407 0.835938,0 1.496094,0.20704 1.980469,0.60157 0.484375,0.41406 0.730469,0.96093 0.730469,1.66015 0,0.79688 -0.554688,1.73438 -1.65625,2.82813 -0.08594,0.0859 -0.140625,0.14062 -0.183594,0.1875 l -2.03125,2.03125 h 3.347656 v -0.9961 h 0.632813 v 1.87891 H 28.863281 V 150.125 l 2.4375,-2.44531 c 0.527344,-0.52735 0.914063,-1.02344 1.144531,-1.47657 0.230469,-0.45312 0.351563,-0.92578 0.351563,-1.42578 0,-0.54297 -0.144531,-0.96093 -0.429687,-1.26953 -0.285157,-0.3125 -0.671876,-0.46484 -1.15625,-0.46484 -0.519532,0 -0.914063,0.1289 -1.191407,0.38672 -0.285156,0.2539 -0.449219,0.64062 -0.496093,1.14843 z m 0,0"
     id="path85" />
  <g
     clip-path="url(#clip-19)"
     id="g85">
    <use
       xlink:href="#source-52258"
       transform="translate(44,110)"
       id="use85" />
  </g>
  <path
     fill-rule="nonzero"
     fill="#262626"
     fill-opacity="1"
     d="m 21.109375,114.70313 c 0.550781,0 0.957031,-0.29688 1.234375,-0.90625 0.261719,-0.59766 0.40625,-1.51172 0.40625,-2.73829 0,-1.21484 -0.144531,-2.13281 -0.40625,-2.73828 -0.277344,-0.59375 -0.683594,-0.90625 -1.234375,-0.90625 -0.550781,0 -0.96875,0.3125 -1.234375,0.90625 -0.273438,0.60547 -0.40625,1.52344 -0.40625,2.73828 0,1.22657 0.132812,2.14063 0.40625,2.73829 0.265625,0.60937 0.683594,0.90625 1.234375,0.90625 z m 0,0.52343 c -0.882813,0 -1.5625,-0.36718 -2.046875,-1.09765 -0.484375,-0.72657 -0.726562,-1.74219 -0.726562,-3.07032 0,-1.3125 0.242187,-2.33984 0.726562,-3.07031 0.484375,-0.73047 1.164062,-1.10156 2.046875,-1.10156 0.871094,0 1.554687,0.37109 2.035156,1.10156 0.484375,0.73047 0.738281,1.75781 0.738281,3.07031 0,1.32813 -0.253906,2.34375 -0.738281,3.07032 -0.480469,0.73047 -1.164062,1.09765 -2.035156,1.09765 z m 0,0"
     id="path86" />
  <path
     fill-rule="nonzero"
     fill="#262626"
     fill-opacity="1"
     d="m 25.648438,114.51563 c 0,-0.19532 0.06641,-0.36719 0.195312,-0.50782 0.132812,-0.13281 0.308594,-0.21093 0.519531,-0.21093 0.195313,0 0.363281,0.0781 0.507813,0.21093 0.132812,0.14063 0.210937,0.3125 0.210937,0.50782 0,0.19921 -0.07813,0.375 -0.210937,0.50781 -0.144532,0.13281 -0.3125,0.20312 -0.507813,0.20312 -0.210937,0 -0.386719,-0.0703 -0.519531,-0.20312 -0.128906,-0.13281 -0.195312,-0.29688 -0.195312,-0.50781 z m 0,0"
     id="path87" />
  <path
     fill-rule="nonzero"
     fill="#262626"
     fill-opacity="1"
     d="m 31.960938,112.34766 v -4.28125 l -2.742188,4.28125 z m 2.367187,2.73047 h -3.660156 v -0.57032 h 1.292969 v -1.58203 h -3.503907 v -0.58594 l 3.515625,-5.45312 h 1.066406 v 5.46094 h 1.53125 v 0.57812 h -1.53125 v 1.58203 h 1.289063 z m 0,0"
     id="path88" />
  <g
     clip-path="url(#clip-22)"
     id="g88">
    <use
       xlink:href="#source-52261"
       transform="translate(44,74)"
       id="use88" />
  </g>
  <path
     fill-rule="nonzero"
     fill="#262626"
     fill-opacity="1"
     d="m 21.109375,79.074219 c 0.550781,0 0.957031,-0.296875 1.234375,-0.90625 0.261719,-0.597657 0.40625,-1.507813 0.40625,-2.738281 0,-1.214844 -0.144531,-2.132813 -0.40625,-2.738282 -0.277344,-0.59375 -0.683594,-0.90625 -1.234375,-0.90625 -0.550781,0 -0.96875,0.3125 -1.234375,0.90625 -0.273438,0.605469 -0.40625,1.523438 -0.40625,2.738282 0,1.230468 0.132812,2.140624 0.40625,2.738281 0.265625,0.609375 0.683594,0.90625 1.234375,0.90625 z m 0,0.523437 c -0.882813,0 -1.5625,-0.367187 -2.046875,-1.097656 -0.484375,-0.726562 -0.726562,-1.742188 -0.726562,-3.070312 0,-1.3125 0.242187,-2.339844 0.726562,-3.070313 0.484375,-0.730469 1.164062,-1.101563 2.046875,-1.101563 0.871094,0 1.554687,0.371094 2.035156,1.101563 0.484375,0.730469 0.738281,1.757813 0.738281,3.070313 0,1.328124 -0.253906,2.34375 -0.738281,3.070312 -0.480469,0.730469 -1.164062,1.097656 -2.035156,1.097656 z m 0,0"
     id="path89" />
  <path
     fill-rule="nonzero"
     fill="#262626"
     fill-opacity="1"
     d="m 25.648438,78.886719 c 0,-0.195313 0.06641,-0.367188 0.195312,-0.507813 0.132812,-0.132812 0.308594,-0.210937 0.519531,-0.210937 0.195313,0 0.363281,0.07813 0.507813,0.210937 0.132812,0.140625 0.210937,0.3125 0.210937,0.507813 0,0.199219 -0.07813,0.375 -0.210937,0.507812 -0.144532,0.136719 -0.3125,0.203125 -0.507813,0.203125 -0.210937,0 -0.386719,-0.06641 -0.519531,-0.203125 -0.128906,-0.132812 -0.195312,-0.296875 -0.195312,-0.507812 z m 0,0"
     id="path90" />
  <path
     fill-rule="nonzero"
     fill="#262626"
     fill-opacity="1"
     d="m 31.71875,79.074219 c 0.503906,0 0.890625,-0.175781 1.164062,-0.554688 0.265626,-0.371093 0.410157,-0.898437 0.410157,-1.609375 0,-0.695312 -0.144531,-1.226562 -0.410157,-1.601562 -0.273437,-0.375 -0.660156,-0.566406 -1.164062,-0.566406 -0.519531,0 -0.917969,0.191406 -1.179688,0.542968 -0.265624,0.363282 -0.398437,0.886719 -0.398437,1.558594 0,0.714844 0.132813,1.269531 0.40625,1.65625 0.265625,0.386719 0.664063,0.574219 1.171875,0.574219 z m -1.753906,-4.050781 c 0.242187,-0.269532 0.515625,-0.476563 0.824218,-0.609376 0.3125,-0.132812 0.652344,-0.199218 1.050782,-0.199218 0.792968,0 1.429687,0.242187 1.890625,0.730468 0.464843,0.484376 0.699219,1.136719 0.699219,1.964844 0,0.820313 -0.253907,1.46875 -0.753907,1.957032 -0.503906,0.484374 -1.164062,0.730468 -2,0.730468 -0.90625,0 -1.613281,-0.335937 -2.09375,-1.007812 -0.484375,-0.671875 -0.726562,-1.644532 -0.726562,-2.90625 0,-1.402344 0.285156,-2.496094 0.855469,-3.269532 0.574218,-0.773437 1.390624,-1.15625 2.445312,-1.15625 0.289062,0 0.585938,0.03125 0.894531,0.07422 0.304688,0.05469 0.625,0.132813 0.960938,0.242188 v 1.328125 h -0.609375 c -0.04687,-0.355469 -0.1875,-0.628906 -0.417969,-0.828125 -0.230469,-0.191407 -0.539063,-0.289063 -0.9375,-0.289063 -0.703125,0 -1.222656,0.265625 -1.566406,0.792969 -0.339844,0.535156 -0.515625,1.351563 -0.515625,2.445312 z m 0,0"
     id="path91" />
  <g
     clip-path="url(#clip-25)"
     id="g91">
    <use
       xlink:href="#source-52264"
       transform="translate(44,38)"
       id="use91" />
  </g>
  <path
     fill-rule="nonzero"
     fill="#262626"
     fill-opacity="1"
     d="m 21.109375,43.445312 c 0.550781,0 0.957031,-0.296874 1.234375,-0.90625 0.261719,-0.59375 0.40625,-1.507812 0.40625,-2.738281 0,-1.214843 -0.144531,-2.132812 -0.40625,-2.738281 -0.277344,-0.59375 -0.683594,-0.90625 -1.234375,-0.90625 -0.550781,0 -0.96875,0.3125 -1.234375,0.90625 -0.273438,0.605469 -0.40625,1.523438 -0.40625,2.738281 0,1.230469 0.132812,2.144531 0.40625,2.738281 0.265625,0.609376 0.683594,0.90625 1.234375,0.90625 z m 0,0.523438 c -0.882813,0 -1.5625,-0.367188 -2.046875,-1.09375 -0.484375,-0.730469 -0.726562,-1.746094 -0.726562,-3.074219 0,-1.3125 0.242187,-2.339843 0.726562,-3.070312 0.484375,-0.730469 1.164062,-1.101563 2.046875,-1.101563 0.871094,0 1.554687,0.371094 2.035156,1.101563 0.484375,0.730469 0.738281,1.757812 0.738281,3.070312 0,1.328125 -0.253906,2.34375 -0.738281,3.074219 -0.480469,0.726562 -1.164062,1.09375 -2.035156,1.09375 z m 0,0"
     id="path92" />
  <path
     fill-rule="nonzero"
     fill="#262626"
     fill-opacity="1"
     d="m 25.648438,43.257812 c 0,-0.195312 0.06641,-0.363281 0.195312,-0.507812 0.132812,-0.132812 0.308594,-0.210938 0.519531,-0.210938 0.195313,0 0.363281,0.07813 0.507813,0.210938 0.132812,0.144531 0.210937,0.3125 0.210937,0.507812 0,0.199219 -0.07813,0.375 -0.210937,0.507813 -0.144532,0.136719 -0.3125,0.203125 -0.507813,0.203125 -0.210937,0 -0.386719,-0.06641 -0.519531,-0.203125 -0.128906,-0.132813 -0.195312,-0.296875 -0.195312,-0.507813 z m 0,0"
     id="path93" />
  <path
     fill-rule="nonzero"
     fill="#262626"
     fill-opacity="1"
     d="m 33.246094,41.625 c 0,-0.574219 -0.140625,-1.015625 -0.429688,-1.335938 -0.285156,-0.324218 -0.691406,-0.488281 -1.199218,-0.488281 -0.515626,0 -0.914063,0.164063 -1.199219,0.488281 -0.289063,0.320313 -0.429688,0.761719 -0.429688,1.335938 0,0.574219 0.140625,1.027344 0.429688,1.347656 0.285156,0.320313 0.683593,0.472656 1.199219,0.472656 0.507812,0 0.914062,-0.152343 1.199218,-0.472656 0.289063,-0.320312 0.429688,-0.773437 0.429688,-1.347656 z m -0.21875,-3.910156 c 0,-0.484375 -0.132813,-0.875 -0.375,-1.148438 -0.253906,-0.265625 -0.59375,-0.410156 -1.035156,-0.410156 -0.4375,0 -0.792969,0.144531 -1.035157,0.410156 -0.253906,0.273438 -0.375,0.664063 -0.375,1.148438 0,0.496094 0.121094,0.882812 0.375,1.148437 0.242188,0.277344 0.597657,0.410157 1.035157,0.410157 0.441406,0 0.78125,-0.132813 1.035156,-0.410157 0.242187,-0.265625 0.375,-0.652343 0.375,-1.148437 z m -0.582032,1.820312 c 0.605469,0.08984 1.078126,0.308594 1.421876,0.675782 0.339843,0.375 0.515624,0.839843 0.515624,1.414062 0,0.75 -0.242187,1.335938 -0.71875,1.734375 -0.484374,0.40625 -1.164062,0.609375 -2.046874,0.609375 -0.894532,0 -1.574219,-0.203125 -2.046876,-0.609375 C 29.085938,42.960938 28.855469,42.375 28.855469,41.625 c 0,-0.574219 0.164062,-1.039062 0.503906,-1.414062 0.34375,-0.367188 0.816406,-0.585938 1.429687,-0.675782 -0.550781,-0.08594 -0.957031,-0.296875 -1.242187,-0.617187 -0.285156,-0.308594 -0.429687,-0.714844 -0.429687,-1.203125 0,-0.644532 0.222656,-1.148438 0.660156,-1.527344 0.441406,-0.375 1.058594,-0.558594 1.839844,-0.558594 0.773437,0 1.386718,0.183594 1.828124,0.558594 0.445313,0.378906 0.675782,0.882812 0.675782,1.527344 0,0.488281 -0.15625,0.894531 -0.445313,1.203125 -0.285156,0.320312 -0.703125,0.53125 -1.230469,0.617187 z m 0,0"
     id="path94" />
  <g
     clip-path="url(#clip-28)"
     id="g94">
    <use
       xlink:href="#source-52267"
       transform="translate(44,3)"
       id="use94" />
  </g>
  <path
     fill-rule="nonzero"
     fill="#262626"
     fill-opacity="1"
     d="M 19.171875,8.195312 V 7.621094 h 1.398437 V 0.925781 L 18.953125,1.976562 V 1.265625 L 20.910156,0 h 0.738282 v 7.621094 h 1.398437 v 0.574218 z m 0,0"
     id="path95" />
  <path
     fill-rule="nonzero"
     fill="#262626"
     fill-opacity="1"
     d="m 25.648438,7.628906 c 0,-0.195312 0.06641,-0.363281 0.195312,-0.503906 0.132812,-0.136719 0.308594,-0.214844 0.519531,-0.214844 0.195313,0 0.363281,0.078125 0.507813,0.214844 0.132812,0.140625 0.210937,0.308594 0.210937,0.503906 0,0.199219 -0.07813,0.375 -0.210937,0.511719 -0.144532,0.132813 -0.3125,0.199219 -0.507813,0.199219 -0.210937,0 -0.386719,-0.066406 -0.519531,-0.199219 C 25.714844,8.003906 25.648438,7.839844 25.648438,7.628906 Z m 0,0"
     id="path96" />
  <path
     fill-rule="nonzero"
     fill="#262626"
     fill-opacity="1"
     d="m 31.617188,7.816406 c 0.550781,0 0.957031,-0.296875 1.234374,-0.90625 0.261719,-0.59375 0.40625,-1.507812 0.40625,-2.738281 0,-1.214844 -0.144531,-2.132813 -0.40625,-2.734375 -0.277343,-0.597656 -0.683593,-0.90625 -1.234374,-0.90625 -0.546876,0 -0.96875,0.308594 -1.234376,0.90625 -0.273437,0.601562 -0.40625,1.519531 -0.40625,2.734375 0,1.230469 0.132813,2.144531 0.40625,2.738281 0.265626,0.609375 0.6875,0.90625 1.234376,0.90625 z m 0,0.523438 c -0.882813,0 -1.5625,-0.367188 -2.046876,-1.09375 C 29.085938,6.515625 28.84375,5.5 28.84375,4.171875 c 0,-1.3125 0.242188,-2.339844 0.726562,-3.070313 C 30.054688,0.371094 30.734375,0 31.617188,0 c 0.871093,0 1.554687,0.371094 2.035156,1.101562 0.488281,0.730469 0.742187,1.757813 0.742187,3.070313 0,1.328125 -0.253906,2.34375 -0.742187,3.074219 -0.480469,0.726562 -1.164063,1.09375 -2.035156,1.09375 z m 0,0"
     id="path97" />
  <path
     fill-rule="nonzero"
     fill="#262626"
     fill-opacity="1"
     d="M 9.894531,138.95312 H 9.214844 v -1.21093 H 1.15625 v 2.79297 h 1.484375 v 0.78125 H 0.402344 v -8.44532 h 2.238281 v 0.78125 H 1.15625 v 2.79297 h 8.058594 v -1.21094 h 0.679687 z m 0,0"
     id="path98" />
  <path
     fill-rule="nonzero"
     fill="#262626"
     fill-opacity="1"
     d="m 9.449219,129.8125 c 0,-0.62109 -0.246094,-1.09375 -0.742188,-1.41797 -0.492187,-0.3125 -1.222656,-0.48828 -2.1875,-0.48828 -0.960937,0 -1.703125,0.17578 -2.195312,0.48828 -0.5,0.32422 -0.746094,0.79688 -0.746094,1.41797 0,0.62891 0.246094,1.11328 0.746094,1.42578 0.492187,0.32422 1.234375,0.48438 2.195312,0.48438 0.964844,0 1.695313,-0.16016 2.1875,-0.48438 0.496094,-0.3125 0.742188,-0.79687 0.742188,-1.42578 z m 0.613281,0 c 0,0.99609 -0.316406,1.77734 -0.964844,2.37891 -0.648437,0.60156 -1.507812,0.90234 -2.589844,0.90234 -1.066406,0 -1.925781,-0.28906 -2.578124,-0.89063 -0.652344,-0.60156 -0.976563,-1.39453 -0.976563,-2.39062 0,-0.99219 0.324219,-1.76953 0.976563,-2.37109 0.652343,-0.60547 1.511718,-0.90235 2.578124,-0.90235 1.082032,0 1.941407,0.29688 2.589844,0.90235 0.648438,0.60156 0.964844,1.3789 0.964844,2.37109 z m 0,0"
     id="path99" />
  <path
     fill-rule="nonzero"
     fill="#262626"
     fill-opacity="1"
     d="m 3.8125,124.47656 v 1.02735 H 3.136719 v -1.02735 H 1.039062 v -1.17578 h 2.097657 v -2.20312 H 3.8125 v 2.20312 h 4.296875 c 0.570313,0 0.949219,-0.0508 1.105469,-0.16797 0.15625,-0.10547 0.234375,-0.3125 0.234375,-0.61718 0,-0.29688 -0.089844,-0.51954 -0.273438,-0.66016 -0.183593,-0.13672 -0.46875,-0.21484 -0.871093,-0.22656 v -0.88672 c 0.625,0.043 1.066406,0.21094 1.339843,0.51172 0.277344,0.29687 0.417969,0.75781 0.417969,1.36718 0,0.67969 -0.15625,1.16407 -0.445312,1.4375 -0.285157,0.28516 -0.792969,0.41797 -1.507813,0.41797 z m 0,0"
     id="path100" />
  <path
     fill-rule="nonzero"
     fill="#262626"
     fill-opacity="1"
     d="m 7.773438,115.44141 h -1.4375 v 1.51953 c 0,0.58203 0.132812,1.01562 0.378906,1.30078 0.261718,0.28906 0.640625,0.41797 1.148437,0.41797 0.46875,0 0.84375,-0.14453 1.117188,-0.42969 0.285156,-0.28516 0.417969,-0.67969 0.417969,-1.17578 0,-0.48438 -0.144532,-0.875 -0.445313,-1.17578 -0.296875,-0.30078 -0.6875,-0.45703 -1.179687,-0.45703 z m -2.097657,-1.17188 h 3.539063 v -1.04297 h 0.679687 v 2.21485 H 9.164062 c 0.3125,0.26172 0.542969,0.5664 0.691407,0.90234 0.128906,0.33984 0.207031,0.74609 0.207031,1.1875 0,0.75781 -0.195312,1.35938 -0.585938,1.80078 -0.390624,0.44531 -0.9375,0.65625 -1.613281,0.65625 -0.691406,0 -1.226562,-0.25 -1.617187,-0.75781 -0.390625,-0.5 -0.585938,-1.21484 -0.585938,-2.14063 v -1.64843 H 5.195312 c -0.507812,0 -0.898437,0.15625 -1.1875,0.47265 -0.285156,0.3125 -0.429687,0.75391 -0.429687,1.31641 0,0.46875 0.117187,0.83594 0.324219,1.10937 0.207031,0.28516 0.523437,0.46094 0.941406,0.52344 v 0.59766 H 3.472656 c -0.167968,-0.40235 -0.296875,-0.79688 -0.390625,-1.1836 -0.078125,-0.3789 -0.128906,-0.75781 -0.128906,-1.125 0,-0.9375 0.234375,-1.64453 0.703125,-2.13671 0.46875,-0.5 1.132812,-0.7461 2.019531,-0.7461 z m 0,0"
     id="path101" />
  <path
     fill-rule="nonzero"
     fill="#262626"
     fill-opacity="1"
     d="m 9.214844,110.18359 v -1.10937 h 0.679687 v 3.40234 H 9.214844 v -1.12109 H 0.675781 v 1.12109 H 0 v -2.29297 z m 0,0"
     id="path102" />
  <path
     fill-rule="nonzero"
     fill="#262626"
     fill-opacity="1"
     d="M 1.078125,102.24609 8.371094,99.4375 1.078125,96.632812 v 1.070313 H 0.402344 v -2.792969 h 0.675781 v 0.929688 l 8.816406,3.390625 v 1.093751 l -8.816406,3.38281 v 0.94141 H 0.402344 v -3.46094 h 0.675781 z m 0,0"
     id="path103" />
  <path
     fill-rule="nonzero"
     fill="#262626"
     fill-opacity="1"
     d="m 7.773438,91.101562 h -1.4375 v 1.515626 c 0,0.585937 0.132812,1.015624 0.378906,1.304687 0.261718,0.289063 0.640625,0.417969 1.148437,0.417969 0.46875,0 0.84375,-0.144532 1.117188,-0.429688 0.285156,-0.289062 0.417969,-0.679687 0.417969,-1.179687 0,-0.480469 -0.144532,-0.871094 -0.445313,-1.171875 C 8.65625,91.257812 8.265625,91.101562 7.773438,91.101562 Z M 5.675781,89.929688 h 3.539063 v -1.046876 h 0.679687 v 2.21875 H 9.164062 c 0.3125,0.261719 0.542969,0.5625 0.691407,0.902344 0.128906,0.339844 0.207031,0.742188 0.207031,1.1875 0,0.757813 -0.195312,1.355469 -0.585938,1.800782 -0.390624,0.441406 -0.9375,0.65625 -1.613281,0.65625 -0.691406,0 -1.226562,-0.253907 -1.617187,-0.757813 -0.390625,-0.5 -0.585938,-1.21875 -0.585938,-2.144531 V 91.101562 H 5.195312 c -0.507812,0 -0.898437,0.15625 -1.1875,0.46875 -0.285156,0.316407 -0.429687,0.757813 -0.429687,1.320313 0,0.46875 0.117187,0.835937 0.324219,1.109375 0.207031,0.285156 0.523437,0.457031 0.941406,0.519531 v 0.601563 H 3.472656 C 3.304688,94.71875 3.175781,94.324219 3.082031,93.9375 3.003906,93.554688 2.953125,93.179688 2.953125,92.8125 2.953125,91.875 3.1875,91.167969 3.65625,90.671875 4.125,90.175781 4.789062,89.929688 5.675781,89.929688 Z m 0,0"
     id="path104" />
  <path
     fill-rule="nonzero"
     fill="#262626"
     fill-opacity="1"
     d="m 3.121094,82.277344 h 1.695312 v 0.679687 c -0.335937,0.02734 -0.585937,0.117188 -0.757812,0.273438 -0.15625,0.167969 -0.246094,0.417969 -0.246094,0.734375 0,0.570312 0.207031,1.015625 0.601562,1.328125 C 4.816406,85.605469 5.390625,85.75 6.128906,85.75 h 3.085938 v -1.359375 h 0.679687 v 3.59375 H 9.214844 V 86.925781 H 3.796875 v 1.121094 H 3.136719 V 85.75 H 4.335938 C 3.863281,85.527344 3.527344,85.242188 3.292969,84.875 3.070312,84.507812 2.953125,84.066406 2.953125,83.542969 c 0,-0.183594 0.027344,-0.390625 0.050781,-0.597657 0.027344,-0.210937 0.066406,-0.433593 0.117188,-0.667968 z m 0,0"
     id="path105" />
  <path
     fill-rule="nonzero"
     fill="#262626"
     fill-opacity="1"
     d="m 1.039062,81.011719 c -0.195312,0 -0.363281,-0.0625 -0.507812,-0.207031 C 0.390625,80.65625 0.3125,80.488281 0.3125,80.28125 c 0,-0.183594 0.078125,-0.351562 0.21875,-0.496094 0.144531,-0.144531 0.3125,-0.222656 0.507812,-0.222656 0.207032,0 0.378907,0.07813 0.511719,0.210938 0.140625,0.144531 0.207031,0.3125 0.207031,0.507812 0,0.207031 -0.066406,0.375 -0.207031,0.523438 -0.132812,0.144531 -0.304687,0.207031 -0.511719,0.207031 z m 8.175782,-1.503907 v -1.105468 h 0.679687 v 3.40625 H 9.214844 v -1.125 H 3.8125 v 1.125 H 3.136719 v -2.300782 z m 0,0"
     id="path106" />
  <path
     fill-rule="nonzero"
     fill="#262626"
     fill-opacity="1"
     d="m 7.773438,72.902344 h -1.4375 v 1.519531 c 0,0.585937 0.132812,1.015625 0.378906,1.300781 0.261718,0.292969 0.640625,0.421875 1.148437,0.421875 0.46875,0 0.84375,-0.144531 1.117188,-0.433593 0.285156,-0.285157 0.417969,-0.675782 0.417969,-1.175782 0,-0.480468 -0.144532,-0.875 -0.445313,-1.171875 C 8.65625,73.058594 8.265625,72.902344 7.773438,72.902344 Z M 5.675781,71.730469 H 9.214844 V 70.6875 h 0.679687 v 2.214844 H 9.164062 c 0.3125,0.265625 0.542969,0.566406 0.691407,0.902344 0.128906,0.34375 0.207031,0.746093 0.207031,1.191406 0,0.753906 -0.195312,1.355468 -0.585938,1.796875 -0.390624,0.445312 -0.9375,0.65625 -1.613281,0.65625 -0.691406,0 -1.226562,-0.25 -1.617187,-0.757813 C 5.855469,76.195312 5.660156,75.476562 5.660156,74.550781 V 72.902344 H 5.195312 c -0.507812,0 -0.898437,0.15625 -1.1875,0.472656 -0.285156,0.3125 -0.429687,0.757812 -0.429687,1.316406 0,0.472656 0.117187,0.835938 0.324219,1.109375 0.207031,0.289063 0.523437,0.460938 0.941406,0.523438 v 0.601562 H 3.472656 c -0.167968,-0.40625 -0.296875,-0.796875 -0.390625,-1.1875 -0.078125,-0.378906 -0.128906,-0.757812 -0.128906,-1.125 0,-0.9375 0.234375,-1.644531 0.703125,-2.136719 0.46875,-0.5 1.132812,-0.746093 2.019531,-0.746093 z m 0,0"
     id="path107" />
  <path
     fill-rule="nonzero"
     fill="#262626"
     fill-opacity="1"
     d="m 3.8125,68.914062 v 1.027344 H 3.136719 V 68.914062 H 1.039062 V 67.734375 H 3.136719 V 65.53125 H 3.8125 v 2.203125 h 4.296875 c 0.570313,0 0.949219,-0.05078 1.105469,-0.167969 0.15625,-0.105468 0.234375,-0.3125 0.234375,-0.613281 0,-0.300781 -0.089844,-0.523437 -0.273438,-0.664063 C 8.992188,66.15625 8.707031,66.078125 8.304688,66.066406 v -0.886718 c 0.625,0.03906 1.066406,0.207031 1.339843,0.507812 0.277344,0.300781 0.417969,0.757812 0.417969,1.371094 0,0.675781 -0.15625,1.160156 -0.445312,1.433594 -0.285157,0.285156 -0.792969,0.421874 -1.507813,0.421874 z m 0,0"
     id="path108" />
  <path
     fill-rule="nonzero"
     fill="#262626"
     fill-opacity="1"
     d="m 1.039062,63.804688 c -0.195312,0 -0.363281,-0.0625 -0.507812,-0.207032 -0.140625,-0.144531 -0.21875,-0.3125 -0.21875,-0.519531 0,-0.1875 0.078125,-0.355469 0.21875,-0.5 0.144531,-0.140625 0.3125,-0.21875 0.507812,-0.21875 0.207032,0 0.378907,0.07813 0.511719,0.207031 0.140625,0.144532 0.207031,0.3125 0.207031,0.511719 0,0.207031 -0.066406,0.375 -0.207031,0.519531 -0.132812,0.144532 -0.304687,0.207032 -0.511719,0.207032 z m 8.175782,-1.5 v -1.105469 h 0.679687 v 3.402343 H 9.214844 V 63.480469 H 3.8125 v 1.121093 H 3.136719 v -2.296874 z m 0,0"
     id="path109" />
  <path
     fill-rule="nonzero"
     fill="#262626"
     fill-opacity="1"
     d="m 9.449219,56.964844 c 0,-0.621094 -0.246094,-1.09375 -0.742188,-1.417969 -0.492187,-0.316406 -1.222656,-0.488281 -2.1875,-0.488281 -0.960937,0 -1.703125,0.171875 -2.195312,0.488281 -0.5,0.324219 -0.746094,0.796875 -0.746094,1.417969 0,0.628906 0.246094,1.109375 0.746094,1.425781 0.492187,0.324219 1.234375,0.480469 2.195312,0.480469 0.964844,0 1.695313,-0.15625 2.1875,-0.480469 0.496094,-0.316406 0.742188,-0.796875 0.742188,-1.425781 z m 0.613281,0 c 0,0.992187 -0.316406,1.777344 -0.964844,2.378906 -0.648437,0.597656 -1.507812,0.902344 -2.589844,0.902344 -1.066406,0 -1.925781,-0.292969 -2.578124,-0.890625 -0.652344,-0.601563 -0.976563,-1.398438 -0.976563,-2.390625 0,-0.992188 0.324219,-1.773438 0.976563,-2.371094 0.652343,-0.605469 1.511718,-0.902344 2.578124,-0.902344 1.082032,0 1.941407,0.296875 2.589844,0.902344 0.648438,0.597656 0.964844,1.378906 0.964844,2.371094 z m 0,0"
     id="path110" />
  <path
     fill-rule="nonzero"
     fill="#262626"
     fill-opacity="1"
     d="M 9.894531,52.503906 H 9.214844 V 51.445312 H 3.8125 v 1.121094 H 3.136719 V 50.269531 H 4.335938 C 3.890625,50.058594 3.539062,49.773438 3.304688,49.433594 3.070312,49.09375 2.953125,48.691406 2.953125,48.21875 c 0,-0.742188 0.222656,-1.292969 0.636719,-1.640625 0.429687,-0.355469 1.097656,-0.539063 2.007812,-0.539063 h 3.617188 v -1.042968 h 0.679687 v 3.234375 H 9.214844 V 47.214844 H 5.960938 c -0.820313,0 -1.378907,0.105468 -1.691407,0.316406 -0.316406,0.207031 -0.472656,0.558594 -0.472656,1.066406 0,0.546875 0.210937,0.96875 0.605469,1.253906 0.402344,0.289063 0.972656,0.417969 1.726562,0.417969 h 3.085938 v -1.015625 h 0.679687 z m 0,0"
     id="path111" />
  <g
     clip-path="url(#clip-31)"
     id="g112">
    <path
       fill="none"
       stroke-width="2.00828"
       stroke-linecap="round"
       stroke-linejoin="round"
       stroke="#d65f5f"
       stroke-opacity="1"
       stroke-miterlimit="10"
       d="m 50.372294,-89.488281 14.007102,-18.285159 14.007101,-18.85547 14.007102,-17.71093 14.007101,-18.20313 14.01102,-18.96875 1.07717,0.17969 12.92601,15.98437 14.0071,17.78516 14.00711,18.02734"
       transform="scale(0.997262,-1)"
       id="path112" />
  </g>
  <path
     fill-rule="nonzero"
     fill="#ffffff"
     fill-opacity="1"
     stroke-width="1.67128"
     stroke-linecap="butt"
     stroke-linejoin="round"
     stroke="#d65f5f"
     stroke-opacity="1"
     stroke-miterlimit="10"
     d="m 50.234375,92.5 c 0.792969,0 1.558594,-0.316406 2.121094,-0.878906 0.566406,-0.566406 0.882812,-1.332032 0.882812,-2.132813 0,-0.800781 -0.316406,-1.5625 -0.882812,-2.128906 -0.5625,-0.566406 -1.328125,-0.882813 -2.121094,-0.882813 -0.800781,0 -1.5625,0.316407 -2.125,0.882813 -0.5625,0.566406 -0.878906,1.328125 -0.878906,2.128906 0,0.800781 0.316406,1.566407 0.878906,2.132813 0.5625,0.5625 1.324219,0.878906 2.125,0.878906 z m 0,0"
     id="path113" />
  <path
     fill-rule="nonzero"
     fill="#ffffff"
     fill-opacity="1"
     stroke-width="1.67128"
     stroke-linecap="butt"
     stroke-linejoin="round"
     stroke="#d65f5f"
     stroke-opacity="1"
     stroke-miterlimit="10"
     d="m 64.203125,110.78516 c 0.796875,0 1.558594,-0.32032 2.121094,-0.88282 0.566406,-0.5664 0.882812,-1.33203 0.882812,-2.1289 0,-0.79688 -0.316406,-1.56641 -0.882812,-2.13281 -0.5625,-0.5625 -1.324219,-0.88282 -2.121094,-0.88282 -0.800781,0 -1.5625,0.32032 -2.125,0.88282 -0.5625,0.5664 -0.878907,1.33593 -0.878907,2.13281 0,0.79687 0.316407,1.5625 0.878907,2.1289 0.5625,0.5625 1.324219,0.88282 2.125,0.88282 z m 0,0"
     id="path114" />
  <path
     fill-rule="nonzero"
     fill="#ffffff"
     fill-opacity="1"
     stroke-width="1.67128"
     stroke-linecap="butt"
     stroke-linejoin="round"
     stroke="#d65f5f"
     stroke-opacity="1"
     stroke-miterlimit="10"
     d="m 78.171875,129.64453 c 0.796875,0 1.558594,-0.32031 2.121093,-0.88281 0.566407,-0.56641 0.882813,-1.33203 0.882813,-2.13281 0,-0.79688 -0.316406,-1.5625 -0.882813,-2.12891 -0.562499,-0.5625 -1.324218,-0.88281 -2.121093,-0.88281 -0.800782,0 -1.5625,0.32031 -2.125,0.88281 -0.5625,0.56641 -0.878906,1.33203 -0.878906,2.12891 0,0.80078 0.316406,1.5664 0.878906,2.13281 0.5625,0.5625 1.324218,0.88281 2.125,0.88281 z m 0,0"
     id="path115" />
  <path
     fill-rule="nonzero"
     fill="#ffffff"
     fill-opacity="1"
     stroke-width="1.67128"
     stroke-linecap="butt"
     stroke-linejoin="round"
     stroke="#d65f5f"
     stroke-opacity="1"
     stroke-miterlimit="10"
     d="m 92.140625,147.35156 c 0.796875,0 1.558594,-0.3164 2.121094,-0.88281 0.566406,-0.5625 0.882812,-1.32813 0.882812,-2.12891 0,-0.79687 -0.316406,-1.5625 -0.882812,-2.1289 -0.5625,-0.56641 -1.324219,-0.88282 -2.121094,-0.88282 -0.796875,0 -1.5625,0.31641 -2.125,0.88282 -0.5625,0.5664 -0.878906,1.33203 -0.878906,2.1289 0,0.80078 0.316406,1.56641 0.878906,2.12891 0.5625,0.56641 1.328125,0.88281 2.125,0.88281 z m 0,0"
     id="path116" />
  <path
     fill-rule="nonzero"
     fill="#ffffff"
     fill-opacity="1"
     stroke-width="1.67128"
     stroke-linecap="butt"
     stroke-linejoin="round"
     stroke="#d65f5f"
     stroke-opacity="1"
     stroke-miterlimit="10"
     d="m 106.10937,165.55859 c 0.79688,0 1.56251,-0.32031 2.125,-0.88281 0.56251,-0.56641 0.87891,-1.33203 0.87891,-2.13281 0,-0.79688 -0.3164,-1.5625 -0.87891,-2.12891 -0.56249,-0.5625 -1.32812,-0.88281 -2.125,-0.88281 -0.79687,0 -1.5625,0.32031 -2.12499,0.88281 -0.56251,0.56641 -0.88282,1.33203 -0.88282,2.12891 0,0.80078 0.32031,1.5664 0.88282,2.13281 0.56249,0.5625 1.32812,0.88281 2.12499,0.88281 z m 0,0"
     id="path117" />
  <g
     clip-path="url(#clip-32)"
     id="g118">
    <path
       fill-rule="nonzero"
       fill="#ffffff"
       fill-opacity="1"
       d="m 120.08203,184.52734 c 0.79297,0 1.5586,-0.32031 2.1211,-0.88281 0.5625,-0.56641 0.88281,-1.33203 0.88281,-2.13281 0,-0.79297 -0.32031,-1.5625 -0.88281,-2.12891 -0.5625,-0.5625 -1.32813,-0.88281 -2.1211,-0.88281 -0.80078,0 -1.5625,0.32031 -2.125,0.88281 -0.5625,0.56641 -0.88281,1.33594 -0.88281,2.12891 0,0.80078 0.32031,1.5664 0.88281,2.13281 0.5625,0.5625 1.32422,0.88281 2.125,0.88281 z m 0,0"
       id="path118" />
  </g>
  <g
     clip-path="url(#clip-33)"
     id="g119">
    <path
       fill="none"
       stroke-width="1.67357"
       stroke-linecap="butt"
       stroke-linejoin="round"
       stroke="#d65f5f"
       stroke-opacity="1"
       stroke-miterlimit="10"
       d="m 120.41172,-184.52734 c 0.79514,0 1.56287,0.32031 2.12692,0.88281 0.56404,0.56641 0.88523,1.33203 0.88523,2.13281 0,0.79297 -0.32119,1.5625 -0.88523,2.12891 -0.56405,0.5625 -1.33178,0.88281 -2.12692,0.88281 -0.80298,0 -1.56679,-0.32031 -2.13084,-0.88281 -0.56404,-0.56641 -0.88523,-1.33594 -0.88523,-2.12891 0,-0.80078 0.32119,-1.5664 0.88523,-2.13281 0.56405,-0.5625 1.32786,-0.88281 2.13084,-0.88281 z m 0,0"
       transform="scale(0.997262,-1)"
       id="path119" />
  </g>
  <g
     clip-path="url(#clip-34)"
     id="g120">
    <path
       fill-rule="nonzero"
       fill="#ffffff"
       fill-opacity="1"
       d="m 121.15625,184.34375 c 0.79688,0 1.55859,-0.31641 2.125,-0.88281 0.5625,-0.5625 0.87891,-1.32813 0.87891,-2.12891 0,-0.79687 -0.31641,-1.5625 -0.87891,-2.12891 -0.56641,-0.5664 -1.32812,-0.88281 -2.125,-0.88281 -0.79687,0 -1.5625,0.31641 -2.125,0.88281 -0.5625,0.56641 -0.87891,1.33204 -0.87891,2.12891 0,0.80078 0.31641,1.56641 0.87891,2.12891 0.5625,0.5664 1.32813,0.88281 2.125,0.88281 z m 0,0"
       id="path120" />
  </g>
  <g
     clip-path="url(#clip-35)"
     id="g121">
    <path
       fill="none"
       stroke-width="1.67357"
       stroke-linecap="butt"
       stroke-linejoin="round"
       stroke="#d65f5f"
       stroke-opacity="1"
       stroke-miterlimit="10"
       d="m 121.48889,-184.34375 c 0.79906,0 1.56287,0.31641 2.13083,0.88281 0.56404,0.5625 0.88132,1.32813 0.88132,2.12891 0,0.79687 -0.31728,1.5625 -0.88132,2.12891 -0.56796,0.5664 -1.33177,0.88281 -2.13083,0.88281 -0.79907,0 -1.56679,-0.31641 -2.13084,-0.88281 -0.56404,-0.56641 -0.88132,-1.33204 -0.88132,-2.12891 0,-0.80078 0.31728,-1.56641 0.88132,-2.12891 0.56405,-0.5664 1.33177,-0.88281 2.13084,-0.88281 z m 0,0"
       transform="scale(0.997262,-1)"
       id="path121" />
  </g>
  <path
     fill-rule="nonzero"
     fill="#ffffff"
     fill-opacity="1"
     stroke-width="1.67128"
     stroke-linecap="butt"
     stroke-linejoin="round"
     stroke="#d65f5f"
     stroke-opacity="1"
     stroke-miterlimit="10"
     d="m 134.04687,168.36328 c 0.80078,0 1.5625,-0.32031 2.12501,-0.88281 0.56249,-0.56641 0.8828,-1.33203 0.8828,-2.13281 0,-0.79688 -0.32031,-1.5625 -0.8828,-2.12891 -0.56251,-0.5625 -1.32423,-0.88281 -2.12501,-0.88281 -0.79687,0 -1.55859,0.32031 -2.12108,0.88281 -0.56251,0.56641 -0.88282,1.33203 -0.88282,2.12891 0,0.80078 0.32031,1.5664 0.88282,2.13281 0.56249,0.5625 1.32421,0.88281 2.12108,0.88281 z m 0,0"
     id="path122" />
  <path
     fill-rule="nonzero"
     fill="#ffffff"
     fill-opacity="1"
     stroke-width="1.67128"
     stroke-linecap="butt"
     stroke-linejoin="round"
     stroke="#d65f5f"
     stroke-opacity="1"
     stroke-miterlimit="10"
     d="m 148.01562,150.57422 c 0.80078,0 1.5625,-0.32031 2.12501,-0.88281 0.56249,-0.56641 0.8828,-1.33204 0.8828,-2.12891 0,-0.80078 -0.32031,-1.56641 -0.8828,-2.13281 -0.56251,-0.5625 -1.32423,-0.88282 -2.12501,-0.88282 -0.79687,0 -1.55859,0.32032 -2.12109,0.88282 -0.5664,0.5664 -0.88281,1.33203 -0.88281,2.13281 0,0.79687 0.31641,1.5625 0.88281,2.12891 0.5625,0.5625 1.32422,0.88281 2.12109,0.88281 z m 0,0"
     id="path123" />
  <path
     fill-rule="nonzero"
     fill="#ffffff"
     fill-opacity="1"
     stroke-width="1.67128"
     stroke-linecap="butt"
     stroke-linejoin="round"
     stroke="#d65f5f"
     stroke-opacity="1"
     stroke-miterlimit="10"
     d="m 161.98438,132.54687 c 0.80078,0 1.5625,-0.32031 2.12499,-0.88281 0.5625,-0.5664 0.87891,-1.33203 0.87891,-2.1289 0,-0.80079 -0.31641,-1.56641 -0.87891,-2.13282 -0.56249,-0.5625 -1.32421,-0.88281 -2.12499,-0.88281 -0.79297,0 -1.5586,0.32031 -2.1211,0.88281 -0.5664,0.56641 -0.88281,1.33203 -0.88281,2.13282 0,0.79687 0.31641,1.5625 0.88281,2.1289 0.5625,0.5625 1.32813,0.88281 2.1211,0.88281 z m 0,0"
     id="path124" />
  <path
     fill="none"
     stroke-width="1.50415"
     stroke-linecap="round"
     stroke-linejoin="round"
     stroke="#89bedd"
     stroke-opacity="1"
     stroke-miterlimit="10"
     d="M 92.140625,46.527344 106.10937,65 l 13.97266,6.640625 1.07422,0.113281 12.89062,-0.972656 13.96875,-21.738281"
     id="path125" />
  <path
     fill-rule="nonzero"
     fill="#ffffff"
     fill-opacity="1"
     stroke-width="1.25346"
     stroke-linecap="butt"
     stroke-linejoin="miter"
     stroke="#89bedd"
     stroke-opacity="1"
     stroke-miterlimit="10"
     d="m 89.136719,43.515625 h 6.007812 v 6.023437 h -6.007812 z m 0,0"
     id="path126" />
  <path
     fill-rule="nonzero"
     fill="#ffffff"
     fill-opacity="1"
     stroke-width="1.25346"
     stroke-linecap="butt"
     stroke-linejoin="miter"
     stroke="#89bedd"
     stroke-opacity="1"
     stroke-miterlimit="10"
     d="m 103.10156,61.988281 h 6.01172 v 6.027344 h -6.01172 z m 0,0"
     id="path127" />
  <path
     fill-rule="nonzero"
     fill="#ffffff"
     fill-opacity="1"
     stroke-width="1.25346"
     stroke-linecap="butt"
     stroke-linejoin="miter"
     stroke="#89bedd"
     stroke-opacity="1"
     stroke-miterlimit="10"
     d="m 117.07422,68.628906 h 6.01172 v 6.027344 h -6.01172 z m 0,0"
     id="path128" />
  <path
     fill-rule="nonzero"
     fill="#ffffff"
     fill-opacity="1"
     stroke-width="1.25346"
     stroke-linecap="butt"
     stroke-linejoin="miter"
     stroke="#89bedd"
     stroke-opacity="1"
     stroke-miterlimit="10"
     d="m 118.15234,68.738281 h 6.00782 v 6.027344 h -6.00782 z m 0,0"
     id="path129" />
  <path
     fill-rule="nonzero"
     fill="#ffffff"
     fill-opacity="1"
     stroke-width="1.25346"
     stroke-linecap="butt"
     stroke-linejoin="miter"
     stroke="#89bedd"
     stroke-opacity="1"
     stroke-miterlimit="10"
     d="m 131.04297,67.765625 h 6.01171 v 6.027344 h -6.01171 z m 0,0"
     id="path130" />
  <path
     fill-rule="nonzero"
     fill="#ffffff"
     fill-opacity="1"
     stroke-width="1.25346"
     stroke-linecap="butt"
     stroke-linejoin="miter"
     stroke="#89bedd"
     stroke-opacity="1"
     stroke-miterlimit="10"
     d="m 145.01172,46.027344 h 6.01171 v 6.027344 h -6.01171 z m 0,0"
     id="path131" />
  <path
     fill="none"
     stroke-width="1.50415"
     stroke-linecap="round"
     stroke-linejoin="round"
     stroke="#539ecd"
     stroke-opacity="1"
     stroke-miterlimit="10"
     d="m 50.234375,60.085938 13.96875,7.21875 13.96875,5.09375 13.96875,3.378906 13.968745,1.871094 13.97266,0.402343 1.07422,-0.01953 12.89062,-1.167969 13.96875,-3.054687 13.96876,-5.402344"
     id="path132" />
  <path
     fill-rule="nonzero"
     fill="#ffffff"
     fill-opacity="1"
     d="m 50.234375,57.074219 -2.859375,2.078125 1.089844,3.371094 h 3.53125 l 1.09375,-3.371094 z m 0,0"
     id="path133" />
  <g
     clip-path="url(#clip-36)"
     id="g134">
    <path
       fill="none"
       stroke-width="1.25518"
       stroke-linecap="butt"
       stroke-linejoin="miter"
       stroke="#539ecd"
       stroke-opacity="1"
       stroke-miterlimit="10"
       d="m 50.372294,-57.074219 -2.867225,-2.078125 1.092836,-3.371094 h 3.540945 l 1.096753,3.371094 z m 0,0"
       transform="scale(0.997262,-1)"
       id="path134" />
  </g>
  <path
     fill-rule="nonzero"
     fill="#ffffff"
     fill-opacity="1"
     d="M 64.203125,64.292969 61.34375,66.375 l 1.089844,3.363281 h 3.53125 L 67.058594,66.375 Z m 0,0"
     id="path135" />
  <g
     clip-path="url(#clip-37)"
     id="g136">
    <path
       fill="none"
       stroke-width="1.25518"
       stroke-linecap="butt"
       stroke-linejoin="miter"
       stroke="#539ecd"
       stroke-opacity="1"
       stroke-miterlimit="10"
       d="M 64.379396,-64.292969 61.51217,-66.375 l 1.092836,-3.363281 h 3.540945 l 1.096753,3.363281 z m 0,0"
       transform="scale(0.997262,-1)"
       id="path136" />
  </g>
  <path
     fill-rule="nonzero"
     fill="#ffffff"
     fill-opacity="1"
     d="m 78.171875,69.386719 -2.855469,2.078125 1.089844,3.371094 h 3.527344 l 1.09375,-3.371094 z m 0,0"
     id="path137" />
  <g
     clip-path="url(#clip-38)"
     id="g138">
    <path
       fill="none"
       stroke-width="1.25518"
       stroke-linecap="butt"
       stroke-linejoin="miter"
       stroke="#539ecd"
       stroke-opacity="1"
       stroke-miterlimit="10"
       d="m 78.386497,-69.386719 -2.863308,-2.078125 1.092836,-3.371094 h 3.537028 l 1.096753,3.371094 z m 0,0"
       transform="scale(0.997262,-1)"
       id="path138" />
  </g>
  <path
     fill-rule="nonzero"
     fill="#ffffff"
     fill-opacity="1"
     d="m 92.140625,72.765625 -2.855469,2.082031 1.089844,3.363282 h 3.53125 L 95,74.847656 Z m 0,0"
     id="path139" />
  <g
     clip-path="url(#clip-39)"
     id="g140">
    <path
       fill="none"
       stroke-width="1.25518"
       stroke-linecap="butt"
       stroke-linejoin="miter"
       stroke="#539ecd"
       stroke-opacity="1"
       stroke-miterlimit="10"
       d="m 92.393599,-72.765625 -2.863309,-2.082031 1.092836,-3.363282 h 3.540945 l 1.096753,3.363282 z m 0,0"
       transform="scale(0.997262,-1)"
       id="path140" />
  </g>
  <path
     fill-rule="nonzero"
     fill="#ffffff"
     fill-opacity="1"
     d="m 106.10938,74.636719 -2.85547,2.082031 1.08984,3.363281 h 3.53125 l 1.09375,-3.363281 z m 0,0"
     id="path141" />
  <g
     clip-path="url(#clip-40)"
     id="g142">
    <path
       fill="none"
       stroke-width="1.25518"
       stroke-linecap="butt"
       stroke-linejoin="miter"
       stroke="#539ecd"
       stroke-opacity="1"
       stroke-miterlimit="10"
       d="m 106.4007,-74.636719 -2.86331,-2.082031 1.09284,-3.363281 h 3.54094 l 1.09676,3.363281 z m 0,0"
       transform="scale(0.997262,-1)"
       id="path142" />
  </g>
  <path
     fill-rule="nonzero"
     fill="#ffffff"
     fill-opacity="1"
     d="m 120.08203,75.039062 -2.86328,2.082032 1.09375,3.367187 h 3.53125 l 1.09375,-3.367187 z m 0,0"
     id="path143" />
  <g
     clip-path="url(#clip-41)"
     id="g144">
    <path
       fill="none"
       stroke-width="1.25518"
       stroke-linecap="butt"
       stroke-linejoin="miter"
       stroke="#539ecd"
       stroke-opacity="1"
       stroke-miterlimit="10"
       d="m 120.41172,-75.039062 -2.87114,-2.082032 1.09675,-3.367187 h 3.54094 l 1.09676,3.367187 z m 0,0"
       transform="scale(0.997262,-1)"
       id="path144" />
  </g>
  <path
     fill-rule="nonzero"
     fill="#ffffff"
     fill-opacity="1"
     d="m 121.15625,75.019531 -2.85547,2.082031 1.08985,3.371094 h 3.53125 l 1.08984,-3.371094 z m 0,0"
     id="path145" />
  <g
     clip-path="url(#clip-42)"
     id="g146">
    <path
       fill="none"
       stroke-width="1.25518"
       stroke-linecap="butt"
       stroke-linejoin="miter"
       stroke="#539ecd"
       stroke-opacity="1"
       stroke-miterlimit="10"
       d="m 121.48889,-75.019531 -2.86331,-2.082031 1.09283,-3.371094 h 3.54095 l 1.09283,3.371094 z m 0,0"
       transform="scale(0.997262,-1)"
       id="path146" />
  </g>
  <path
     fill-rule="nonzero"
     fill="#ffffff"
     fill-opacity="1"
     d="m 134.04687,73.851562 -2.85937,2.078126 1.09375,3.371093 h 3.53125 l 1.08984,-3.371093 z m 0,0"
     id="path147" />
  <g
     clip-path="url(#clip-43)"
     id="g148">
    <path
       fill="none"
       stroke-width="1.25518"
       stroke-linecap="butt"
       stroke-linejoin="miter"
       stroke="#539ecd"
       stroke-opacity="1"
       stroke-miterlimit="10"
       d="m 134.4149,-73.851562 -2.86722,-2.078126 1.09675,-3.371093 h 3.54095 l 1.09283,3.371093 z m 0,0"
       transform="scale(0.997262,-1)"
       id="path148" />
  </g>
  <path
     fill-rule="nonzero"
     fill="#ffffff"
     fill-opacity="1"
     d="m 148.01562,70.796875 -2.85546,2.082031 1.09375,3.367188 h 3.52734 l 1.08984,-3.367188 z m 0,0"
     id="path149" />
  <g
     clip-path="url(#clip-44)"
     id="g150">
    <path
       fill="none"
       stroke-width="1.25518"
       stroke-linecap="butt"
       stroke-linejoin="miter"
       stroke="#539ecd"
       stroke-opacity="1"
       stroke-miterlimit="10"
       d="m 148.422,-70.796875 -2.8633,-2.082031 1.09675,-3.367188 h 3.53703 l 1.09283,3.367188 z m 0,0"
       transform="scale(0.997262,-1)"
       id="path150" />
  </g>
  <path
     fill-rule="nonzero"
     fill="#ffffff"
     fill-opacity="1"
     d="m 161.98437,65.394531 -2.85546,2.082031 1.09375,3.367188 h 3.53125 l 1.08984,-3.367188 z m 0,0"
     id="path151" />
  <g
     clip-path="url(#clip-45)"
     id="g152">
    <path
       fill="none"
       stroke-width="1.25518"
       stroke-linecap="butt"
       stroke-linejoin="miter"
       stroke="#539ecd"
       stroke-opacity="1"
       stroke-miterlimit="10"
       d="m 162.42911,-65.394531 -2.86331,-2.082031 1.09675,-3.367188 h 3.54094 l 1.09284,3.367188 z m 0,0"
       transform="scale(0.997262,-1)"
       id="path152" />
  </g>
  <path
     fill="none"
     stroke-width="1.50415"
     stroke-linecap="round"
     stroke-linejoin="round"
     stroke="#2a7bba"
     stroke-opacity="1"
     stroke-miterlimit="10"
     d="m 50.234375,71.0625 13.96875,6.875 13.96875,4.425781 13.96875,2.714844 13.968745,1.042969 13.97266,0.425781 1.07422,-0.01953 12.89062,-0.867188 13.96875,-0.71875 13.96876,-0.40625"
     id="path153" />
  <path
     fill-rule="nonzero"
     fill="#ffffff"
     fill-opacity="1"
     d="m 50.234375,68.050781 -3.003906,6.023438 h 6.007812 z m 0,0"
     id="path154" />
  <g
     clip-path="url(#clip-46)"
     id="g155">
    <path
       fill="none"
       stroke-width="1.25518"
       stroke-linecap="butt"
       stroke-linejoin="miter"
       stroke="#2a7bba"
       stroke-opacity="1"
       stroke-miterlimit="10"
       d="m 50.372294,-68.050781 -3.012153,-6.023438 h 6.024307 z m 0,0"
       transform="scale(0.997262,-1)"
       id="path155" />
  </g>
  <path
     fill-rule="nonzero"
     fill="#ffffff"
     fill-opacity="1"
     d="m 64.203125,74.925781 -3.003906,6.023438 h 6.007812 z m 0,0"
     id="path156" />
  <g
     clip-path="url(#clip-47)"
     id="g157">
    <path
       fill="none"
       stroke-width="1.25518"
       stroke-linecap="butt"
       stroke-linejoin="miter"
       stroke="#2a7bba"
       stroke-opacity="1"
       stroke-miterlimit="10"
       d="m 64.379396,-74.925781 -3.012154,-6.023438 h 6.024307 z m 0,0"
       transform="scale(0.997262,-1)"
       id="path157" />
  </g>
  <path
     fill-rule="nonzero"
     fill="#ffffff"
     fill-opacity="1"
     d="M 78.171875,79.351562 75.167969,85.375 h 6.007812 z m 0,0"
     id="path158" />
  <g
     clip-path="url(#clip-48)"
     id="g159">
    <path
       fill="none"
       stroke-width="1.25518"
       stroke-linecap="butt"
       stroke-linejoin="miter"
       stroke="#2a7bba"
       stroke-opacity="1"
       stroke-miterlimit="10"
       d="M 78.386497,-79.351562 75.374344,-85.375 h 6.024307 z m 0,0"
       transform="scale(0.997262,-1)"
       id="path159" />
  </g>
  <path
     fill-rule="nonzero"
     fill="#ffffff"
     fill-opacity="1"
     d="m 92.140625,82.0625 -3.003906,6.027344 h 6.007812 z m 0,0"
     id="path160" />
  <g
     clip-path="url(#clip-49)"
     id="g161">
    <path
       fill="none"
       stroke-width="1.25518"
       stroke-linecap="butt"
       stroke-linejoin="miter"
       stroke="#2a7bba"
       stroke-opacity="1"
       stroke-miterlimit="10"
       d="m 92.393599,-82.0625 -3.012154,-6.027344 h 6.024307 z m 0,0"
       transform="scale(0.997262,-1)"
       id="path161" />
  </g>
  <path
     fill-rule="nonzero"
     fill="#ffffff"
     fill-opacity="1"
     d="m 106.10938,83.109375 -3.00782,6.023437 h 6.01172 z m 0,0"
     id="path162" />
  <g
     clip-path="url(#clip-50)"
     id="g163">
    <path
       fill="none"
       stroke-width="1.25518"
       stroke-linecap="butt"
       stroke-linejoin="miter"
       stroke="#2a7bba"
       stroke-opacity="1"
       stroke-miterlimit="10"
       d="m 106.4007,-83.109375 -3.01607,-6.023437 h 6.02822 z m 0,0"
       transform="scale(0.997262,-1)"
       id="path163" />
  </g>
  <path
     fill-rule="nonzero"
     fill="#ffffff"
     fill-opacity="1"
     d="m 120.08203,83.535156 -3.00781,6.023438 h 6.01172 z m 0,0"
     id="path164" />
  <g
     clip-path="url(#clip-51)"
     id="g165">
    <path
       fill="none"
       stroke-width="1.25518"
       stroke-linecap="butt"
       stroke-linejoin="miter"
       stroke="#2a7bba"
       stroke-opacity="1"
       stroke-miterlimit="10"
       d="m 120.41172,-83.535156 -3.01607,-6.023438 h 6.02822 z m 0,0"
       transform="scale(0.997262,-1)"
       id="path165" />
  </g>
  <path
     fill-rule="nonzero"
     fill="#ffffff"
     fill-opacity="1"
     d="m 121.15625,83.515625 -3.00391,6.023437 h 6.00782 z m 0,0"
     id="path166" />
  <g
     clip-path="url(#clip-52)"
     id="g167">
    <path
       fill="none"
       stroke-width="1.25518"
       stroke-linecap="butt"
       stroke-linejoin="miter"
       stroke="#2a7bba"
       stroke-opacity="1"
       stroke-miterlimit="10"
       d="m 121.48889,-83.515625 -3.01216,-6.023437 h 6.02431 z m 0,0"
       transform="scale(0.997262,-1)"
       id="path167" />
  </g>
  <path
     fill-rule="nonzero"
     fill="#ffffff"
     fill-opacity="1"
     d="m 134.04687,82.648438 -3.0039,6.023437 h 6.01172 z m 0,0"
     id="path168" />
  <g
     clip-path="url(#clip-53)"
     id="g169">
    <path
       fill="none"
       stroke-width="1.25518"
       stroke-linecap="butt"
       stroke-linejoin="miter"
       stroke="#2a7bba"
       stroke-opacity="1"
       stroke-miterlimit="10"
       d="m 134.4149,-82.648438 -3.01215,-6.023437 h 6.02822 z m 0,0"
       transform="scale(0.997262,-1)"
       id="path169" />
  </g>
  <path
     fill-rule="nonzero"
     fill="#ffffff"
     fill-opacity="1"
     d="m 148.01562,81.929688 -3.0039,6.027343 h 6.01172 z m 0,0"
     id="path170" />
  <g
     clip-path="url(#clip-54)"
     id="g171">
    <path
       fill="none"
       stroke-width="1.25518"
       stroke-linecap="butt"
       stroke-linejoin="miter"
       stroke="#2a7bba"
       stroke-opacity="1"
       stroke-miterlimit="10"
       d="m 148.422,-81.929688 -3.01215,-6.027343 h 6.02822 z m 0,0"
       transform="scale(0.997262,-1)"
       id="path171" />
  </g>
  <path
     fill-rule="nonzero"
     fill="#ffffff"
     fill-opacity="1"
     d="m 161.98437,81.523438 -3.0039,6.023437 h 6.00781 z m 0,0"
     id="path172" />
  <g
     clip-path="url(#clip-55)"
     id="g173">
    <path
       fill="none"
       stroke-width="1.25518"
       stroke-linecap="butt"
       stroke-linejoin="miter"
       stroke="#2a7bba"
       stroke-opacity="1"
       stroke-miterlimit="10"
       d="m 162.42911,-81.523438 -3.01216,-6.023437 h 6.02431 z m 0,0"
       transform="scale(0.997262,-1)"
       id="path173" />
  </g>
  <path
     fill="none"
     stroke-width="1.50415"
     stroke-linecap="round"
     stroke-linejoin="round"
     stroke="#0b559f"
     stroke-opacity="1"
     stroke-miterlimit="10"
     d="m 50.234375,60.085938 13.96875,7.21875 13.96875,5.09375 13.96875,3.378906 13.968745,1.871094 13.97266,0.402343 1.07422,-0.01953 12.89062,-1.167969 13.96875,-3.054687 13.96876,-5.402344"
     id="path174" />
  <path
     fill-rule="nonzero"
     fill="#ffffff"
     fill-opacity="1"
     d="m 47.230469,60.085938 6.007812,3.011718 v -6.023437 z m 0,0"
     id="path175" />
  <g
     clip-path="url(#clip-56)"
     id="g176">
    <path
       fill="none"
       stroke-width="1.25518"
       stroke-linecap="butt"
       stroke-linejoin="miter"
       stroke="#0b559f"
       stroke-opacity="1"
       stroke-miterlimit="10"
       d="m 47.360141,-60.085938 6.024307,-3.011718 v 6.023437 z m 0,0"
       transform="scale(0.997262,-1)"
       id="path176" />
  </g>
  <path
     fill-rule="nonzero"
     fill="#ffffff"
     fill-opacity="1"
     d="m 61.199219,67.304688 6.007812,3.011718 v -6.023437 z m 0,0"
     id="path177" />
  <g
     clip-path="url(#clip-57)"
     id="g178">
    <path
       fill="none"
       stroke-width="1.25518"
       stroke-linecap="butt"
       stroke-linejoin="miter"
       stroke="#0b559f"
       stroke-opacity="1"
       stroke-miterlimit="10"
       d="m 61.367242,-67.304688 6.024307,-3.011718 v 6.023437 z m 0,0"
       transform="scale(0.997262,-1)"
       id="path178" />
  </g>
  <path
     fill-rule="nonzero"
     fill="#ffffff"
     fill-opacity="1"
     d="m 75.167969,72.398438 6.007812,3.011718 v -6.023437 z m 0,0"
     id="path179" />
  <g
     clip-path="url(#clip-58)"
     id="g180">
    <path
       fill="none"
       stroke-width="1.25518"
       stroke-linecap="butt"
       stroke-linejoin="miter"
       stroke="#0b559f"
       stroke-opacity="1"
       stroke-miterlimit="10"
       d="m 75.374344,-72.398438 6.024307,-3.011718 v 6.023437 z m 0,0"
       transform="scale(0.997262,-1)"
       id="path180" />
  </g>
  <path
     fill-rule="nonzero"
     fill="#ffffff"
     fill-opacity="1"
     d="m 89.136719,75.777344 6.007812,3.011718 v -6.023437 z m 0,0"
     id="path181" />
  <g
     clip-path="url(#clip-59)"
     id="g182">
    <path
       fill="none"
       stroke-width="1.25518"
       stroke-linecap="butt"
       stroke-linejoin="miter"
       stroke="#0b559f"
       stroke-opacity="1"
       stroke-miterlimit="10"
       d="m 89.381445,-75.777344 6.024307,-3.011718 v 6.023437 z m 0,0"
       transform="scale(0.997262,-1)"
       id="path182" />
  </g>
  <path
     fill-rule="nonzero"
     fill="#ffffff"
     fill-opacity="1"
     d="m 103.10156,77.648438 6.01172,3.011718 v -6.023437 z m 0,0"
     id="path183" />
  <g
     clip-path="url(#clip-60)"
     id="g184">
    <path
       fill="none"
       stroke-width="1.25518"
       stroke-linecap="butt"
       stroke-linejoin="miter"
       stroke="#0b559f"
       stroke-opacity="1"
       stroke-miterlimit="10"
       d="m 103.38463,-77.648438 6.02822,-3.011718 v 6.023437 z m 0,0"
       transform="scale(0.997262,-1)"
       id="path184" />
  </g>
  <path
     fill-rule="nonzero"
     fill="#ffffff"
     fill-opacity="1"
     d="m 117.07422,78.050781 6.01172,3.011719 v -6.023438 z m 0,0"
     id="path185" />
  <g
     clip-path="url(#clip-61)"
     id="g186">
    <path
       fill="none"
       stroke-width="1.25518"
       stroke-linecap="butt"
       stroke-linejoin="miter"
       stroke="#0b559f"
       stroke-opacity="1"
       stroke-miterlimit="10"
       d="m 117.39565,-78.050781 6.02822,-3.011719 v 6.023438 z m 0,0"
       transform="scale(0.997262,-1)"
       id="path186" />
  </g>
  <path
     fill-rule="nonzero"
     fill="#ffffff"
     fill-opacity="1"
     d="m 118.15234,78.03125 6.00782,3.011719 v -6.023438 z m 0,0"
     id="path187" />
  <g
     clip-path="url(#clip-62)"
     id="g188">
    <path
       fill="none"
       stroke-width="1.25518"
       stroke-linecap="butt"
       stroke-linejoin="miter"
       stroke="#0b559f"
       stroke-opacity="1"
       stroke-miterlimit="10"
       d="m 118.47673,-78.03125 6.02431,-3.011719 v 6.023438 z m 0,0"
       transform="scale(0.997262,-1)"
       id="path188" />
  </g>
  <path
     fill-rule="nonzero"
     fill="#ffffff"
     fill-opacity="1"
     d="m 131.04297,76.863281 6.01172,3.011719 v -6.023438 z m 0,0"
     id="path189" />
  <g
     clip-path="url(#clip-63)"
     id="g190">
    <path
       fill="none"
       stroke-width="1.25518"
       stroke-linecap="butt"
       stroke-linejoin="miter"
       stroke="#0b559f"
       stroke-opacity="1"
       stroke-miterlimit="10"
       d="m 131.40275,-76.863281 6.02822,-3.011719 v 6.023438 z m 0,0"
       transform="scale(0.997262,-1)"
       id="path190" />
  </g>
  <path
     fill-rule="nonzero"
     fill="#ffffff"
     fill-opacity="1"
     d="m 145.01172,73.808594 6.01172,3.011718 v -6.023437 z m 0,0"
     id="path191" />
  <g
     clip-path="url(#clip-64)"
     id="g192">
    <path
       fill="none"
       stroke-width="1.25518"
       stroke-linecap="butt"
       stroke-linejoin="miter"
       stroke="#0b559f"
       stroke-opacity="1"
       stroke-miterlimit="10"
       d="m 145.40985,-73.808594 6.02822,-3.011718 v 6.023437 z m 0,0"
       transform="scale(0.997262,-1)"
       id="path192" />
  </g>
  <path
     fill-rule="nonzero"
     fill="#ffffff"
     fill-opacity="1"
     d="m 158.98047,68.40625 6.00781,3.011719 v -6.023438 z m 0,0"
     id="path193" />
  <g
     clip-path="url(#clip-65)"
     id="g194">
    <path
       fill="none"
       stroke-width="1.25518"
       stroke-linecap="butt"
       stroke-linejoin="miter"
       stroke="#0b559f"
       stroke-opacity="1"
       stroke-miterlimit="10"
       d="m 159.41695,-68.40625 6.02431,-3.011719 v 6.023438 z m 0,0"
       transform="scale(0.997262,-1)"
       id="path194" />
  </g>
  <path
     fill="none"
     stroke-width="0.802213"
     stroke-linecap="square"
     stroke-linejoin="miter"
     stroke="#262626"
     stroke-opacity="1"
     stroke-miterlimit="10"
     d="M 44.644532,182.14062 V 3.996094"
     id="path195" />
  <path
     fill="none"
     stroke-width="0.802213"
     stroke-linecap="square"
     stroke-linejoin="miter"
     stroke="#262626"
     stroke-opacity="1"
     stroke-miterlimit="10"
     d="M 44.644532,182.14062 H 167.57422"
     id="path196" />
</svg>
