<?xml version="1.0" encoding="UTF-8" standalone="no"?>
<svg
   width="186pt"
   height="219pt"
   viewBox="0 0 186 219"
   version="1.1"
   id="svg215"
   xmlns:xlink="http://www.w3.org/1999/xlink"
   xmlns="http://www.w3.org/2000/svg"
   xmlns:svg="http://www.w3.org/2000/svg">
  <defs
     id="defs69">
    <clipPath
       id="clip-0">
      <path
         clip-rule="nonzero"
         d="m 85.8125,3.996094 h 2 V 182.14062 h -2 z m 0,0"
         id="path1" />
    </clipPath>
    <clipPath
       id="clip-1">
      <path
         clip-rule="nonzero"
         d="m 0.8125,0.996094 h 2 V 179.14062 h -2 z m 0,0"
         id="path2" />
    </clipPath>
    <clipPath
       id="clip-2">
      <rect
         x="0"
         y="0"
         width="3"
         height="180"
         id="rect2" />
    </clipPath>
    <g
       id="source-61451"
       clip-path="url(#clip-2)">
      <g
         clip-path="url(#clip-1)"
         id="g3">
        <path
           fill="none"
           stroke-width="1.25518"
           stroke-linecap="butt"
           stroke-linejoin="round"
           stroke="#191919"
           stroke-opacity="0.7"
           stroke-dasharray="1.25518, 2.07104"
           stroke-miterlimit="10"
           d="M 86.971589,-182.14062 V -3.996094"
           transform="matrix(0.99597,0,0,-1,-85,-3)"
           id="path3" />
      </g>
    </g>
    <clipPath
       id="clip-3">
      <path
         clip-rule="nonzero"
         d="m 65.808594,3.996094 h 1 V 182.14062 h -1 z m 0,0"
         id="path4" />
    </clipPath>
    <clipPath
       id="clip-4">
      <path
         clip-rule="nonzero"
         d="M 1,0.996094 H 1.808594 V 179.14062 H 1 Z m 0,0"
         id="path5" />
    </clipPath>
    <clipPath
       id="clip-5">
      <rect
         x="0"
         y="0"
         width="2"
         height="180"
         id="rect5" />
    </clipPath>
    <g
       id="source-61454"
       clip-path="url(#clip-5)">
      <g
         clip-path="url(#clip-4)"
         id="g6">
        <path
           fill="none"
           stroke-width="0.552277"
           stroke-linecap="butt"
           stroke-linejoin="round"
           stroke="#cccccc"
           stroke-opacity="0.55"
           stroke-dasharray="2.04343, 0.883644"
           stroke-miterlimit="10"
           d="M 66.65534,-182.14062 V -3.996094"
           transform="matrix(0.99597,0,0,-1,-65,-3)"
           id="path6" />
      </g>
    </g>
    <clipPath
       id="clip-6">
      <path
         clip-rule="nonzero"
         d="m 121.81641,3.996094 h 1 V 182.14062 h -1 z m 0,0"
         id="path7" />
    </clipPath>
    <clipPath
       id="clip-7">
      <path
         clip-rule="nonzero"
         d="m 0.816406,0.996094 h 1 V 179.14062 h -1 z m 0,0"
         id="path8" />
    </clipPath>
    <clipPath
       id="clip-8">
      <rect
         x="0"
         y="0"
         width="2"
         height="180"
         id="rect8" />
    </clipPath>
    <g
       id="source-61457"
       clip-path="url(#clip-8)">
      <g
         clip-path="url(#clip-7)"
         id="g9">
        <path
           fill="none"
           stroke-width="0.552277"
           stroke-linecap="butt"
           stroke-linejoin="round"
           stroke="#cccccc"
           stroke-opacity="0.55"
           stroke-dasharray="2.04343, 0.883644"
           stroke-miterlimit="10"
           d="M 122.68583,-182.14062 V -3.996094"
           transform="matrix(0.99597,0,0,-1,-121,-3)"
           id="path9" />
      </g>
    </g>
    <clipPath
       id="clip-9">
      <path
         clip-rule="nonzero"
         d="m 176.82031,3.996094 h 2 V 182.14062 h -2 z m 0,0"
         id="path10" />
    </clipPath>
    <clipPath
       id="clip-10">
      <path
         clip-rule="nonzero"
         d="M 1,0.996094 H 2.820312 V 179.14062 H 1 Z m 0,0"
         id="path11" />
    </clipPath>
    <clipPath
       id="clip-11">
      <rect
         x="0"
         y="0"
         width="3"
         height="180"
         id="rect11" />
    </clipPath>
    <g
       id="source-61460"
       clip-path="url(#clip-11)">
      <g
         clip-path="url(#clip-10)"
         id="g12">
        <path
           fill="none"
           stroke-width="0.552277"
           stroke-linecap="butt"
           stroke-linejoin="round"
           stroke="#cccccc"
           stroke-opacity="0.55"
           stroke-dasharray="2.04343, 0.883644"
           stroke-miterlimit="10"
           d="M 178.71632,-182.14062 V -3.996094"
           transform="matrix(0.99597,0,0,-1,-176,-3)"
           id="path12" />
      </g>
    </g>
    <clipPath
       id="clip-12">
      <path
         clip-rule="nonzero"
         d="M 60.804688,181.34766 H 183.57812 v 0.79296 H 60.804688 Z m 0,0"
         id="path13" />
    </clipPath>
    <clipPath
       id="clip-13">
      <path
         clip-rule="nonzero"
         d="M 0.804688,0.347656 H 123.57813 V 1.140625 H 0.804688 Z m 0,0"
         id="path14" />
    </clipPath>
    <clipPath
       id="clip-14">
      <rect
         x="0"
         y="0"
         width="124"
         height="2"
         id="rect14" />
    </clipPath>
    <g
       id="source-61463"
       clip-path="url(#clip-14)">
      <g
         clip-path="url(#clip-13)"
         id="g15">
        <path
           fill="none"
           stroke-width="0.552277"
           stroke-linecap="butt"
           stroke-linejoin="round"
           stroke="#cccccc"
           stroke-opacity="0.55"
           stroke-dasharray="2.04343, 0.883644"
           stroke-miterlimit="10"
           d="M 61.050722,-182.14062 H 184.32094"
           transform="matrix(0.99597,0,0,-1,-60,-181)"
           id="path15" />
      </g>
    </g>
    <clipPath
       id="clip-15">
      <path
         clip-rule="nonzero"
         d="M 60.804688,159.25781 H 183.57812 v 1.00391 H 60.804688 Z m 0,0"
         id="path16" />
    </clipPath>
    <clipPath
       id="clip-16">
      <path
         clip-rule="nonzero"
         d="M 0.804688,0.257812 H 123.57813 V 1.261719 H 0.804688 Z m 0,0"
         id="path17" />
    </clipPath>
    <clipPath
       id="clip-17">
      <rect
         x="0"
         y="0"
         width="124"
         height="2"
         id="rect17" />
    </clipPath>
    <g
       id="source-61466"
       clip-path="url(#clip-17)">
      <g
         clip-path="url(#clip-16)"
         id="g18">
        <path
           fill="none"
           stroke-width="0.552277"
           stroke-linecap="butt"
           stroke-linejoin="round"
           stroke="#cccccc"
           stroke-opacity="0.55"
           stroke-dasharray="2.04343, 0.883644"
           stroke-miterlimit="10"
           d="M 61.050722,-159.875 H 184.32094"
           transform="matrix(0.99597,0,0,-1,-60,-159)"
           id="path18" />
      </g>
    </g>
    <clipPath
       id="clip-18">
      <path
         clip-rule="nonzero"
         d="M 60.804688,137.16797 H 183.57812 v 1.0039 H 60.804688 Z m 0,0"
         id="path19" />
    </clipPath>
    <clipPath
       id="clip-19">
      <path
         clip-rule="nonzero"
         d="M 0.804688,0.167969 H 123.57813 V 1 H 0.804688 Z m 0,0"
         id="path20" />
    </clipPath>
    <clipPath
       id="clip-20">
      <rect
         x="0"
         y="0"
         width="124"
         height="2"
         id="rect20" />
    </clipPath>
    <g
       id="source-61469"
       clip-path="url(#clip-20)">
      <g
         clip-path="url(#clip-19)"
         id="g21">
        <path
           fill="none"
           stroke-width="0.552277"
           stroke-linecap="butt"
           stroke-linejoin="round"
           stroke="#cccccc"
           stroke-opacity="0.55"
           stroke-dasharray="2.04343, 0.883644"
           stroke-miterlimit="10"
           d="M 61.050722,-137.60547 H 184.32094"
           transform="matrix(0.99597,0,0,-1,-60,-137)"
           id="path21" />
      </g>
    </g>
    <clipPath
       id="clip-21">
      <path
         clip-rule="nonzero"
         d="M 60.804688,114.07031 H 183.57812 v 2.00782 H 60.804688 Z m 0,0"
         id="path22" />
    </clipPath>
    <clipPath
       id="clip-22">
      <path
         clip-rule="nonzero"
         d="M 0.804688,1 H 123.57813 V 2 H 0.804688 Z m 0,0"
         id="path23" />
    </clipPath>
    <clipPath
       id="clip-23">
      <rect
         x="0"
         y="0"
         width="124"
         height="3"
         id="rect23" />
    </clipPath>
    <g
       id="source-61472"
       clip-path="url(#clip-23)">
      <g
         clip-path="url(#clip-22)"
         id="g24">
        <path
           fill="none"
           stroke-width="0.552277"
           stroke-linecap="butt"
           stroke-linejoin="round"
           stroke="#cccccc"
           stroke-opacity="0.55"
           stroke-dasharray="2.04343, 0.883644"
           stroke-miterlimit="10"
           d="M 61.050722,-115.33594 H 184.32094"
           transform="matrix(0.99597,0,0,-1,-60,-114)"
           id="path24" />
      </g>
    </g>
    <clipPath
       id="clip-24">
      <path
         clip-rule="nonzero"
         d="M 60.804688,91.980469 H 183.57812 v 2.007812 H 60.804688 Z m 0,0"
         id="path25" />
    </clipPath>
    <clipPath
       id="clip-25">
      <path
         clip-rule="nonzero"
         d="M 0.804688,1 H 123.57813 V 2.988281 H 0.804688 Z m 0,0"
         id="path26" />
    </clipPath>
    <clipPath
       id="clip-26">
      <rect
         x="0"
         y="0"
         width="124"
         height="3"
         id="rect26" />
    </clipPath>
    <g
       id="source-61475"
       clip-path="url(#clip-26)">
      <g
         clip-path="url(#clip-25)"
         id="g27">
        <path
           fill="none"
           stroke-width="0.552277"
           stroke-linecap="butt"
           stroke-linejoin="round"
           stroke="#cccccc"
           stroke-opacity="0.55"
           stroke-dasharray="2.04343, 0.883644"
           stroke-miterlimit="10"
           d="M 61.050722,-93.066406 H 184.32094"
           transform="matrix(0.99597,0,0,-1,-60,-91)"
           id="path27" />
      </g>
    </g>
    <clipPath
       id="clip-27">
      <path
         clip-rule="nonzero"
         d="M 60.804688,69.890625 H 183.57812 v 2.007813 H 60.804688 Z m 0,0"
         id="path28" />
    </clipPath>
    <clipPath
       id="clip-28">
      <path
         clip-rule="nonzero"
         d="M 0.804688,1 H 123.57813 V 2.898438 H 0.804688 Z m 0,0"
         id="path29" />
    </clipPath>
    <clipPath
       id="clip-29">
      <rect
         x="0"
         y="0"
         width="124"
         height="3"
         id="rect29" />
    </clipPath>
    <g
       id="source-61478"
       clip-path="url(#clip-29)">
      <g
         clip-path="url(#clip-28)"
         id="g30">
        <path
           fill="none"
           stroke-width="0.552277"
           stroke-linecap="butt"
           stroke-linejoin="round"
           stroke="#cccccc"
           stroke-opacity="0.55"
           stroke-dasharray="2.04343, 0.883644"
           stroke-miterlimit="10"
           d="M 61.050722,-70.800781 H 184.32094"
           transform="matrix(0.99597,0,0,-1,-60,-69)"
           id="path30" />
      </g>
    </g>
    <clipPath
       id="clip-30">
      <path
         clip-rule="nonzero"
         d="M 60.804688,47.796875 H 183.57812 v 2.007813 H 60.804688 Z m 0,0"
         id="path31" />
    </clipPath>
    <clipPath
       id="clip-31">
      <path
         clip-rule="nonzero"
         d="M 0.804688,1 H 123.57813 V 2 H 0.804688 Z m 0,0"
         id="path32" />
    </clipPath>
    <clipPath
       id="clip-32">
      <rect
         x="0"
         y="0"
         width="124"
         height="3"
         id="rect32" />
    </clipPath>
    <g
       id="source-61481"
       clip-path="url(#clip-32)">
      <g
         clip-path="url(#clip-31)"
         id="g33">
        <path
           fill="none"
           stroke-width="0.552277"
           stroke-linecap="butt"
           stroke-linejoin="round"
           stroke="#cccccc"
           stroke-opacity="0.55"
           stroke-dasharray="2.04343, 0.883644"
           stroke-miterlimit="10"
           d="M 61.050722,-48.53125 H 184.32094"
           transform="matrix(0.99597,0,0,-1,-60,-47)"
           id="path33" />
      </g>
    </g>
    <clipPath
       id="clip-33">
      <path
         clip-rule="nonzero"
         d="M 60.804688,25.707031 H 183.57812 v 1.003907 H 60.804688 Z m 0,0"
         id="path34" />
    </clipPath>
    <clipPath
       id="clip-34">
      <path
         clip-rule="nonzero"
         d="M 0.804688,0.707031 H 123.57813 V 1.710938 H 0.804688 Z m 0,0"
         id="path35" />
    </clipPath>
    <clipPath
       id="clip-35">
      <rect
         x="0"
         y="0"
         width="124"
         height="2"
         id="rect35" />
    </clipPath>
    <g
       id="source-61484"
       clip-path="url(#clip-35)">
      <g
         clip-path="url(#clip-34)"
         id="g36">
        <path
           fill="none"
           stroke-width="0.552277"
           stroke-linecap="butt"
           stroke-linejoin="round"
           stroke="#cccccc"
           stroke-opacity="0.55"
           stroke-dasharray="2.04343, 0.883644"
           stroke-miterlimit="10"
           d="M 61.050722,-26.265625 H 184.32094"
           transform="matrix(0.99597,0,0,-1,-60,-25)"
           id="path36" />
      </g>
    </g>
    <clipPath
       id="clip-36">
      <path
         clip-rule="nonzero"
         d="M 60.804688,3.996094 H 183.57812 v 0.625 H 60.804688 Z m 0,0"
         id="path37" />
    </clipPath>
    <clipPath
       id="clip-37">
      <path
         clip-rule="nonzero"
         d="M 0.804688,0.996094 H 123.57813 v 0.625 H 0.804688 Z m 0,0"
         id="path38" />
    </clipPath>
    <clipPath
       id="clip-38">
      <rect
         x="0"
         y="0"
         width="124"
         height="2"
         id="rect38" />
    </clipPath>
    <g
       id="source-61487"
       clip-path="url(#clip-38)">
      <g
         clip-path="url(#clip-37)"
         id="g39">
        <path
           fill="none"
           stroke-width="0.552277"
           stroke-linecap="butt"
           stroke-linejoin="round"
           stroke="#cccccc"
           stroke-opacity="0.55"
           stroke-dasharray="2.04343, 0.883644"
           stroke-miterlimit="10"
           d="M 61.050722,-3.996094 H 184.32094"
           transform="matrix(0.99597,0,0,-1,-60,-3)"
           id="path39" />
      </g>
    </g>
    <clipPath
       id="clip-39">
      <path
         clip-rule="nonzero"
         d="m 60.804688,97.421875 h 14.6875 v 18.000005 h -14.6875 z m 0,0"
         id="path40" />
    </clipPath>
    <clipPath
       id="clip-40">
      <path
         clip-rule="nonzero"
         d="m 71.234375,100.56641 h 18.207031 v 18 H 71.234375 Z m 0,0"
         id="path41" />
    </clipPath>
    <clipPath
       id="clip-41">
      <path
         clip-rule="nonzero"
         d="M 77.515625,99.179688 H 95.722656 V 117.17969 H 77.515625 Z m 0,0"
         id="path42" />
    </clipPath>
    <clipPath
       id="clip-42">
      <path
         clip-rule="nonzero"
         d="m 85.1875,97.566406 h 18.20313 V 115.56641 H 85.1875 Z m 0,0"
         id="path43" />
    </clipPath>
    <clipPath
       id="clip-43">
      <path
         clip-rule="nonzero"
         d="m 99.136719,96.125 h 18.210941 v 18 H 99.136719 Z m 0,0"
         id="path44" />
    </clipPath>
    <clipPath
       id="clip-44">
      <path
         clip-rule="nonzero"
         d="m 113.08984,95.5 h 18.20703 v 18 h -18.20703 z m 0,0"
         id="path45" />
    </clipPath>
    <clipPath
       id="clip-45">
      <path
         clip-rule="nonzero"
         d="m 127.03906,94.121094 h 18.20703 V 112.125 h -18.20703 z m 0,0"
         id="path46" />
    </clipPath>
    <clipPath
       id="clip-46">
      <path
         clip-rule="nonzero"
         d="m 140.98828,93.527344 h 18.21094 v 17.999996 h -18.21094 z m 0,0"
         id="path47" />
    </clipPath>
    <clipPath
       id="clip-47">
      <path
         clip-rule="nonzero"
         d="m 154.94531,92.925781 h 18.20313 v 17.999999 h -18.20313 z m 0,0"
         id="path48" />
    </clipPath>
    <clipPath
       id="clip-48">
      <path
         clip-rule="nonzero"
         d="m 168.89453,92.703125 h 14.68359 v 18.000005 h -14.68359 z m 0,0"
         id="path49" />
    </clipPath>
    <clipPath
       id="clip-49">
      <path
         clip-rule="nonzero"
         d="M 60.804688,97.035156 H 75.640625 V 115.61328 H 60.804688 Z m 0,0"
         id="path50" />
    </clipPath>
    <clipPath
       id="clip-50">
      <path
         clip-rule="nonzero"
         d="m 71.089844,100.30859 h 18.5 v 18.57422 h -18.5 z m 0,0"
         id="path51" />
    </clipPath>
    <clipPath
       id="clip-51">
      <path
         clip-rule="nonzero"
         d="m 77.371094,98.585938 h 18.5 v 18.574222 h -18.5 z m 0,0"
         id="path52" />
    </clipPath>
    <clipPath
       id="clip-52">
      <path
         clip-rule="nonzero"
         d="M 85.039062,97.394531 H 103.53906 V 115.96875 H 85.039062 Z m 0,0"
         id="path53" />
    </clipPath>
    <clipPath
       id="clip-53">
      <path
         clip-rule="nonzero"
         d="M 98.988281,95.753906 H 117.49219 V 114.32813 H 98.988281 Z m 0,0"
         id="path54" />
    </clipPath>
    <clipPath
       id="clip-54">
      <path
         clip-rule="nonzero"
         d="m 112.94141,95.101562 h 18.5 v 18.578128 h -18.5 z m 0,0"
         id="path55" />
    </clipPath>
    <clipPath
       id="clip-55">
      <path
         clip-rule="nonzero"
         d="m 126.89453,94.390625 h 18.5 v 18.578125 h -18.5 z m 0,0"
         id="path56" />
    </clipPath>
    <clipPath
       id="clip-56">
      <path
         clip-rule="nonzero"
         d="m 140.84375,93.628906 h 18.50391 v 18.574224 h -18.50391 z m 0,0"
         id="path57" />
    </clipPath>
    <clipPath
       id="clip-57">
      <path
         clip-rule="nonzero"
         d="m 154.79687,93.097656 h 18.5 v 18.578124 h -18.5 z m 0,0"
         id="path58" />
    </clipPath>
    <clipPath
       id="clip-58">
      <path
         clip-rule="nonzero"
         d="m 168.74609,91.730469 h 14.83203 v 18.574221 h -14.83203 z m 0,0"
         id="path59" />
    </clipPath>
    <clipPath
       id="clip-59">
      <path
         clip-rule="nonzero"
         d="M 60.804688,97.421875 H 75.640625 V 115.99609 H 60.804688 Z m 0,0"
         id="path60" />
    </clipPath>
    <clipPath
       id="clip-60">
      <path
         clip-rule="nonzero"
         d="m 71.089844,100.56641 h 18.5 v 18.57812 h -18.5 z m 0,0"
         id="path61" />
    </clipPath>
    <clipPath
       id="clip-61">
      <path
         clip-rule="nonzero"
         d="m 77.371094,99.179688 h 18.5 v 18.574222 h -18.5 z m 0,0"
         id="path62" />
    </clipPath>
    <clipPath
       id="clip-62">
      <path
         clip-rule="nonzero"
         d="M 85.039062,97.566406 H 103.53906 V 116.14063 H 85.039062 Z m 0,0"
         id="path63" />
    </clipPath>
    <clipPath
       id="clip-63">
      <path
         clip-rule="nonzero"
         d="m 98.988281,96.125 h 18.503909 v 18.57813 H 98.988281 Z m 0,0"
         id="path64" />
    </clipPath>
    <clipPath
       id="clip-64">
      <path
         clip-rule="nonzero"
         d="m 112.94141,95.5 h 18.5 v 18.57422 h -18.5 z m 0,0"
         id="path65" />
    </clipPath>
    <clipPath
       id="clip-65">
      <path
         clip-rule="nonzero"
         d="m 126.89453,94.121094 h 18.5 v 18.578126 h -18.5 z m 0,0"
         id="path66" />
    </clipPath>
    <clipPath
       id="clip-66">
      <path
         clip-rule="nonzero"
         d="m 140.84375,93.527344 h 18.50391 v 18.574216 h -18.50391 z m 0,0"
         id="path67" />
    </clipPath>
    <clipPath
       id="clip-67">
      <path
         clip-rule="nonzero"
         d="m 154.79687,92.925781 h 18.5 v 18.578129 h -18.5 z m 0,0"
         id="path68" />
    </clipPath>
    <clipPath
       id="clip-68">
      <path
         clip-rule="nonzero"
         d="m 168.74609,92.703125 h 14.83203 v 18.574215 h -14.83203 z m 0,0"
         id="path69" />
    </clipPath>
  </defs>
  <path
     fill-rule="nonzero"
     fill="#ffffff"
     fill-opacity="1"
     d="M 60.804688,3.996094 H 183.57812 V 182.14062 H 60.804688 Z m 0,0"
     id="path70" />
  <path
     fill="none"
     stroke-width="1.50317"
     stroke-linecap="butt"
     stroke-linejoin="round"
     stroke="#191919"
     stroke-opacity="1"
     stroke-dasharray="5.57298, 2.40994"
     stroke-miterlimit="10"
     d="m 66.386719,74.957031 13.953124,-4.691406 6.28125,-1.148437 7.66797,0.785156 13.949217,3.515625 13.95313,2.734375 13.95312,6.375 13.94921,6.976562 13.95314,6.425782 13.94921,3.574218"
     id="path71" />
  <g
     clip-path="url(#clip-0)"
     id="g71">
    <use
       xlink:href="#source-61451"
       transform="translate(85,3)"
       id="use71" />
  </g>
  <g
     clip-path="url(#clip-3)"
     id="g72">
    <use
       xlink:href="#source-61454"
       transform="translate(65,3)"
       id="use72" />
  </g>
  <path
     fill-rule="nonzero"
     fill="#262626"
     fill-opacity="1"
     d="m 61.132812,199.69531 c 0.550782,0 0.957032,-0.29687 1.234376,-0.90625 0.261718,-0.59375 0.40625,-1.50781 0.40625,-2.73828 0,-1.21484 -0.144532,-2.13281 -0.40625,-2.73437 -0.277344,-0.59766 -0.683594,-0.90625 -1.234376,-0.90625 -0.546874,0 -0.964843,0.30859 -1.230468,0.90625 -0.273438,0.60156 -0.40625,1.51953 -0.40625,2.73437 0,1.23047 0.132812,2.14453 0.40625,2.73828 0.265625,0.60938 0.683594,0.90625 1.230468,0.90625 z m 0,0.52344 c -0.878906,0 -1.558593,-0.36719 -2.042968,-1.09375 -0.484375,-0.73047 -0.726563,-1.74609 -0.726563,-3.07422 0,-1.3125 0.242188,-2.33984 0.726563,-3.07031 0.484375,-0.73047 1.164062,-1.10156 2.042968,-1.10156 0.871094,0 1.554688,0.37109 2.035157,1.10156 0.484375,0.73047 0.738281,1.75781 0.738281,3.07031 0,1.32813 -0.253906,2.34375 -0.738281,3.07422 -0.480469,0.72656 -1.164063,1.09375 -2.035157,1.09375 z m 0,0"
     id="path72" />
  <path
     fill-rule="nonzero"
     fill="#262626"
     fill-opacity="1"
     d="m 65.667969,199.50781 c 0,-0.19531 0.06641,-0.36328 0.195312,-0.5039 0.132813,-0.13672 0.308594,-0.21485 0.519531,-0.21485 0.195313,0 0.363282,0.0781 0.503907,0.21485 0.132812,0.14062 0.210937,0.30859 0.210937,0.5039 0,0.19922 -0.07813,0.375 -0.210937,0.51172 -0.140625,0.13281 -0.308594,0.19922 -0.503907,0.19922 -0.210937,0 -0.386718,-0.0664 -0.519531,-0.19922 -0.128906,-0.13672 -0.195312,-0.30078 -0.195312,-0.51172 z m 0,0"
     id="path73" />
  <path
     fill-rule="nonzero"
     fill="#262626"
     fill-opacity="1"
     d="M 69.695312,200.07422 V 199.5 h 1.398438 v -6.69531 l -1.617188,1.05078 v -0.71094 l 1.957032,-1.26562 h 0.734375 V 199.5 h 1.398437 v 0.57422 z m 0,0"
     id="path74" />
  <g
     clip-path="url(#clip-6)"
     id="g74">
    <use
       xlink:href="#source-61457"
       transform="translate(121,3)"
       id="use74" />
  </g>
  <path
     fill-rule="nonzero"
     fill="#262626"
     fill-opacity="1"
     d="m 116.9375,199.69531 c 0.55078,0 0.95703,-0.29687 1.23438,-0.90625 0.26171,-0.59375 0.40625,-1.50781 0.40625,-2.73828 0,-1.21484 -0.14454,-2.13281 -0.40625,-2.73437 -0.27735,-0.59766 -0.6836,-0.90625 -1.23438,-0.90625 -0.54687,0 -0.96484,0.30859 -1.23047,0.90625 -0.27344,0.60156 -0.40625,1.51953 -0.40625,2.73437 0,1.23047 0.13281,2.14453 0.40625,2.73828 0.26563,0.60938 0.6836,0.90625 1.23047,0.90625 z m 0,0.52344 c -0.87891,0 -1.55859,-0.36719 -2.04297,-1.09375 -0.48437,-0.73047 -0.72656,-1.74609 -0.72656,-3.07422 0,-1.3125 0.24219,-2.33984 0.72656,-3.07031 0.48438,-0.73047 1.16406,-1.10156 2.04297,-1.10156 0.87109,0 1.55469,0.37109 2.03516,1.10156 0.48437,0.73047 0.73828,1.75781 0.73828,3.07031 0,1.32813 -0.25391,2.34375 -0.73828,3.07422 -0.48047,0.72656 -1.16407,1.09375 -2.03516,1.09375 z m 0,0"
     id="path75" />
  <path
     fill-rule="nonzero"
     fill="#262626"
     fill-opacity="1"
     d="m 121.47266,199.50781 c 0,-0.19531 0.0664,-0.36328 0.19531,-0.5039 0.13281,-0.13672 0.30859,-0.21485 0.51953,-0.21485 0.19531,0 0.36328,0.0781 0.50391,0.21485 0.13281,0.14062 0.21093,0.30859 0.21093,0.5039 0,0.19922 -0.0781,0.375 -0.21093,0.51172 -0.14063,0.13281 -0.3086,0.19922 -0.50391,0.19922 -0.21094,0 -0.38672,-0.0664 -0.51953,-0.19922 -0.12891,-0.13672 -0.19531,-0.30078 -0.19531,-0.51172 z m 0,0"
     id="path76" />
  <path
     fill-rule="nonzero"
     fill="#262626"
     fill-opacity="1"
     d="m 129.46875,192.01953 v 0.88281 h -3.67187 v 2.3125 c 0.17578,-0.13672 0.39453,-0.22265 0.64843,-0.28906 0.24219,-0.0664 0.52735,-0.10156 0.83594,-0.10156 0.85937,0 1.53906,0.24219 2.04687,0.73047 0.50391,0.48437 0.75782,1.13672 0.75782,1.96875 0,0.85937 -0.25391,1.52343 -0.75782,1.98437 -0.50781,0.47656 -1.22265,0.71094 -2.13281,0.71094 -0.375,0 -0.75,-0.0469 -1.13672,-0.13281 -0.39453,-0.0781 -0.78906,-0.21485 -1.1875,-0.40235 v -1.5625 h 0.60547 c 0.0352,0.51563 0.19922,0.91407 0.48438,1.17969 0.28515,0.26172 0.70312,0.39453 1.23437,0.39453 0.5586,0 0.98828,-0.1875 1.29688,-0.55859 0.30859,-0.37891 0.46093,-0.90625 0.46093,-1.61328 0,-0.69922 -0.15234,-1.22657 -0.44921,-1.60547 -0.3086,-0.375 -0.73828,-0.5586 -1.3086,-0.5586 -0.33203,0 -0.61718,0.0625 -0.85937,0.17579 -0.24219,0.10937 -0.46094,0.28515 -0.64844,0.52734 h -0.46484 v -4.04297 z m 0,0"
     id="path77" />
  <g
     clip-path="url(#clip-9)"
     id="g77">
    <use
       xlink:href="#source-61460"
       transform="translate(176,3)"
       id="use77" />
  </g>
  <path
     fill-rule="nonzero"
     fill="#262626"
     fill-opacity="1"
     d="m 172.74219,199.69531 c 0.55078,0 0.95703,-0.29687 1.23437,-0.90625 0.26172,-0.59375 0.40625,-1.50781 0.40625,-2.73828 0,-1.21484 -0.14453,-2.13281 -0.40625,-2.73437 -0.27734,-0.59766 -0.68359,-0.90625 -1.23437,-0.90625 -0.54688,0 -0.96485,0.30859 -1.23047,0.90625 -0.27344,0.60156 -0.40625,1.51953 -0.40625,2.73437 0,1.23047 0.13281,2.14453 0.40625,2.73828 0.26562,0.60938 0.68359,0.90625 1.23047,0.90625 z m 0,0.52344 c -0.87891,0 -1.5586,-0.36719 -2.04297,-1.09375 -0.48438,-0.73047 -0.72656,-1.74609 -0.72656,-3.07422 0,-1.3125 0.24218,-2.33984 0.72656,-3.07031 0.48437,-0.73047 1.16406,-1.10156 2.04297,-1.10156 0.87109,0 1.55468,0.37109 2.03515,1.10156 0.48438,0.73047 0.73828,1.75781 0.73828,3.07031 0,1.32813 -0.2539,2.34375 -0.73828,3.07422 -0.48047,0.72656 -1.16406,1.09375 -2.03515,1.09375 z m 0,0"
     id="path78" />
  <path
     fill-rule="nonzero"
     fill="#262626"
     fill-opacity="1"
     d="m 177.27734,199.50781 c 0,-0.19531 0.0664,-0.36328 0.19532,-0.5039 0.13281,-0.13672 0.30859,-0.21485 0.51953,-0.21485 0.19531,0 0.36328,0.0781 0.5039,0.21485 0.13282,0.14062 0.21094,0.30859 0.21094,0.5039 0,0.19922 -0.0781,0.375 -0.21094,0.51172 -0.14062,0.13281 -0.30859,0.19922 -0.5039,0.19922 -0.21094,0 -0.38672,-0.0664 -0.51953,-0.19922 -0.12891,-0.13672 -0.19532,-0.30078 -0.19532,-0.51172 z m 0,0"
     id="path79" />
  <path
     fill-rule="nonzero"
     fill="#262626"
     fill-opacity="1"
     d="m 184.89062,196.46094 c -0.24218,0.27734 -0.52734,0.47265 -0.83593,0.60547 -0.3086,0.13671 -0.66016,0.20312 -1.04688,0.20312 -0.80078,0 -1.42969,-0.23437 -1.89062,-0.71875 -0.46094,-0.48828 -0.6836,-1.13672 -0.6836,-1.97656 0,-0.82031 0.24219,-1.47266 0.75,-1.95703 0.4961,-0.48828 1.16407,-0.73828 2,-0.73828 0.90235,0 1.60938,0.33984 2.08985,1.01562 0.48437,0.68359 0.72656,1.64453 0.72656,2.90234 0,1.41797 -0.29688,2.5 -0.86719,3.27344 -0.57422,0.76953 -1.38672,1.14844 -2.42969,1.14844 -0.28906,0 -0.58593,-0.0352 -0.89453,-0.0781 -0.30468,-0.043 -0.625,-0.12109 -0.95703,-0.23437 v -1.33594 h 0.60547 c 0.0469,0.36328 0.17578,0.64063 0.41797,0.83985 0.23047,0.19921 0.53906,0.28515 0.9375,0.28515 0.69141,0 1.20703,-0.2539 1.55078,-0.78515 0.32813,-0.52735 0.50391,-1.34375 0.52734,-2.44922 z m -1.75,-4.05078 c -0.5039,0 -0.90234,0.1875 -1.16406,0.55859 -0.27734,0.37891 -0.41015,0.90625 -0.41015,1.60547 0,0.70703 0.13281,1.23437 0.41015,1.61328 0.26172,0.375 0.66016,0.55078 1.16406,0.55078 0.50782,0 0.89063,-0.17578 1.16797,-0.53906 0.26172,-0.35938 0.40625,-0.875 0.40625,-1.5586 0,-0.71093 -0.14453,-1.25781 -0.40625,-1.64843 -0.27734,-0.38672 -0.66015,-0.58203 -1.16797,-0.58203 z m 0,0"
     id="path80" />
  <path
     fill-rule="nonzero"
     fill="#262626"
     fill-opacity="1"
     d="m 123.76563,206.375 -0.50782,2.63672 c 0.83203,0 1.48047,0.32812 1.92188,0.97656 0.44531,0.66797 0.54687,1.58203 0.33984,2.74219 -0.23437,1.17969 -0.70312,2.09375 -1.40234,2.74219 -0.69141,0.65234 -1.45703,0.96484 -2.30469,0.96484 L 121.32031,219 h -1.17187 l 0.50781,-2.5625 c -0.85547,0 -1.49219,-0.3125 -1.92187,-0.96484 -0.45704,-0.64844 -0.57422,-1.5625 -0.33985,-2.74219 0.22266,-1.16016 0.69141,-2.07422 1.40625,-2.74219 0.67578,-0.64844 1.44141,-0.97656 2.28516,-0.97656 l 0.51953,-2.63672 z m -1.74219,9.03125 c 0.46875,0 0.91015,-0.20703 1.32422,-0.64844 0.4414,-0.48437 0.7539,-1.16406 0.9375,-2.02734 0.15625,-0.84766 0.10156,-1.52344 -0.15625,-2.02344 -0.2461,-0.42969 -0.61328,-0.64844 -1.07813,-0.64844 z m -1.17188,0 1.03907,-5.34766 c -0.48047,0 -0.92188,0.21875 -1.32422,0.64844 -0.46875,0.5 -0.78125,1.17578 -0.9375,2.02344 -0.16797,0.86328 -0.11719,1.54297 0.15625,2.02734 0.23437,0.44141 0.58593,0.64844 1.0664,0.64844 z m 0,0"
     id="path81" />
  <g
     clip-path="url(#clip-12)"
     id="g81">
    <use
       xlink:href="#source-61463"
       transform="translate(60,181)"
       id="use81" />
  </g>
  <path
     fill-rule="nonzero"
     fill="#262626"
     fill-opacity="1"
     d="m 28.363281,186.33594 v -0.57032 h 1.398438 v -6.69921 l -1.617188,1.05468 v -0.71093 l 1.957031,-1.26563 h 0.734376 v 7.62109 h 1.398437 v 0.57032 z m 0,0"
     id="path82" />
  <path
     fill-rule="nonzero"
     fill="#262626"
     fill-opacity="1"
     d="m 34.832031,185.77344 c 0,-0.19922 0.06641,-0.36719 0.195313,-0.50782 0.132812,-0.13281 0.308594,-0.21093 0.519531,-0.21093 0.195313,0 0.363281,0.0781 0.503906,0.21093 0.132813,0.14063 0.210938,0.3086 0.210938,0.50782 0,0.19922 -0.07813,0.375 -0.210938,0.50781 -0.140625,0.13281 -0.308593,0.19922 -0.503906,0.19922 -0.210937,0 -0.386719,-0.0664 -0.519531,-0.19922 -0.128906,-0.13281 -0.195313,-0.29688 -0.195313,-0.50781 z m 0,0"
     id="path83" />
  <path
     fill-rule="nonzero"
     fill="#262626"
     fill-opacity="1"
     d="m 40.792969,185.96094 c 0.550781,0 0.957031,-0.30078 1.234375,-0.90625 0.261718,-0.59766 0.40625,-1.51172 0.40625,-2.73828 0,-1.21485 -0.144532,-2.13282 -0.40625,-2.73829 -0.277344,-0.59765 -0.683594,-0.90625 -1.234375,-0.90625 -0.546875,0 -0.964844,0.3086 -1.230469,0.90625 -0.273438,0.60547 -0.40625,1.52344 -0.40625,2.73829 0,1.22656 0.132812,2.14062 0.40625,2.73828 0.265625,0.60547 0.683594,0.90625 1.230469,0.90625 z m 0,0.51953 c -0.878907,0 -1.558594,-0.36328 -2.042969,-1.09375 -0.484375,-0.73047 -0.726562,-1.7461 -0.726562,-3.07031 0,-1.3125 0.242187,-2.34375 0.726562,-3.07032 0.484375,-0.73047 1.164062,-1.10156 2.042969,-1.10156 0.871093,0 1.554687,0.37109 2.035156,1.10156 0.484375,0.72657 0.738281,1.75782 0.738281,3.07032 0,1.32421 -0.253906,2.33984 -0.738281,3.07031 -0.480469,0.73047 -1.164063,1.09375 -2.035156,1.09375 z m 0,0"
     id="path84" />
  <path
     fill-rule="nonzero"
     fill="#262626"
     fill-opacity="1"
     d="m 47.789062,185.96094 c 0.550782,0 0.957032,-0.30078 1.234376,-0.90625 0.261718,-0.59766 0.40625,-1.51172 0.40625,-2.73828 0,-1.21485 -0.144532,-2.13282 -0.40625,-2.73829 -0.277344,-0.59765 -0.683594,-0.90625 -1.234376,-0.90625 -0.546874,0 -0.964843,0.3086 -1.230468,0.90625 -0.273438,0.60547 -0.40625,1.52344 -0.40625,2.73829 0,1.22656 0.132812,2.14062 0.40625,2.73828 0.265625,0.60547 0.683594,0.90625 1.230468,0.90625 z m 0,0.51953 c -0.878906,0 -1.558593,-0.36328 -2.042968,-1.09375 -0.484375,-0.73047 -0.726563,-1.7461 -0.726563,-3.07031 0,-1.3125 0.242188,-2.34375 0.726563,-3.07032 0.484375,-0.73047 1.164062,-1.10156 2.042968,-1.10156 0.871094,0 1.554688,0.37109 2.035157,1.10156 0.484375,0.72657 0.738281,1.75782 0.738281,3.07032 0,1.32421 -0.253906,2.33984 -0.738281,3.07031 -0.480469,0.73047 -1.164063,1.09375 -2.035157,1.09375 z m 0,0"
     id="path85" />
  <path
     fill-rule="nonzero"
     fill="#262626"
     fill-opacity="1"
     d="m 18.75,182.4375 h 6.886719 v 0.87109 H 18.75 Z m 0,0"
     id="path86" />
  <g
     clip-path="url(#clip-15)"
     id="g86">
    <use
       xlink:href="#source-61466"
       transform="translate(60,159)"
       id="use86" />
  </g>
  <path
     fill-rule="nonzero"
     fill="#262626"
     fill-opacity="1"
     d="m 30.296875,163.69141 c 0.550781,0 0.957031,-0.29688 1.234375,-0.90625 0.261719,-0.59375 0.40625,-1.50782 0.40625,-2.73829 0,-1.21484 -0.144531,-2.13281 -0.40625,-2.73828 -0.277344,-0.59375 -0.683594,-0.90234 -1.234375,-0.90234 -0.546875,0 -0.964844,0.30859 -1.230469,0.90234 -0.273437,0.60547 -0.40625,1.52344 -0.40625,2.73828 0,1.23047 0.132813,2.14454 0.40625,2.73829 0.265625,0.60937 0.683594,0.90625 1.230469,0.90625 z m 0,0.52343 c -0.878906,0 -1.558594,-0.36718 -2.042969,-1.09375 -0.484375,-0.73047 -0.726562,-1.74609 -0.726562,-3.07422 0,-1.3125 0.242187,-2.33984 0.726562,-3.07031 0.484375,-0.73047 1.164063,-1.10156 2.042969,-1.10156 0.871094,0 1.554687,0.37109 2.035156,1.10156 0.484375,0.73047 0.738281,1.75781 0.738281,3.07031 0,1.32813 -0.253906,2.34375 -0.738281,3.07422 -0.480469,0.72657 -1.164062,1.09375 -2.035156,1.09375 z m 0,0"
     id="path87" />
  <path
     fill-rule="nonzero"
     fill="#262626"
     fill-opacity="1"
     d="m 34.832031,163.50391 c 0,-0.19532 0.06641,-0.36329 0.195313,-0.50782 0.132812,-0.13281 0.308594,-0.21093 0.519531,-0.21093 0.195313,0 0.363281,0.0781 0.503906,0.21093 0.132813,0.14453 0.210938,0.3125 0.210938,0.50782 0,0.19921 -0.07813,0.375 -0.210938,0.51171 -0.140625,0.13282 -0.308593,0.19922 -0.503906,0.19922 -0.210937,0 -0.386719,-0.0664 -0.519531,-0.19922 -0.128906,-0.13671 -0.195313,-0.30078 -0.195313,-0.51171 z m 0,0"
     id="path88" />
  <path
     fill-rule="nonzero"
     fill="#262626"
     fill-opacity="1"
     d="m 43.5,156.57031 -3.132812,7.5 H 39.5625 l 2.992188,-7.17187 h -3.707032 v 0.99609 h -0.625 v -1.87891 H 43.5 Z m 0,0"
     id="path89" />
  <path
     fill-rule="nonzero"
     fill="#262626"
     fill-opacity="1"
     d="m 49.824219,156.01562 v 0.88282 h -3.671875 v 2.30859 c 0.175781,-0.13281 0.394531,-0.21875 0.648437,-0.28516 0.242188,-0.0664 0.527344,-0.10156 0.835938,-0.10156 0.859375,0 1.539062,0.24219 2.046875,0.73047 0.503906,0.48438 0.757812,1.13672 0.757812,1.96875 0,0.85938 -0.253906,1.52344 -0.757812,1.98438 -0.507813,0.47656 -1.222656,0.71093 -2.132813,0.71093 -0.375,0 -0.75,-0.0469 -1.136719,-0.13281 -0.394531,-0.0781 -0.789062,-0.21484 -1.1875,-0.40234 v -1.5625 h 0.605469 c 0.03516,0.51562 0.199219,0.91406 0.484375,1.17968 0.285156,0.26172 0.703125,0.39454 1.234375,0.39454 0.558594,0 0.988281,-0.1875 1.296875,-0.5586 0.308594,-0.3789 0.460938,-0.90625 0.460938,-1.61328 0,-0.69922 -0.152344,-1.22656 -0.449219,-1.60547 -0.308594,-0.375 -0.738281,-0.55859 -1.308594,-0.55859 -0.332031,0 -0.617187,0.0625 -0.859375,0.17578 -0.242187,0.10937 -0.460937,0.28516 -0.648437,0.52734 h -0.464844 v -4.04297 z m 0,0"
     id="path90" />
  <path
     fill-rule="nonzero"
     fill="#262626"
     fill-opacity="1"
     d="m 18.75,160.17187 h 6.886719 v 0.8711 H 18.75 Z m 0,0"
     id="path91" />
  <g
     clip-path="url(#clip-18)"
     id="g91">
    <use
       xlink:href="#source-61469"
       transform="translate(60,137)"
       id="use91" />
  </g>
  <path
     fill-rule="nonzero"
     fill="#262626"
     fill-opacity="1"
     d="m 30.296875,141.42578 c 0.550781,0 0.957031,-0.30078 1.234375,-0.90625 0.261719,-0.59766 0.40625,-1.51172 0.40625,-2.73828 0,-1.21484 -0.144531,-2.13281 -0.40625,-2.73828 -0.277344,-0.59766 -0.683594,-0.90625 -1.234375,-0.90625 -0.546875,0 -0.964844,0.30859 -1.230469,0.90625 -0.273437,0.60547 -0.40625,1.52344 -0.40625,2.73828 0,1.22656 0.132813,2.14062 0.40625,2.73828 0.265625,0.60547 0.683594,0.90625 1.230469,0.90625 z m 0,0.51953 c -0.878906,0 -1.558594,-0.36328 -2.042969,-1.09375 -0.484375,-0.73047 -0.726562,-1.74609 -0.726562,-3.07031 0,-1.31641 0.242187,-2.34375 0.726562,-3.07031 0.484375,-0.73047 1.164063,-1.10547 2.042969,-1.10547 0.871094,0 1.554687,0.375 2.035156,1.10547 0.484375,0.72656 0.738281,1.7539 0.738281,3.07031 0,1.32422 -0.253906,2.33984 -0.738281,3.07031 -0.480469,0.73047 -1.164062,1.09375 -2.035156,1.09375 z m 0,0"
     id="path92" />
  <path
     fill-rule="nonzero"
     fill="#262626"
     fill-opacity="1"
     d="m 34.832031,141.23437 c 0,-0.19531 0.06641,-0.36328 0.195313,-0.5039 0.132812,-0.13281 0.308594,-0.21094 0.519531,-0.21094 0.195313,0 0.363281,0.0781 0.503906,0.21094 0.132813,0.14062 0.210938,0.30859 0.210938,0.5039 0,0.20313 -0.07813,0.37891 -0.210938,0.51172 -0.140625,0.13282 -0.308593,0.19922 -0.503906,0.19922 -0.210937,0 -0.386719,-0.0664 -0.519531,-0.19922 -0.128906,-0.13281 -0.195313,-0.29687 -0.195313,-0.51172 z m 0,0"
     id="path93" />
  <path
     fill-rule="nonzero"
     fill="#262626"
     fill-opacity="1"
     d="m 42.828125,133.75 v 0.87891 H 39.15625 v 2.3125 c 0.175781,-0.13282 0.394531,-0.21875 0.648438,-0.28516 0.242187,-0.0664 0.527343,-0.10547 0.835937,-0.10547 0.859375,0 1.539063,0.24609 2.046875,0.73047 0.503906,0.48828 0.757812,1.13672 0.757812,1.96875 0,0.85937 -0.253906,1.52344 -0.757812,1.98437 -0.507812,0.47657 -1.222656,0.71094 -2.132812,0.71094 -0.375,0 -0.75,-0.0469 -1.136719,-0.13281 -0.394531,-0.0781 -0.789063,-0.21094 -1.1875,-0.39844 v -1.5664 h 0.605469 c 0.03516,0.51953 0.199218,0.91406 0.484374,1.17968 0.285157,0.26172 0.703126,0.39844 1.234376,0.39844 0.558593,0 0.988281,-0.19141 1.296874,-0.5625 0.308594,-0.375 0.460938,-0.90625 0.460938,-1.61328 0,-0.69531 -0.152344,-1.22656 -0.449219,-1.60156 -0.308593,-0.37891 -0.738281,-0.5625 -1.308593,-0.5625 -0.332032,0 -0.617188,0.0625 -0.859376,0.17578 -0.242187,0.10937 -0.460937,0.28906 -0.648437,0.53125 H 38.582031 V 133.75 Z m 0,0"
     id="path94" />
  <path
     fill-rule="nonzero"
     fill="#262626"
     fill-opacity="1"
     d="m 47.789062,141.42578 c 0.550782,0 0.957032,-0.30078 1.234376,-0.90625 0.261718,-0.59766 0.40625,-1.51172 0.40625,-2.73828 0,-1.21484 -0.144532,-2.13281 -0.40625,-2.73828 -0.277344,-0.59766 -0.683594,-0.90625 -1.234376,-0.90625 -0.546874,0 -0.964843,0.30859 -1.230468,0.90625 -0.273438,0.60547 -0.40625,1.52344 -0.40625,2.73828 0,1.22656 0.132812,2.14062 0.40625,2.73828 0.265625,0.60547 0.683594,0.90625 1.230468,0.90625 z m 0,0.51953 c -0.878906,0 -1.558593,-0.36328 -2.042968,-1.09375 -0.484375,-0.73047 -0.726563,-1.74609 -0.726563,-3.07031 0,-1.31641 0.242188,-2.34375 0.726563,-3.07031 0.484375,-0.73047 1.164062,-1.10547 2.042968,-1.10547 0.871094,0 1.554688,0.375 2.035157,1.10547 0.484375,0.72656 0.738281,1.7539 0.738281,3.07031 0,1.32422 -0.253906,2.33984 -0.738281,3.07031 -0.480469,0.73047 -1.164063,1.09375 -2.035157,1.09375 z m 0,0"
     id="path95" />
  <path
     fill-rule="nonzero"
     fill="#262626"
     fill-opacity="1"
     d="m 18.75,137.89844 h 6.886719 v 0.875 H 18.75 Z m 0,0"
     id="path96" />
  <g
     clip-path="url(#clip-21)"
     id="g96">
    <use
       xlink:href="#source-61472"
       transform="translate(60,114)"
       id="use96" />
  </g>
  <path
     fill-rule="nonzero"
     fill="#262626"
     fill-opacity="1"
     d="m 30.296875,119.15625 c 0.550781,0 0.957031,-0.29687 1.234375,-0.90625 0.261719,-0.59766 0.40625,-1.50781 0.40625,-2.73828 0,-1.21484 -0.144531,-2.13281 -0.40625,-2.73828 -0.277344,-0.59375 -0.683594,-0.90625 -1.234375,-0.90625 -0.546875,0 -0.964844,0.3125 -1.230469,0.90625 -0.273437,0.60547 -0.40625,1.52344 -0.40625,2.73828 0,1.23047 0.132813,2.14062 0.40625,2.73828 0.265625,0.60938 0.683594,0.90625 1.230469,0.90625 z m 0,0.52344 c -0.878906,0 -1.558594,-0.36719 -2.042969,-1.09766 -0.484375,-0.72656 -0.726562,-1.74219 -0.726562,-3.07031 0,-1.3125 0.242187,-2.33984 0.726562,-3.07031 0.484375,-0.73047 1.164063,-1.10157 2.042969,-1.10157 0.871094,0 1.554687,0.3711 2.035156,1.10157 0.484375,0.73047 0.738281,1.75781 0.738281,3.07031 0,1.32812 -0.253906,2.34375 -0.738281,3.07031 -0.480469,0.73047 -1.164062,1.09766 -2.035156,1.09766 z m 0,0"
     id="path97" />
  <path
     fill-rule="nonzero"
     fill="#262626"
     fill-opacity="1"
     d="m 34.832031,118.96875 c 0,-0.19531 0.06641,-0.36719 0.195313,-0.50781 0.132812,-0.13281 0.308594,-0.21094 0.519531,-0.21094 0.195313,0 0.363281,0.0781 0.503906,0.21094 0.132813,0.14062 0.210938,0.3125 0.210938,0.50781 0,0.19922 -0.07813,0.375 -0.210938,0.50781 -0.140625,0.13672 -0.308593,0.20313 -0.503906,0.20313 -0.210937,0 -0.386719,-0.0664 -0.519531,-0.20313 -0.128906,-0.13281 -0.195313,-0.29687 -0.195313,-0.50781 z m 0,0"
     id="path98" />
  <path
     fill-rule="nonzero"
     fill="#262626"
     fill-opacity="1"
     d="m 38.703125,113.40234 h -0.601563 v -1.4375 c 0.371094,-0.19921 0.757813,-0.35156 1.152344,-0.46093 0.386719,-0.10938 0.769532,-0.16407 1.144532,-0.16407 0.835937,0 1.496093,0.20704 1.980468,0.60157 0.484375,0.41406 0.726563,0.96093 0.726563,1.66015 0,0.79688 -0.550781,1.73438 -1.652344,2.82813 -0.08594,0.0859 -0.140625,0.14062 -0.183594,0.1875 l -2.027343,2.03515 h 3.34375 v -1 h 0.628906 v 1.87891 h -5.171875 v -0.58203 l 2.433593,-2.44531 c 0.527344,-0.52735 0.914063,-1.02344 1.144532,-1.47657 0.230468,-0.45312 0.351562,-0.92578 0.351562,-1.42578 0,-0.53906 -0.144531,-0.96093 -0.429687,-1.26953 -0.285157,-0.30859 -0.671875,-0.46484 -1.15625,-0.46484 -0.515625,0 -0.910157,0.13281 -1.1875,0.38672 -0.285157,0.2539 -0.449219,0.64062 -0.496094,1.14843 z m 0,0"
     id="path99" />
  <path
     fill-rule="nonzero"
     fill="#262626"
     fill-opacity="1"
     d="m 49.824219,111.48047 v 0.88281 h -3.671875 v 2.3086 c 0.175781,-0.13282 0.394531,-0.21875 0.648437,-0.28516 0.242188,-0.0664 0.527344,-0.10156 0.835938,-0.10156 0.859375,0 1.539062,0.24218 2.046875,0.73047 0.503906,0.48437 0.757812,1.13671 0.757812,1.96875 0,0.85937 -0.253906,1.51953 -0.757812,1.98437 -0.507813,0.47266 -1.222656,0.71094 -2.132813,0.71094 -0.375,0 -0.75,-0.0469 -1.136719,-0.13672 -0.394531,-0.0781 -0.789062,-0.21094 -1.1875,-0.39844 v -1.5664 h 0.605469 c 0.03516,0.51953 0.199219,0.91406 0.484375,1.18359 0.285156,0.26172 0.703125,0.39453 1.234375,0.39453 0.558594,0 0.988281,-0.1875 1.296875,-0.5625 0.308594,-0.375 0.460938,-0.90234 0.460938,-1.60937 0,-0.69922 -0.152344,-1.23047 -0.449219,-1.60547 -0.308594,-0.375 -0.738281,-0.5625 -1.308594,-0.5625 -0.332031,0 -0.617187,0.0664 -0.859375,0.17968 -0.242187,0.10938 -0.460937,0.28516 -0.648437,0.52735 h -0.464844 v -4.04297 z m 0,0"
     id="path100" />
  <path
     fill-rule="nonzero"
     fill="#262626"
     fill-opacity="1"
     d="m 18.75,115.63281 h 6.886719 v 0.875 H 18.75 Z m 0,0"
     id="path101" />
  <g
     clip-path="url(#clip-24)"
     id="g101">
    <use
       xlink:href="#source-61475"
       transform="translate(60,91)"
       id="use101" />
  </g>
  <path
     fill-rule="nonzero"
     fill="#262626"
     fill-opacity="1"
     d="m 30.300781,96.890625 c 0.550781,0 0.957031,-0.300781 1.234375,-0.90625 0.261719,-0.597656 0.40625,-1.511719 0.40625,-2.738281 0,-1.21875 -0.144531,-2.136719 -0.40625,-2.738282 -0.277344,-0.597656 -0.683594,-0.90625 -1.234375,-0.90625 -0.546875,0 -0.964843,0.308594 -1.230469,0.90625 -0.273437,0.601563 -0.40625,1.519532 -0.40625,2.738282 0,1.226562 0.132813,2.140625 0.40625,2.738281 0.265626,0.605469 0.683594,0.90625 1.230469,0.90625 z m 0,0.519531 c -0.878906,0 -1.558593,-0.363281 -2.042969,-1.09375 -0.484374,-0.730468 -0.726562,-1.746094 -0.726562,-3.070312 0,-1.316406 0.242188,-2.34375 0.726562,-3.074219 0.484376,-0.726563 1.164063,-1.101563 2.042969,-1.101563 0.871094,0 1.554688,0.375 2.035157,1.101563 0.484374,0.730469 0.738281,1.757813 0.738281,3.074219 0,1.324218 -0.253907,2.339844 -0.738281,3.070312 -0.480469,0.730469 -1.164063,1.09375 -2.035157,1.09375 z m 0,0"
     id="path102" />
  <path
     fill-rule="nonzero"
     fill="#262626"
     fill-opacity="1"
     d="m 34.835938,96.699219 c 0,-0.195313 0.06641,-0.363281 0.195312,-0.503907 0.132812,-0.132812 0.308594,-0.210937 0.519531,-0.210937 0.195313,0 0.363281,0.07813 0.503907,0.210937 0.132812,0.140626 0.210937,0.308594 0.210937,0.503907 0,0.203125 -0.07813,0.378906 -0.210937,0.511719 -0.140626,0.132812 -0.308594,0.199218 -0.503907,0.199218 -0.210937,0 -0.386719,-0.06641 -0.519531,-0.199218 -0.128906,-0.132813 -0.195312,-0.296876 -0.195312,-0.511719 z m 0,0"
     id="path103" />
  <path
     fill-rule="nonzero"
     fill="#262626"
     fill-opacity="1"
     d="m 40.792969,96.890625 c 0.550781,0 0.957031,-0.300781 1.234375,-0.90625 0.261718,-0.597656 0.40625,-1.511719 0.40625,-2.738281 0,-1.21875 -0.144532,-2.136719 -0.40625,-2.738282 -0.277344,-0.597656 -0.683594,-0.90625 -1.234375,-0.90625 -0.546875,0 -0.964844,0.308594 -1.230469,0.90625 -0.273438,0.601563 -0.40625,1.519532 -0.40625,2.738282 0,1.226562 0.132812,2.140625 0.40625,2.738281 0.265625,0.605469 0.683594,0.90625 1.230469,0.90625 z m 0,0.519531 c -0.878907,0 -1.558594,-0.363281 -2.042969,-1.09375 -0.484375,-0.730468 -0.726562,-1.746094 -0.726562,-3.070312 0,-1.316406 0.242187,-2.34375 0.726562,-3.074219 0.484375,-0.726563 1.164062,-1.101563 2.042969,-1.101563 0.871093,0 1.554687,0.375 2.035156,1.101563 0.488281,0.730469 0.742187,1.757813 0.742187,3.074219 0,1.324218 -0.253906,2.339844 -0.742187,3.070312 -0.480469,0.730469 -1.164063,1.09375 -2.035156,1.09375 z m 0,0"
     id="path104" />
  <path
     fill-rule="nonzero"
     fill="#262626"
     fill-opacity="1"
     d="m 47.792969,96.890625 c 0.550781,0 0.957031,-0.300781 1.234375,-0.90625 0.261718,-0.597656 0.40625,-1.511719 0.40625,-2.738281 0,-1.21875 -0.144532,-2.136719 -0.40625,-2.738282 -0.277344,-0.597656 -0.683594,-0.90625 -1.234375,-0.90625 -0.546875,0 -0.964844,0.308594 -1.230469,0.90625 -0.273438,0.601563 -0.40625,1.519532 -0.40625,2.738282 0,1.226562 0.132812,2.140625 0.40625,2.738281 0.265625,0.605469 0.683594,0.90625 1.230469,0.90625 z m 0,0.519531 c -0.878907,0 -1.558594,-0.363281 -2.042969,-1.09375 -0.484375,-0.730468 -0.726562,-1.746094 -0.726562,-3.070312 0,-1.316406 0.242187,-2.34375 0.726562,-3.074219 0.484375,-0.726563 1.164062,-1.101563 2.042969,-1.101563 0.871093,0 1.554687,0.375 2.035156,1.101563 0.484375,0.730469 0.738281,1.757813 0.738281,3.074219 0,1.324218 -0.253906,2.339844 -0.738281,3.070312 -0.480469,0.730469 -1.164063,1.09375 -2.035156,1.09375 z m 0,0"
     id="path105" />
  <g
     clip-path="url(#clip-27)"
     id="g105">
    <use
       xlink:href="#source-61478"
       transform="translate(60,69)"
       id="use105" />
  </g>
  <path
     fill-rule="nonzero"
     fill="#262626"
     fill-opacity="1"
     d="m 30.300781,74.621094 c 0.550781,0 0.957031,-0.296875 1.234375,-0.90625 0.261719,-0.597656 0.40625,-1.511719 0.40625,-2.738282 0,-1.214843 -0.144531,-2.132812 -0.40625,-2.738281 -0.277344,-0.59375 -0.683594,-0.90625 -1.234375,-0.90625 -0.546875,0 -0.964843,0.3125 -1.230469,0.90625 -0.273437,0.605469 -0.40625,1.523438 -0.40625,2.738281 0,1.226563 0.132813,2.140626 0.40625,2.738282 0.265626,0.609375 0.683594,0.90625 1.230469,0.90625 z m 0,0.519531 c -0.878906,0 -1.558593,-0.363281 -2.042969,-1.09375 -0.484374,-0.726563 -0.726562,-1.746094 -0.726562,-3.070313 0,-1.3125 0.242188,-2.339843 0.726562,-3.070312 0.484376,-0.730469 1.164063,-1.101562 2.042969,-1.101562 0.871094,0 1.554688,0.371093 2.035157,1.101562 0.484374,0.730469 0.738281,1.757812 0.738281,3.070312 0,1.324219 -0.253907,2.34375 -0.738281,3.070313 -0.480469,0.730469 -1.164063,1.09375 -2.035157,1.09375 z m 0,0"
     id="path106" />
  <path
     fill-rule="nonzero"
     fill="#262626"
     fill-opacity="1"
     d="m 34.835938,74.433594 c 0,-0.195313 0.06641,-0.367188 0.195312,-0.507813 0.132812,-0.132812 0.308594,-0.210937 0.519531,-0.210937 0.195313,0 0.363281,0.07813 0.503907,0.210937 0.132812,0.140625 0.210937,0.3125 0.210937,0.507813 0,0.199218 -0.07813,0.375 -0.210937,0.507812 -0.140626,0.132813 -0.308594,0.199219 -0.503907,0.199219 -0.210937,0 -0.386719,-0.06641 -0.519531,-0.199219 -0.128906,-0.132812 -0.195312,-0.296875 -0.195312,-0.507812 z m 0,0"
     id="path107" />
  <path
     fill-rule="nonzero"
     fill="#262626"
     fill-opacity="1"
     d="m 38.703125,68.867188 h -0.601563 v -1.4375 c 0.371094,-0.199219 0.757813,-0.351563 1.152344,-0.460938 0.386719,-0.109375 0.769532,-0.164062 1.144532,-0.164062 0.835937,0 1.496093,0.207031 1.980468,0.601562 0.484375,0.414062 0.726563,0.960938 0.726563,1.660156 0,0.796875 -0.550781,1.734375 -1.652344,2.828125 -0.08594,0.08594 -0.140625,0.140625 -0.183594,0.1875 l -2.027343,2.03125 h 3.34375 v -0.996093 h 0.632812 v 1.878906 h -5.175781 v -0.582032 l 2.433593,-2.445312 c 0.527344,-0.527344 0.914063,-1.023438 1.144532,-1.476562 0.230468,-0.453126 0.351562,-0.925782 0.351562,-1.425782 0,-0.539062 -0.144531,-0.960937 -0.429687,-1.269531 -0.285157,-0.3125 -0.671875,-0.464844 -1.15625,-0.464844 -0.515625,0 -0.910157,0.128907 -1.1875,0.386719 -0.285157,0.253906 -0.449219,0.640625 -0.496094,1.148438 z m 0,0"
     id="path108" />
  <path
     fill-rule="nonzero"
     fill="#262626"
     fill-opacity="1"
     d="m 49.828125,66.945312 v 0.882813 H 46.15625 v 2.308594 c 0.175781,-0.132813 0.394531,-0.21875 0.648438,-0.285157 0.242187,-0.06641 0.527343,-0.101562 0.835937,-0.101562 0.859375,0 1.539063,0.242188 2.046875,0.730469 0.503906,0.484375 0.757812,1.136719 0.757812,1.96875 0,0.859375 -0.253906,1.519531 -0.757812,1.984375 -0.507812,0.472656 -1.222656,0.707031 -2.132812,0.707031 -0.375,0 -0.75,-0.04687 -1.136719,-0.132813 -0.394531,-0.07812 -0.789063,-0.210937 -1.1875,-0.398437 v -1.566406 h 0.605469 c 0.03516,0.519531 0.199218,0.914062 0.484374,1.183593 0.285157,0.261719 0.703126,0.394532 1.234376,0.394532 0.558593,0 0.988281,-0.1875 1.296874,-0.5625 0.308594,-0.375 0.460938,-0.90625 0.460938,-1.609375 0,-0.699219 -0.152344,-1.230469 -0.449219,-1.605469 -0.308593,-0.375 -0.738281,-0.5625 -1.308593,-0.5625 -0.332032,0 -0.617188,0.0625 -0.859376,0.179688 -0.242187,0.109374 -0.460937,0.285156 -0.648437,0.527343 h -0.464844 v -4.042969 z m 0,0"
     id="path109" />
  <g
     clip-path="url(#clip-30)"
     id="g109">
    <use
       xlink:href="#source-61481"
       transform="translate(60,47)"
       id="use109" />
  </g>
  <path
     fill-rule="nonzero"
     fill="#262626"
     fill-opacity="1"
     d="m 30.300781,52.351562 c 0.550781,0 0.957031,-0.296874 1.234375,-0.90625 0.261719,-0.59375 0.40625,-1.507812 0.40625,-2.734374 0,-1.21875 -0.144531,-2.136719 -0.40625,-2.738282 -0.277344,-0.597656 -0.683594,-0.90625 -1.234375,-0.90625 -0.546875,0 -0.964843,0.308594 -1.230469,0.90625 -0.273437,0.601563 -0.40625,1.519532 -0.40625,2.738282 0,1.226562 0.132813,2.140624 0.40625,2.734374 0.265626,0.609376 0.683594,0.90625 1.230469,0.90625 z m 0,0.523438 c -0.878906,0 -1.558593,-0.363281 -2.042969,-1.09375 -0.484374,-0.730469 -0.726562,-1.746094 -0.726562,-3.070312 0,-1.316407 0.242188,-2.34375 0.726562,-3.074219 0.484376,-0.726563 1.164063,-1.101563 2.042969,-1.101563 0.871094,0 1.554688,0.375 2.035157,1.101563 0.484374,0.730469 0.738281,1.757812 0.738281,3.074219 0,1.324218 -0.253907,2.339843 -0.738281,3.070312 -0.480469,0.730469 -1.164063,1.09375 -2.035157,1.09375 z m 0,0"
     id="path110" />
  <path
     fill-rule="nonzero"
     fill="#262626"
     fill-opacity="1"
     d="m 34.835938,52.164062 c 0,-0.195312 0.06641,-0.363281 0.195312,-0.503906 0.132812,-0.132812 0.308594,-0.214844 0.519531,-0.214844 0.195313,0 0.363281,0.08203 0.503907,0.214844 0.132812,0.140625 0.210937,0.308594 0.210937,0.503906 0,0.199219 -0.07813,0.378907 -0.210937,0.511719 -0.140626,0.132813 -0.308594,0.199219 -0.503907,0.199219 -0.210937,0 -0.386719,-0.06641 -0.519531,-0.199219 C 34.902344,52.542969 34.835938,52.375 34.835938,52.164062 Z m 0,0"
     id="path111" />
  <path
     fill-rule="nonzero"
     fill="#262626"
     fill-opacity="1"
     d="m 42.828125,44.675781 v 0.882813 H 39.15625 v 2.3125 c 0.175781,-0.132813 0.394531,-0.222656 0.648438,-0.289063 0.242187,-0.06641 0.527343,-0.101562 0.835937,-0.101562 0.859375,0 1.539063,0.242187 2.046875,0.730469 0.503906,0.488281 0.761719,1.136718 0.761719,1.96875 0,0.859374 -0.257813,1.523437 -0.761719,1.984374 -0.507812,0.476563 -1.222656,0.710938 -2.132812,0.710938 -0.375,0 -0.75,-0.04687 -1.136719,-0.132812 -0.394531,-0.07813 -0.789063,-0.210938 -1.1875,-0.402344 v -1.5625 h 0.605469 c 0.03516,0.515625 0.199218,0.914062 0.484374,1.179687 0.285157,0.261719 0.703126,0.394531 1.234376,0.394531 0.558593,0 0.988281,-0.1875 1.296874,-0.558593 0.308594,-0.378907 0.460938,-0.90625 0.460938,-1.613281 0,-0.699219 -0.152344,-1.226563 -0.449219,-1.605469 -0.308593,-0.375 -0.738281,-0.558594 -1.308593,-0.558594 -0.332032,0 -0.617188,0.0625 -0.859376,0.175781 -0.242187,0.109375 -0.460937,0.285156 -0.648437,0.53125 h -0.464844 v -4.046875 z m 0,0"
     id="path112" />
  <path
     fill-rule="nonzero"
     fill="#262626"
     fill-opacity="1"
     d="m 47.792969,52.351562 c 0.550781,0 0.957031,-0.296874 1.234375,-0.90625 0.261718,-0.59375 0.40625,-1.507812 0.40625,-2.734374 0,-1.21875 -0.144532,-2.136719 -0.40625,-2.738282 C 48.75,45.375 48.34375,45.066406 47.792969,45.066406 c -0.546875,0 -0.964844,0.308594 -1.230469,0.90625 -0.273438,0.601563 -0.40625,1.519532 -0.40625,2.738282 0,1.226562 0.132812,2.140624 0.40625,2.734374 0.265625,0.609376 0.683594,0.90625 1.230469,0.90625 z m 0,0.523438 c -0.878907,0 -1.558594,-0.363281 -2.042969,-1.09375 -0.484375,-0.730469 -0.726562,-1.746094 -0.726562,-3.070312 0,-1.316407 0.242187,-2.34375 0.726562,-3.074219 0.484375,-0.726563 1.164062,-1.101563 2.042969,-1.101563 0.871093,0 1.554687,0.375 2.035156,1.101563 0.484375,0.730469 0.738281,1.757812 0.738281,3.074219 0,1.324218 -0.253906,2.339843 -0.738281,3.070312 -0.480469,0.730469 -1.164063,1.09375 -2.035156,1.09375 z m 0,0"
     id="path113" />
  <g
     clip-path="url(#clip-33)"
     id="g113">
    <use
       xlink:href="#source-61484"
       transform="translate(60,25)"
       id="use113" />
  </g>
  <path
     fill-rule="nonzero"
     fill="#262626"
     fill-opacity="1"
     d="m 30.300781,30.085938 c 0.550781,0 0.957031,-0.296876 1.234375,-0.90625 0.261719,-0.597657 0.40625,-1.511719 0.40625,-2.738282 0,-1.214844 -0.144531,-2.132812 -0.40625,-2.738281 -0.277344,-0.597656 -0.683594,-0.90625 -1.234375,-0.90625 -0.546875,0 -0.964843,0.308594 -1.230469,0.90625 -0.273437,0.605469 -0.40625,1.523437 -0.40625,2.738281 0,1.226563 0.132813,2.140625 0.40625,2.738282 0.265626,0.609374 0.683594,0.90625 1.230469,0.90625 z m 0,0.519531 c -0.878906,0 -1.558593,-0.363281 -2.042969,-1.09375 -0.484374,-0.730469 -0.726562,-1.746094 -0.726562,-3.070313 0,-1.3125 0.242188,-2.34375 0.726562,-3.070312 0.484376,-0.730469 1.164063,-1.101563 2.042969,-1.101563 0.871094,0 1.554688,0.371094 2.035157,1.101563 0.484374,0.726562 0.738281,1.757812 0.738281,3.070312 0,1.324219 -0.253907,2.339844 -0.738281,3.070313 -0.480469,0.730469 -1.164063,1.09375 -2.035157,1.09375 z m 0,0"
     id="path114" />
  <path
     fill-rule="nonzero"
     fill="#262626"
     fill-opacity="1"
     d="m 34.835938,29.898438 c 0,-0.199219 0.06641,-0.367188 0.195312,-0.507813 0.132812,-0.132813 0.308594,-0.210937 0.519531,-0.210937 0.195313,0 0.363281,0.07812 0.503907,0.210937 0.132812,0.140625 0.210937,0.308594 0.210937,0.507813 0,0.199218 -0.07813,0.375 -0.210937,0.507812 -0.140626,0.132812 -0.308594,0.199219 -0.503907,0.199219 -0.210937,0 -0.386719,-0.06641 -0.519531,-0.199219 -0.128906,-0.132812 -0.195312,-0.296875 -0.195312,-0.507812 z m 0,0"
     id="path115" />
  <path
     fill-rule="nonzero"
     fill="#262626"
     fill-opacity="1"
     d="m 43.503906,22.960938 -3.136718,7.5 H 39.5625 l 2.992188,-7.167969 h -3.707032 v 0.996093 h -0.625 v -1.878906 h 5.28125 z m 0,0"
     id="path116" />
  <path
     fill-rule="nonzero"
     fill="#262626"
     fill-opacity="1"
     d="m 49.828125,22.410156 v 0.882813 H 46.15625 v 2.308593 c 0.175781,-0.132812 0.394531,-0.21875 0.648438,-0.285156 0.242187,-0.06641 0.527343,-0.101562 0.835937,-0.101562 0.859375,0 1.539063,0.242187 2.046875,0.726562 0.503906,0.488282 0.757812,1.140625 0.757812,1.972656 0,0.855469 -0.253906,1.519532 -0.757812,1.984376 -0.507812,0.472656 -1.222656,0.707031 -2.132812,0.707031 -0.375,0 -0.75,-0.04687 -1.136719,-0.132813 -0.394531,-0.07813 -0.789063,-0.210937 -1.1875,-0.398437 v -1.566407 h 0.605469 c 0.03516,0.519532 0.199218,0.914063 0.484374,1.179688 0.285157,0.265625 0.703126,0.398438 1.234376,0.398438 0.558593,0 0.988281,-0.1875 1.296874,-0.5625 0.308594,-0.375 0.460938,-0.90625 0.460938,-1.609376 0,-0.699218 -0.152344,-1.230468 -0.449219,-1.605468 -0.308593,-0.378906 -0.738281,-0.5625 -1.308593,-0.5625 -0.332032,0 -0.617188,0.0625 -0.859376,0.175781 -0.242187,0.113281 -0.460937,0.289063 -0.648437,0.53125 h -0.464844 v -4.042969 z m 0,0"
     id="path117" />
  <g
     clip-path="url(#clip-36)"
     id="g117">
    <use
       xlink:href="#source-61487"
       transform="translate(60,3)"
       id="use117" />
  </g>
  <path
     fill-rule="nonzero"
     fill="#262626"
     fill-opacity="1"
     d="M 28.367188,8.195312 V 7.621094 h 1.398437 V 0.925781 L 28.148438,1.976562 V 1.265625 L 30.105469,0 h 0.734375 v 7.621094 h 1.398437 v 0.574218 z m 0,0"
     id="path118" />
  <path
     fill-rule="nonzero"
     fill="#262626"
     fill-opacity="1"
     d="m 34.835938,7.628906 c 0,-0.195312 0.06641,-0.363281 0.195312,-0.503906 0.132812,-0.136719 0.308594,-0.214844 0.519531,-0.214844 0.195313,0 0.363281,0.078125 0.503907,0.214844 0.132812,0.140625 0.210937,0.308594 0.210937,0.503906 0,0.199219 -0.07813,0.375 -0.210937,0.511719 -0.140626,0.132813 -0.308594,0.199219 -0.503907,0.199219 -0.210937,0 -0.386719,-0.066406 -0.519531,-0.199219 C 34.902344,8.003906 34.835938,7.839844 34.835938,7.628906 Z m 0,0"
     id="path119" />
  <path
     fill-rule="nonzero"
     fill="#262626"
     fill-opacity="1"
     d="m 40.792969,7.816406 c 0.550781,0 0.957031,-0.296875 1.234375,-0.90625 0.261718,-0.59375 0.40625,-1.507812 0.40625,-2.738281 0,-1.214844 -0.144532,-2.132813 -0.40625,-2.734375 C 41.75,0.839844 41.34375,0.53125 40.792969,0.53125 c -0.546875,0 -0.964844,0.308594 -1.230469,0.90625 -0.273438,0.601562 -0.40625,1.519531 -0.40625,2.734375 0,1.230469 0.132812,2.144531 0.40625,2.738281 0.265625,0.609375 0.683594,0.90625 1.230469,0.90625 z m 0,0.523438 C 39.914062,8.339844 39.234375,7.972656 38.75,7.246094 38.265625,6.515625 38.023438,5.5 38.023438,4.171875 c 0,-1.3125 0.242187,-2.339844 0.726562,-3.070313 C 39.234375,0.371094 39.914062,0 40.792969,0 c 0.871093,0 1.554687,0.371094 2.035156,1.101562 0.488281,0.730469 0.742187,1.757813 0.742187,3.070313 0,1.328125 -0.253906,2.34375 -0.742187,3.074219 -0.480469,0.726562 -1.164063,1.09375 -2.035156,1.09375 z m 0,0"
     id="path120" />
  <path
     fill-rule="nonzero"
     fill="#262626"
     fill-opacity="1"
     d="m 47.792969,7.816406 c 0.550781,0 0.957031,-0.296875 1.234375,-0.90625 0.261718,-0.59375 0.40625,-1.507812 0.40625,-2.738281 0,-1.214844 -0.144532,-2.132813 -0.40625,-2.734375 C 48.75,0.839844 48.34375,0.53125 47.792969,0.53125 c -0.546875,0 -0.964844,0.308594 -1.230469,0.90625 -0.273438,0.601562 -0.40625,1.519531 -0.40625,2.734375 0,1.230469 0.132812,2.144531 0.40625,2.738281 0.265625,0.609375 0.683594,0.90625 1.230469,0.90625 z m 0,0.523438 C 46.914062,8.339844 46.234375,7.972656 45.75,7.246094 45.265625,6.515625 45.023438,5.5 45.023438,4.171875 c 0,-1.3125 0.242187,-2.339844 0.726562,-3.070313 C 46.234375,0.371094 46.914062,0 47.792969,0 c 0.871093,0 1.554687,0.371094 2.035156,1.101562 0.484375,0.730469 0.738281,1.757813 0.738281,3.070313 0,1.328125 -0.253906,2.34375 -0.738281,3.074219 -0.480469,0.726562 -1.164063,1.09375 -2.035156,1.09375 z m 0,0"
     id="path121" />
  <path
     fill-rule="nonzero"
     fill="#262626"
     fill-opacity="1"
     d="M 9.878906,131.37891 H 9.203125 v -1.21485 h -8.125 v 1.21485 H 0.402344 v -3.72266 h 0.675781 v 1.21484 h 3.585937 l -3.585937,-4.09765 v 1.03125 H 0.402344 v -3.15625 h 0.675781 v 1.0664 l 3.574219,4.08594 4.550781,-4.57031 v -1.08203 h 0.675781 v 2.20703 l -4.496094,4.51562 h 3.820313 v -1.21484 h 0.675781 z m 0,0"
     id="path122" />
  <path
     fill-rule="nonzero"
     fill="#262626"
     fill-opacity="1"
     d="m 6.628906,115.61328 v 5.05469 h 0.050782 c 0.910156,0 1.601562,-0.17188 2.066406,-0.51172 0.46875,-0.33594 0.691406,-0.84766 0.691406,-1.52734 0,-0.50782 -0.128906,-0.92578 -0.402344,-1.26563 -0.261718,-0.32422 -0.664062,-0.55859 -1.195312,-0.6914 v -0.94141 c 0.738281,0.1875 1.296875,0.53906 1.660156,1.03125 0.367188,0.51172 0.546875,1.17969 0.546875,1.98828 0,0.99219 -0.3125,1.78516 -0.960937,2.38672 -0.648438,0.60156 -1.507813,0.90234 -2.585938,0.90234 -1.066406,0 -1.925781,-0.28906 -2.574219,-0.89062 -0.652343,-0.58594 -0.976562,-1.35547 -0.976562,-2.32031 0,-1.01954 0.324219,-1.81641 0.949219,-2.36329 0.625,-0.54687 1.535156,-0.82421 2.730468,-0.85156 z M 5.953125,117 c -0.78125,0.0273 -1.378906,0.19531 -1.78125,0.50781 -0.390625,0.31641 -0.597656,0.74219 -0.597656,1.32032 0,0.54687 0.207031,0.96484 0.609375,1.27734 0.40625,0.3125 0.988281,0.5 1.769531,0.5625 z m 0,0"
     id="path123" />
  <path
     fill-rule="nonzero"
     fill="#262626"
     fill-opacity="1"
     d="M 9.878906,114.42969 H 9.203125 v -1.0586 H 3.808594 v 1.1211 H 3.132812 v -2.30078 h 1.195313 c -0.441406,-0.20703 -0.792969,-0.49219 -1.027344,-0.83203 -0.234375,-0.33985 -0.351562,-0.74219 -0.351562,-1.21485 0,-0.74219 0.222656,-1.29297 0.636719,-1.64062 0.429687,-0.35547 1.09375,-0.53907 2.003906,-0.53907 h 3.613281 v -1.04296 h 0.675781 v 3.23437 H 9.203125 v -1.01562 h -3.25 c -0.820313,0 -1.378906,0.10156 -1.691406,0.3164 -0.3125,0.20703 -0.46875,0.5586 -0.46875,1.06641 0,0.54687 0.210937,0.96875 0.601562,1.2539 0.402344,0.28516 0.972657,0.41407 1.726563,0.41407 h 3.082031 v -1.01563 h 0.675781 z m 0,0"
     id="path124" />
  <path
     fill-rule="nonzero"
     fill="#262626"
     fill-opacity="1"
     d="M 9.203125,99.703125 V 98.582031 H 9.878906 V 100.875 H 8.824219 c 0.429687,0.23828 0.742187,0.52344 0.9375,0.875 0.183593,0.36719 0.285156,0.79688 0.285156,1.32031 0,0.83203 -0.324219,1.52735 -0.972656,2.05078 -0.652344,0.51954 -1.507813,0.78516 -2.574219,0.78516 -1.054688,0 -1.910156,-0.26562 -2.5625,-0.78516 -0.648438,-0.52343 -0.988281,-1.21875 -0.988281,-2.05078 0,-0.52343 0.105469,-0.95312 0.300781,-1.32031 0.207031,-0.35156 0.519531,-0.63672 0.933594,-0.875 H 0.675781 v 1.10938 H 0 V 99.703125 Z M 6.835938,100.875 H 6.175781 c -0.808593,0 -1.417969,0.15625 -1.847656,0.47266 -0.429687,0.3125 -0.648437,0.76953 -0.648437,1.35547 0,0.60156 0.246093,1.05859 0.714843,1.375 0.464844,0.3125 1.167969,0.45312 2.105469,0.45312 0.933594,0 1.648438,-0.14062 2.117188,-0.45312 0.480468,-0.31641 0.714843,-0.77344 0.714843,-1.375 0,-0.58594 -0.207031,-1.04297 -0.636719,-1.35547 C 8.28125,101.03125 7.65625,100.875 6.835938,100.875 Z m 0,0"
     id="path125" />
  <path
     fill-rule="nonzero"
     fill="#262626"
     fill-opacity="1"
     d="M 7.761719,93.003906 H 6.328125 v 1.519532 c 0,0.582031 0.132813,1.015624 0.378906,1.300781 0.261719,0.289062 0.636719,0.417969 1.144531,0.417969 0.46875,0 0.84375,-0.144532 1.117188,-0.429688 0.285156,-0.285156 0.417969,-0.679688 0.417969,-1.175781 0,-0.484375 -0.144531,-0.875 -0.445313,-1.171875 -0.296875,-0.304688 -0.6875,-0.460938 -1.179687,-0.460938 z m -2.09375,-1.171875 h 3.535156 v -1.042969 h 0.675781 v 2.214844 H 9.152344 c 0.3125,0.261719 0.542968,0.566406 0.6875,0.902344 0.128906,0.339844 0.207031,0.746094 0.207031,1.1875 0,0.757812 -0.195313,1.359375 -0.582031,1.800781 -0.390625,0.445313 -0.9375,0.65625 -1.613282,0.65625 -0.691406,0 -1.222656,-0.25 -1.613281,-0.757812 C 5.847656,96.296875 5.652344,95.578125 5.652344,94.652344 V 93.003906 H 5.1875 c -0.507812,0 -0.898438,0.15625 -1.183594,0.472656 -0.285156,0.3125 -0.429687,0.753907 -0.429687,1.316407 0,0.46875 0.117187,0.835937 0.324219,1.109375 0.207031,0.285156 0.519531,0.460937 0.9375,0.523437 v 0.597657 H 3.46875 C 3.300781,96.621094 3.171875,96.226562 3.078125,95.839844 3,95.460938 2.949219,95.082031 2.949219,94.714844 c 0,-0.9375 0.234375,-1.644532 0.703125,-2.136719 0.46875,-0.5 1.128906,-0.746094 2.015625,-0.746094 z m 0,0"
     id="path126" />
  <path
     fill-rule="nonzero"
     fill="#262626"
     fill-opacity="1"
     d="m 9.203125,87.746094 v -1.109375 h 0.675781 v 3.402343 H 9.203125 V 88.917969 H 0.675781 v 1.121093 H 0 v -2.292968 z m 0,0"
     id="path127" />
  <path
     fill-rule="nonzero"
     fill="#262626"
     fill-opacity="1"
     d="m 9.203125,83.570312 v -1.113281 h 0.675781 v 3.40625 H 9.203125 V 84.742188 H 0.675781 v 1.121093 H 0 v -2.292969 z m 0,0"
     id="path128" />
  <path
     fill-rule="nonzero"
     fill="#262626"
     fill-opacity="1"
     d="M 9.878906,75.421875 H 9.203125 V 74.210938 H 1.15625 V 77 h 1.480469 v 0.785156 H 0.402344 v -8.445312 h 2.234375 v 0.78125 H 1.15625 v 2.792968 h 8.046875 v -1.210937 h 0.675781 z m 0,0"
     id="path129" />
  <path
     fill-rule="nonzero"
     fill="#262626"
     fill-opacity="1"
     d="M 7.761719,65.015625 H 6.328125 v 1.519531 c 0,0.582032 0.132813,1.015625 0.378906,1.300782 0.261719,0.289062 0.636719,0.417968 1.144531,0.417968 0.46875,0 0.84375,-0.144531 1.117188,-0.429687 0.285156,-0.285157 0.417969,-0.679688 0.417969,-1.175781 0,-0.484376 -0.144531,-0.875 -0.445313,-1.171876 -0.296875,-0.304687 -0.6875,-0.460937 -1.179687,-0.460937 z M 5.667969,63.84375 h 3.535156 v -1.042969 h 0.675781 v 2.214844 H 9.152344 c 0.3125,0.261719 0.542968,0.566406 0.6875,0.902344 0.128906,0.339843 0.207031,0.746093 0.207031,1.1875 0,0.757812 -0.195313,1.359375 -0.582031,1.800781 -0.390625,0.445312 -0.9375,0.65625 -1.613282,0.65625 -0.691406,0 -1.222656,-0.25 -1.613281,-0.757812 C 5.847656,68.308594 5.652344,67.589844 5.652344,66.664062 V 65.015625 H 5.1875 c -0.507812,0 -0.898438,0.15625 -1.183594,0.472656 -0.285156,0.3125 -0.429687,0.753907 -0.429687,1.316407 0,0.46875 0.117187,0.835937 0.324219,1.109374 0.207031,0.285157 0.519531,0.460938 0.9375,0.523438 v 0.597656 H 3.46875 C 3.300781,68.632812 3.171875,68.238281 3.078125,67.851562 3,67.472656 2.949219,67.09375 2.949219,66.726562 c 0,-0.9375 0.234375,-1.644531 0.703125,-2.136718 0.46875,-0.5 1.128906,-0.746094 2.015625,-0.746094 z m 0,0"
     id="path130" />
  <path
     fill-rule="nonzero"
     fill="#262626"
     fill-opacity="1"
     d="m 3.132812,57.8125 v -2.191406 h 6.070313 v -1.113282 h 0.675781 v 2.285157 H 8.683594 c 0.453125,0.222656 0.792968,0.507812 1.027344,0.851562 0.21875,0.335938 0.335937,0.742188 0.335937,1.183594 0,0.757813 -0.207031,1.320313 -0.621094,1.671875 -0.417969,0.351562 -1.09375,0.523438 -2.003906,0.523438 H 3.808594 v 1.054687 H 3.132812 v -2.230469 h 3.925782 c 0.832031,0 1.390625,-0.08984 1.6875,-0.296875 0.3125,-0.210937 0.457031,-0.566406 0.457031,-1.085937 0,-0.546875 -0.195313,-0.953125 -0.597656,-1.242188 C 8.214844,56.9375 7.628906,56.792969 6.875,56.792969 H 3.808594 V 57.8125 Z m 0,0"
     id="path131" />
  <path
     fill="none"
     stroke-width="2.00423"
     stroke-linecap="round"
     stroke-linejoin="round"
     stroke="#d65f5f"
     stroke-opacity="1"
     stroke-miterlimit="10"
     d="m 66.386719,75.046875 13.953124,-4.609375 6.28125,-2.03125 7.66797,2.234375 13.949217,3.132813 13.95313,3.308593 13.95312,7.117188 13.94921,7.074219 13.95314,6.148437 13.94921,2.679685"
     id="path132" />
  <path
     fill-rule="nonzero"
     fill="#ffffff"
     fill-opacity="1"
     stroke-width="1.67019"
     stroke-linecap="butt"
     stroke-linejoin="round"
     stroke="#d65f5f"
     stroke-opacity="1"
     stroke-miterlimit="10"
     d="m 66.386719,78.058594 c 0.792968,0 1.558593,-0.316406 2.121093,-0.882813 0.5625,-0.5625 0.878907,-1.332031 0.878907,-2.128906 0,-0.800781 -0.316407,-1.566406 -0.878907,-2.128906 -0.5625,-0.566407 -1.328125,-0.882813 -2.121093,-0.882813 -0.796876,0 -1.558594,0.316406 -2.121094,0.882813 -0.5625,0.5625 -0.878906,1.328125 -0.878906,2.128906 0,0.796875 0.316406,1.566406 0.878906,2.128906 0.5625,0.566407 1.324218,0.882813 2.121094,0.882813 z m 0,0"
     id="path133" />
  <path
     fill-rule="nonzero"
     fill="#ffffff"
     fill-opacity="1"
     stroke-width="1.67019"
     stroke-linecap="butt"
     stroke-linejoin="round"
     stroke="#d65f5f"
     stroke-opacity="1"
     stroke-miterlimit="10"
     d="m 80.339843,73.449219 c 0.796876,0 1.558595,-0.316407 2.121095,-0.882813 0.5625,-0.5625 0.878905,-1.332031 0.878905,-2.128906 0,-0.800781 -0.316405,-1.5625 -0.878905,-2.128906 -0.5625,-0.566406 -1.324219,-0.882813 -2.121095,-0.882813 -0.796874,0 -1.558593,0.316407 -2.121093,0.882813 -0.5625,0.566406 -0.878907,1.328125 -0.878907,2.128906 0,0.796875 0.316407,1.566406 0.878907,2.128906 0.5625,0.566406 1.324219,0.882813 2.121093,0.882813 z m 0,0"
     id="path134" />
  <path
     fill-rule="nonzero"
     fill="#ffffff"
     fill-opacity="1"
     stroke-width="1.67019"
     stroke-linecap="butt"
     stroke-linejoin="round"
     stroke="#d65f5f"
     stroke-opacity="1"
     stroke-miterlimit="10"
     d="m 86.621093,71.417969 c 0.79297,0 1.558595,-0.316407 2.121095,-0.882813 0.5625,-0.5625 0.878906,-1.328125 0.878906,-2.128906 0,-0.800781 -0.316406,-1.566406 -0.878906,-2.128906 -0.5625,-0.566406 -1.328125,-0.882813 -2.121095,-0.882813 -0.796874,0 -1.562499,0.316407 -2.124999,0.882813 -0.5625,0.5625 -0.875001,1.328125 -0.875001,2.128906 0,0.800781 0.312501,1.566406 0.875001,2.128906 0.5625,0.566406 1.328125,0.882813 2.124999,0.882813 z m 0,0"
     id="path135" />
  <path
     fill-rule="nonzero"
     fill="#ffffff"
     fill-opacity="1"
     stroke-width="1.67019"
     stroke-linecap="butt"
     stroke-linejoin="round"
     stroke="#d65f5f"
     stroke-opacity="1"
     stroke-miterlimit="10"
     d="m 94.289063,73.65625 c 0.796874,0 1.558593,-0.320312 2.121093,-0.882812 0.5625,-0.566407 0.878907,-1.332032 0.878907,-2.132813 0,-0.796875 -0.316407,-1.5625 -0.878907,-2.128906 -0.5625,-0.5625 -1.324219,-0.882813 -2.121093,-0.882813 -0.796875,0 -1.558594,0.320313 -2.121094,0.882813 -0.5625,0.566406 -0.878907,1.332031 -0.878907,2.128906 0,0.800781 0.316407,1.566406 0.878907,2.132813 0.5625,0.5625 1.324219,0.882812 2.121094,0.882812 z m 0,0"
     id="path136" />
  <path
     fill-rule="nonzero"
     fill="#ffffff"
     fill-opacity="1"
     stroke-width="1.67019"
     stroke-linecap="butt"
     stroke-linejoin="round"
     stroke="#d65f5f"
     stroke-opacity="1"
     stroke-miterlimit="10"
     d="m 108.23828,76.785156 c 0.79688,0 1.5586,-0.316406 2.12109,-0.882812 0.56251,-0.566406 0.87891,-1.332032 0.87891,-2.128906 0,-0.800782 -0.3164,-1.566407 -0.87891,-2.132813 -0.56249,-0.5625 -1.32421,-0.878906 -2.12109,-0.878906 -0.79297,0 -1.55859,0.316406 -2.12109,0.878906 -0.56251,0.566406 -0.87891,1.332031 -0.87891,2.132813 0,0.796874 0.3164,1.5625 0.87891,2.128906 0.5625,0.566406 1.32812,0.882812 2.12109,0.882812 z m 0,0"
     id="path137" />
  <path
     fill-rule="nonzero"
     fill="#ffffff"
     fill-opacity="1"
     stroke-width="1.67019"
     stroke-linecap="butt"
     stroke-linejoin="round"
     stroke="#d65f5f"
     stroke-opacity="1"
     stroke-miterlimit="10"
     d="m 122.19141,80.09375 c 0.79687,0 1.56249,-0.316406 2.125,-0.882812 0.56249,-0.5625 0.875,-1.328126 0.875,-2.128907 0,-0.800781 -0.31251,-1.5625 -0.875,-2.128906 -0.56251,-0.566406 -1.32813,-0.882813 -2.125,-0.882813 -0.79298,0 -1.5586,0.316407 -2.1211,0.882813 -0.5625,0.566406 -0.8789,1.328125 -0.8789,2.128906 0,0.800781 0.3164,1.566407 0.8789,2.128907 0.5625,0.566406 1.32812,0.882812 2.1211,0.882812 z m 0,0"
     id="path138" />
  <path
     fill-rule="nonzero"
     fill="#ffffff"
     fill-opacity="1"
     stroke-width="1.67019"
     stroke-linecap="butt"
     stroke-linejoin="round"
     stroke="#d65f5f"
     stroke-opacity="1"
     stroke-miterlimit="10"
     d="m 136.14453,87.210938 c 0.79297,0 1.55859,-0.316407 2.12109,-0.882813 0.56251,-0.566406 0.87891,-1.328125 0.87891,-2.128906 0,-0.800781 -0.3164,-1.566407 -0.87891,-2.132813 -0.5625,-0.5625 -1.32812,-0.878906 -2.12109,-0.878906 -0.79688,0 -1.5586,0.316406 -2.12109,0.878906 -0.5625,0.566406 -0.87891,1.332032 -0.87891,2.132813 0,0.800781 0.31641,1.5625 0.87891,2.128906 0.56249,0.566406 1.32421,0.882813 2.12109,0.882813 z m 0,0"
     id="path139" />
  <path
     fill-rule="nonzero"
     fill="#ffffff"
     fill-opacity="1"
     stroke-width="1.67019"
     stroke-linecap="butt"
     stroke-linejoin="round"
     stroke="#d65f5f"
     stroke-opacity="1"
     stroke-miterlimit="10"
     d="m 150.09374,94.285156 c 0.79688,0 1.55861,-0.316406 2.1211,-0.882812 0.56251,-0.5625 0.87891,-1.332032 0.87891,-2.128906 0,-0.800782 -0.3164,-1.5625 -0.87891,-2.128907 -0.56249,-0.566406 -1.32422,-0.882812 -2.1211,-0.882812 -0.79686,0 -1.55859,0.316406 -2.12108,0.882812 -0.56251,0.566407 -0.87891,1.328125 -0.87891,2.128907 0,0.796874 0.3164,1.566406 0.87891,2.128906 0.56249,0.566406 1.32422,0.882812 2.12108,0.882812 z m 0,0"
     id="path140" />
  <path
     fill-rule="nonzero"
     fill="#ffffff"
     fill-opacity="1"
     stroke-width="1.67019"
     stroke-linecap="butt"
     stroke-linejoin="round"
     stroke="#d65f5f"
     stroke-opacity="1"
     stroke-miterlimit="10"
     d="m 164.04688,100.43359 c 0.79687,0 1.55859,-0.32031 2.12108,-0.882809 0.56251,-0.566406 0.87892,-1.335937 0.87892,-2.128906 0,-0.800781 -0.31641,-1.566406 -0.87892,-2.132813 -0.56249,-0.5625 -1.32421,-0.882812 -2.12108,-0.882812 -0.79688,0 -1.5586,0.320312 -2.1211,0.882812 -0.5625,0.566407 -0.87891,1.332032 -0.87891,2.132813 0,0.792969 0.31641,1.5625 0.87891,2.128906 0.5625,0.562499 1.32422,0.882809 2.1211,0.882809 z m 0,0"
     id="path141" />
  <path
     fill-rule="nonzero"
     fill="#ffffff"
     fill-opacity="1"
     stroke-width="1.67019"
     stroke-linecap="butt"
     stroke-linejoin="round"
     stroke="#d65f5f"
     stroke-opacity="1"
     stroke-miterlimit="10"
     d="m 177.99609,103.11719 c 0.79688,0 1.5586,-0.32031 2.1211,-0.88281 0.56249,-0.56641 0.8789,-1.33594 0.8789,-2.13282 0,-0.796872 -0.31641,-1.562498 -0.8789,-2.128904 -0.5625,-0.5625 -1.32422,-0.882812 -2.1211,-0.882812 -0.79297,0 -1.55859,0.320312 -2.12109,0.882812 -0.5625,0.566406 -0.87891,1.332032 -0.87891,2.128904 0,0.79688 0.31641,1.56641 0.87891,2.13282 0.5625,0.5625 1.32812,0.88281 2.12109,0.88281 z m 0,0"
     id="path142" />
  <path
     fill="none"
     stroke-width="1.50317"
     stroke-linecap="round"
     stroke-linejoin="round"
     stroke="#89bedd"
     stroke-opacity="1"
     stroke-miterlimit="10"
     d="m 66.386719,104.44531 13.953124,6.65235 6.28125,-2.23828 7.66797,-1.01172 13.949217,-0.78516 13.95313,1.65625 13.95312,2.24609"
     id="path143" />
  <path
     fill-rule="nonzero"
     fill="#ffffff"
     fill-opacity="1"
     stroke-width="1.25265"
     stroke-linecap="butt"
     stroke-linejoin="miter"
     stroke="#89bedd"
     stroke-opacity="1"
     stroke-miterlimit="10"
     d="m 63.386719,101.43359 h 6 v 6.02344 h -6 z m 0,0"
     id="path144" />
  <path
     fill-rule="nonzero"
     fill="#ffffff"
     fill-opacity="1"
     stroke-width="1.25265"
     stroke-linecap="butt"
     stroke-linejoin="miter"
     stroke="#89bedd"
     stroke-opacity="1"
     stroke-miterlimit="10"
     d="m 77.339843,108.08594 h 6 v 6.02344 h -6 z m 0,0"
     id="path145" />
  <path
     fill-rule="nonzero"
     fill="#ffffff"
     fill-opacity="1"
     stroke-width="1.25265"
     stroke-linecap="butt"
     stroke-linejoin="miter"
     stroke="#89bedd"
     stroke-opacity="1"
     stroke-miterlimit="10"
     d="m 83.621093,105.84766 h 6.000001 v 6.02343 h -6.000001 z m 0,0"
     id="path146" />
  <path
     fill-rule="nonzero"
     fill="#ffffff"
     fill-opacity="1"
     stroke-width="1.25265"
     stroke-linecap="butt"
     stroke-linejoin="miter"
     stroke="#89bedd"
     stroke-opacity="1"
     stroke-miterlimit="10"
     d="m 91.289062,104.83203 h 6.000001 v 6.02735 h -6.000001 z m 0,0"
     id="path147" />
  <path
     fill-rule="nonzero"
     fill="#ffffff"
     fill-opacity="1"
     stroke-width="1.25265"
     stroke-linecap="butt"
     stroke-linejoin="miter"
     stroke="#89bedd"
     stroke-opacity="1"
     stroke-miterlimit="10"
     d="m 105.23828,104.05078 h 6 v 6.02344 h -6 z m 0,0"
     id="path148" />
  <path
     fill-rule="nonzero"
     fill="#ffffff"
     fill-opacity="1"
     stroke-width="1.25265"
     stroke-linecap="butt"
     stroke-linejoin="miter"
     stroke="#89bedd"
     stroke-opacity="1"
     stroke-miterlimit="10"
     d="m 119.19141,105.70313 h 6 v 6.02734 h -6 z m 0,0"
     id="path149" />
  <path
     fill-rule="nonzero"
     fill="#ffffff"
     fill-opacity="1"
     stroke-width="1.25265"
     stroke-linecap="butt"
     stroke-linejoin="miter"
     stroke="#89bedd"
     stroke-opacity="1"
     stroke-miterlimit="10"
     d="m 133.14453,107.95313 h 6 v 6.02343 h -6 z m 0,0"
     id="path150" />
  <path
     fill="none"
     stroke-width="1.50317"
     stroke-linecap="round"
     stroke-linejoin="round"
     stroke="#539ecd"
     stroke-opacity="1"
     stroke-miterlimit="10"
     d="m 66.386719,106.70703 13.953124,3.14844 6.28125,-1.39063 7.66797,-1.60937 13.949217,-1.44141 13.95313,-0.6289 13.95312,-1.375 13.94921,-0.59766 13.95314,-0.59766 13.94921,-0.22656"
     id="path151" />
  <path
     fill-rule="nonzero"
     fill="#ffffff"
     fill-opacity="1"
     d="m 66.386719,103.69531 -2.855469,2.07813 1.089844,3.37109 h 3.527344 l 1.089843,-3.37109 z m 0,0"
     id="path152" />
  <g
     clip-path="url(#clip-39)"
     id="g153">
    <path
       fill="none"
       stroke-width="1.25518"
       stroke-linecap="butt"
       stroke-linejoin="miter"
       stroke="#539ecd"
       stroke-opacity="1"
       stroke-miterlimit="10"
       d="m 66.65534,-103.69531 -2.867023,-2.07813 1.094254,-3.37109 h 3.541616 l 1.094254,3.37109 z m 0,0"
       transform="scale(0.99597,-1)"
       id="path153" />
  </g>
  <path
     fill-rule="nonzero"
     fill="#ffffff"
     fill-opacity="1"
     d="m 80.339844,106.84375 -2.855469,2.08203 1.089844,3.36328 h 3.527343 l 1.089844,-3.36328 z m 0,0"
     id="path154" />
  <g
     clip-path="url(#clip-40)"
     id="g155">
    <path
       fill="none"
       stroke-width="1.25518"
       stroke-linecap="butt"
       stroke-linejoin="miter"
       stroke="#539ecd"
       stroke-opacity="1"
       stroke-miterlimit="10"
       d="m 80.664923,-106.84375 -2.867022,-2.08203 1.094253,-3.36328 h 3.541617 l 1.094253,3.36328 z m 0,0"
       transform="scale(0.99597,-1)"
       id="path155" />
  </g>
  <path
     fill-rule="nonzero"
     fill="#ffffff"
     fill-opacity="1"
     d="m 86.621094,105.45313 -2.855469,2.08203 1.089844,3.36718 h 3.527343 l 1.089844,-3.36718 z m 0,0"
     id="path156" />
  <g
     clip-path="url(#clip-41)"
     id="g157">
    <path
       fill="none"
       stroke-width="1.25518"
       stroke-linecap="butt"
       stroke-linejoin="miter"
       stroke="#539ecd"
       stroke-opacity="1"
       stroke-miterlimit="10"
       d="m 86.971589,-105.45313 -2.867023,-2.08203 1.094254,-3.36718 h 3.541616 l 1.094254,3.36718 z m 0,0"
       transform="scale(0.99597,-1)"
       id="path157" />
  </g>
  <path
     fill-rule="nonzero"
     fill="#ffffff"
     fill-opacity="1"
     d="m 94.289062,103.83984 -2.851562,2.08594 1.089844,3.36328 h 3.523437 l 1.089844,-3.36328 z m 0,0"
     id="path158" />
  <g
     clip-path="url(#clip-42)"
     id="g159">
    <path
       fill="none"
       stroke-width="1.25518"
       stroke-linecap="butt"
       stroke-linejoin="miter"
       stroke="#539ecd"
       stroke-opacity="1"
       stroke-miterlimit="10"
       d="m 94.670585,-103.83984 -2.863101,-2.08594 1.094254,-3.36328 h 3.537694 l 1.094254,3.36328 z m 0,0"
       transform="scale(0.99597,-1)"
       id="path159" />
  </g>
  <path
     fill-rule="nonzero"
     fill="#ffffff"
     fill-opacity="1"
     d="m 108.23828,102.40234 -2.85156,2.07813 1.08984,3.37109 h 3.52735 l 1.08984,-3.37109 z m 0,0"
     id="path160" />
  <g
     clip-path="url(#clip-43)"
     id="g161">
    <path
       fill="none"
       stroke-width="1.25518"
       stroke-linecap="butt"
       stroke-linejoin="miter"
       stroke="#539ecd"
       stroke-opacity="1"
       stroke-miterlimit="10"
       d="m 108.67625,-102.40234 -2.8631,-2.07813 1.09425,-3.37109 h 3.54162 l 1.09425,3.37109 z m 0,0"
       transform="scale(0.99597,-1)"
       id="path161" />
  </g>
  <path
     fill-rule="nonzero"
     fill="#ffffff"
     fill-opacity="1"
     d="m 122.19141,101.77344 -2.85157,2.08203 1.08985,3.36719 h 3.52734 l 1.08985,-3.36719 z m 0,0"
     id="path162" />
  <g
     clip-path="url(#clip-44)"
     id="g163">
    <path
       fill="none"
       stroke-width="1.25518"
       stroke-linecap="butt"
       stroke-linejoin="miter"
       stroke="#539ecd"
       stroke-opacity="1"
       stroke-miterlimit="10"
       d="m 122.68583,-101.77344 -2.8631,-2.08203 1.09425,-3.36719 h 3.54162 l 1.09425,3.36719 z m 0,0"
       transform="scale(0.99597,-1)"
       id="path163" />
  </g>
  <path
     fill-rule="nonzero"
     fill="#ffffff"
     fill-opacity="1"
     d="m 136.14453,100.39844 -2.85547,2.08203 1.08985,3.37109 h 3.52734 l 1.08984,-3.37109 z m 0,0"
     id="path164" />
  <g
     clip-path="url(#clip-45)"
     id="g165">
    <path
       fill="none"
       stroke-width="1.25518"
       stroke-linecap="butt"
       stroke-linejoin="miter"
       stroke="#539ecd"
       stroke-opacity="1"
       stroke-miterlimit="10"
       d="m 136.69541,-100.39844 -2.86702,-2.08203 1.09425,-3.37109 h 3.54162 l 1.09425,3.37109 z m 0,0"
       transform="scale(0.99597,-1)"
       id="path165" />
  </g>
  <path
     fill-rule="nonzero"
     fill="#ffffff"
     fill-opacity="1"
     d="m 150.09375,99.800781 -2.85547,2.082029 1.08984,3.36719 h 3.52735 l 1.08984,-3.36719 z m 0,0"
     id="path166" />
  <g
     clip-path="url(#clip-46)"
     id="g167">
    <path
       fill="none"
       stroke-width="1.25518"
       stroke-linecap="butt"
       stroke-linejoin="miter"
       stroke="#539ecd"
       stroke-opacity="1"
       stroke-miterlimit="10"
       d="m 150.70107,-99.800781 -2.86702,-2.082029 1.09426,-3.36719 h 3.54161 l 1.09426,3.36719 z m 0,0"
       transform="scale(0.99597,-1)"
       id="path167" />
  </g>
  <path
     fill-rule="nonzero"
     fill="#ffffff"
     fill-opacity="1"
     d="m 164.04687,99.203125 -2.85156,2.078125 1.08985,3.36719 h 3.52343 l 1.08985,-3.36719 z m 0,0"
     id="path168" />
  <g
     clip-path="url(#clip-47)"
     id="g169">
    <path
       fill="none"
       stroke-width="1.25518"
       stroke-linecap="butt"
       stroke-linejoin="miter"
       stroke="#539ecd"
       stroke-opacity="1"
       stroke-miterlimit="10"
       d="m 164.71066,-99.203125 -2.8631,-2.078125 1.09425,-3.36719 h 3.5377 l 1.09425,3.36719 z m 0,0"
       transform="scale(0.99597,-1)"
       id="path169" />
  </g>
  <path
     fill-rule="nonzero"
     fill="#ffffff"
     fill-opacity="1"
     d="m 177.99609,98.976562 -2.85156,2.082028 1.08984,3.36719 h 3.52735 l 1.08984,-3.36719 z m 0,0"
     id="path170" />
  <g
     clip-path="url(#clip-48)"
     id="g171">
    <path
       fill="none"
       stroke-width="1.25518"
       stroke-linecap="butt"
       stroke-linejoin="miter"
       stroke="#539ecd"
       stroke-opacity="1"
       stroke-miterlimit="10"
       d="m 178.71632,-98.976562 -2.8631,-2.082028 1.09425,-3.36719 h 3.54162 l 1.09425,3.36719 z m 0,0"
       transform="scale(0.99597,-1)"
       id="path171" />
  </g>
  <path
     fill="none"
     stroke-width="1.50317"
     stroke-linecap="round"
     stroke-linejoin="round"
     stroke="#2a7bba"
     stroke-opacity="1"
     stroke-miterlimit="10"
     d="m 66.386719,106.32422 13.953124,3.26953 6.28125,-1.71875 7.66797,-1.19531 13.949217,-1.63672 13.95313,-0.65234 13.95312,-0.71094 13.94921,-0.76563 13.95314,-0.52734 13.94921,-1.37109"
     id="path172" />
  <path
     fill-rule="nonzero"
     fill="#ffffff"
     fill-opacity="1"
     d="m 66.386719,103.3125 -3,6.02344 h 6 z m 0,0"
     id="path173" />
  <g
     clip-path="url(#clip-49)"
     id="g174">
    <path
       fill="none"
       stroke-width="1.25518"
       stroke-linecap="butt"
       stroke-linejoin="miter"
       stroke="#2a7bba"
       stroke-opacity="1"
       stroke-miterlimit="10"
       d="m 66.65534,-103.3125 -3.012139,-6.02344 h 6.024278 z m 0,0"
       transform="scale(0.99597,-1)"
       id="path174" />
  </g>
  <path
     fill-rule="nonzero"
     fill="#ffffff"
     fill-opacity="1"
     d="m 80.339844,106.58203 -3,6.02735 h 6 z m 0,0"
     id="path175" />
  <g
     clip-path="url(#clip-50)"
     id="g176">
    <path
       fill="none"
       stroke-width="1.25518"
       stroke-linecap="butt"
       stroke-linejoin="miter"
       stroke="#2a7bba"
       stroke-opacity="1"
       stroke-miterlimit="10"
       d="m 80.664923,-106.58203 -3.012139,-6.02735 h 6.024278 z m 0,0"
       transform="scale(0.99597,-1)"
       id="path176" />
  </g>
  <path
     fill-rule="nonzero"
     fill="#ffffff"
     fill-opacity="1"
     d="m 86.621094,104.86328 -3,6.02344 h 6 z m 0,0"
     id="path177" />
  <g
     clip-path="url(#clip-51)"
     id="g178">
    <path
       fill="none"
       stroke-width="1.25518"
       stroke-linecap="butt"
       stroke-linejoin="miter"
       stroke="#2a7bba"
       stroke-opacity="1"
       stroke-miterlimit="10"
       d="m 86.971589,-104.86328 -3.012139,-6.02344 h 6.024278 z m 0,0"
       transform="scale(0.99597,-1)"
       id="path178" />
  </g>
  <path
     fill-rule="nonzero"
     fill="#ffffff"
     fill-opacity="1"
     d="m 94.289062,103.66797 -3,6.02734 h 6 z m 0,0"
     id="path179" />
  <g
     clip-path="url(#clip-52)"
     id="g180">
    <path
       fill="none"
       stroke-width="1.25518"
       stroke-linecap="butt"
       stroke-linejoin="miter"
       stroke="#2a7bba"
       stroke-opacity="1"
       stroke-miterlimit="10"
       d="m 94.670585,-103.66797 -3.012139,-6.02734 h 6.024278 z m 0,0"
       transform="scale(0.99597,-1)"
       id="path180" />
  </g>
  <path
     fill-rule="nonzero"
     fill="#ffffff"
     fill-opacity="1"
     d="m 108.23828,102.03125 -3,6.02344 h 6 z m 0,0"
     id="path181" />
  <g
     clip-path="url(#clip-53)"
     id="g182">
    <path
       fill="none"
       stroke-width="1.25518"
       stroke-linecap="butt"
       stroke-linejoin="miter"
       stroke="#2a7bba"
       stroke-opacity="1"
       stroke-miterlimit="10"
       d="m 108.67625,-102.03125 -3.01214,-6.02344 h 6.02427 z m 0,0"
       transform="scale(0.99597,-1)"
       id="path182" />
  </g>
  <path
     fill-rule="nonzero"
     fill="#ffffff"
     fill-opacity="1"
     d="m 122.19141,101.37891 -3,6.02343 h 6 z m 0,0"
     id="path183" />
  <g
     clip-path="url(#clip-54)"
     id="g184">
    <path
       fill="none"
       stroke-width="1.25518"
       stroke-linecap="butt"
       stroke-linejoin="miter"
       stroke="#2a7bba"
       stroke-opacity="1"
       stroke-miterlimit="10"
       d="m 122.68583,-101.37891 -3.01214,-6.02343 h 6.02428 z m 0,0"
       transform="scale(0.99597,-1)"
       id="path184" />
  </g>
  <path
     fill-rule="nonzero"
     fill="#ffffff"
     fill-opacity="1"
     d="m 136.14453,100.66797 -3,6.02344 h 6 z m 0,0"
     id="path185" />
  <g
     clip-path="url(#clip-55)"
     id="g186">
    <path
       fill="none"
       stroke-width="1.25518"
       stroke-linecap="butt"
       stroke-linejoin="miter"
       stroke="#2a7bba"
       stroke-opacity="1"
       stroke-miterlimit="10"
       d="m 136.69541,-100.66797 -3.01214,-6.02344 h 6.02428 z m 0,0"
       transform="scale(0.99597,-1)"
       id="path186" />
  </g>
  <path
     fill-rule="nonzero"
     fill="#ffffff"
     fill-opacity="1"
     d="m 150.09375,99.902344 -3,6.027346 h 6 z m 0,0"
     id="path187" />
  <g
     clip-path="url(#clip-56)"
     id="g188">
    <path
       fill="none"
       stroke-width="1.25518"
       stroke-linecap="butt"
       stroke-linejoin="miter"
       stroke="#2a7bba"
       stroke-opacity="1"
       stroke-miterlimit="10"
       d="m 150.70107,-99.902344 -3.01213,-6.027346 h 6.02427 z m 0,0"
       transform="scale(0.99597,-1)"
       id="path188" />
  </g>
  <path
     fill-rule="nonzero"
     fill="#ffffff"
     fill-opacity="1"
     d="m 164.04687,99.375 -3,6.02344 h 6 z m 0,0"
     id="path189" />
  <g
     clip-path="url(#clip-57)"
     id="g190">
    <path
       fill="none"
       stroke-width="1.25518"
       stroke-linecap="butt"
       stroke-linejoin="miter"
       stroke="#2a7bba"
       stroke-opacity="1"
       stroke-miterlimit="10"
       d="m 164.71066,-99.375 -3.01214,-6.02344 h 6.02428 z m 0,0"
       transform="scale(0.99597,-1)"
       id="path190" />
  </g>
  <path
     fill-rule="nonzero"
     fill="#ffffff"
     fill-opacity="1"
     d="m 177.99609,98.003906 -3,6.027344 h 6 z m 0,0"
     id="path191" />
  <g
     clip-path="url(#clip-58)"
     id="g192">
    <path
       fill="none"
       stroke-width="1.25518"
       stroke-linecap="butt"
       stroke-linejoin="miter"
       stroke="#2a7bba"
       stroke-opacity="1"
       stroke-miterlimit="10"
       d="m 178.71632,-98.003906 -3.01214,-6.027344 h 6.02428 z m 0,0"
       transform="scale(0.99597,-1)"
       id="path192" />
  </g>
  <path
     fill="none"
     stroke-width="1.50317"
     stroke-linecap="round"
     stroke-linejoin="round"
     stroke="#0b559f"
     stroke-opacity="1"
     stroke-miterlimit="10"
     d="m 66.386719,106.70703 13.953124,3.14844 6.28125,-1.39063 7.66797,-1.60937 13.949217,-1.44141 13.95313,-0.6289 13.95312,-1.375 13.94921,-0.59766 13.95314,-0.59766 13.94921,-0.22656"
     id="path193" />
  <path
     fill-rule="nonzero"
     fill="#ffffff"
     fill-opacity="1"
     d="m 63.386719,106.70703 6,3.01563 v -6.02735 z m 0,0"
     id="path194" />
  <g
     clip-path="url(#clip-59)"
     id="g195">
    <path
       fill="none"
       stroke-width="1.25518"
       stroke-linecap="butt"
       stroke-linejoin="miter"
       stroke="#0b559f"
       stroke-opacity="1"
       stroke-miterlimit="10"
       d="m 63.643201,-106.70703 6.024278,-3.01563 v 6.02735 z m 0,0"
       transform="scale(0.99597,-1)"
       id="path195" />
  </g>
  <path
     fill-rule="nonzero"
     fill="#ffffff"
     fill-opacity="1"
     d="m 77.339844,109.85547 6,3.01172 v -6.02344 z m 0,0"
     id="path196" />
  <g
     clip-path="url(#clip-60)"
     id="g197">
    <path
       fill="none"
       stroke-width="1.25518"
       stroke-linecap="butt"
       stroke-linejoin="miter"
       stroke="#0b559f"
       stroke-opacity="1"
       stroke-miterlimit="10"
       d="m 77.652784,-109.85547 6.024278,-3.01172 v 6.02344 z m 0,0"
       transform="scale(0.99597,-1)"
       id="path197" />
  </g>
  <path
     fill-rule="nonzero"
     fill="#ffffff"
     fill-opacity="1"
     d="m 83.621094,108.46484 6,3.01172 v -6.02343 z m 0,0"
     id="path198" />
  <g
     clip-path="url(#clip-61)"
     id="g199">
    <path
       fill="none"
       stroke-width="1.25518"
       stroke-linecap="butt"
       stroke-linejoin="miter"
       stroke="#0b559f"
       stroke-opacity="1"
       stroke-miterlimit="10"
       d="m 83.95945,-108.46484 6.024278,-3.01172 v 6.02343 z m 0,0"
       transform="scale(0.99597,-1)"
       id="path199" />
  </g>
  <path
     fill-rule="nonzero"
     fill="#ffffff"
     fill-opacity="1"
     d="m 91.289062,106.85547 6,3.01172 v -6.02735 z m 0,0"
     id="path200" />
  <g
     clip-path="url(#clip-62)"
     id="g201">
    <path
       fill="none"
       stroke-width="1.25518"
       stroke-linecap="butt"
       stroke-linejoin="miter"
       stroke="#0b559f"
       stroke-opacity="1"
       stroke-miterlimit="10"
       d="m 91.658446,-106.85547 6.024278,-3.01172 v 6.02735 z m 0,0"
       transform="scale(0.99597,-1)"
       id="path201" />
  </g>
  <path
     fill-rule="nonzero"
     fill="#ffffff"
     fill-opacity="1"
     d="m 105.23828,105.41406 6,3.01172 v -6.02344 z m 0,0"
     id="path202" />
  <g
     clip-path="url(#clip-63)"
     id="g203">
    <path
       fill="none"
       stroke-width="1.25518"
       stroke-linecap="butt"
       stroke-linejoin="miter"
       stroke="#0b559f"
       stroke-opacity="1"
       stroke-miterlimit="10"
       d="m 105.66411,-105.41406 6.02427,-3.01172 v 6.02344 z m 0,0"
       transform="scale(0.99597,-1)"
       id="path203" />
  </g>
  <path
     fill-rule="nonzero"
     fill="#ffffff"
     fill-opacity="1"
     d="m 119.19141,104.78516 6,3.01562 v -6.02734 z m 0,0"
     id="path204" />
  <g
     clip-path="url(#clip-64)"
     id="g205">
    <path
       fill="none"
       stroke-width="1.25518"
       stroke-linecap="butt"
       stroke-linejoin="miter"
       stroke="#0b559f"
       stroke-opacity="1"
       stroke-miterlimit="10"
       d="m 119.67369,-104.78516 6.02428,-3.01562 v 6.02734 z m 0,0"
       transform="scale(0.99597,-1)"
       id="path205" />
  </g>
  <path
     fill-rule="nonzero"
     fill="#ffffff"
     fill-opacity="1"
     d="m 133.14453,103.41016 6,3.01172 v -6.02344 z m 0,0"
     id="path206" />
  <g
     clip-path="url(#clip-65)"
     id="g207">
    <path
       fill="none"
       stroke-width="1.25518"
       stroke-linecap="butt"
       stroke-linejoin="miter"
       stroke="#0b559f"
       stroke-opacity="1"
       stroke-miterlimit="10"
       d="m 133.68327,-103.41016 6.02428,-3.01172 v 6.02344 z m 0,0"
       transform="scale(0.99597,-1)"
       id="path207" />
  </g>
  <path
     fill-rule="nonzero"
     fill="#ffffff"
     fill-opacity="1"
     d="m 147.09375,102.8125 6,3.01563 v -6.027349 z m 0,0"
     id="path208" />
  <g
     clip-path="url(#clip-66)"
     id="g209">
    <path
       fill="none"
       stroke-width="1.25518"
       stroke-linecap="butt"
       stroke-linejoin="miter"
       stroke="#0b559f"
       stroke-opacity="1"
       stroke-miterlimit="10"
       d="m 147.68894,-102.8125 6.02427,-3.01563 v 6.027349 z m 0,0"
       transform="scale(0.99597,-1)"
       id="path209" />
  </g>
  <path
     fill-rule="nonzero"
     fill="#ffffff"
     fill-opacity="1"
     d="m 161.04687,102.21484 6,3.01172 v -6.023435 z m 0,0"
     id="path210" />
  <g
     clip-path="url(#clip-67)"
     id="g211">
    <path
       fill="none"
       stroke-width="1.25518"
       stroke-linecap="butt"
       stroke-linejoin="miter"
       stroke="#0b559f"
       stroke-opacity="1"
       stroke-miterlimit="10"
       d="m 161.69852,-102.21484 6.02428,-3.01172 v 6.023435 z m 0,0"
       transform="scale(0.99597,-1)"
       id="path211" />
  </g>
  <path
     fill-rule="nonzero"
     fill="#ffffff"
     fill-opacity="1"
     d="m 174.99609,101.98828 6,3.01563 v -6.027348 z m 0,0"
     id="path212" />
  <g
     clip-path="url(#clip-68)"
     id="g213">
    <path
       fill="none"
       stroke-width="1.25518"
       stroke-linecap="butt"
       stroke-linejoin="miter"
       stroke="#0b559f"
       stroke-opacity="1"
       stroke-miterlimit="10"
       d="m 175.70418,-101.98828 6.02428,-3.01563 v 6.027348 z m 0,0"
       transform="scale(0.99597,-1)"
       id="path213" />
  </g>
  <path
     fill="none"
     stroke-width="0.801693"
     stroke-linecap="square"
     stroke-linejoin="miter"
     stroke="#262626"
     stroke-opacity="1"
     stroke-miterlimit="10"
     d="M 60.804688,182.14062 V 3.996094"
     id="path214" />
  <path
     fill="none"
     stroke-width="0.801693"
     stroke-linecap="square"
     stroke-linejoin="miter"
     stroke="#262626"
     stroke-opacity="1"
     stroke-miterlimit="10"
     d="M 60.804688,182.14062 H 183.57813"
     id="path215" />
</svg>
