<?xml version="1.0" encoding="UTF-8" standalone="no"?>
<svg
   width="389pt"
   height="19pt"
   viewBox="0 0 389 19"
   version="1.1"
   id="svg29"
   xmlns="http://www.w3.org/2000/svg"
   xmlns:svg="http://www.w3.org/2000/svg">
  <defs
     id="defs29" />
  <path
     fill-rule="nonzero"
     fill="#ffffff"
     fill-opacity="0.8"
     stroke-width="1.01004"
     stroke-linecap="butt"
     stroke-linejoin="miter"
     stroke="#cccccc"
     stroke-opacity="0.8"
     stroke-miterlimit="10"
     d="M 2.5078126,18.492188 H 386.49219 c 1.33984,0 2.00781,-0.675782 2.00781,-2.035157 V 2.542969 c 0,-1.355469 -0.66797,-2.035157 -2.00781,-2.035157 H 2.5078126 c -1.3359378,0 -2.00781232,0.679688 -2.00781232,2.035157 v 13.914062 c 0,1.359375 0.67187452,2.035157 2.00781232,2.035157 z m 0,0"
     id="path1" />
  <path
     fill="none"
     stroke-width="2.0201"
     stroke-linecap="round"
     stroke-linejoin="round"
     stroke="#4878d0"
     stroke-opacity="1"
     stroke-miterlimit="10"
     d="M 4.5117183,8.746094 H 24.5625"
     id="path2" />
  <path
     fill-rule="nonzero"
     fill="#ffffff"
     fill-opacity="1"
     stroke-width="1.26256"
     stroke-linecap="butt"
     stroke-linejoin="round"
     stroke="#4878d0"
     stroke-opacity="1"
     stroke-miterlimit="10"
     d="m 14.539062,11.796875 c 0.796876,0 1.5625,-0.320313 2.125,-0.894531 0.562501,-0.570313 0.882813,-1.347656 0.882813,-2.15625 0,-0.808594 -0.320312,-1.585938 -0.882813,-2.160156 -0.5625,-0.570313 -1.328124,-0.894532 -2.125,-0.894532 -0.796875,0 -1.5625,0.324219 -2.128906,0.894532 -0.562499,0.574218 -0.878906,1.351562 -0.878906,2.160156 0,0.808594 0.316407,1.585937 0.878906,2.15625 0.566406,0.574218 1.332031,0.894531 2.128906,0.894531 z m 0,0"
     id="path3" />
  <path
     fill-rule="nonzero"
     fill="#262626"
     fill-opacity="1"
     d="m 34.28125,4.175781 h 2.121094 c 1.125,0 1.976562,0.242188 2.558594,0.730469 0.570312,0.488281 0.859374,1.199219 0.859374,2.15625 0,0.632812 -0.109374,1.242188 -0.328124,1.835938 -0.21875,0.585937 -0.519532,1.074218 -0.902344,1.472656 -0.390625,0.40625 -0.882813,0.710937 -1.480469,0.914062 -0.605469,0.203125 -1.304687,0.304688 -2.121094,0.304688 h -2.132812 z m 0.828125,0.820313 -1.097656,5.773437 h 1.289062 c 1.101563,0 1.96875,-0.320312 2.566407,-0.96875 0.605468,-0.640625 0.914062,-1.554687 0.914062,-2.738281 0,-0.710938 -0.199219,-1.230469 -0.59375,-1.5625 -0.390625,-0.328125 -1,-0.503906 -1.832031,-0.503906 z m 0,0"
     id="path4" />
  <path
     fill-rule="nonzero"
     fill="#262626"
     fill-opacity="1"
     d="m 42,4.175781 h 4.621094 l -0.160156,0.839844 h -3.636719 l -0.425781,2.199219 h 3.492187 L 45.730469,8.0625 H 42.238281 L 41.730469,10.75 h 3.714843 l -0.160156,0.839844 h -4.710937 z m 0,0"
     id="path5" />
  <path
     fill="none"
     stroke-width="2.0201"
     stroke-linecap="round"
     stroke-linejoin="round"
     stroke="#ee854a"
     stroke-opacity="1"
     stroke-miterlimit="10"
     d="M 67.675781,8.746094 H 87.726562"
     id="path6" />
  <path
     fill-rule="nonzero"
     fill="#ffffff"
     fill-opacity="1"
     stroke-width="1.26256"
     stroke-linecap="butt"
     stroke-linejoin="miter"
     stroke="#ee854a"
     stroke-opacity="1"
     stroke-miterlimit="10"
     d="m 74.691407,5.691406 h 6.015624 v 6.105469 h -6.015624 z m 0,0"
     id="path7" />
  <path
     fill-rule="nonzero"
     fill="#262626"
     fill-opacity="1"
     d="m 97.441406,4.300781 h 4.621094 l -0.16016,0.84375 H 98.265625 L 97.84375,7.34375 h 3.48828 l -0.16015,0.84375 h -3.492192 l -0.507813,2.6875 h 3.718755 l -0.16407,0.84375 h -4.710935 z m 0,0"
     id="path8" />
  <path
     fill-rule="nonzero"
     fill="#262626"
     fill-opacity="1"
     d="m 103.77734,4.300781 h 1.33204 l 2.01562,6.359375 1.22266,-6.359375 h 0.96484 l -1.42578,7.417969 h -1.33203 l -2.01953,-6.398438 -1.21875,6.398438 h -0.96485 z m 0,0"
     id="path9" />
  <path
     fill-rule="nonzero"
     fill="#262626"
     fill-opacity="1"
     d="m 115.05469,10.609375 0.38281,-1.941406 h -1.625 l 0.15234,-0.824219 h 2.59375 l -0.63281,3.261719 c -0.4375,0.246093 -0.91015,0.4375 -1.42187,0.5625 -0.51172,0.121093 -1.02344,0.183593 -1.54297,0.183593 -0.92578,0 -1.63672,-0.257812 -2.15625,-0.765624 -0.52344,-0.507813 -0.77344,-1.226563 -0.77344,-2.152344 0,-0.765625 0.15234,-1.488282 0.47266,-2.179688 0.3125,-0.691406 0.74218,-1.265625 1.30078,-1.730468 0.34375,-0.285157 0.72656,-0.5 1.14453,-0.640626 0.41016,-0.144531 0.875,-0.214843 1.38281,-0.214843 0.45313,0 0.89453,0.0625 1.31641,0.171875 0.41797,0.125 0.82031,0.296875 1.20312,0.53125 L 116.64844,5.9375 c -0.30078,-0.304688 -0.64063,-0.546875 -1.03125,-0.710938 -0.39844,-0.160156 -0.82422,-0.246093 -1.26172,-0.246093 -0.52344,0 -0.98438,0.105469 -1.375,0.308593 -0.40234,0.199219 -0.75,0.507813 -1.05469,0.925782 -0.26953,0.363281 -0.48047,0.78125 -0.6289,1.269531 -0.15235,0.488281 -0.22266,0.980469 -0.22266,1.476563 0,0.691406 0.17187,1.21875 0.52344,1.566406 0.33984,0.347656 0.86328,0.519531 1.5625,0.519531 0.33984,0 0.68359,-0.03125 1.0039,-0.109375 0.32032,-0.07422 0.60938,-0.183594 0.89063,-0.328125 z m 0,0"
     id="path10" />
  <path
     fill-rule="nonzero"
     fill="#262626"
     fill-opacity="1"
     d="m 119.04688,4.300781 h 2.52343 c 0.6836,0 1.19141,0.132813 1.53125,0.386719 0.34375,0.265625 0.51563,0.652344 0.51563,1.167969 0,0.480469 -0.14844,0.886719 -0.44141,1.234375 -0.29297,0.34375 -0.67187,0.558594 -1.14062,0.628906 0.39843,0.105469 0.69922,0.277344 0.89843,0.542969 0.19922,0.261719 0.3125,0.605469 0.3125,1.035156 0,0.753906 -0.28125,1.34375 -0.82421,1.769531 -0.53907,0.4375 -1.28125,0.652344 -2.22266,0.652344 h -2.57813 z m 0.23828,3.875 -0.51953,2.71875 h 1.59375 c 0.58984,0 1.05078,-0.132812 1.375,-0.414062 0.32031,-0.277344 0.48828,-0.671875 0.48828,-1.183594 0,-0.386719 -0.10938,-0.664063 -0.32032,-0.84375 -0.21875,-0.183594 -0.5625,-0.277344 -1.03125,-0.277344 z m 0.58203,-3.050781 -0.4336,2.238281 h 1.47657 c 0.51953,0 0.93359,-0.113281 1.23437,-0.347656 0.28906,-0.234375 0.4375,-0.558594 0.4375,-0.964844 0,-0.3125 -0.0977,-0.546875 -0.29687,-0.703125 C 122.08203,5.207031 121.76172,5.125 121.32813,5.125 Z m 0,0"
     id="path11" />
  <path
     fill="none"
     stroke-width="2.0201"
     stroke-linecap="round"
     stroke-linejoin="round"
     stroke="#6acc64"
     stroke-opacity="1"
     stroke-miterlimit="10"
     d="m 144.87109,8.746094 h 20.05469"
     id="path12" />
  <path
     fill-rule="nonzero"
     fill="#ffffff"
     fill-opacity="1"
     stroke-width="1.26256"
     stroke-linecap="butt"
     stroke-linejoin="miter"
     stroke="#6acc64"
     stroke-opacity="1"
     stroke-miterlimit="10"
     d="m 154.89844,5.691406 -2.85937,2.109375 1.09374,3.417969 h 3.53516 l 1.09375,-3.417969 z m 0,0"
     id="path13" />
  <path
     fill-rule="nonzero"
     fill="#262626"
     fill-opacity="1"
     d="m 174.64062,4.300781 h 4.6211 l -0.16016,0.84375 h -3.63672 l -0.42578,2.199219 h 3.49219 l -0.16016,0.84375 h -3.49218 l -0.50782,2.6875 h 3.71485 l -0.16016,0.84375 h -4.71094 z m 0,0"
     id="path14" />
  <path
     fill-rule="nonzero"
     fill="#262626"
     fill-opacity="1"
     d="m 185.32812,4.542969 -0.1914,0.980469 C 184.80469,5.347656 184.47266,5.214844 184.15234,5.125 c -0.32031,-0.09375 -0.64453,-0.144531 -0.9414,-0.144531 -0.59375,0 -1.0625,0.136719 -1.41407,0.398437 -0.35156,0.265625 -0.52343,0.613282 -0.52343,1.039063 0,0.246093 0.0625,0.425781 0.1914,0.546875 0.12891,0.136718 0.46094,0.265625 1.00391,0.410156 l 0.58984,0.148438 c 0.66407,0.183593 1.13282,0.410156 1.39453,0.671874 0.26172,0.269532 0.39063,0.644532 0.39063,1.128907 0,0.757812 -0.28906,1.355469 -0.87109,1.824219 -0.58204,0.46875 -1.34375,0.703124 -2.28907,0.703124 -0.38672,0 -0.77734,-0.04297 -1.17187,-0.113281 -0.39063,-0.07031 -0.78125,-0.183593 -1.17188,-0.34375 l 0.20313,-1.039062 c 0.35937,0.234375 0.71875,0.40625 1.08203,0.519531 0.35937,0.121094 0.73047,0.171875 1.08984,0.171875 0.61328,0 1.10547,-0.132813 1.48438,-0.417969 0.375,-0.273437 0.5625,-0.640625 0.5625,-1.089844 0,-0.292968 -0.0781,-0.515624 -0.23438,-0.671874 -0.14843,-0.148438 -0.46875,-0.292969 -0.94922,-0.421876 l -0.59375,-0.15625 c -0.67968,-0.171874 -1.14062,-0.375 -1.3789,-0.609374 -0.25391,-0.234376 -0.375,-0.558594 -0.375,-0.988282 0,-0.730468 0.28125,-1.34375 0.84375,-1.808594 0.5625,-0.46875 1.28515,-0.714843 2.18359,-0.714843 0.34375,0 0.69531,0.03125 1.03516,0.09375 0.33984,0.058593 0.6914,0.160156 1.03515,0.28125 z m 0,0"
     id="path15" />
  <path
     fill="none"
     stroke-width="2.0201"
     stroke-linecap="round"
     stroke-linejoin="round"
     stroke="#d65f5f"
     stroke-opacity="1"
     stroke-miterlimit="10"
     d="m 206.03125,8.746094 h 20.05078"
     id="path16" />
  <path
     fill-rule="nonzero"
     fill="#ffffff"
     fill-opacity="1"
     stroke-width="1.26256"
     stroke-linecap="butt"
     stroke-linejoin="miter"
     stroke="#d65f5f"
     stroke-opacity="1"
     stroke-miterlimit="10"
     d="m 216.05469,5.691406 -3.00781,6.105469 h 6.01562 z m 0,0"
     id="path17" />
  <path
     fill-rule="nonzero"
     fill="#262626"
     fill-opacity="1"
     d="m 235.79687,4.175781 h 4.19141 l -0.16016,0.839844 h -3.20703 l -0.42187,2.191406 h 2.89844 l -0.16407,0.84375 h -2.89453 l -0.68359,3.539063 h -0.98438 z m 0,0"
     id="path18" />
  <path
     fill-rule="nonzero"
     fill="#262626"
     fill-opacity="1"
     d="m 242.39453,4.996094 -0.5,2.636718 h 1.27344 c 0.5,0 0.90234,-0.132812 1.21484,-0.417968 0.30078,-0.28125 0.46094,-0.652344 0.46094,-1.097656 0,-0.355469 -0.10938,-0.632813 -0.3125,-0.824219 -0.21094,-0.191407 -0.51172,-0.296875 -0.89063,-0.296875 z m 1.8125,3.035156 c 0.20703,0.050781 0.38672,0.171875 0.52734,0.363281 0.13672,0.203125 0.29688,0.59375 0.47657,1.175781 l 0.62109,2.019532 h -1.03906 L 244.21875,9.6875 c -0.14844,-0.488281 -0.32031,-0.816406 -0.51172,-0.972656 -0.19922,-0.164063 -0.48828,-0.253906 -0.87891,-0.253906 h -1.09375 l -0.60156,3.128906 h -0.99219 l 1.42579,-7.414063 h 2.22265 c 0.67188,0 1.19531,0.160157 1.55469,0.46875 0.35937,0.300781 0.54297,0.75 0.54297,1.332031 0,0.515626 -0.16406,0.964844 -0.46485,1.34375 -0.30859,0.382813 -0.71093,0.617188 -1.21484,0.710938 z m 0,0"
     id="path19" />
  <path
     fill="none"
     stroke-width="2.0201"
     stroke-linecap="round"
     stroke-linejoin="round"
     stroke="#956cb4"
     stroke-opacity="1"
     stroke-miterlimit="10"
     d="m 267.1875,8.746094 h 20.05078"
     id="path20" />
  <path
     fill-rule="nonzero"
     fill="#ffffff"
     fill-opacity="1"
     stroke-width="1.26256"
     stroke-linecap="butt"
     stroke-linejoin="miter"
     stroke="#956cb4"
     stroke-opacity="1"
     stroke-miterlimit="10"
     d="m 274.20313,8.746094 6.01562,3.050781 V 5.691406 Z m 0,0"
     id="path21" />
  <path
     fill-rule="nonzero"
     fill="#262626"
     fill-opacity="1"
     d="m 296.95703,4.175781 h 2.28125 c 0.66406,0 1.17578,0.160157 1.52344,0.476563 0.33984,0.3125 0.52344,0.773437 0.52344,1.375 0,0.808594 -0.26172,1.453125 -0.77344,1.898437 -0.51953,0.460938 -1.24219,0.683594 -2.17188,0.683594 h -1.24609 l -0.57031,2.980469 h -0.99219 z m 0.82813,0.820313 -0.53125,2.792968 H 298.5 c 0.55859,0 0.98828,-0.144531 1.28906,-0.441406 0.30469,-0.285156 0.45313,-0.699218 0.45313,-1.25 0,-0.34375 -0.10938,-0.613281 -0.3086,-0.804687 -0.20312,-0.191407 -0.49218,-0.296875 -0.85547,-0.296875 z m 0,0"
     id="path22" />
  <path
     fill-rule="nonzero"
     fill="#262626"
     fill-opacity="1"
     d="m 301.89844,4.175781 h 6.1875 l -0.16016,0.839844 h -2.60937 l -1.25391,6.574219 h -0.99219 l 1.25391,-6.574219 h -2.58594 z m 0,0"
     id="path23" />
  <path
     fill-rule="nonzero"
     fill="#262626"
     fill-opacity="1"
     d="m 309.125,4.175781 h 2.52734 c 0.67969,0 1.19141,0.128907 1.53125,0.382813 0.33985,0.269531 0.51172,0.652344 0.51172,1.171875 0,0.480469 -0.14844,0.882812 -0.4414,1.230469 -0.28907,0.347656 -0.67188,0.558593 -1.14063,0.632812 0.39844,0.101562 0.70313,0.273438 0.90234,0.539062 0.19922,0.261719 0.3086,0.609376 0.3086,1.039063 0,0.75 -0.27735,1.34375 -0.82422,1.769531 -0.53906,0.433594 -1.27734,0.648438 -2.22266,0.648438 h -2.57812 z m 0.23828,3.875 -0.51953,2.71875 h 1.59375 c 0.58984,0 1.05469,-0.136719 1.375,-0.417969 0.32031,-0.273437 0.48828,-0.671874 0.48828,-1.179687 0,-0.390625 -0.10937,-0.664063 -0.32031,-0.847656 -0.21875,-0.183594 -0.5586,-0.273438 -1.03125,-0.273438 z m 0.58594,-3.054687 -0.4375,2.238281 h 1.47656 c 0.52344,0 0.93359,-0.109375 1.23438,-0.34375 0.28906,-0.234375 0.4375,-0.5625 0.4375,-0.96875 0,-0.3125 -0.0977,-0.546875 -0.29688,-0.703125 -0.20312,-0.136719 -0.52344,-0.222656 -0.95312,-0.222656 z m 0,0"
     id="path24" />
  <path
     fill-rule="nonzero"
     fill="#262626"
     fill-opacity="1"
     d="m 316.83203,4.996094 -0.5,2.636718 h 1.27344 c 0.5,0 0.90625,-0.132812 1.21484,-0.417968 0.30078,-0.28125 0.46094,-0.652344 0.46094,-1.097656 0,-0.355469 -0.10938,-0.632813 -0.3125,-0.824219 -0.20703,-0.191407 -0.50781,-0.296875 -0.89063,-0.296875 z m 1.81641,3.035156 c 0.20312,0.050781 0.38281,0.171875 0.52343,0.363281 0.13672,0.203125 0.29688,0.59375 0.47657,1.175781 l 0.625,2.019532 h -1.04297 L 318.66016,9.6875 c -0.14844,-0.488281 -0.32422,-0.816406 -0.51563,-0.972656 -0.19922,-0.164063 -0.48828,-0.253906 -0.87891,-0.253906 h -1.09375 l -0.59765,3.128906 h -0.9961 l 1.42579,-7.414063 h 2.22265 c 0.67188,0 1.19531,0.160157 1.55469,0.46875 0.36328,0.300781 0.54297,0.75 0.54297,1.332031 0,0.515626 -0.16016,0.964844 -0.46485,1.34375 -0.30859,0.382813 -0.71093,0.617188 -1.21093,0.710938 z m 0,0"
     id="path25" />
  <path
     fill="none"
     stroke-width="2.0201"
     stroke-linecap="round"
     stroke-linejoin="round"
     stroke="#8c613c"
     stroke-opacity="1"
     stroke-miterlimit="10"
     d="m 341.37891,8.746094 h 20.05078"
     id="path26" />
  <path
     fill-rule="nonzero"
     fill="#ffffff"
     fill-opacity="1"
     stroke-width="1.26256"
     stroke-linecap="butt"
     stroke-linejoin="miter"
     stroke="#8c613c"
     stroke-opacity="1"
     stroke-miterlimit="10"
     d="m 354.41016,8.746094 -6.01563,-3.054688 v 6.105469 z m 0,0"
     id="path27" />
  <path
     fill-rule="nonzero"
     fill="#262626"
     fill-opacity="1"
     d="m 371.97656,4.996094 -0.5,2.636718 h 1.26953 c 0.50391,0 0.90625,-0.132812 1.21485,-0.417968 0.30078,-0.28125 0.46484,-0.652344 0.46484,-1.097656 0,-0.355469 -0.10937,-0.632813 -0.31641,-0.824219 -0.20703,-0.191407 -0.50781,-0.296875 -0.88671,-0.296875 z m 1.8125,3.035156 c 0.20313,0.050781 0.38281,0.171875 0.52735,0.363281 0.13671,0.203125 0.29687,0.59375 0.47656,1.175781 l 0.62109,2.019532 H 374.375 L 373.80078,9.6875 c -0.14844,-0.488281 -0.32031,-0.816406 -0.51172,-0.972656 -0.19922,-0.164063 -0.48828,-0.253906 -0.88281,-0.253906 h -1.08984 l -0.60157,3.128906 h -0.99218 l 1.42187,-7.414063 h 2.22656 c 0.66797,0 1.19532,0.160157 1.55469,0.46875 0.35938,0.300781 0.53906,0.75 0.53906,1.332031 0,0.515626 -0.16015,0.964844 -0.46093,1.34375 -0.3086,0.382813 -0.71094,0.617188 -1.21485,0.710938 z m 0,0"
     id="path28" />
  <path
     fill-rule="nonzero"
     fill="#262626"
     fill-opacity="1"
     d="m 377.97266,4.175781 h 0.98828 l -0.85938,4.507813 c -0.0391,0.199218 -0.0586,0.375 -0.0781,0.496094 C 378,9.3125 378,9.425781 378,9.523438 c 0,0.460937 0.12109,0.808593 0.37109,1.039062 0.25,0.246094 0.6211,0.355469 1.11328,0.355469 0.6211,0 1.11329,-0.167969 1.46485,-0.519531 0.35156,-0.34375 0.60156,-0.921876 0.76172,-1.714844 l 0.86328,-4.507813 h 0.98828 l -0.87891,4.628907 c -0.19922,1.007812 -0.5625,1.75 -1.10547,2.21875 -0.53906,0.464843 -1.27343,0.699218 -2.20312,0.699218 -0.73438,0 -1.3125,-0.183594 -1.73828,-0.546875 -0.42969,-0.367187 -0.64063,-0.875 -0.64063,-1.515625 0,-0.117187 0,-0.246094 0.0234,-0.390625 0.0195,-0.140625 0.0391,-0.300781 0.0781,-0.464843 z m 0,0"
     id="path29" />
</svg>
