<?xml version="1.0" encoding="UTF-8" standalone="no"?>
<svg
   width="117pt"
   height="35pt"
   viewBox="0 0 117 35"
   version="1.1"
   id="svg29"
   xmlns:xlink="http://www.w3.org/1999/xlink"
   xmlns="http://www.w3.org/2000/svg"
   xmlns:svg="http://www.w3.org/2000/svg">
  <defs
     id="defs2">
    <clipPath
       id="clip-0">
      <path
         clip-rule="nonzero"
         d="M 0,0 H 117 V 35 H 0 Z m 0,0"
         id="path1" />
    </clipPath>
    <clipPath
       id="clip-1">
      <rect
         x="0"
         y="0"
         width="117"
         height="35"
         id="rect1" />
    </clipPath>
    <g
       id="source-446550"
       clip-path="url(#clip-1)">
      <g
         clip-path="url(#clip-0)"
         id="g2">
        <path
           fill="none"
           stroke-width="1.00946"
           stroke-linecap="butt"
           stroke-linejoin="miter"
           stroke="#cccccc"
           stroke-opacity="0.8"
           stroke-miterlimit="10"
           d="M 2.525546,-34.496094 H 114.57223 c 1.34487,0 2.02122,0.671875 2.02122,2.019532 v 29.953124 c 0,1.34375 -0.67635,2.019532 -2.02122,2.019532 H 2.525546 c -1.344873,0 -2.021219,-0.675782 -2.021219,-2.019532 v -29.953124 c 0,-1.347657 0.676346,-2.019532 2.021219,-2.019532 z m 0,0"
           transform="scale(0.999165,-1)"
           id="path2" />
      </g>
    </g>
  </defs>
  <path
     fill-rule="nonzero"
     fill="#ffffff"
     fill-opacity="0.8"
     d="M 2.523438,34.496094 H 114.47656 c 1.34375,0 2.01953,-0.671875 2.01953,-2.019532 V 2.523438 c 0,-1.34375 -0.67578,-2.019532 -2.01953,-2.019532 H 2.523438 c -1.34375,0 -2.019532,0.675782 -2.019532,2.019532 v 29.953124 c 0,1.347657 0.675782,2.019532 2.019532,2.019532 z m 0,0"
     id="path3" />
  <use
     xlink:href="#source-446550"
     id="use3" />
  <path
     fill="none"
     stroke-width="2.01809"
     stroke-linecap="round"
     stroke-linejoin="round"
     stroke="#d65f5f"
     stroke-opacity="1"
     stroke-miterlimit="10"
     d="M 4.5390627,8.675781 H 24.710937"
     id="path4" />
  <path
     fill-rule="nonzero"
     fill="#ffffff"
     fill-opacity="1"
     stroke-width="1.2613"
     stroke-linecap="butt"
     stroke-linejoin="round"
     stroke="#d65f5f"
     stroke-opacity="1"
     stroke-miterlimit="10"
     d="m 14.625,11.703125 c 0.804687,0 1.570313,-0.320313 2.140625,-0.886719 C 17.332032,10.25 17.652344,9.480469 17.652344,8.675781 17.652344,7.875 17.332032,7.101562 16.765625,6.535156 16.195313,5.964844 15.429687,5.648438 14.625,5.648438 c -0.804688,0 -1.570313,0.316406 -2.140625,0.886718 -0.566406,0.566406 -0.886719,1.339844 -0.886719,2.140625 0,0.804688 0.320313,1.574219 0.886719,2.140625 0.570312,0.566406 1.335937,0.886719 2.140625,0.886719 z m 0,0"
     id="path5" />
  <path
     fill-rule="nonzero"
     fill="#262626"
     fill-opacity="1"
     d="m 34.484375,4.441406 h 4.21875 L 38.539062,5.277344 H 35.3125 l -0.425781,2.171875 h 2.917969 l -0.164063,0.835937 h -2.914063 l -0.6875,3.515625 h -0.988281 z m 0,0"
     id="path6" />
  <path
     fill-rule="nonzero"
     fill="#262626"
     fill-opacity="1"
     d="m 44,8.648438 -0.617188,3.152343 h -0.910156 l 0.175782,-0.835937 c -0.273438,0.328125 -0.574219,0.570312 -0.917969,0.730468 -0.34375,0.15625 -0.71875,0.234376 -1.132813,0.234376 -0.472656,0 -0.859375,-0.144532 -1.15625,-0.421876 -0.304687,-0.285156 -0.445312,-0.648437 -0.445312,-1.101562 0,-0.644531 0.25,-1.152344 0.765625,-1.523438 0.515625,-0.375 1.21875,-0.566406 2.128906,-0.566406 h 1.261719 l 0.04687,-0.242187 c 0,-0.019531 0.01172,-0.050781 0.01172,-0.082031 0,-0.03125 0.01172,-0.082032 0.01172,-0.152344 0,-0.292969 -0.121094,-0.523438 -0.367187,-0.6875 -0.238281,-0.160156 -0.570313,-0.238282 -0.996094,-0.238282 -0.304687,0 -0.605469,0.039063 -0.90625,0.121094 -0.316406,0.078125 -0.636719,0.191406 -0.960937,0.332032 L 40.152344,6.53125 c 0.34375,-0.121094 0.679687,-0.226562 1.003906,-0.285156 0.320312,-0.058594 0.644531,-0.101563 0.945312,-0.101563 0.644532,0 1.140626,0.140625 1.484376,0.425781 0.34375,0.285157 0.511718,0.699219 0.511718,1.230469 0,0.109375 -0.0078,0.246094 -0.02734,0.386719 C 44.050781,8.335938 44.027344,8.488281 44,8.648438 Z m -0.980469,0.375 h -0.90625 c -0.746093,0 -1.292969,0.101562 -1.644531,0.304687 -0.363281,0.199219 -0.535156,0.503906 -0.535156,0.917969 0,0.289062 0.08984,0.523437 0.269531,0.683594 0.183594,0.164062 0.433594,0.242187 0.757813,0.242187 0.484374,0 0.917968,-0.167969 1.28125,-0.523437 0.363281,-0.351563 0.613281,-0.828126 0.738281,-1.425782 z m 0,0"
     id="path7" />
  <path
     fill-rule="nonzero"
     fill="#262626"
     fill-opacity="1"
     d="m 46.605469,4.125 h 0.910156 l -0.21875,1.152344 h -0.910156 z m -0.410157,2.152344 h 0.90625 l -1.078124,5.523437 h -0.90625 z m 0,0"
     id="path8" />
  <path
     fill-rule="nonzero"
     fill="#262626"
     fill-opacity="1"
     d="M 52.0625,7.113281 C 51.960938,7.074219 51.863281,7.035156 51.742188,7.003906 c -0.125,-0.019531 -0.246094,-0.039062 -0.375,-0.039062 -0.484376,0 -0.90625,0.1875 -1.269532,0.554687 -0.367187,0.363281 -0.59375,0.855469 -0.714844,1.464844 l -0.558593,2.816406 h -0.90625 L 49,6.277344 h 0.90625 l -0.175781,0.855468 c 0.234375,-0.308593 0.515625,-0.554687 0.859375,-0.722656 0.332031,-0.175781 0.6875,-0.265625 1.070312,-0.265625 0.08984,0 0.179688,0.011719 0.28125,0.023438 0.101563,0.00781 0.195313,0.027343 0.292969,0.046875 z m 0,0"
     id="path9" />
  <path
     fill-rule="nonzero"
     fill="#262626"
     fill-opacity="1"
     d="M 54.253906,5.257812 53.75,7.871094 h 1.277344 c 0.507812,0 0.910156,-0.128906 1.222656,-0.414063 0.304688,-0.28125 0.464844,-0.644531 0.464844,-1.089843 0,-0.351563 -0.109375,-0.625 -0.316406,-0.816407 C 56.191406,5.359375 55.886719,5.257812 55.503906,5.257812 Z m 1.824219,3.007813 c 0.203125,0.050781 0.386719,0.171875 0.527344,0.363281 0.136719,0.199219 0.300781,0.585938 0.480469,1.164063 l 0.625,2.007812 H 56.664062 L 56.089844,9.910156 C 55.9375,9.425781 55.765625,9.101562 55.574219,8.945312 55.371094,8.78125 55.082031,8.691406 54.6875,8.691406 h -1.101562 l -0.601563,3.109375 h -1 l 1.433594,-7.359375 h 2.238281 c 0.671875,0 1.199219,0.160156 1.5625,0.464844 0.363281,0.300781 0.542969,0.746094 0.542969,1.320312 0,0.511719 -0.160157,0.957032 -0.464844,1.332032 -0.308594,0.382812 -0.714844,0.617187 -1.21875,0.707031 z m 0,0"
     id="path10" />
  <path
     fill-rule="nonzero"
     fill="#262626"
     fill-opacity="1"
     d="M 62.429688,4.441406 H 63.5625 l 1.359375,7.359375 H 63.886719 L 63.582031,9.910156 h -3.308593 l -1.039063,1.890625 h -1.039063 z m 0.363281,0.976563 -2.066407,3.664062 h 2.707032 z m 0,0"
     id="path11" />
  <path
     fill-rule="nonzero"
     fill="#262626"
     fill-opacity="1"
     d="M 68.160156,5.257812 67.65625,7.871094 h 1.28125 c 0.503906,0 0.910156,-0.128906 1.222656,-0.414063 C 70.460938,7.175781 70.625,6.8125 70.625,6.367188 c 0,-0.351563 -0.113281,-0.625 -0.316406,-0.816407 C 70.097656,5.359375 69.796875,5.257812 69.414062,5.257812 Z m 1.824219,3.007813 c 0.207031,0.050781 0.386719,0.171875 0.527344,0.363281 0.140625,0.199219 0.300781,0.585938 0.480469,1.164063 l 0.628906,2.007812 H 70.570312 L 69.996094,9.910156 C 69.847656,9.425781 69.671875,9.101562 69.480469,8.945312 69.28125,8.78125 68.988281,8.691406 68.59375,8.691406 h -1.097656 l -0.605469,3.109375 h -1 L 67.324219,4.441406 H 69.5625 c 0.675781,0 1.203125,0.160156 1.566406,0.464844 0.359375,0.300781 0.542969,0.746094 0.542969,1.320312 0,0.511719 -0.164063,0.957032 -0.464844,1.332032 -0.3125,0.382812 -0.71875,0.617187 -1.222656,0.707031 z m 0,0"
     id="path12" />
  <path
     fill-rule="nonzero"
     fill="#262626"
     fill-opacity="1"
     d="m 74.332031,4.441406 h 1 l -1.433593,7.359375 h -1 z m 0,0"
     id="path13" />
  <path
     fill="none"
     stroke-width="1.51357"
     stroke-linecap="butt"
     stroke-linejoin="round"
     stroke="#191919"
     stroke-opacity="1"
     stroke-dasharray="5.60252, 2.42271"
     stroke-miterlimit="10"
     d="M 4.5390627,23.894531 H 24.710937"
     id="path14" />
  <path
     fill-rule="nonzero"
     fill="#262626"
     fill-opacity="1"
     d="m 34.484375,19.660156 h 2.296875 c 0.667969,0 1.183594,0.164063 1.535156,0.476563 0.34375,0.308593 0.527344,0.765625 0.527344,1.363281 0,0.804688 -0.265625,1.441406 -0.78125,1.882812 -0.523438,0.457032 -1.246094,0.679688 -2.1875,0.679688 h -1.25 l -0.570312,2.957031 h -1.003907 z m 0.835937,0.816406 -0.535156,2.769532 h 1.253906 c 0.5625,0 0.996094,-0.140625 1.300782,-0.4375 0.300781,-0.28125 0.453125,-0.695313 0.453125,-1.238282 0,-0.34375 -0.113281,-0.605468 -0.3125,-0.800781 -0.199219,-0.1875 -0.492188,-0.292969 -0.859375,-0.292969 z m 0,0"
     id="path15" />
  <path
     fill-rule="nonzero"
     fill="#262626"
     fill-opacity="1"
     d="m 41.421875,27.148438 c -0.644531,0 -1.15625,-0.1875 -1.53125,-0.582032 -0.382813,-0.394531 -0.5625,-0.9375 -0.5625,-1.636718 0,-0.402344 0.05859,-0.808594 0.1875,-1.222657 0.121094,-0.414062 0.296875,-0.765625 0.503906,-1.046875 0.324219,-0.445312 0.6875,-0.765625 1.09375,-0.980468 0.402344,-0.199219 0.855469,-0.316407 1.359375,-0.316407 0.625,0 1.128906,0.207031 1.511719,0.589844 0.386719,0.394531 0.585937,0.90625 0.585937,1.535156 0,0.445313 -0.07031,0.878907 -0.191406,1.3125 -0.128906,0.433594 -0.300781,0.785157 -0.503906,1.066407 -0.324219,0.445312 -0.6875,0.777343 -1.089844,0.980468 -0.40625,0.203125 -0.859375,0.300782 -1.363281,0.300782 z m -1.15625,-2.25 c 0,0.503906 0.09766,0.878906 0.3125,1.125 0.199219,0.25 0.523437,0.371093 0.949219,0.371093 0.601562,0 1.097656,-0.261719 1.5,-0.796875 0.40625,-0.527344 0.605468,-1.203125 0.605468,-2.019531 0,-0.472656 -0.109374,-0.835937 -0.320312,-1.082031 -0.214844,-0.238282 -0.527344,-0.363282 -0.941406,-0.363282 -0.339844,0 -0.65625,0.08203 -0.917969,0.242188 -0.261719,0.160156 -0.503906,0.40625 -0.703125,0.730469 -0.160156,0.238281 -0.285156,0.523437 -0.363281,0.835937 -0.08203,0.3125 -0.121094,0.632813 -0.121094,0.957032 z m 0,0"
     id="path16" />
  <path
     fill-rule="nonzero"
     fill="#262626"
     fill-opacity="1"
     d="m 50.078125,21.660156 -0.175781,0.855469 c -0.238282,-0.117187 -0.503906,-0.21875 -0.761719,-0.289063 -0.265625,-0.0625 -0.539063,-0.105468 -0.816406,-0.105468 -0.484375,0 -0.859375,0.08203 -1.132813,0.246094 -0.269531,0.160156 -0.40625,0.382812 -0.40625,0.664062 0,0.324219 0.316406,0.578125 0.960938,0.746094 0.04297,0.01953 0.08203,0.03125 0.101562,0.03125 l 0.289063,0.09375 c 0.609375,0.167968 1.011719,0.351562 1.214843,0.535156 0.199219,0.179688 0.300782,0.433594 0.300782,0.746094 0,0.585937 -0.230469,1.058594 -0.695313,1.421875 -0.464843,0.363281 -1.078125,0.542969 -1.828125,0.542969 -0.292968,0 -0.59375,-0.02734 -0.914062,-0.07813 -0.324219,-0.05078 -0.6875,-0.128906 -1.070313,-0.25 l 0.179688,-0.941406 c 0.324219,0.183594 0.660156,0.3125 0.980469,0.394532 0.320312,0.08984 0.625,0.132812 0.925781,0.132812 0.445312,0 0.796875,-0.09375 1.082031,-0.285156 0.269531,-0.191406 0.414062,-0.433594 0.414062,-0.726563 0,-0.316406 -0.363281,-0.566406 -1.09375,-0.769531 l -0.08984,-0.01953 -0.3125,-0.07813 c -0.464844,-0.121094 -0.804688,-0.273438 -1.015625,-0.476563 -0.210938,-0.203125 -0.316406,-0.453125 -0.316406,-0.765625 0,-0.585937 0.214843,-1.058594 0.660156,-1.402344 0.441406,-0.34375 1.035156,-0.519531 1.804687,-0.519531 0.300781,0 0.59375,0.03516 0.878907,0.08594 0.277343,0.05078 0.550781,0.121093 0.835937,0.210937 z m 0,0"
     id="path17" />
  <path
     fill-rule="nonzero"
     fill="#262626"
     fill-opacity="1"
     d="m 54.554688,21.5 -0.140626,0.703125 h -1.804687 l -0.585937,3 c -0.01953,0.109375 -0.04297,0.199219 -0.05078,0.28125 -0.01172,0.08203 -0.01172,0.132813 -0.01172,0.171875 0,0.210938 0.0625,0.367188 0.195312,0.464844 0.117188,0.101562 0.324219,0.140625 0.601562,0.140625 h 0.917969 l -0.148437,0.757812 h -0.867188 c -0.546875,0 -0.949218,-0.101562 -1.214844,-0.3125 -0.257812,-0.210937 -0.390624,-0.535156 -0.390624,-0.960937 0,-0.06641 0,-0.148438 0.0078,-0.242188 0.01563,-0.08984 0.03516,-0.191406 0.05469,-0.300781 l 0.582031,-3 H 50.933594 L 51.078125,21.5 h 0.753906 l 0.300781,-1.566406 h 0.910157 L 52.738281,21.5 Z m 0,0"
     id="path18" />
  <path
     fill-rule="nonzero"
     fill="#262626"
     fill-opacity="1"
     d="m 54.734375,23.847656 h 2.65625 v 0.808594 h -2.65625 z m 0,0"
     id="path19" />
  <path
     fill-rule="nonzero"
     fill="#262626"
     fill-opacity="1"
     d="m 59.589844,19.660156 h 2.296875 c 0.664062,0 1.179687,0.164063 1.53125,0.476563 0.34375,0.308593 0.527343,0.765625 0.527343,1.363281 0,0.804688 -0.261718,1.441406 -0.78125,1.882812 -0.523437,0.457032 -1.246093,0.679688 -2.183593,0.679688 h -1.253907 l -0.570312,2.957031 h -1.003906 z m 0.832031,0.816406 -0.535156,2.769532 h 1.253906 c 0.5625,0 0.996094,-0.140625 1.300781,-0.4375 0.304688,-0.28125 0.453125,-0.695313 0.453125,-1.238282 0,-0.34375 -0.109375,-0.605468 -0.3125,-0.800781 -0.199219,-0.1875 -0.492187,-0.292969 -0.859375,-0.292969 z m 0,0"
     id="path20" />
  <path
     fill-rule="nonzero"
     fill="#262626"
     fill-opacity="1"
     d="m 68.464844,22.335938 c -0.101563,-0.03906 -0.203125,-0.07813 -0.324219,-0.109376 -0.121094,-0.02344 -0.242187,-0.04297 -0.375,-0.04297 -0.484375,0 -0.90625,0.191406 -1.269531,0.558594 -0.363282,0.363281 -0.59375,0.855468 -0.714844,1.460937 l -0.554688,2.816406 h -0.90625 L 65.398438,21.5 h 0.90625 l -0.171876,0.855469 c 0.230469,-0.3125 0.515626,-0.554688 0.859376,-0.726563 0.328124,-0.171875 0.683593,-0.265625 1.066406,-0.265625 0.08984,0 0.179687,0.01563 0.285156,0.02734 0.101562,0.0078 0.191406,0.02734 0.289062,0.04687 z m 0,0"
     id="path21" />
  <path
     fill-rule="nonzero"
     fill="#262626"
     fill-opacity="1"
     d="m 70.671875,27.148438 c -0.644531,0 -1.15625,-0.1875 -1.53125,-0.582032 -0.382813,-0.394531 -0.5625,-0.9375 -0.5625,-1.636718 0,-0.402344 0.05859,-0.808594 0.1875,-1.222657 0.121094,-0.414062 0.296875,-0.765625 0.503906,-1.046875 0.324219,-0.445312 0.6875,-0.765625 1.089844,-0.980468 0.402344,-0.199219 0.855469,-0.316407 1.359375,-0.316407 0.628906,0 1.132812,0.207031 1.515625,0.589844 0.386719,0.394531 0.585937,0.90625 0.585937,1.535156 0,0.445313 -0.07031,0.878907 -0.191406,1.3125 -0.132812,0.433594 -0.300781,0.785157 -0.507812,1.066407 -0.320313,0.445312 -0.683594,0.777343 -1.085938,0.980468 -0.40625,0.203125 -0.859375,0.300782 -1.363281,0.300782 z m -1.15625,-2.25 c 0,0.503906 0.09766,0.878906 0.308594,1.125 0.203125,0.25 0.523437,0.371093 0.949219,0.371093 0.605468,0 1.101562,-0.261719 1.503906,-0.796875 0.40625,-0.527344 0.605468,-1.203125 0.605468,-2.019531 0,-0.472656 -0.109374,-0.835937 -0.324218,-1.082031 -0.210938,-0.238282 -0.523438,-0.363282 -0.9375,-0.363282 -0.34375,0 -0.65625,0.08203 -0.917969,0.242188 -0.261719,0.160156 -0.503906,0.40625 -0.703125,0.730469 -0.164062,0.238281 -0.285156,0.523437 -0.363281,0.835937 -0.08203,0.3125 -0.121094,0.632813 -0.121094,0.957032 z m 0,0"
     id="path22" />
  <path
     fill-rule="nonzero"
     fill="#262626"
     fill-opacity="1"
     d="m 79.6875,21.707031 -0.179688,0.898438 c -0.222656,-0.148438 -0.453124,-0.269531 -0.699218,-0.347657 -0.238282,-0.08594 -0.492188,-0.125 -0.753906,-0.125 -0.292969,0 -0.566407,0.05078 -0.824219,0.152344 -0.265625,0.101563 -0.484375,0.25 -0.660157,0.433594 -0.28125,0.292969 -0.503906,0.625 -0.652343,1.007812 -0.160157,0.386719 -0.234375,0.789063 -0.234375,1.195313 0,0.503906 0.125,0.867187 0.375,1.109375 0.242187,0.242188 0.625,0.363281 1.128906,0.363281 0.242188,0 0.515625,-0.03125 0.796875,-0.113281 0.28125,-0.07031 0.574219,-0.179688 0.875,-0.34375 l -0.167969,0.902344 c -0.265625,0.109375 -0.535156,0.179687 -0.820312,0.230468 -0.277344,0.05078 -0.5625,0.07813 -0.847656,0.07813 -0.734376,0 -1.300782,-0.179688 -1.691407,-0.542969 -0.394531,-0.363281 -0.585937,-0.878907 -0.585937,-1.566407 0,-0.5625 0.101562,-1.085937 0.304687,-1.570312 0.199219,-0.488281 0.511719,-0.921875 0.917969,-1.304688 0.273438,-0.261718 0.59375,-0.457031 0.964844,-0.59375 0.363281,-0.132812 0.777344,-0.207031 1.222656,-0.207031 0.25,0 0.503906,0.03516 0.753906,0.09375 0.253906,0.0625 0.519532,0.140625 0.777344,0.25 z m 0,0"
     id="path23" />
  <path
     fill-rule="nonzero"
     fill="#262626"
     fill-opacity="1"
     d="m 84.679688,23.769531 c 0,-0.05078 0.01172,-0.101562 0.01953,-0.160156 0,-0.0625 0.01172,-0.109375 0.01172,-0.175781 0,-0.402344 -0.125,-0.714844 -0.355469,-0.945313 -0.242188,-0.230469 -0.550781,-0.355469 -0.957031,-0.355469 -0.453126,0 -0.847657,0.152344 -1.191407,0.433594 -0.34375,0.285156 -0.601562,0.6875 -0.789062,1.203125 z m 0.785156,0.707031 H 81.25 c -0.01953,0.128907 -0.03906,0.234376 -0.03906,0.304688 -0.01172,0.07031 -0.01172,0.128906 -0.01172,0.179688 0,0.464843 0.140625,0.816406 0.425781,1.0625 0.277344,0.25 0.671875,0.371093 1.1875,0.371093 0.382812,0 0.757812,-0.04297 1.109375,-0.132812 0.355469,-0.07813 0.683594,-0.210938 0.988281,-0.394531 l -0.167968,0.898437 C 84.40625,26.910156 84.0625,27 83.71875,27.058594 c -0.339844,0.0625 -0.691406,0.08984 -1.046875,0.08984 -0.769531,0 -1.363281,-0.179688 -1.765625,-0.542969 -0.414062,-0.363281 -0.613281,-0.878907 -0.613281,-1.554688 0,-0.566406 0.09766,-1.097656 0.304687,-1.597656 0.199219,-0.492187 0.503906,-0.9375 0.90625,-1.332031 0.25,-0.238282 0.554688,-0.421875 0.90625,-0.550782 0.351563,-0.132812 0.726563,-0.207031 1.128906,-0.207031 0.625,0 1.117188,0.195313 1.492188,0.570313 0.363281,0.371094 0.558594,0.875 0.558594,1.5 0,0.15625 -0.01563,0.316406 -0.03516,0.488281 -0.01953,0.179687 -0.05078,0.359375 -0.08984,0.554687 z m 0,0"
     id="path24" />
  <path
     fill-rule="nonzero"
     fill="#262626"
     fill-opacity="1"
     d="m 91.078125,21.660156 -0.175781,0.855469 c -0.238282,-0.117187 -0.503906,-0.21875 -0.765625,-0.289063 -0.261719,-0.0625 -0.535157,-0.105468 -0.8125,-0.105468 -0.484375,0 -0.859375,0.08203 -1.132813,0.246094 -0.269531,0.160156 -0.40625,0.382812 -0.40625,0.664062 0,0.324219 0.316406,0.578125 0.960938,0.746094 0.04297,0.01953 0.08203,0.03125 0.101562,0.03125 l 0.289063,0.09375 c 0.609375,0.167968 1.007812,0.351562 1.214843,0.535156 0.199219,0.179688 0.300782,0.433594 0.300782,0.746094 0,0.585937 -0.230469,1.058594 -0.695313,1.421875 -0.464843,0.363281 -1.078125,0.542969 -1.828125,0.542969 -0.292968,0 -0.59375,-0.02734 -0.914062,-0.07813 -0.324219,-0.05078 -0.6875,-0.128906 -1.070313,-0.25 l 0.179688,-0.941406 c 0.324219,0.183594 0.660156,0.3125 0.980469,0.394532 0.320312,0.08984 0.625,0.132812 0.925781,0.132812 0.445312,0 0.796875,-0.09375 1.082031,-0.285156 0.269531,-0.191406 0.414062,-0.433594 0.414062,-0.726563 0,-0.316406 -0.363281,-0.566406 -1.09375,-0.769531 l -0.08984,-0.01953 -0.3125,-0.07813 c -0.464844,-0.121094 -0.804688,-0.273438 -1.015625,-0.476563 -0.210938,-0.203125 -0.316406,-0.453125 -0.316406,-0.765625 0,-0.585937 0.214843,-1.058594 0.660156,-1.402344 0.441406,-0.34375 1.035156,-0.519531 1.804687,-0.519531 0.300781,0 0.59375,0.03516 0.878907,0.08594 0.277343,0.05078 0.550781,0.121093 0.835937,0.210937 z m 0,0"
     id="path25" />
  <path
     fill-rule="nonzero"
     fill="#262626"
     fill-opacity="1"
     d="m 96.332031,21.660156 -0.175781,0.855469 c -0.238281,-0.117187 -0.503906,-0.21875 -0.761719,-0.289063 -0.265625,-0.0625 -0.535156,-0.105468 -0.816406,-0.105468 -0.484375,0 -0.859375,0.08203 -1.132813,0.246094 -0.269531,0.160156 -0.402343,0.382812 -0.402343,0.664062 0,0.324219 0.3125,0.578125 0.960937,0.746094 0.03906,0.01953 0.07813,0.03125 0.09766,0.03125 l 0.292969,0.09375 C 95,24.070312 95.402344,24.253906 95.605469,24.4375 c 0.203125,0.179688 0.300781,0.433594 0.300781,0.746094 0,0.585937 -0.230469,1.058594 -0.695312,1.421875 -0.464844,0.363281 -1.078126,0.542969 -1.828126,0.542969 -0.289062,0 -0.59375,-0.02734 -0.914062,-0.07813 -0.320312,-0.05078 -0.6875,-0.128906 -1.070312,-0.25 l 0.179687,-0.941406 c 0.324219,0.183594 0.660156,0.3125 0.984375,0.394532 0.316406,0.08984 0.621094,0.132812 0.925781,0.132812 0.445313,0 0.792969,-0.09375 1.078125,-0.285156 0.273438,-0.191406 0.414063,-0.433594 0.414063,-0.726563 0,-0.316406 -0.363281,-0.566406 -1.09375,-0.769531 l -0.08984,-0.01953 -0.308594,-0.07813 c -0.464843,-0.121094 -0.808593,-0.273438 -1.019531,-0.476563 -0.210938,-0.203125 -0.3125,-0.453125 -0.3125,-0.765625 0,-0.585937 0.210938,-1.058594 0.65625,-1.402344 0.441406,-0.34375 1.035156,-0.519531 1.804688,-0.519531 0.304687,0 0.59375,0.03516 0.878906,0.08594 0.28125,0.05078 0.550781,0.121093 0.835937,0.210937 z m 0,0"
     id="path26" />
  <path
     fill-rule="nonzero"
     fill="#262626"
     fill-opacity="1"
     d="m 98.386719,19.347656 h 0.910156 l -0.21875,1.148438 H 98.167969 Z M 97.976562,21.5 h 0.90625 l -1.078124,5.519531 h -0.90625 z m 0,0"
     id="path27" />
  <path
     fill-rule="nonzero"
     fill="#262626"
     fill-opacity="1"
     d="m 104.96484,23.6875 -0.64843,3.332031 h -0.90625 l 0.64843,-3.300781 c 0.0195,-0.152344 0.0391,-0.285156 0.0586,-0.40625 0.0195,-0.117188 0.0312,-0.207031 0.0312,-0.28125 0,-0.269531 -0.0898,-0.484375 -0.26563,-0.644531 -0.17968,-0.148438 -0.42578,-0.234375 -0.72265,-0.234375 -0.48438,0 -0.91016,0.164062 -1.26172,0.488281 -0.35547,0.320313 -0.58594,0.765625 -0.6875,1.320313 l -0.60547,3.058593 H 99.699219 L 100.76563,21.5 h 0.90625 l -0.17969,0.867188 c 0.24609,-0.316407 0.54687,-0.554688 0.91015,-0.738282 0.35157,-0.171875 0.72657,-0.265625 1.1211,-0.265625 0.48437,0 0.85156,0.136719 1.1289,0.394531 0.26172,0.265626 0.40235,0.640626 0.40235,1.113282 0,0.121094 -0.0117,0.242187 -0.0195,0.375 -0.0195,0.136718 -0.0391,0.28125 -0.0703,0.441406 z m 0,0"
     id="path28" />
  <path
     fill-rule="nonzero"
     fill="#262626"
     fill-opacity="1"
     d="m 111.75,21.5 -0.9375,4.832031 c -0.17969,0.929688 -0.53516,1.617188 -1.03906,2.078125 -0.51563,0.46875 -1.20313,0.699219 -2.0586,0.699219 -0.32421,0 -0.625,-0.03125 -0.89843,-0.07031 -0.26953,-0.05078 -0.52344,-0.121093 -0.75391,-0.222656 l 0.16797,-0.878906 c 0.22266,0.144531 0.45703,0.242188 0.70703,0.3125 0.24219,0.07031 0.51563,0.109375 0.79688,0.109375 0.57421,0 1.05078,-0.15625 1.42187,-0.472656 0.36328,-0.3125 0.60547,-0.757813 0.72656,-1.339844 l 0.082,-0.414063 c -0.26171,0.292969 -0.55468,0.511719 -0.89062,0.667969 -0.33203,0.148438 -0.69141,0.21875 -1.07813,0.21875 -0.5625,0 -0.99609,-0.179687 -1.32031,-0.554687 -0.32422,-0.363282 -0.47265,-0.878906 -0.47265,-1.523438 0,-0.503906 0.0898,-1.007812 0.29296,-1.496094 0.19141,-0.484374 0.46485,-0.917968 0.8125,-1.300781 0.22657,-0.242187 0.4961,-0.4375 0.8086,-0.574219 0.3164,-0.132812 0.63281,-0.207031 0.97656,-0.207031 0.36719,0 0.69141,0.09375 0.96875,0.265625 0.27344,0.171875 0.47656,0.414063 0.61719,0.726563 L 110.83984,21.5 Z m -1.36328,2.027344 c 0,-0.441406 -0.10938,-0.796875 -0.32422,-1.039063 -0.21094,-0.242187 -0.50391,-0.367187 -0.88672,-0.367187 -0.23828,0 -0.47265,0.05078 -0.68359,0.144531 -0.22266,0.101563 -0.40625,0.230469 -0.55469,0.40625 -0.25391,0.277344 -0.44531,0.613281 -0.58594,0.996094 -0.14062,0.382812 -0.21093,0.777343 -0.21093,1.183593 0,0.460938 0.0977,0.804688 0.3125,1.046876 0.21093,0.242187 0.51562,0.363281 0.91796,0.363281 0.57422,0 1.0586,-0.25 1.44141,-0.777344 0.38672,-0.523437 0.57422,-1.167969 0.57422,-1.957031 z m 0,0"
     id="path29" />
</svg>
