<?xml version="1.0" encoding="UTF-8" standalone="no"?>
<svg
   width="240pt"
   height="161pt"
   viewBox="0 0 240 161"
   version="1.1"
   id="svg93"
   xmlns:xlink="http://www.w3.org/1999/xlink"
   xmlns="http://www.w3.org/2000/svg"
   xmlns:svg="http://www.w3.org/2000/svg">
  <defs
     id="defs33">
    <clipPath
       id="clip-0">
      <path
         clip-rule="nonzero"
         d="m 43.644531,4 h 1.175781 v 122.57813 h -1.175781 z m 0,0"
         id="path1" />
    </clipPath>
    <clipPath
       id="clip-1">
      <path
         clip-rule="nonzero"
         d="M 0.644531,0 H 1 V 122.57813 H 0.644531 Z m 0,0"
         id="path2" />
    </clipPath>
    <clipPath
       id="clip-2">
      <rect
         x="0"
         y="0"
         width="2"
         height="123"
         id="rect2" />
    </clipPath>
    <g
       id="source-407782"
       clip-path="url(#clip-2)">
      <g
         clip-path="url(#clip-1)"
         id="g3">
        <path
           fill="none"
           stroke-width="0.552752"
           stroke-linecap="butt"
           stroke-linejoin="round"
           stroke="#cccccc"
           stroke-opacity="0.55"
           stroke-dasharray="2.04518, 0.884403"
           stroke-miterlimit="10"
           d="M 43.838032,-126.57813 V -4"
           transform="matrix(0.995586,0,0,-1,-43,-4)"
           id="path3" />
      </g>
    </g>
    <clipPath
       id="clip-3">
      <path
         clip-rule="nonzero"
         d="m 89.847656,4 h 2 v 122.57813 h -2 z m 0,0"
         id="path4" />
    </clipPath>
    <clipPath
       id="clip-4">
      <path
         clip-rule="nonzero"
         d="M 1,0 H 2.847656 V 122.57813 H 1 Z m 0,0"
         id="path5" />
    </clipPath>
    <clipPath
       id="clip-5">
      <rect
         x="0"
         y="0"
         width="3"
         height="123"
         id="rect5" />
    </clipPath>
    <g
       id="source-407785"
       clip-path="url(#clip-5)">
      <g
         clip-path="url(#clip-4)"
         id="g6">
        <path
           fill="none"
           stroke-width="0.552752"
           stroke-linecap="butt"
           stroke-linejoin="round"
           stroke="#cccccc"
           stroke-opacity="0.55"
           stroke-dasharray="2.04518, 0.884403"
           stroke-miterlimit="10"
           d="M 91.136652,-126.57813 V -4"
           transform="matrix(0.995586,0,0,-1,-89,-4)"
           id="path6" />
      </g>
    </g>
    <clipPath
       id="clip-6">
      <path
         clip-rule="nonzero"
         d="m 136.875,4 h 2 v 122.57813 h -2 z m 0,0"
         id="path7" />
    </clipPath>
    <clipPath
       id="clip-7">
      <path
         clip-rule="nonzero"
         d="M 1,0 H 2.875 V 122.57813 H 1 Z m 0,0"
         id="path8" />
    </clipPath>
    <clipPath
       id="clip-8">
      <rect
         x="0"
         y="0"
         width="3"
         height="123"
         id="rect8" />
    </clipPath>
    <g
       id="source-407788"
       clip-path="url(#clip-8)">
      <g
         clip-path="url(#clip-7)"
         id="g9">
        <path
           fill="none"
           stroke-width="0.552752"
           stroke-linecap="butt"
           stroke-linejoin="round"
           stroke="#cccccc"
           stroke-opacity="0.55"
           stroke-dasharray="2.04518, 0.884403"
           stroke-miterlimit="10"
           d="M 138.43135,-126.57813 V -4"
           transform="matrix(0.995586,0,0,-1,-136,-4)"
           id="path9" />
      </g>
    </g>
    <clipPath
       id="clip-9">
      <path
         clip-rule="nonzero"
         d="m 183.90234,4 h 2 v 122.57813 h -2 z m 0,0"
         id="path10" />
    </clipPath>
    <clipPath
       id="clip-10">
      <path
         clip-rule="nonzero"
         d="M 1,0 H 2.902344 V 122.57813 H 1 Z m 0,0"
         id="path11" />
    </clipPath>
    <clipPath
       id="clip-11">
      <rect
         x="0"
         y="0"
         width="3"
         height="123"
         id="rect11" />
    </clipPath>
    <g
       id="source-407791"
       clip-path="url(#clip-11)">
      <g
         clip-path="url(#clip-10)"
         id="g12">
        <path
           fill="none"
           stroke-width="0.552752"
           stroke-linecap="butt"
           stroke-linejoin="round"
           stroke="#cccccc"
           stroke-opacity="0.55"
           stroke-dasharray="2.04518, 0.884403"
           stroke-miterlimit="10"
           d="M 185.72604,-126.57813 V -4"
           transform="matrix(0.995586,0,0,-1,-183,-4)"
           id="path12" />
      </g>
    </g>
    <clipPath
       id="clip-12">
      <path
         clip-rule="nonzero"
         d="m 230.92578,4 h 2.00391 v 122.57813 h -2.00391 z m 0,0"
         id="path13" />
    </clipPath>
    <clipPath
       id="clip-13">
      <path
         clip-rule="nonzero"
         d="M 1,0 H 2.929688 V 122.57813 H 1 Z m 0,0"
         id="path14" />
    </clipPath>
    <clipPath
       id="clip-14">
      <rect
         x="0"
         y="0"
         width="3"
         height="123"
         id="rect14" />
    </clipPath>
    <g
       id="source-407794"
       clip-path="url(#clip-14)">
      <g
         clip-path="url(#clip-13)"
         id="g15">
        <path
           fill="none"
           stroke-width="0.552752"
           stroke-linecap="butt"
           stroke-linejoin="round"
           stroke="#cccccc"
           stroke-opacity="0.55"
           stroke-dasharray="2.04518, 0.884403"
           stroke-miterlimit="10"
           d="M 233.02074,-126.57813 V -4"
           transform="matrix(0.995586,0,0,-1,-230,-4)"
           id="path15" />
      </g>
    </g>
    <clipPath
       id="clip-15">
      <path
         clip-rule="nonzero"
         d="M 43.644531,126.23047 H 239.05859 v 0.34766 H 43.644531 Z m 0,0"
         id="path16" />
    </clipPath>
    <clipPath
       id="clip-16">
      <path
         clip-rule="nonzero"
         d="M 0.644531,0.230469 H 196.05859 V 0.578125 H 0.644531 Z m 0,0"
         id="path17" />
    </clipPath>
    <clipPath
       id="clip-17">
      <rect
         x="0"
         y="0"
         width="197"
         height="1"
         id="rect17" />
    </clipPath>
    <g
       id="source-407797"
       clip-path="url(#clip-17)">
      <g
         clip-path="url(#clip-16)"
         id="g18">
        <path
           fill="none"
           stroke-width="0.552752"
           stroke-linecap="butt"
           stroke-linejoin="round"
           stroke="#cccccc"
           stroke-opacity="0.55"
           stroke-dasharray="2.04518, 0.884403"
           stroke-miterlimit="10"
           d="M 43.838032,-126.57813 H 240.11848"
           transform="matrix(0.995586,0,0,-1,-43,-126)"
           id="path18" />
      </g>
    </g>
    <clipPath
       id="clip-18">
      <path
         clip-rule="nonzero"
         d="M 43.644531,101.10547 H 239.05859 v 2.00781 H 43.644531 Z m 0,0"
         id="path19" />
    </clipPath>
    <clipPath
       id="clip-19">
      <path
         clip-rule="nonzero"
         d="M 0.644531,0.105469 H 196.05859 V 2 H 0.644531 Z m 0,0"
         id="path20" />
    </clipPath>
    <clipPath
       id="clip-20">
      <rect
         x="0"
         y="0"
         width="197"
         height="3"
         id="rect20" />
    </clipPath>
    <g
       id="source-407800"
       clip-path="url(#clip-20)">
      <g
         clip-path="url(#clip-19)"
         id="g21">
        <path
           fill="none"
           stroke-width="0.552752"
           stroke-linecap="butt"
           stroke-linejoin="round"
           stroke="#cccccc"
           stroke-opacity="0.55"
           stroke-dasharray="2.04518, 0.884403"
           stroke-miterlimit="10"
           d="M 43.838032,-102.0625 H 240.11848"
           transform="matrix(0.995586,0,0,-1,-43,-101)"
           id="path21" />
      </g>
    </g>
    <clipPath
       id="clip-21">
      <path
         clip-rule="nonzero"
         d="M 43.644531,76.984375 H 239.05859 v 1.003906 H 43.644531 Z m 0,0"
         id="path22" />
    </clipPath>
    <clipPath
       id="clip-22">
      <path
         clip-rule="nonzero"
         d="M 0.644531,1 H 196.05859 V 1.988281 H 0.644531 Z m 0,0"
         id="path23" />
    </clipPath>
    <clipPath
       id="clip-23">
      <rect
         x="0"
         y="0"
         width="197"
         height="2"
         id="rect23" />
    </clipPath>
    <g
       id="source-407803"
       clip-path="url(#clip-23)">
      <g
         clip-path="url(#clip-22)"
         id="g24">
        <path
           fill="none"
           stroke-width="0.552752"
           stroke-linecap="butt"
           stroke-linejoin="round"
           stroke="#cccccc"
           stroke-opacity="0.55"
           stroke-dasharray="2.04518, 0.884403"
           stroke-miterlimit="10"
           d="M 43.838032,-77.546875 H 240.11848"
           transform="matrix(0.995586,0,0,-1,-43,-76)"
           id="path24" />
      </g>
    </g>
    <clipPath
       id="clip-24">
      <path
         clip-rule="nonzero"
         d="M 43.644531,51.859375 H 239.05859 v 2.007813 H 43.644531 Z m 0,0"
         id="path25" />
    </clipPath>
    <clipPath
       id="clip-25">
      <path
         clip-rule="nonzero"
         d="M 0.644531,1 H 196.05859 V 2.867188 H 0.644531 Z m 0,0"
         id="path26" />
    </clipPath>
    <clipPath
       id="clip-26">
      <rect
         x="0"
         y="0"
         width="197"
         height="3"
         id="rect26" />
    </clipPath>
    <g
       id="source-407806"
       clip-path="url(#clip-26)">
      <g
         clip-path="url(#clip-25)"
         id="g27">
        <path
           fill="none"
           stroke-width="0.552752"
           stroke-linecap="butt"
           stroke-linejoin="round"
           stroke="#cccccc"
           stroke-opacity="0.55"
           stroke-dasharray="2.04518, 0.884403"
           stroke-miterlimit="10"
           d="M 43.838032,-53.03125 H 240.11848"
           transform="matrix(0.995586,0,0,-1,-43,-51)"
           id="path27" />
      </g>
    </g>
    <clipPath
       id="clip-27">
      <path
         clip-rule="nonzero"
         d="M 43.644531,27.738281 H 239.05859 V 29.75 H 43.644531 Z m 0,0"
         id="path28" />
    </clipPath>
    <clipPath
       id="clip-28">
      <path
         clip-rule="nonzero"
         d="M 0.644531,1 H 196.05859 V 2 H 0.644531 Z m 0,0"
         id="path29" />
    </clipPath>
    <clipPath
       id="clip-29">
      <rect
         x="0"
         y="0"
         width="197"
         height="3"
         id="rect29" />
    </clipPath>
    <g
       id="source-407809"
       clip-path="url(#clip-29)">
      <g
         clip-path="url(#clip-28)"
         id="g30">
        <path
           fill="none"
           stroke-width="0.552752"
           stroke-linecap="butt"
           stroke-linejoin="round"
           stroke="#cccccc"
           stroke-opacity="0.55"
           stroke-dasharray="2.04518, 0.884403"
           stroke-miterlimit="10"
           d="M 43.838032,-28.515625 H 240.11848"
           transform="matrix(0.995586,0,0,-1,-43,-27)"
           id="path30" />
      </g>
    </g>
    <clipPath
       id="clip-30">
      <path
         clip-rule="nonzero"
         d="M 43.644531,4 H 239.05859 V 4.625 H 43.644531 Z m 0,0"
         id="path31" />
    </clipPath>
    <clipPath
       id="clip-31">
      <path
         clip-rule="nonzero"
         d="M 0.644531,0 H 196.05859 V 0.625 H 0.644531 Z m 0,0"
         id="path32" />
    </clipPath>
    <clipPath
       id="clip-32">
      <rect
         x="0"
         y="0"
         width="197"
         height="1"
         id="rect32" />
    </clipPath>
    <g
       id="source-407812"
       clip-path="url(#clip-32)">
      <g
         clip-path="url(#clip-31)"
         id="g33">
        <path
           fill="none"
           stroke-width="0.552752"
           stroke-linecap="butt"
           stroke-linejoin="round"
           stroke="#cccccc"
           stroke-opacity="0.55"
           stroke-dasharray="2.04518, 0.884403"
           stroke-miterlimit="10"
           d="M 43.838032,-4 H 240.11848"
           transform="matrix(0.995586,0,0,-1,-43,-4)"
           id="path33" />
      </g>
    </g>
  </defs>
  <path
     fill-rule="nonzero"
     fill="#ffffff"
     fill-opacity="1"
     d="M 43.644531,4 H 239.05859 V 126.57813 H 43.644531 Z m 0,0"
     id="path34" />
  <path
     fill="none"
     stroke-width="1.50418"
     stroke-linecap="butt"
     stroke-linejoin="round"
     stroke="#191919"
     stroke-opacity="1"
     stroke-dasharray="5.57777, 2.41201"
     stroke-miterlimit="10"
     d="m 90.734375,58.90625 23.539065,12.167969 23.54687,12.195312 23.54297,12.320313 23.54297,0.949218 23.54297,0.0625 23.54297,-5.652343"
     id="path35" />
  <g
     clip-path="url(#clip-0)"
     id="g35">
    <use
       xlink:href="#source-407782"
       transform="translate(43,4)"
       id="use35" />
  </g>
  <path
     fill-rule="nonzero"
     fill="#262626"
     fill-opacity="1"
     d="m 38.390625,144.15234 c 0.550781,0 0.957031,-0.30078 1.234375,-0.91015 0.261719,-0.59375 0.40625,-1.51172 0.40625,-2.73828 0,-1.21875 -0.144531,-2.13672 -0.40625,-2.74219 -0.277344,-0.59375 -0.683594,-0.90625 -1.234375,-0.90625 -0.550781,0 -0.96875,0.3125 -1.234375,0.90625 -0.273438,0.60547 -0.40625,1.52344 -0.40625,2.74219 0,1.22656 0.132812,2.14453 0.40625,2.73828 0.265625,0.60937 0.683594,0.91015 1.234375,0.91015 z m 0,0.51953 c -0.882813,0 -1.5625,-0.36328 -2.046875,-1.09375 -0.484375,-0.73046 -0.726562,-1.74609 -0.726562,-3.07421 0,-1.31641 0.242187,-2.34375 0.726562,-3.07422 0.484375,-0.73047 1.164062,-1.10157 2.046875,-1.10157 0.871094,0 1.554687,0.3711 2.035156,1.10157 0.484375,0.73047 0.738281,1.75781 0.738281,3.07422 0,1.32812 -0.253906,2.34375 -0.738281,3.07421 -0.480469,0.73047 -1.164062,1.09375 -2.035156,1.09375 z m 0,0"
     id="path36" />
  <path
     fill-rule="nonzero"
     fill="#262626"
     fill-opacity="1"
     d="m 42.925781,143.96094 c 0,-0.19532 0.06641,-0.36328 0.195313,-0.50391 0.132812,-0.13672 0.308594,-0.21484 0.519531,-0.21484 0.195313,0 0.363281,0.0781 0.503906,0.21484 0.132813,0.14063 0.210938,0.30859 0.210938,0.50391 0,0.20312 -0.07813,0.3789 -0.210938,0.51172 -0.140625,0.13281 -0.308593,0.19921 -0.503906,0.19921 -0.210937,0 -0.386719,-0.0664 -0.519531,-0.19921 -0.128906,-0.13282 -0.195313,-0.29688 -0.195313,-0.51172 z m 0,0"
     id="path37" />
  <path
     fill-rule="nonzero"
     fill="#262626"
     fill-opacity="1"
     d="m 46.953125,144.52734 v -0.57422 h 1.398437 v -6.69921 l -1.617187,1.05078 v -0.71094 l 1.960937,-1.26563 h 0.734376 v 7.625 h 1.398437 v 0.57422 z m 0,0"
     id="path38" />
  <g
     clip-path="url(#clip-3)"
     id="g38">
    <use
       xlink:href="#source-407785"
       transform="translate(89,4)"
       id="use38" />
  </g>
  <path
     fill-rule="nonzero"
     fill="#262626"
     fill-opacity="1"
     d="m 85.476562,144.15234 c 0.550782,0 0.957032,-0.30078 1.234376,-0.91015 0.261718,-0.59375 0.40625,-1.51172 0.40625,-2.73828 0,-1.21875 -0.144532,-2.13672 -0.40625,-2.74219 -0.277344,-0.59375 -0.683594,-0.90625 -1.234376,-0.90625 -0.546874,0 -0.964843,0.3125 -1.230468,0.90625 -0.273438,0.60547 -0.40625,1.52344 -0.40625,2.74219 0,1.22656 0.132812,2.14453 0.40625,2.73828 0.265625,0.60937 0.683594,0.91015 1.230468,0.91015 z m 0,0.51953 c -0.878906,0 -1.558593,-0.36328 -2.042968,-1.09375 -0.488282,-0.73046 -0.730469,-1.74609 -0.730469,-3.07421 0,-1.31641 0.242187,-2.34375 0.730469,-3.07422 0.484375,-0.73047 1.164062,-1.10157 2.042968,-1.10157 0.871094,0 1.554688,0.3711 2.035157,1.10157 0.484375,0.73047 0.738281,1.75781 0.738281,3.07422 0,1.32812 -0.253906,2.34375 -0.738281,3.07421 -0.480469,0.73047 -1.164063,1.09375 -2.035157,1.09375 z m 0,0"
     id="path39" />
  <path
     fill-rule="nonzero"
     fill="#262626"
     fill-opacity="1"
     d="m 90.011719,143.96094 c 0,-0.19532 0.06641,-0.36328 0.195312,-0.50391 0.136719,-0.13672 0.3125,-0.21484 0.523438,-0.21484 0.195312,0 0.363281,0.0781 0.503906,0.21484 0.132813,0.14063 0.210937,0.30859 0.210937,0.50391 0,0.20312 -0.07812,0.3789 -0.210937,0.51172 -0.140625,0.13281 -0.308594,0.19921 -0.503906,0.19921 -0.210938,0 -0.386719,-0.0664 -0.523438,-0.19921 -0.128906,-0.13282 -0.195312,-0.29688 -0.195312,-0.51172 z m 0,0"
     id="path40" />
  <path
     fill-rule="nonzero"
     fill="#262626"
     fill-opacity="1"
     d="m 93.542969,136.80859 c 0.421875,-0.15234 0.820312,-0.27343 1.203125,-0.35937 0.386718,-0.0781 0.75,-0.1211 1.089844,-0.1211 0.78125,0 1.398437,0.17579 1.835937,0.50391 0.441406,0.34375 0.660156,0.81641 0.660156,1.41797 0,0.48437 -0.152343,0.89453 -0.460937,1.21484 -0.308594,0.33203 -0.738282,0.55078 -1.289063,0.66016 0.660157,0.10547 1.167969,0.34766 1.53125,0.73047 0.363281,0.39062 0.550781,0.88281 0.550781,1.49219 0,0.7539 -0.253906,1.32812 -0.761718,1.72656 -0.503906,0.39844 -1.21875,0.59765 -2.164063,0.59765 -0.417969,0 -0.835937,-0.0469 -1.234375,-0.13281 -0.394531,-0.0781 -0.796875,-0.21094 -1.191406,-0.39844 v -1.5664 h 0.609375 c 0.03125,0.52734 0.207031,0.91406 0.515625,1.17969 0.308594,0.26171 0.75,0.39843 1.320312,0.39843 0.550782,0 0.980469,-0.15625 1.296876,-0.47656 0.308593,-0.31641 0.476562,-0.76172 0.476562,-1.31641 0,-0.6289 -0.167969,-1.10546 -0.496094,-1.4375 -0.332031,-0.32031 -0.804687,-0.48437 -1.429687,-0.48437 h -0.507813 v -0.55469 h 0.265625 c 0.625,0 1.097657,-0.12109 1.40625,-0.38281 0.308594,-0.26953 0.472657,-0.65234 0.472657,-1.1875 0,-0.46484 -0.128907,-0.82813 -0.382813,-1.08203 -0.265625,-0.2461 -0.628906,-0.375 -1.113281,-0.375 -0.484375,0 -0.867188,0.12109 -1.132813,0.35547 -0.261719,0.23047 -0.417969,0.57031 -0.460937,1.01562 h -0.609375 z m 0,0"
     id="path41" />
  <g
     clip-path="url(#clip-6)"
     id="g41">
    <use
       xlink:href="#source-407788"
       transform="translate(136,4)"
       id="use41" />
  </g>
  <path
     fill-rule="nonzero"
     fill="#262626"
     fill-opacity="1"
     d="m 132.5625,144.15234 c 0.55078,0 0.95703,-0.30078 1.23437,-0.91015 0.26172,-0.59375 0.40625,-1.51172 0.40625,-2.73828 0,-1.21875 -0.14453,-2.13672 -0.40625,-2.74219 -0.27734,-0.59375 -0.68359,-0.90625 -1.23437,-0.90625 -0.54688,0 -0.96484,0.3125 -1.23047,0.90625 -0.27344,0.60547 -0.40625,1.52344 -0.40625,2.74219 0,1.22656 0.13281,2.14453 0.40625,2.73828 0.26563,0.60937 0.68359,0.91015 1.23047,0.91015 z m 0,0.51953 c -0.87891,0 -1.55859,-0.36328 -2.04297,-1.09375 -0.48437,-0.73046 -0.72656,-1.74609 -0.72656,-3.07421 0,-1.31641 0.24219,-2.34375 0.72656,-3.07422 0.48438,-0.73047 1.16406,-1.10157 2.04297,-1.10157 0.87109,0 1.55469,0.3711 2.03516,1.10157 0.48437,0.73047 0.73828,1.75781 0.73828,3.07422 0,1.32812 -0.25391,2.34375 -0.73828,3.07421 -0.48047,0.73047 -1.16407,1.09375 -2.03516,1.09375 z m 0,0"
     id="path42" />
  <path
     fill-rule="nonzero"
     fill="#262626"
     fill-opacity="1"
     d="m 137.10156,143.96094 c 0,-0.19532 0.0664,-0.36328 0.19531,-0.50391 0.13282,-0.13672 0.3086,-0.21484 0.51954,-0.21484 0.19531,0 0.36328,0.0781 0.5039,0.21484 0.13281,0.14063 0.21094,0.30859 0.21094,0.50391 0,0.20312 -0.0781,0.3789 -0.21094,0.51172 -0.14062,0.13281 -0.30859,0.19921 -0.5039,0.19921 -0.21094,0 -0.38672,-0.0664 -0.51954,-0.19921 -0.1289,-0.13282 -0.19531,-0.29688 -0.19531,-0.51172 z m 0,0"
     id="path43" />
  <path
     fill-rule="nonzero"
     fill="#262626"
     fill-opacity="1"
     d="m 145.09766,136.46875 v 0.88281 h -3.67188 v 2.3125 c 0.17578,-0.13281 0.39453,-0.21875 0.64844,-0.28906 0.24219,-0.0664 0.52734,-0.10156 0.83594,-0.10156 0.85937,0 1.53906,0.24609 2.04687,0.73047 0.50391,0.48828 0.75781,1.14062 0.75781,1.97265 0,0.85938 -0.2539,1.52344 -0.75781,1.98438 -0.50781,0.47656 -1.22266,0.71093 -2.13281,0.71093 -0.375,0 -0.75,-0.0469 -1.13672,-0.13281 -0.39453,-0.0781 -0.78906,-0.21094 -1.1875,-0.39844 v -1.5664 h 0.60547 c 0.0352,0.51562 0.19922,0.91406 0.48437,1.17969 0.28516,0.26171 0.70313,0.39843 1.23438,0.39843 0.55859,0 0.98828,-0.1914 1.29687,-0.5625 0.3086,-0.3789 0.46094,-0.90625 0.46094,-1.61328 0,-0.69922 -0.15234,-1.23047 -0.44922,-1.60547 -0.30859,-0.3789 -0.73828,-0.5625 -1.30859,-0.5625 -0.33203,0 -0.61719,0.0625 -0.85938,0.17578 -0.24218,0.10938 -0.46093,0.28907 -0.64843,0.53125 h -0.46485 v -4.04687 z m 0,0"
     id="path44" />
  <g
     clip-path="url(#clip-9)"
     id="g44">
    <use
       xlink:href="#source-407791"
       transform="translate(183,4)"
       id="use44" />
  </g>
  <path
     fill-rule="nonzero"
     fill="#262626"
     fill-opacity="1"
     d="m 179.64844,144.15234 c 0.55078,0 0.95703,-0.30078 1.23828,-0.91015 0.26172,-0.59375 0.40625,-1.51172 0.40625,-2.73828 0,-1.21875 -0.14453,-2.13672 -0.40625,-2.74219 -0.28125,-0.59375 -0.6875,-0.90625 -1.23828,-0.90625 -0.54688,0 -0.96485,0.3125 -1.23047,0.90625 -0.27344,0.60547 -0.40625,1.52344 -0.40625,2.74219 0,1.22656 0.13281,2.14453 0.40625,2.73828 0.26562,0.60937 0.68359,0.91015 1.23047,0.91015 z m 0,0.51953 c -0.87891,0 -1.5586,-0.36328 -2.04297,-1.09375 -0.48438,-0.73046 -0.72656,-1.74609 -0.72656,-3.07421 0,-1.31641 0.24218,-2.34375 0.72656,-3.07422 0.48437,-0.73047 1.16406,-1.10157 2.04297,-1.10157 0.87109,0 1.55859,0.3711 2.03906,1.10157 0.48437,0.73047 0.73828,1.75781 0.73828,3.07422 0,1.32812 -0.25391,2.34375 -0.73828,3.07421 -0.48047,0.73047 -1.16797,1.09375 -2.03906,1.09375 z m 0,0"
     id="path45" />
  <path
     fill-rule="nonzero"
     fill="#262626"
     fill-opacity="1"
     d="m 184.1875,143.96094 c 0,-0.19532 0.0664,-0.36328 0.19531,-0.50391 0.13281,-0.13672 0.3086,-0.21484 0.51953,-0.21484 0.19532,0 0.36328,0.0781 0.50391,0.21484 0.13281,0.14063 0.21094,0.30859 0.21094,0.50391 0,0.20312 -0.0781,0.3789 -0.21094,0.51172 -0.14063,0.13281 -0.30859,0.19921 -0.50391,0.19921 -0.21093,0 -0.38672,-0.0664 -0.51953,-0.19921 -0.1289,-0.13282 -0.19531,-0.29688 -0.19531,-0.51172 z m 0,0"
     id="path46" />
  <path
     fill-rule="nonzero"
     fill="#262626"
     fill-opacity="1"
     d="m 192.85937,137.01953 -3.13671,7.50781 h -0.80469 l 2.99609,-7.17578 h -3.71094 v 0.9961 h -0.625 v -1.87891 h 5.28125 z m 0,0"
     id="path47" />
  <g
     clip-path="url(#clip-12)"
     id="g47">
    <use
       xlink:href="#source-407794"
       transform="translate(230,4)"
       id="use47" />
  </g>
  <path
     fill-rule="nonzero"
     fill="#262626"
     fill-opacity="1"
     d="m 226.73828,144.15234 c 0.55078,0 0.95703,-0.30078 1.23438,-0.91015 0.26171,-0.59375 0.40625,-1.51172 0.40625,-2.73828 0,-1.21875 -0.14454,-2.13672 -0.40625,-2.74219 -0.27735,-0.59375 -0.6836,-0.90625 -1.23438,-0.90625 -0.54687,0 -0.96875,0.3125 -1.23437,0.90625 -0.27344,0.60547 -0.40625,1.52344 -0.40625,2.74219 0,1.22656 0.13281,2.14453 0.40625,2.73828 0.26562,0.60937 0.6875,0.91015 1.23437,0.91015 z m 0,0.51953 c -0.88281,0 -1.5625,-0.36328 -2.04687,-1.09375 -0.48438,-0.73046 -0.72657,-1.74609 -0.72657,-3.07421 0,-1.31641 0.24219,-2.34375 0.72657,-3.07422 0.48437,-0.73047 1.16406,-1.10157 2.04687,-1.10157 0.87109,0 1.55469,0.3711 2.03516,1.10157 0.48437,0.73047 0.73828,1.75781 0.73828,3.07422 0,1.32812 -0.25391,2.34375 -0.73828,3.07421 -0.48047,0.73047 -1.16407,1.09375 -2.03516,1.09375 z m 0,0"
     id="path48" />
  <path
     fill-rule="nonzero"
     fill="#262626"
     fill-opacity="1"
     d="m 231.27344,143.96094 c 0,-0.19532 0.0664,-0.36328 0.19531,-0.50391 0.13281,-0.13672 0.30859,-0.21484 0.51953,-0.21484 0.19531,0 0.36328,0.0781 0.50391,0.21484 0.13281,0.14063 0.21093,0.30859 0.21093,0.50391 0,0.20312 -0.0781,0.3789 -0.21093,0.51172 -0.14063,0.13281 -0.3086,0.19921 -0.50391,0.19921 -0.21094,0 -0.38672,-0.0664 -0.51953,-0.19921 -0.12891,-0.13282 -0.19531,-0.29688 -0.19531,-0.51172 z m 0,0"
     id="path49" />
  <path
     fill-rule="nonzero"
     fill="#262626"
     fill-opacity="1"
     d="m 238.89062,140.91016 c -0.24218,0.28125 -0.52734,0.47656 -0.83593,0.60937 -0.3086,0.13281 -0.66016,0.19922 -1.04688,0.19922 -0.80469,0 -1.43359,-0.23047 -1.89453,-0.71484 -0.46094,-0.48829 -0.68359,-1.14063 -0.68359,-1.98047 0,-0.82032 0.24218,-1.47266 0.75,-1.96094 0.49609,-0.48438 1.16406,-0.73438 2.0039,-0.73438 0.90235,0 1.60938,0.33985 2.08985,1.01563 0.48437,0.68359 0.72656,1.64453 0.72656,2.90625 0,1.41406 -0.29688,2.5 -0.86719,3.27344 -0.57422,0.77343 -1.38672,1.14843 -2.42969,1.14843 -0.29296,0 -0.58984,-0.0352 -0.89843,-0.0781 -0.30469,-0.043 -0.625,-0.12109 -0.95703,-0.23047 v -1.33984 h 0.60546 c 0.0469,0.36718 0.17579,0.64062 0.41797,0.83984 0.23047,0.19922 0.53907,0.28906 0.94141,0.28906 0.69141,0 1.20703,-0.25781 1.55078,-0.78515 0.32813,-0.53125 0.50391,-1.34766 0.52734,-2.45703 z m -1.75,-4.05469 c -0.5039,0 -0.90625,0.1875 -1.16796,0.5625 -0.27735,0.375 -0.41016,0.90625 -0.41016,1.60547 0,0.70703 0.13281,1.23828 0.41016,1.61328 0.26171,0.3789 0.66406,0.55469 1.16796,0.55469 0.50782,0 0.89063,-0.17579 1.16797,-0.54297 0.26172,-0.35547 0.40625,-0.875 0.40625,-1.5586 0,-0.71093 -0.14453,-1.26172 -0.40625,-1.64843 -0.27734,-0.39063 -0.66015,-0.58594 -1.16797,-0.58594 z m 0,0"
     id="path50" />
  <path
     fill-rule="nonzero"
     fill="#262626"
     fill-opacity="1"
     d="m 142.95703,149.33594 -0.47266,2.4375 c 0.77344,0 1.375,0.30468 1.78125,0.90234 0.41016,0.61719 0.50391,1.46094 0.3125,2.53516 -0.21484,1.08593 -0.64843,1.92968 -1.29687,2.53125 -0.63672,0.60547 -1.34766,0.89453 -2.12891,0.89453 L 140.69922,161 h -1.08203 l 0.46875,-2.36328 c -0.79297,0 -1.37891,-0.28906 -1.77735,-0.89453 -0.41797,-0.60157 -0.52734,-1.44532 -0.3125,-2.53125 0.20703,-1.07422 0.63672,-1.91797 1.29688,-2.53516 0.625,-0.59766 1.33203,-0.90234 2.11328,-0.90234 l 0.48047,-2.4375 z m -1.60937,8.34765 c 0.42968,0 0.83984,-0.1914 1.22265,-0.60156 0.41016,-0.44922 0.69922,-1.07422 0.86719,-1.87109 0.14453,-0.78125 0.0977,-1.41016 -0.14453,-1.8711 -0.22656,-0.39453 -0.5625,-0.60156 -1,-0.60156 z m -1.08204,0 0.96094,-4.94531 c -0.44531,0 -0.85156,0.20703 -1.22265,0.60156 -0.4336,0.46094 -0.72266,1.08985 -0.86719,1.8711 -0.15625,0.79687 -0.10547,1.42187 0.14453,1.87109 0.21484,0.41016 0.53906,0.60156 0.98437,0.60156 z m 0,0"
     id="path51" />
  <g
     clip-path="url(#clip-15)"
     id="g51">
    <use
       xlink:href="#source-407797"
       transform="translate(43,126)"
       id="use51" />
  </g>
  <path
     fill-rule="nonzero"
     fill="#262626"
     fill-opacity="1"
     d="m 20.128906,130.40234 c 0.550782,0 0.957032,-0.29687 1.234375,-0.90625 0.261719,-0.59765 0.40625,-1.51171 0.40625,-2.74218 0,-1.21485 -0.144531,-2.13282 -0.40625,-2.73828 -0.277343,-0.59766 -0.683593,-0.90625 -1.234375,-0.90625 -0.546875,0 -0.964844,0.30859 -1.230468,0.90625 -0.273438,0.60546 -0.40625,1.52343 -0.40625,2.73828 0,1.23047 0.132812,2.14453 0.40625,2.74218 0.265624,0.60938 0.683593,0.90625 1.230468,0.90625 z m 0,0.52344 c -0.878906,0 -1.558594,-0.36719 -2.042968,-1.09766 -0.484376,-0.73046 -0.726563,-1.74609 -0.726563,-3.07421 0,-1.3125 0.242187,-2.34375 0.726563,-3.07422 0.484374,-0.72656 1.164062,-1.10156 2.042968,-1.10156 0.871094,0 1.554688,0.375 2.035156,1.10156 0.484376,0.73047 0.738282,1.76172 0.738282,3.07422 0,1.32812 -0.253906,2.34375 -0.738282,3.07421 -0.480468,0.73047 -1.164062,1.09766 -2.035156,1.09766 z m 0,0"
     id="path52" />
  <path
     fill-rule="nonzero"
     fill="#262626"
     fill-opacity="1"
     d="m 24.667969,130.21484 c 0,-0.19531 0.06641,-0.36718 0.195312,-0.50781 0.132813,-0.13281 0.308594,-0.21094 0.519531,-0.21094 0.195313,0 0.363282,0.0781 0.503907,0.21094 0.132812,0.14063 0.210937,0.3125 0.210937,0.50781 0,0.19922 -0.07813,0.375 -0.210937,0.50782 -0.140625,0.13671 -0.308594,0.20312 -0.503907,0.20312 -0.210937,0 -0.386718,-0.0664 -0.519531,-0.20312 -0.128906,-0.13282 -0.195312,-0.29688 -0.195312,-0.50782 z m 0,0"
     id="path53" />
  <path
     fill-rule="nonzero"
     fill="#262626"
     fill-opacity="1"
     d="m 30.628906,130.40234 c 0.550782,0 0.957032,-0.29687 1.234375,-0.90625 0.261719,-0.59765 0.40625,-1.51171 0.40625,-2.74218 0,-1.21485 -0.144531,-2.13282 -0.40625,-2.73828 -0.277343,-0.59766 -0.683593,-0.90625 -1.234375,-0.90625 -0.546875,0 -0.964844,0.30859 -1.230468,0.90625 -0.273438,0.60546 -0.40625,1.52343 -0.40625,2.73828 0,1.23047 0.132812,2.14453 0.40625,2.74218 0.265624,0.60938 0.683593,0.90625 1.230468,0.90625 z m 0,0.52344 c -0.878906,0 -1.558594,-0.36719 -2.042968,-1.09766 -0.484376,-0.73046 -0.726563,-1.74609 -0.726563,-3.07421 0,-1.3125 0.242187,-2.34375 0.726563,-3.07422 0.484374,-0.72656 1.164062,-1.10156 2.042968,-1.10156 0.871094,0 1.554688,0.375 2.035156,1.10156 0.484376,0.73047 0.738282,1.76172 0.738282,3.07422 0,1.32812 -0.253906,2.34375 -0.738282,3.07421 -0.480468,0.73047 -1.164062,1.09766 -2.035156,1.09766 z m 0,0"
     id="path54" />
  <g
     clip-path="url(#clip-18)"
     id="g54">
    <use
       xlink:href="#source-407800"
       transform="translate(43,101)"
       id="use54" />
  </g>
  <path
     fill-rule="nonzero"
     fill="#262626"
     fill-opacity="1"
     d="m 20.128906,105.88672 c 0.550782,0 0.957032,-0.29688 1.234375,-0.90625 0.261719,-0.59766 0.40625,-1.51172 0.40625,-2.74219 0,-1.21484 -0.144531,-2.13281 -0.40625,-2.73828 -0.277343,-0.597656 -0.683593,-0.90625 -1.234375,-0.90625 -0.546875,0 -0.964844,0.308594 -1.230468,0.90625 -0.273438,0.60547 -0.40625,1.52344 -0.40625,2.73828 0,1.23047 0.132812,2.14453 0.40625,2.74219 0.265624,0.60937 0.683593,0.90625 1.230468,0.90625 z m 0,0.52344 c -0.878906,0 -1.558594,-0.36719 -2.042968,-1.09766 -0.484376,-0.73047 -0.726563,-1.74609 -0.726563,-3.07422 0,-1.3125 0.242187,-2.343749 0.726563,-3.074218 C 18.570312,98.4375 19.25,98.0625 20.128906,98.0625 c 0.871094,0 1.554688,0.375 2.035156,1.101562 0.484376,0.730469 0.738282,1.761718 0.738282,3.074218 0,1.32813 -0.253906,2.34375 -0.738282,3.07422 -0.480468,0.73047 -1.164062,1.09766 -2.035156,1.09766 z m 0,0"
     id="path55" />
  <path
     fill-rule="nonzero"
     fill="#262626"
     fill-opacity="1"
     d="m 24.667969,105.69922 c 0,-0.19531 0.06641,-0.36719 0.195312,-0.50781 0.132813,-0.13282 0.308594,-0.21094 0.519531,-0.21094 0.195313,0 0.363282,0.0781 0.503907,0.21094 0.132812,0.14062 0.210937,0.3125 0.210937,0.50781 0,0.19922 -0.07813,0.375 -0.210937,0.50781 -0.140625,0.13672 -0.308594,0.20313 -0.503907,0.20313 -0.210937,0 -0.386718,-0.0664 -0.519531,-0.20313 -0.128906,-0.13281 -0.195312,-0.29687 -0.195312,-0.50781 z m 0,0"
     id="path56" />
  <path
     fill-rule="nonzero"
     fill="#262626"
     fill-opacity="1"
     d="M 28.539062,100.12891 H 27.9375 v -1.437504 c 0.371094,-0.199218 0.757812,-0.355468 1.152344,-0.464844 0.386718,-0.109374 0.769531,-0.164062 1.144531,-0.164062 0.835937,0 1.496094,0.207031 1.980469,0.605469 0.484375,0.410156 0.726562,0.960937 0.726562,1.660161 0,0.79687 -0.550781,1.73437 -1.652344,2.83203 -0.08594,0.0859 -0.140624,0.14062 -0.183593,0.1875 l -2.027344,2.03125 h 3.34375 v -0.9961 h 0.628906 v 1.87891 h -5.171875 v -0.58203 l 2.433594,-2.44531 c 0.527344,-0.53125 0.914062,-1.02735 1.144531,-1.48047 0.230469,-0.45313 0.351563,-0.92578 0.351563,-1.42578 0,-0.542974 -0.144532,-0.960942 -0.429688,-1.273442 -0.285156,-0.308594 -0.671875,-0.460938 -1.15625,-0.460938 -0.515625,0 -0.910156,0.128906 -1.1875,0.382812 -0.285156,0.257813 -0.449218,0.644532 -0.496094,1.152348 z m 0,0"
     id="path57" />
  <g
     clip-path="url(#clip-21)"
     id="g57">
    <use
       xlink:href="#source-407803"
       transform="translate(43,76)"
       id="use57" />
  </g>
  <path
     fill-rule="nonzero"
     fill="#262626"
     fill-opacity="1"
     d="m 20.128906,81.371094 c 0.550782,0 0.957032,-0.296875 1.234375,-0.90625 0.261719,-0.597656 0.40625,-1.511719 0.40625,-2.742188 0,-1.214844 -0.144531,-2.132812 -0.40625,-2.738281 -0.277343,-0.597656 -0.683593,-0.90625 -1.234375,-0.90625 -0.546875,0 -0.964844,0.308594 -1.230468,0.90625 -0.273438,0.605469 -0.40625,1.523437 -0.40625,2.738281 0,1.230469 0.132812,2.144532 0.40625,2.742188 0.265624,0.609375 0.683593,0.90625 1.230468,0.90625 z m 0,0.523437 c -0.878906,0 -1.558594,-0.367187 -2.042968,-1.097656 -0.484376,-0.730469 -0.726563,-1.746094 -0.726563,-3.074219 0,-1.3125 0.242187,-2.34375 0.726563,-3.074218 0.484374,-0.730469 1.164062,-1.101563 2.042968,-1.101563 0.871094,0 1.554688,0.371094 2.035156,1.101563 0.484376,0.730468 0.738282,1.761718 0.738282,3.074218 0,1.328125 -0.253906,2.34375 -0.738282,3.074219 C 21.683594,81.527344 21,81.894531 20.128906,81.894531 Z m 0,0"
     id="path58" />
  <path
     fill-rule="nonzero"
     fill="#262626"
     fill-opacity="1"
     d="m 24.667969,81.183594 c 0,-0.195313 0.06641,-0.367188 0.195312,-0.507813 0.132813,-0.132812 0.308594,-0.210937 0.519531,-0.210937 0.195313,0 0.363282,0.07813 0.503907,0.210937 0.132812,0.140625 0.210937,0.3125 0.210937,0.507813 0,0.199218 -0.07813,0.375 -0.210937,0.507812 -0.140625,0.136719 -0.308594,0.203125 -0.503907,0.203125 -0.210937,0 -0.386718,-0.06641 -0.519531,-0.203125 -0.128906,-0.132812 -0.195312,-0.296875 -0.195312,-0.507812 z m 0,0"
     id="path59" />
  <path
     fill-rule="nonzero"
     fill="#262626"
     fill-opacity="1"
     d="m 30.972656,79.015625 v -4.285156 l -2.738281,4.285156 z m 2.363282,2.730469 h -3.652344 v -0.570313 h 1.289062 V 79.59375 H 27.46875 v -0.585938 l 3.515625,-5.460937 h 1.066406 v 5.46875 h 1.527344 v 0.578125 h -1.527344 v 1.582031 h 1.285157 z m 0,0"
     id="path60" />
  <g
     clip-path="url(#clip-24)"
     id="g60">
    <use
       xlink:href="#source-407806"
       transform="translate(43,51)"
       id="use60" />
  </g>
  <path
     fill-rule="nonzero"
     fill="#262626"
     fill-opacity="1"
     d="m 20.128906,56.855469 c 0.550782,0 0.957032,-0.296875 1.234375,-0.90625 0.261719,-0.597657 0.40625,-1.511719 0.40625,-2.742188 0,-1.214843 -0.144531,-2.132812 -0.40625,-2.738281 -0.277343,-0.597656 -0.683593,-0.90625 -1.234375,-0.90625 -0.546875,0 -0.964844,0.308594 -1.230468,0.90625 -0.273438,0.605469 -0.40625,1.523438 -0.40625,2.738281 0,1.230469 0.132812,2.144531 0.40625,2.742188 0.265624,0.609375 0.683593,0.90625 1.230468,0.90625 z m 0,0.523437 c -0.878906,0 -1.558594,-0.367187 -2.042968,-1.097656 -0.484376,-0.730469 -0.726563,-1.746094 -0.726563,-3.074219 0,-1.3125 0.242187,-2.34375 0.726563,-3.074219 0.484374,-0.730468 1.164062,-1.101562 2.042968,-1.101562 0.871094,0 1.554688,0.371094 2.035156,1.101562 0.484376,0.730469 0.738282,1.761719 0.738282,3.074219 0,1.328125 -0.253906,2.34375 -0.738282,3.074219 C 21.683594,57.011719 21,57.378906 20.128906,57.378906 Z m 0,0"
     id="path61" />
  <path
     fill-rule="nonzero"
     fill="#262626"
     fill-opacity="1"
     d="m 24.667969,56.667969 c 0,-0.199219 0.06641,-0.367188 0.195312,-0.507813 0.132813,-0.132812 0.308594,-0.210937 0.519531,-0.210937 0.195313,0 0.363282,0.07813 0.503907,0.210937 0.132812,0.140625 0.210937,0.308594 0.210937,0.507813 0,0.199219 -0.07813,0.375 -0.210937,0.507812 -0.140625,0.136719 -0.308594,0.203125 -0.503907,0.203125 -0.210937,0 -0.386718,-0.06641 -0.519531,-0.203125 -0.128906,-0.132812 -0.195312,-0.296875 -0.195312,-0.507812 z m 0,0"
     id="path62" />
  <path
     fill-rule="nonzero"
     fill="#262626"
     fill-opacity="1"
     d="m 30.730469,56.855469 c 0.503906,0 0.890625,-0.175781 1.164062,-0.554688 0.265625,-0.371093 0.410157,-0.902343 0.410157,-1.613281 0,-0.695312 -0.144532,-1.222656 -0.410157,-1.601562 -0.273437,-0.375 -0.660156,-0.566407 -1.164062,-0.566407 -0.519531,0 -0.914063,0.191407 -1.175781,0.542969 -0.265626,0.367188 -0.398438,0.886719 -0.398438,1.558594 0,0.71875 0.132812,1.273437 0.40625,1.660156 0.265625,0.386719 0.660156,0.574219 1.167969,0.574219 z m -1.75,-4.054688 c 0.242187,-0.269531 0.515625,-0.476562 0.824219,-0.609375 0.308593,-0.132812 0.648437,-0.199218 1.046874,-0.199218 0.792969,0 1.429688,0.242187 1.890626,0.730468 0.460937,0.484375 0.695312,1.136719 0.695312,1.964844 0,0.820312 -0.253906,1.472656 -0.75,1.960938 -0.503906,0.484374 -1.164062,0.730468 -2,0.730468 -0.902344,0 -1.609375,-0.335937 -2.089844,-1.011718 -0.484375,-0.667969 -0.726562,-1.644532 -0.726562,-2.902344 0,-1.40625 0.285156,-2.503906 0.855468,-3.277344 0.574219,-0.769531 1.386719,-1.15625 2.441407,-1.15625 0.289062,0 0.585937,0.03125 0.894531,0.07422 0.304688,0.05469 0.625,0.132812 0.957031,0.242187 v 1.328125 h -0.605469 c -0.04687,-0.351562 -0.1875,-0.628906 -0.417968,-0.828125 -0.230469,-0.1875 -0.539063,-0.285156 -0.9375,-0.285156 -0.703125,0 -1.21875,0.261719 -1.5625,0.792969 -0.339844,0.53125 -0.515625,1.347656 -0.515625,2.445311 z m 0,0"
     id="path63" />
  <g
     clip-path="url(#clip-27)"
     id="g63">
    <use
       xlink:href="#source-407809"
       transform="translate(43,27)"
       id="use63" />
  </g>
  <path
     fill-rule="nonzero"
     fill="#262626"
     fill-opacity="1"
     d="m 20.128906,32.339844 c 0.550782,0 0.957032,-0.296875 1.234375,-0.90625 0.261719,-0.597656 0.40625,-1.511719 0.40625,-2.742188 0,-1.214844 -0.144531,-2.132812 -0.40625,-2.738281 -0.277343,-0.597656 -0.683593,-0.90625 -1.234375,-0.90625 -0.546875,0 -0.964844,0.308594 -1.230468,0.90625 -0.273438,0.605469 -0.40625,1.523437 -0.40625,2.738281 0,1.230469 0.132812,2.144532 0.40625,2.742188 0.265624,0.609375 0.683593,0.90625 1.230468,0.90625 z m 0,0.523437 c -0.878906,0 -1.558594,-0.367187 -2.042968,-1.097656 -0.484376,-0.730469 -0.726563,-1.746094 -0.726563,-3.074219 0,-1.3125 0.242187,-2.34375 0.726563,-3.074218 0.484374,-0.730469 1.164062,-1.101563 2.042968,-1.101563 0.871094,0 1.554688,0.371094 2.035156,1.101563 0.484376,0.730468 0.738282,1.761718 0.738282,3.074218 0,1.328125 -0.253906,2.34375 -0.738282,3.074219 C 21.683594,32.496094 21,32.863281 20.128906,32.863281 Z m 0,0"
     id="path64" />
  <path
     fill-rule="nonzero"
     fill="#262626"
     fill-opacity="1"
     d="m 24.667969,32.152344 c 0,-0.199219 0.06641,-0.367188 0.195312,-0.507813 0.132813,-0.132812 0.308594,-0.210937 0.519531,-0.210937 0.195313,0 0.363282,0.07813 0.503907,0.210937 0.132812,0.140625 0.210937,0.308594 0.210937,0.507813 0,0.199218 -0.07813,0.375 -0.210937,0.507812 -0.140625,0.136719 -0.308594,0.203125 -0.503907,0.203125 -0.210937,0 -0.386718,-0.06641 -0.519531,-0.203125 -0.128906,-0.132812 -0.195312,-0.296875 -0.195312,-0.507812 z m 0,0"
     id="path65" />
  <path
     fill-rule="nonzero"
     fill="#262626"
     fill-opacity="1"
     d="m 32.257812,30.519531 c 0,-0.578125 -0.140624,-1.019531 -0.429687,-1.339843 -0.285156,-0.320313 -0.691406,-0.488282 -1.199219,-0.488282 -0.515625,0 -0.910156,0.167969 -1.195312,0.488282 -0.289063,0.320312 -0.429688,0.761718 -0.429688,1.339843 0,0.570313 0.140625,1.027344 0.429688,1.34375 0.285156,0.324219 0.679687,0.476563 1.195312,0.476563 0.507813,0 0.914063,-0.152344 1.199219,-0.476563 0.289063,-0.316406 0.429687,-0.773437 0.429687,-1.34375 z m -0.21875,-3.914062 c 0,-0.488281 -0.132812,-0.875 -0.375,-1.152344 -0.253906,-0.265625 -0.59375,-0.40625 -1.035156,-0.40625 -0.4375,0 -0.789062,0.140625 -1.03125,0.40625 -0.253906,0.277344 -0.375,0.664063 -0.375,1.152344 0,0.492187 0.121094,0.882812 0.375,1.148437 0.242188,0.273438 0.59375,0.410156 1.03125,0.410156 0.441406,0 0.78125,-0.136718 1.035156,-0.410156 0.242188,-0.265625 0.375,-0.65625 0.375,-1.148437 z m -0.582031,1.820312 c 0.605469,0.08984 1.078125,0.308594 1.417969,0.675781 0.339844,0.375 0.515625,0.839844 0.515625,1.417969 0,0.75 -0.242187,1.332031 -0.714844,1.734375 -0.484375,0.40625 -1.164062,0.609375 -2.046875,0.609375 -0.890625,0 -1.570312,-0.203125 -2.042968,-0.609375 -0.484376,-0.402344 -0.714844,-0.984375 -0.714844,-1.734375 0,-0.578125 0.164062,-1.042969 0.503906,-1.417969 0.34375,-0.367187 0.816406,-0.585937 1.429688,-0.675781 C 29.253906,28.339844 28.847656,28.128906 28.5625,27.808594 28.277344,27.5 28.132812,27.089844 28.132812,26.605469 c 0,-0.644531 0.222657,-1.152344 0.660157,-1.527344 0.441406,-0.378906 1.058593,-0.5625 1.835937,-0.5625 0.773438,0 1.386719,0.183594 1.828125,0.5625 0.441407,0.375 0.671875,0.882813 0.671875,1.527344 0,0.484375 -0.15625,0.894531 -0.441406,1.203125 -0.285156,0.320312 -0.703125,0.53125 -1.230469,0.617187 z m 0,0"
     id="path66" />
  <g
     clip-path="url(#clip-30)"
     id="g66">
    <use
       xlink:href="#source-407812"
       transform="translate(43,4)"
       id="use66" />
  </g>
  <path
     fill-rule="nonzero"
     fill="#262626"
     fill-opacity="1"
     d="M 18.195312,8.199219 V 7.628906 H 19.59375 V 0.925781 L 17.976562,1.980469 V 1.269531 L 19.933594,0 h 0.734375 v 7.628906 h 1.398437 v 0.570313 z m 0,0"
     id="path67" />
  <path
     fill-rule="nonzero"
     fill="#262626"
     fill-opacity="1"
     d="m 24.667969,7.636719 c 0,-0.199219 0.06641,-0.367188 0.195312,-0.507813 0.132813,-0.132812 0.308594,-0.210937 0.519531,-0.210937 0.195313,0 0.363282,0.078125 0.503907,0.210937 0.132812,0.140625 0.210937,0.308594 0.210937,0.507813 0,0.199219 -0.07813,0.375 -0.210937,0.507812 -0.140625,0.136719 -0.308594,0.203125 -0.503907,0.203125 -0.210937,0 -0.386718,-0.066406 -0.519531,-0.203125 C 24.734375,8.011719 24.667969,7.847656 24.667969,7.636719 Z m 0,0"
     id="path68" />
  <path
     fill-rule="nonzero"
     fill="#262626"
     fill-opacity="1"
     d="m 30.628906,7.824219 c 0.550782,0 0.957032,-0.296875 1.234375,-0.90625 0.261719,-0.597657 0.40625,-1.511719 0.40625,-2.742188 0,-1.214843 -0.144531,-2.132812 -0.40625,-2.738281 -0.277343,-0.597656 -0.683593,-0.90625 -1.234375,-0.90625 -0.546875,0 -0.964844,0.308594 -1.230468,0.90625 -0.273438,0.605469 -0.40625,1.523438 -0.40625,2.738281 0,1.230469 0.132812,2.144531 0.40625,2.742188 0.265624,0.609375 0.683593,0.90625 1.230468,0.90625 z m 0,0.523437 C 29.75,8.347656 29.070312,7.980469 28.585938,7.25 28.101562,6.519531 27.859375,5.503906 27.859375,4.175781 c 0,-1.3125 0.242187,-2.34375 0.726563,-3.074219 C 29.070312,0.371094 29.75,0 30.628906,0 31.5,0 32.183594,0.371094 32.664062,1.101562 c 0.484376,0.730469 0.738282,1.761719 0.738282,3.074219 0,1.328125 -0.253906,2.34375 -0.738282,3.074219 C 32.183594,7.980469 31.5,8.347656 30.628906,8.347656 Z m 0,0"
     id="path69" />
  <path
     fill-rule="nonzero"
     fill="#262626"
     fill-opacity="1"
     d="M 9.125,107.73047 H 8.5 v -1.11719 H 1.070312 v 2.57813 H 2.4375 v 0.72265 H 0.375 v -7.80078 h 2.0625 v 0.72266 H 1.070312 v 2.57812 H 8.5 v -1.11718 h 0.625 z m 0,0"
     id="path70" />
  <path
     fill-rule="nonzero"
     fill="#262626"
     fill-opacity="1"
     d="m 8.71875,99.285156 c 0,-0.574218 -0.230469,-1.011718 -0.6875,-1.3125 -0.453125,-0.289062 -1.125,-0.445312 -2.015625,-0.445312 -0.886719,0 -1.570313,0.15625 -2.027344,0.445312 -0.457031,0.300782 -0.6875,0.738282 -0.6875,1.3125 0,0.582032 0.230469,1.027344 0.6875,1.316404 0.457031,0.30078 1.140625,0.44922 2.027344,0.44922 0.890625,0 1.5625,-0.14844 2.015625,-0.44922 0.457031,-0.28906 0.6875,-0.734372 0.6875,-1.316404 z m 0.5625,0 c 0,0.921874 -0.289062,1.644534 -0.886719,2.195314 C 7.792969,102.03906 7,102.3125 6.003906,102.3125 c -0.984375,0 -1.773437,-0.26172 -2.375,-0.81641 -0.605468,-0.55468 -0.902344,-1.28906 -0.902344,-2.210934 0,-0.914062 0.296876,-1.636718 0.902344,-2.191406 0.601563,-0.554688 1.390625,-0.832031 2.375,-0.832031 0.996094,0 1.789063,0.277343 2.390625,0.832031 0.597657,0.554688 0.886719,1.277344 0.886719,2.191406 z m 0,0"
     id="path71" />
  <path
     fill-rule="nonzero"
     fill="#262626"
     fill-opacity="1"
     d="m 3.519531,94.355469 v 0.953125 h -0.625 V 94.355469 H 0.960938 v -1.085938 h 1.933593 v -2.035156 h 0.625 v 2.035156 h 3.960938 c 0.527343,0 0.875,-0.05078 1.019531,-0.15625 0.144531,-0.09766 0.21875,-0.289062 0.21875,-0.570312 0,-0.273438 -0.085938,-0.476563 -0.253906,-0.609375 C 8.296875,91.8125 8.03125,91.738281 7.660156,91.726562 V 90.90625 c 0.578125,0.03516 0.984375,0.195312 1.238282,0.46875 0.25,0.277344 0.382812,0.703125 0.382812,1.269531 0,0.625 -0.144531,1.070313 -0.410156,1.324219 -0.261719,0.269531 -0.730469,0.386719 -1.390625,0.386719 z m 0,0"
     id="path72" />
  <path
     fill-rule="nonzero"
     fill="#262626"
     fill-opacity="1"
     d="M 7.167969,86.007812 H 5.847656 v 1.402344 c 0,0.542969 0.121094,0.9375 0.347656,1.207032 C 6.4375,88.878906 6.785156,89 7.253906,89 c 0.429688,0 0.777344,-0.132812 1.03125,-0.394531 0.265625,-0.269531 0.382813,-0.628907 0.382813,-1.089844 0,-0.441406 -0.132813,-0.804687 -0.40625,-1.082031 C 7.984375,86.152344 7.625,86.007812 7.167969,86.007812 Z M 5.238281,84.925781 H 8.5 v -0.964843 h 0.625 v 2.046874 H 8.453125 c 0.289063,0.246094 0.503906,0.519532 0.636719,0.832032 0.121094,0.316406 0.191406,0.6875 0.191406,1.101562 0,0.699219 -0.179688,1.25 -0.539062,1.664063 -0.359376,0.40625 -0.863282,0.601562 -1.488282,0.601562 -0.636718,0 -1.128906,-0.230469 -1.488281,-0.699219 C 5.40625,89.046875 5.226562,88.386719 5.226562,87.527344 V 86.007812 H 4.792969 c -0.46875,0 -0.828125,0.144532 -1.09375,0.4375 -0.265625,0.289063 -0.398438,0.699219 -0.398438,1.214844 0,0.4375 0.109375,0.773438 0.304688,1.027344 0.191406,0.265625 0.480469,0.421875 0.863281,0.480469 v 0.558593 H 3.207031 C 3.050781,89.347656 2.929688,88.988281 2.84375,88.628906 2.773438,88.277344 2.726562,87.929688 2.726562,87.589844 c 0,-0.867188 0.214844,-1.519532 0.648438,-1.976563 0.433594,-0.460937 1.046875,-0.6875 1.863281,-0.6875 z m 0,0"
     id="path73" />
  <path
     fill-rule="nonzero"
     fill="#262626"
     fill-opacity="1"
     d="M 8.5,81.148438 V 80.125 h 0.625 v 3.148438 H 8.5 V 82.234375 H 0.625 v 1.039063 H 0 v -2.125 z m 0,0"
     id="path74" />
  <path
     fill-rule="nonzero"
     fill="#262626"
     fill-opacity="1"
     d="M 0.996094,73.816406 7.722656,71.226562 0.996094,68.628906 v 0.988282 H 0.375 v -2.578126 h 0.621094 v 0.855469 L 9.125,71.03125 v 1.015625 l -8.128906,3.121094 v 0.871093 H 0.375 V 72.84375 h 0.621094 z m 0,0"
     id="path75" />
  <path
     fill-rule="nonzero"
     fill="#262626"
     fill-opacity="1"
     d="M 7.167969,63.519531 H 5.847656 v 1.402344 c 0,0.539063 0.121094,0.9375 0.347656,1.203125 0.242188,0.261719 0.589844,0.386719 1.058594,0.386719 0.429688,0 0.777344,-0.136719 1.03125,-0.398438 0.265625,-0.265625 0.382813,-0.628906 0.382813,-1.085937 0,-0.445313 -0.132813,-0.804688 -0.40625,-1.085938 C 7.984375,63.664062 7.625,63.519531 7.167969,63.519531 Z M 5.238281,62.433594 H 8.5 V 61.46875 h 0.625 v 2.050781 H 8.453125 c 0.289063,0.242188 0.503906,0.515625 0.636719,0.832031 0.121094,0.3125 0.191406,0.6875 0.191406,1.097657 0,0.699219 -0.179688,1.253906 -0.539062,1.664062 -0.359376,0.410157 -0.863282,0.601563 -1.488282,0.601563 -0.636718,0 -1.128906,-0.226563 -1.488281,-0.699219 C 5.40625,66.558594 5.226562,65.898438 5.226562,65.039062 V 63.519531 H 4.792969 c -0.46875,0 -0.828125,0.144531 -1.09375,0.433594 -0.265625,0.292969 -0.398438,0.699219 -0.398438,1.21875 0,0.433594 0.109375,0.773437 0.304688,1.023437 0.191406,0.265626 0.480469,0.425782 0.863281,0.484376 v 0.554687 H 3.207031 C 3.050781,66.859375 2.929688,66.5 2.84375,66.136719 2.773438,65.789062 2.726562,65.4375 2.726562,65.101562 c 0,-0.867187 0.214844,-1.519531 0.648438,-1.980468 0.433594,-0.457032 1.046875,-0.6875 1.863281,-0.6875 z m 0,0"
     id="path76" />
  <path
     fill-rule="nonzero"
     fill="#262626"
     fill-opacity="1"
     d="m 2.882812,55.367188 h 1.5625 v 0.625 C 4.132812,56.015625 3.90625,56.101562 3.75,56.25 c -0.144531,0.15625 -0.230469,0.382812 -0.230469,0.671875 0,0.53125 0.195313,0.941406 0.554688,1.230469 0.371093,0.289062 0.898437,0.425781 1.582031,0.425781 H 8.5 v -1.257813 h 0.625 v 3.316407 H 8.5 V 59.660156 H 3.507812 v 1.035156 H 2.894531 V 58.578125 H 4 C 3.570312,58.371094 3.253906,58.105469 3.035156,57.765625 2.832031,57.429688 2.726562,57.019531 2.726562,56.539062 c 0,-0.167968 0.023438,-0.367187 0.046876,-0.558593 0.023437,-0.191407 0.058593,-0.394531 0.109374,-0.613281 z m 0,0"
     id="path77" />
  <path
     fill-rule="nonzero"
     fill="#262626"
     fill-opacity="1"
     d="m 0.960938,54.199219 c -0.179688,0 -0.335938,-0.0625 -0.46875,-0.195313 -0.132813,-0.132812 -0.203126,-0.289062 -0.203126,-0.480468 0,-0.171876 0.070313,-0.328126 0.203126,-0.460938 0.132812,-0.132812 0.289062,-0.203125 0.46875,-0.203125 0.191406,0 0.347656,0.07031 0.46875,0.191406 0.132812,0.132813 0.191406,0.289063 0.191406,0.472657 0,0.191406 -0.058594,0.347656 -0.191406,0.480468 -0.121094,0.132813 -0.277344,0.195313 -0.46875,0.195313 z M 8.5,52.8125 v -1.027344 h 0.625 v 3.144532 H 8.5 V 53.894531 H 3.519531 v 1.035157 h -0.625 V 52.8125 Z m 0,0"
     id="path78" />
  <path
     fill-rule="nonzero"
     fill="#262626"
     fill-opacity="1"
     d="M 7.167969,46.707031 H 5.847656 v 1.402344 c 0,0.539063 0.121094,0.9375 0.347656,1.203125 0.242188,0.265625 0.589844,0.386719 1.058594,0.386719 0.429688,0 0.777344,-0.132813 1.03125,-0.398438 0.265625,-0.265625 0.382813,-0.628906 0.382813,-1.085937 0,-0.445313 -0.132813,-0.804688 -0.40625,-1.085938 C 7.984375,46.851562 7.625,46.707031 7.167969,46.707031 Z M 5.238281,45.625 H 8.5 v -0.96875 h 0.625 v 2.050781 H 8.453125 c 0.289063,0.242188 0.503906,0.519531 0.636719,0.832031 0.121094,0.3125 0.191406,0.6875 0.191406,1.097657 0,0.699219 -0.179688,1.253906 -0.539062,1.667969 -0.359376,0.40625 -0.863282,0.597656 -1.488282,0.597656 -0.636718,0 -1.128906,-0.226563 -1.488281,-0.699219 C 5.40625,49.746094 5.226562,49.085938 5.226562,48.226562 V 46.707031 H 4.792969 c -0.46875,0 -0.828125,0.144531 -1.09375,0.433594 -0.265625,0.292969 -0.398438,0.699219 -0.398438,1.21875 0,0.4375 0.109375,0.773437 0.304688,1.023437 0.191406,0.269532 0.480469,0.425782 0.863281,0.484376 v 0.558593 H 3.207031 C 3.050781,50.046875 2.929688,49.6875 2.84375,49.324219 2.773438,48.976562 2.726562,48.625 2.726562,48.289062 2.726562,47.421875 2.941406,46.769531 3.375,46.308594 3.808594,45.851562 4.421875,45.625 5.238281,45.625 Z m 0,0"
     id="path79" />
  <path
     fill-rule="nonzero"
     fill="#262626"
     fill-opacity="1"
     d="m 3.519531,43.015625 v 0.957031 h -0.625 V 43.015625 H 0.960938 v -1.082031 h 1.933593 v -2.039063 h 0.625 v 2.039063 h 3.960938 c 0.527343,0 0.875,-0.05078 1.019531,-0.15625 0.144531,-0.09766 0.21875,-0.292969 0.21875,-0.570313 0,-0.273437 -0.085938,-0.480469 -0.253906,-0.613281 C 8.296875,40.472656 8.03125,40.402344 7.660156,40.390625 v -0.820313 c 0.578125,0.03516 0.984375,0.191407 1.238282,0.46875 0.25,0.277344 0.382812,0.699219 0.382812,1.265626 0,0.628906 -0.144531,1.070312 -0.410156,1.328124 -0.261719,0.265626 -0.730469,0.382813 -1.390625,0.382813 z m 0,0"
     id="path80" />
  <path
     fill-rule="nonzero"
     fill="#262626"
     fill-opacity="1"
     d="m 0.960938,38.300781 c -0.179688,0 -0.335938,-0.05859 -0.46875,-0.191406 C 0.359375,37.976562 0.289062,37.820312 0.289062,37.625 c 0,-0.167969 0.070313,-0.324219 0.203126,-0.457031 0.132812,-0.132813 0.289062,-0.203125 0.46875,-0.203125 0.191406,0 0.347656,0.07031 0.46875,0.191406 0.132812,0.132812 0.191406,0.289062 0.191406,0.46875 0,0.195312 -0.058594,0.351562 -0.191406,0.484375 -0.121094,0.132813 -0.277344,0.191406 -0.46875,0.191406 z M 8.5,36.917969 v -1.027344 h 0.625 v 3.144531 H 8.5 V 38 H 3.519531 v 1.035156 h -0.625 v -2.117187 z m 0,0"
     id="path81" />
  <path
     fill-rule="nonzero"
     fill="#262626"
     fill-opacity="1"
     d="m 8.71875,31.980469 c 0,-0.574219 -0.230469,-1.011719 -0.6875,-1.3125 -0.453125,-0.289063 -1.125,-0.445313 -2.015625,-0.445313 -0.886719,0 -1.570313,0.15625 -2.027344,0.445313 -0.457031,0.300781 -0.6875,0.738281 -0.6875,1.3125 0,0.582031 0.230469,1.027343 0.6875,1.316406 0.457031,0.300781 1.140625,0.449219 2.027344,0.449219 0.890625,0 1.5625,-0.148438 2.015625,-0.449219 0.457031,-0.289063 0.6875,-0.734375 0.6875,-1.316406 z m 0.5625,0 c 0,0.917969 -0.289062,1.640625 -0.886719,2.195312 C 7.792969,34.734375 7,35.007812 6.003906,35.007812 c -0.984375,0 -1.773437,-0.261718 -2.375,-0.816406 -0.605468,-0.558594 -0.902344,-1.292968 -0.902344,-2.210937 0,-0.914063 0.296876,-1.636719 0.902344,-2.195313 0.601563,-0.550781 1.390625,-0.832031 2.375,-0.832031 0.996094,0 1.789063,0.28125 2.390625,0.832031 0.597657,0.558594 0.886719,1.28125 0.886719,2.195313 z m 0,0"
     id="path82" />
  <path
     fill-rule="nonzero"
     fill="#262626"
     fill-opacity="1"
     d="M 9.125,27.859375 H 8.5 V 26.878906 H 3.519531 v 1.039063 h -0.625 V 25.796875 H 4 C 3.59375,25.605469 3.265625,25.335938 3.050781,25.023438 c -0.21875,-0.3125 -0.324219,-0.6875 -0.324219,-1.121094 0,-0.6875 0.203126,-1.195313 0.585938,-1.519532 0.402344,-0.328124 1.011719,-0.496093 1.851562,-0.496093 H 8.5 v -0.960938 h 0.625 v 2.992188 H 8.5 v -0.945313 h -3 c -0.753906,0 -1.269531,0.09766 -1.558594,0.292969 -0.289062,0.191406 -0.433594,0.515625 -0.433594,0.988281 0,0.507813 0.191407,0.890625 0.554688,1.15625 0.371094,0.265625 0.898438,0.386719 1.59375,0.386719 H 8.5 v -0.941406 h 0.625 z m 0,0"
     id="path83" />
  <path
     fill="none"
     stroke-width="2.00557"
     stroke-linecap="round"
     stroke-linejoin="round"
     stroke="#d65f5f"
     stroke-opacity="1"
     stroke-miterlimit="10"
     d="m 90.734375,56.964844 23.539065,8.472656 23.54687,9.527344 23.54297,6.132812 23.54297,0.382813 23.54297,0.355469 23.54297,-1.328126"
     id="path84" />
  <path
     fill-rule="nonzero"
     fill="#ffffff"
     fill-opacity="1"
     stroke-width="1.25347"
     stroke-linecap="butt"
     stroke-linejoin="round"
     stroke="#d65f5f"
     stroke-opacity="1"
     stroke-miterlimit="10"
     d="m 90.734375,59.980469 c 0.792969,0 1.558594,-0.316407 2.121094,-0.882813 0.5625,-0.566406 0.878906,-1.332031 0.878906,-2.132812 0,-0.796875 -0.316406,-1.566406 -0.878906,-2.128906 -0.5625,-0.566407 -1.328125,-0.882813 -2.121094,-0.882813 -0.796875,0 -1.558594,0.316406 -2.121094,0.882813 -0.562499,0.5625 -0.878906,1.332031 -0.878906,2.128906 0,0.800781 0.316407,1.566406 0.878906,2.132812 0.5625,0.566406 1.324219,0.882813 2.121094,0.882813 z m 0,0"
     id="path85" />
  <path
     fill-rule="nonzero"
     fill="#ffffff"
     fill-opacity="1"
     stroke-width="1.25347"
     stroke-linecap="butt"
     stroke-linejoin="round"
     stroke="#d65f5f"
     stroke-opacity="1"
     stroke-miterlimit="10"
     d="m 114.27344,68.453125 c 0.80078,0 1.56249,-0.316406 2.125,-0.882813 0.5625,-0.566406 0.8789,-1.332031 0.8789,-2.132812 0,-0.800781 -0.3164,-1.566406 -0.8789,-2.132812 -0.56251,-0.5625 -1.32422,-0.882813 -2.125,-0.882813 -0.79297,0 -1.5586,0.320313 -2.1211,0.882813 -0.56249,0.566406 -0.8789,1.332031 -0.8789,2.132812 0,0.800781 0.31641,1.566406 0.8789,2.132812 0.5625,0.566407 1.32813,0.882813 2.1211,0.882813 z m 0,0"
     id="path86" />
  <path
     fill-rule="nonzero"
     fill="#ffffff"
     fill-opacity="1"
     stroke-width="1.25347"
     stroke-linecap="butt"
     stroke-linejoin="round"
     stroke="#d65f5f"
     stroke-opacity="1"
     stroke-miterlimit="10"
     d="m 137.82031,77.980469 c 0.79688,0 1.55859,-0.316407 2.1211,-0.882813 0.5625,-0.566406 0.8789,-1.335937 0.8789,-2.132812 0,-0.800782 -0.3164,-1.566406 -0.8789,-2.128906 -0.56251,-0.566407 -1.32422,-0.882813 -2.1211,-0.882813 -0.79687,0 -1.5586,0.316406 -2.12109,0.882813 -0.56641,0.5625 -0.88282,1.328124 -0.88282,2.128906 0,0.796875 0.31641,1.566406 0.88282,2.132812 0.56249,0.566406 1.32422,0.882813 2.12109,0.882813 z m 0,0"
     id="path87" />
  <path
     fill-rule="nonzero"
     fill="#ffffff"
     fill-opacity="1"
     stroke-width="1.25347"
     stroke-linecap="butt"
     stroke-linejoin="round"
     stroke="#d65f5f"
     stroke-opacity="1"
     stroke-miterlimit="10"
     d="m 161.36328,84.113281 c 0.79297,0 1.55859,-0.316406 2.125,-0.882812 0.5625,-0.566407 0.87891,-1.335938 0.87891,-2.132813 0,-0.800781 -0.31641,-1.566406 -0.87891,-2.132812 -0.56641,-0.5625 -1.33203,-0.882813 -2.125,-0.882813 -0.79687,0 -1.5586,0.320313 -2.12109,0.882813 -0.56251,0.566406 -0.8789,1.332031 -0.8789,2.132812 0,0.796875 0.31639,1.566406 0.8789,2.132813 0.56249,0.566406 1.32422,0.882812 2.12109,0.882812 z m 0,0"
     id="path88" />
  <path
     fill-rule="nonzero"
     fill="#ffffff"
     fill-opacity="1"
     stroke-width="1.25347"
     stroke-linecap="butt"
     stroke-linejoin="round"
     stroke="#d65f5f"
     stroke-opacity="1"
     stroke-miterlimit="10"
     d="m 184.90625,84.492188 c 0.79687,0 1.5625,-0.316407 2.125,-0.882813 0.5625,-0.5625 0.87499,-1.332031 0.87499,-2.128906 0,-0.800781 -0.31249,-1.566407 -0.87499,-2.132813 -0.5625,-0.566406 -1.32813,-0.882812 -2.125,-0.882812 -0.79297,0 -1.5625,0.316406 -2.125,0.882812 -0.5625,0.566406 -0.87891,1.332032 -0.87891,2.132813 0,0.796875 0.31641,1.566406 0.87891,2.128906 0.5625,0.566406 1.33203,0.882813 2.125,0.882813 z m 0,0"
     id="path89" />
  <path
     fill-rule="nonzero"
     fill="#ffffff"
     fill-opacity="1"
     stroke-width="1.25347"
     stroke-linecap="butt"
     stroke-linejoin="round"
     stroke="#d65f5f"
     stroke-opacity="1"
     stroke-miterlimit="10"
     d="m 208.44922,84.851562 c 0.79687,0 1.5586,-0.316406 2.12109,-0.882812 0.5625,-0.566406 0.88282,-1.332031 0.88282,-2.132812 0,-0.800782 -0.32032,-1.566407 -0.88282,-2.132813 -0.56249,-0.5625 -1.32422,-0.882813 -2.12109,-0.882813 -0.79688,0 -1.55859,0.320313 -2.1211,0.882813 -0.5625,0.566406 -0.8789,1.332031 -0.8789,2.132813 0,0.800781 0.3164,1.566406 0.8789,2.132812 0.56251,0.566406 1.32422,0.882812 2.1211,0.882812 z m 0,0"
     id="path90" />
  <path
     fill-rule="nonzero"
     fill="#ffffff"
     fill-opacity="1"
     stroke-width="1.25347"
     stroke-linecap="butt"
     stroke-linejoin="round"
     stroke="#d65f5f"
     stroke-opacity="1"
     stroke-miterlimit="10"
     d="m 231.99219,83.523438 c 0.80078,0 1.5625,-0.316407 2.125,-0.882813 0.5625,-0.566406 0.87891,-1.332031 0.87891,-2.132813 0,-0.800781 -0.31641,-1.566406 -0.87891,-2.128906 -0.5625,-0.566406 -1.32422,-0.882812 -2.125,-0.882812 -0.79688,0 -1.55859,0.316406 -2.1211,0.882812 -0.5625,0.5625 -0.8789,1.328125 -0.8789,2.128906 0,0.800782 0.3164,1.566407 0.8789,2.132813 0.56251,0.566406 1.32422,0.882813 2.1211,0.882813 z m 0,0"
     id="path91" />
  <path
     fill="none"
     stroke-width="0.802227"
     stroke-linecap="square"
     stroke-linejoin="miter"
     stroke="#262626"
     stroke-opacity="1"
     stroke-miterlimit="10"
     d="M 43.644531,126.57813 V 4"
     id="path92" />
  <path
     fill="none"
     stroke-width="0.802227"
     stroke-linecap="square"
     stroke-linejoin="miter"
     stroke="#262626"
     stroke-opacity="1"
     stroke-miterlimit="10"
     d="M 43.644531,126.57813 H 239.0586"
     id="path93" />
</svg>
